<?xml version="1.0" encoding="utf-8"?>
<!-- Generator: Adobe Illustrator 23.1.1, SVG Export Plug-In . SVG Version: 6.00 Build 0)  -->
<svg version="1.1" xmlns="http://www.w3.org/2000/svg" xmlns:xlink="http://www.w3.org/1999/xlink" x="0px" y="0px"
	 viewBox="0 0 3840 2160" style="enable-background:new 0 0 3840 2160;" xml:space="preserve">
<style type="text/css">
	.st0{fill:transparent;}
	.st1{fill:#BA785D;}
	.st2{opacity:0.45;fill:url(#SVGID_1_);}
	.st3{opacity:0.45;fill:url(#SVGID_2_);}
	.st4{opacity:0.45;fill:url(#SVGID_3_);}
	.st5{fill:url(#SVGID_4_);}
	.st6{fill:#B2B2B2;}
	.st7{fill:none;stroke:#50565B;stroke-width:2.8346;stroke-miterlimit:10;}
	.st8{fill:none;stroke:#50565B;stroke-width:2.8346;stroke-linecap:square;stroke-linejoin:round;stroke-miterlimit:10;}
	.st9{fill:#50565B;}
	.st10{opacity:0.5;fill:url(#SVGID_5_);}
	.st11{opacity:0.5;fill:url(#SVGID_6_);}
	.st12{opacity:0.5;fill:url(#SVGID_7_);}
	.st13{fill:url(#SVGID_8_);}
	.st14{fill:url(#SVGID_9_);}
	.st15{opacity:0.45;fill:url(#SVGID_10_);}
	.st16{opacity:0.5;fill:url(#SVGID_11_);}
	.st17{opacity:0.5;fill:url(#SVGID_12_);}
	.st18{opacity:0.5;fill:url(#SVGID_13_);}
	.st19{opacity:0.5;fill:url(#SVGID_14_);}
	.st20{opacity:0.45;fill:url(#SVGID_15_);}
	.st21{opacity:0.45;fill:url(#SVGID_16_);}
	.st22{opacity:0.45;fill:url(#SVGID_17_);}
	.st23{opacity:0.45;fill:url(#SVGID_18_);}
	.st24{fill:url(#SVGID_19_);}
	.st25{fill:url(#SVGID_20_);}
	.st26{fill:#939DA0;}
	.st27{fill:url(#SVGID_21_);}
	.st28{opacity:0.5;fill:url(#SVGID_22_);}
	.st29{opacity:0.5;fill:url(#SVGID_23_);}
	.st30{opacity:0.5;fill:url(#SVGID_24_);}
	.st31{opacity:0.5;fill:url(#SVGID_25_);}
	.st32{opacity:0.45;fill:url(#SVGID_26_);}
	.st33{opacity:0.45;fill:url(#SVGID_27_);}
	.st34{opacity:0.45;fill:url(#SVGID_28_);}
	.st35{fill:url(#SVGID_29_);}
	.st36{fill:url(#SVGID_30_);}
	.st37{fill:url(#SVGID_31_);}
	.st38{fill:url(#SVGID_32_);}
	.st39{opacity:0.5;fill:url(#SVGID_33_);}
	.st40{opacity:0.5;fill:url(#SVGID_34_);}
	.st41{fill:url(#SVGID_35_);}
	.st42{fill:url(#SVGID_36_);}
	.st43{opacity:0.45;fill:url(#SVGID_37_);}
	.st44{opacity:0.5;fill:url(#SVGID_38_);}
	.st45{opacity:0.5;fill:url(#SVGID_39_);}
	.st46{opacity:0.5;fill:url(#SVGID_40_);}
	.st47{opacity:0.5;fill:url(#SVGID_41_);}
	.st48{opacity:0.45;fill:url(#SVGID_42_);}
	.st49{fill:#8E5C4A;}
	.st50{opacity:0.5;fill:url(#SVGID_43_);}
	.st51{opacity:0.5;fill:url(#SVGID_44_);}
	.st52{fill:url(#SVGID_45_);}
	.st53{fill:url(#SVGID_46_);}
	.st54{fill:url(#SVGID_47_);}
	.st55{opacity:0.5;}
	.st56{fill:url(#SVGID_48_);}
	.st57{fill:url(#SVGID_49_);}
	.st58{fill:url(#SVGID_50_);}
	.st59{fill:url(#SVGID_51_);}
	.st60{fill:url(#SVGID_52_);}
	.st61{fill:url(#SVGID_53_);}
	.st62{fill:#B0C1C6;}
	.st63{fill:url(#SVGID_54_);}
	.st64{opacity:0.5;fill:url(#SVGID_55_);}
	.st65{opacity:0.5;fill:url(#SVGID_56_);}
	.st66{opacity:0.5;fill:url(#SVGID_57_);}
	.st67{opacity:0.5;fill:url(#SVGID_58_);}
	.st68{fill:url(#SVGID_59_);}
	.st69{fill:url(#SVGID_60_);}
	.st70{opacity:0.45;fill:url(#SVGID_61_);}
	.st71{opacity:0.45;fill:url(#SVGID_62_);}
	.st72{opacity:0.45;fill:url(#SVGID_63_);}
	.st73{fill:url(#SVGID_64_);}
	.st74{fill:url(#SVGID_65_);}
	.st75{opacity:0.5;fill:url(#SVGID_66_);}
	.st76{opacity:0.5;fill:url(#SVGID_67_);}
	.st77{opacity:0.5;fill:url(#SVGID_68_);}
	.st78{opacity:0.5;fill:url(#SVGID_69_);}
	.st79{fill:url(#SVGID_70_);}
	.st80{fill:url(#SVGID_71_);}
	.st81{opacity:0.5;fill:url(#SVGID_72_);}
	.st82{opacity:0.5;fill:url(#SVGID_73_);}
	.st83{opacity:0.5;fill:url(#SVGID_74_);}
	.st84{opacity:0.5;fill:url(#SVGID_75_);}
	.st85{opacity:0.45;fill:url(#SVGID_76_);}
	.st86{opacity:0.45;fill:url(#SVGID_77_);}
</style>
<g id="Back">
	<rect class="st0" width="3840" height="2160"/>
</g>
<g id="Balconies_Small">
	<g>
		<g>
			<g>
				<polygon class="st1" points="1820,1550 1840,1570 1840,1515 1820,1495 				"/>
				<g>
					<polygon class="st1" points="1700,1495 1820,1495 1820,1600 1720,1600 1700,1580 					"/>
					<linearGradient id="SVGID_1_" gradientUnits="userSpaceOnUse" x1="1710" y1="1545" x2="1750" y2="1545">
						<stop  offset="0" style="stop-color:#828E93"/>
						<stop  offset="1" style="stop-color:#50565B"/>
					</linearGradient>
					<rect x="1710" y="1510" class="st2" width="40" height="70"/>
					<linearGradient id="SVGID_2_" gradientUnits="userSpaceOnUse" x1="1765" y1="1527.5" x2="1805" y2="1527.5">
						<stop  offset="0" style="stop-color:#828E93"/>
						<stop  offset="1" style="stop-color:#50565B"/>
					</linearGradient>
					<rect x="1765" y="1510" class="st3" width="40" height="35"/>
					<linearGradient id="SVGID_3_" gradientUnits="userSpaceOnUse" x1="1710" y1="1545" x2="1715" y2="1545">
						<stop  offset="0" style="stop-color:#828E93"/>
						<stop  offset="1" style="stop-color:#50565B"/>
					</linearGradient>
					<rect x="1710" y="1510" class="st4" width="5" height="70"/>
					<linearGradient id="SVGID_4_" gradientUnits="userSpaceOnUse" x1="1700" y1="1575" x2="1720" y2="1575">
						<stop  offset="1.472383e-03" style="stop-color:#F1F1F1"/>
						<stop  offset="1" style="stop-color:#E5E5E5"/>
					</linearGradient>
					<polygon class="st5" points="1700,1580 1720,1600 1720,1570 1700,1550 					"/>
					<polygon class="st6" points="1820,1580 1840,1600 1840,1570 1820,1550 					"/>
					<g>
						<circle class="st7" cx="1775" cy="1555" r="15"/>
						<circle class="st7" cx="1815" cy="1545" r="15"/>
						<polygon class="st8" points="1765,1550 1772.5,1557.5 1810,1540 						"/>
						<line class="st7" x1="1815" y1="1545" x2="1795" y2="1525"/>
						<line class="st7" x1="1785" y1="1530" x2="1810" y2="1525"/>
						<polygon class="st9" points="1780,1540 1765,1535 1770,1530 1780,1530 1775,1535 						"/>
					</g>
					<rect x="1720" y="1570" class="st0" width="120" height="30"/>
				</g>
				<polygon class="st1" points="1700,1550 1720,1570 1720,1515 1700,1495 				"/>
				<linearGradient id="SVGID_5_" gradientUnits="userSpaceOnUse" x1="1720" y1="1542.5" x2="1755" y2="1542.5">
					<stop  offset="0" style="stop-color:#D1E3E8"/>
					<stop  offset="1" style="stop-color:#FFFFFF"/>
				</linearGradient>
				<rect x="1720" y="1515" class="st10" width="35" height="55"/>
				<linearGradient id="SVGID_6_" gradientUnits="userSpaceOnUse" x1="1760" y1="1542.5" x2="1800" y2="1542.5">
					<stop  offset="0" style="stop-color:#D1E3E8"/>
					<stop  offset="1" style="stop-color:#FFFFFF"/>
				</linearGradient>
				<rect x="1760" y="1515" class="st11" width="40" height="55"/>
				<linearGradient id="SVGID_7_" gradientUnits="userSpaceOnUse" x1="1805" y1="1542.5" x2="1840" y2="1542.5">
					<stop  offset="0" style="stop-color:#D1E3E8"/>
					<stop  offset="1" style="stop-color:#FFFFFF"/>
				</linearGradient>
				<rect x="1805" y="1515" class="st12" width="35" height="55"/>
				<linearGradient id="SVGID_8_" gradientUnits="userSpaceOnUse" x1="1755" y1="1542.5" x2="1760" y2="1542.5">
					<stop  offset="0" style="stop-color:#828E93"/>
					<stop  offset="1" style="stop-color:#3C4044"/>
				</linearGradient>
				<rect x="1755" y="1515" class="st13" width="5" height="55"/>
				<linearGradient id="SVGID_9_" gradientUnits="userSpaceOnUse" x1="1800" y1="1542.5" x2="1805" y2="1542.5">
					<stop  offset="0" style="stop-color:#828E93"/>
					<stop  offset="1" style="stop-color:#3C4044"/>
				</linearGradient>
				<rect x="1800" y="1515" class="st14" width="5" height="55"/>
				<linearGradient id="SVGID_10_" gradientUnits="userSpaceOnUse" x1="1705" y1="1530" x2="1710" y2="1530">
					<stop  offset="0" style="stop-color:#828E93"/>
					<stop  offset="1" style="stop-color:#50565B"/>
				</linearGradient>
				<path class="st15" d="M1707.5,1550L1707.5,1550c-1.38,0-2.5-1.12-2.5-2.5v-35c0-1.38,1.12-2.5,2.5-2.5l0,0
					c1.38,0,2.5,1.12,2.5,2.5v35C1710,1548.88,1708.88,1550,1707.5,1550z"/>
			</g>
			<polygon class="st6" points="1685,1580 1700,1580 1720,1600 1720,1615 			"/>
			<polygon class="st6" points="1720,1615 1855,1615 1840,1600 1720,1600 			"/>
			<linearGradient id="SVGID_11_" gradientUnits="userSpaceOnUse" x1="1705" y1="1570" x2="1710" y2="1570">
				<stop  offset="1.472383e-03" style="stop-color:#F1F1F1"/>
				<stop  offset="1" style="stop-color:#E5E5E5"/>
			</linearGradient>
			<ellipse class="st16" cx="1707.5" cy="1570" rx="2.5" ry="10"/>
			<linearGradient id="SVGID_12_" gradientUnits="userSpaceOnUse" x1="1760" y1="1587.5" x2="1765" y2="1587.5">
				<stop  offset="1.472383e-03" style="stop-color:#F1F1F1"/>
				<stop  offset="1" style="stop-color:#E5E5E5"/>
			</linearGradient>
			<circle class="st17" cx="1762.5" cy="1587.5" r="2.5"/>
			<linearGradient id="SVGID_13_" gradientUnits="userSpaceOnUse" x1="1795" y1="1587.5" x2="1800" y2="1587.5">
				<stop  offset="1.472383e-03" style="stop-color:#F1F1F1"/>
				<stop  offset="1" style="stop-color:#E5E5E5"/>
			</linearGradient>
			<circle class="st18" cx="1797.5" cy="1587.5" r="2.5"/>
			<linearGradient id="SVGID_14_" gradientUnits="userSpaceOnUse" x1="1770" y1="1585" x2="1790" y2="1585">
				<stop  offset="1.472383e-03" style="stop-color:#F1F1F1"/>
				<stop  offset="1" style="stop-color:#E5E5E5"/>
			</linearGradient>
			<circle class="st19" cx="1780" cy="1585" r="10"/>
			<linearGradient id="SVGID_15_" gradientUnits="userSpaceOnUse" x1="1750" y1="1545" x2="1755" y2="1545">
				<stop  offset="0" style="stop-color:#828E93"/>
				<stop  offset="1" style="stop-color:#50565B"/>
			</linearGradient>
			<polygon class="st20" points="1750,1545 1750,1550 1755,1545 1755,1540 			"/>
			<linearGradient id="SVGID_16_" gradientUnits="userSpaceOnUse" x1="1795" y1="1545" x2="1800" y2="1545">
				<stop  offset="0" style="stop-color:#828E93"/>
				<stop  offset="1" style="stop-color:#50565B"/>
			</linearGradient>
			<polygon class="st21" points="1795,1545 1795,1550 1800,1545 1800,1540 			"/>
		</g>
		<g>
			<g>
				<g>
					<polygon class="st1" points="1700,1410 1820,1410 1820,1515 1720,1515 1700,1495 					"/>
					<linearGradient id="SVGID_17_" gradientUnits="userSpaceOnUse" x1="1710" y1="1460" x2="1750" y2="1460">
						<stop  offset="0" style="stop-color:#828E93"/>
						<stop  offset="1" style="stop-color:#50565B"/>
					</linearGradient>
					<rect x="1710" y="1425" class="st22" width="40" height="70"/>
					<linearGradient id="SVGID_18_" gradientUnits="userSpaceOnUse" x1="1765" y1="1442.5" x2="1805" y2="1442.5">
						<stop  offset="0" style="stop-color:#828E93"/>
						<stop  offset="1" style="stop-color:#50565B"/>
					</linearGradient>
					<rect x="1765" y="1425" class="st23" width="40" height="35"/>
					<linearGradient id="SVGID_19_" gradientUnits="userSpaceOnUse" x1="1700" y1="1490" x2="1720" y2="1490">
						<stop  offset="0" style="stop-color:#828E93"/>
						<stop  offset="1" style="stop-color:#3C4044"/>
					</linearGradient>
					<polygon class="st24" points="1700,1495 1720,1515 1720,1485 1700,1465 					"/>
					<polygon class="st6" points="1820,1495 1840,1515 1840,1485 1820,1465 					"/>
					<polygon class="st6" points="1820,1495 1840,1515 1840,1485 1820,1465 					"/>
					<linearGradient id="SVGID_20_" gradientUnits="userSpaceOnUse" x1="1720" y1="1500" x2="1840" y2="1500">
						<stop  offset="0" style="stop-color:#828E93"/>
						<stop  offset="1" style="stop-color:#3C4044"/>
					</linearGradient>
					<rect x="1720" y="1485" class="st25" width="120" height="30"/>
				</g>
			</g>
			<polygon class="st26" points="1685,1495 1700,1495 1720,1515 1720,1530 			"/>
			<linearGradient id="SVGID_21_" gradientUnits="userSpaceOnUse" x1="1720" y1="1522.5" x2="1855" y2="1522.5">
				<stop  offset="1.472383e-03" style="stop-color:#F1F1F1"/>
				<stop  offset="1" style="stop-color:#E5E5E5"/>
			</linearGradient>
			<polygon class="st27" points="1720,1530 1855,1530 1840,1515 1720,1515 			"/>
			<linearGradient id="SVGID_22_" gradientUnits="userSpaceOnUse" x1="1705" y1="1485" x2="1710" y2="1485">
				<stop  offset="1.472383e-03" style="stop-color:#F1F1F1"/>
				<stop  offset="1" style="stop-color:#E5E5E5"/>
			</linearGradient>
			<ellipse class="st28" cx="1707.5" cy="1485" rx="2.5" ry="10"/>
			<linearGradient id="SVGID_23_" gradientUnits="userSpaceOnUse" x1="1760" y1="1502.5" x2="1765" y2="1502.5">
				<stop  offset="1.472383e-03" style="stop-color:#F1F1F1"/>
				<stop  offset="1" style="stop-color:#E5E5E5"/>
			</linearGradient>
			<circle class="st29" cx="1762.5" cy="1502.5" r="2.5"/>
			<linearGradient id="SVGID_24_" gradientUnits="userSpaceOnUse" x1="1795" y1="1502.5" x2="1800" y2="1502.5">
				<stop  offset="1.472383e-03" style="stop-color:#F1F1F1"/>
				<stop  offset="1" style="stop-color:#E5E5E5"/>
			</linearGradient>
			<circle class="st30" cx="1797.5" cy="1502.5" r="2.5"/>
			<linearGradient id="SVGID_25_" gradientUnits="userSpaceOnUse" x1="1770" y1="1500" x2="1790" y2="1500">
				<stop  offset="1.472383e-03" style="stop-color:#F1F1F1"/>
				<stop  offset="1" style="stop-color:#E5E5E5"/>
			</linearGradient>
			<circle class="st31" cx="1780" cy="1500" r="10"/>
		</g>
		<g>
			<g>
				<g>
					<polygon class="st1" points="1700,1325 1820,1325 1820,1430 1720,1430 1700,1410 					"/>
					<linearGradient id="SVGID_26_" gradientUnits="userSpaceOnUse" x1="1710" y1="1375" x2="1750" y2="1375">
						<stop  offset="0" style="stop-color:#828E93"/>
						<stop  offset="1" style="stop-color:#50565B"/>
					</linearGradient>
					<rect x="1710" y="1340" class="st32" width="40" height="70"/>
					<linearGradient id="SVGID_27_" gradientUnits="userSpaceOnUse" x1="1765" y1="1357.5" x2="1805" y2="1357.5">
						<stop  offset="0" style="stop-color:#828E93"/>
						<stop  offset="1" style="stop-color:#50565B"/>
					</linearGradient>
					<rect x="1765" y="1340" class="st33" width="40" height="35"/>
					<linearGradient id="SVGID_28_" gradientUnits="userSpaceOnUse" x1="1710" y1="1375" x2="1715" y2="1375">
						<stop  offset="0" style="stop-color:#828E93"/>
						<stop  offset="1" style="stop-color:#50565B"/>
					</linearGradient>
					<rect x="1710" y="1340" class="st34" width="5" height="70"/>
					<linearGradient id="SVGID_29_" gradientUnits="userSpaceOnUse" x1="1700" y1="1405" x2="1720" y2="1405">
						<stop  offset="0" style="stop-color:#828E93"/>
						<stop  offset="1" style="stop-color:#3C4044"/>
					</linearGradient>
					<polygon class="st35" points="1700,1410 1720,1430 1720,1400 1700,1380 					"/>
					<polygon class="st6" points="1820,1410 1840,1430 1840,1400 1820,1380 					"/>
					<polygon class="st6" points="1820,1410 1840,1430 1840,1400 1820,1380 					"/>
					<linearGradient id="SVGID_30_" gradientUnits="userSpaceOnUse" x1="1720" y1="1415" x2="1840" y2="1415">
						<stop  offset="0" style="stop-color:#828E93"/>
						<stop  offset="1" style="stop-color:#3C4044"/>
					</linearGradient>
					<rect x="1720" y="1400" class="st36" width="120" height="30"/>
				</g>
				<linearGradient id="SVGID_31_" gradientUnits="userSpaceOnUse" x1="1700" y1="1362.5" x2="1720" y2="1362.5">
					<stop  offset="0" style="stop-color:#828E93"/>
					<stop  offset="1" style="stop-color:#3C4044"/>
				</linearGradient>
				<polygon class="st37" points="1700,1380 1720,1400 1720,1345 1700,1325 				"/>
				<linearGradient id="SVGID_32_" gradientUnits="userSpaceOnUse" x1="1820" y1="1362.5" x2="1840" y2="1362.5">
					<stop  offset="0" style="stop-color:#828E93"/>
					<stop  offset="1" style="stop-color:#3C4044"/>
				</linearGradient>
				<polygon class="st38" points="1820,1380 1840,1400 1840,1345 1820,1325 				"/>
				<linearGradient id="SVGID_33_" gradientUnits="userSpaceOnUse" x1="1720" y1="1372.5" x2="1755" y2="1372.5">
					<stop  offset="0" style="stop-color:#D1E3E8"/>
					<stop  offset="1" style="stop-color:#FFFFFF"/>
				</linearGradient>
				<rect x="1720" y="1345" class="st39" width="35" height="55"/>
				<linearGradient id="SVGID_34_" gradientUnits="userSpaceOnUse" x1="1805" y1="1372.5" x2="1840" y2="1372.5">
					<stop  offset="0" style="stop-color:#D1E3E8"/>
					<stop  offset="1" style="stop-color:#FFFFFF"/>
				</linearGradient>
				<rect x="1805" y="1345" class="st40" width="35" height="55"/>
				<linearGradient id="SVGID_35_" gradientUnits="userSpaceOnUse" x1="1755" y1="1372.5" x2="1760" y2="1372.5">
					<stop  offset="0" style="stop-color:#828E93"/>
					<stop  offset="1" style="stop-color:#3C4044"/>
				</linearGradient>
				<rect x="1755" y="1345" class="st41" width="5" height="55"/>
				<linearGradient id="SVGID_36_" gradientUnits="userSpaceOnUse" x1="1800" y1="1372.5" x2="1805" y2="1372.5">
					<stop  offset="0" style="stop-color:#828E93"/>
					<stop  offset="1" style="stop-color:#3C4044"/>
				</linearGradient>
				<rect x="1800" y="1345" class="st42" width="5" height="55"/>
				<linearGradient id="SVGID_37_" gradientUnits="userSpaceOnUse" x1="1705" y1="1360" x2="1710" y2="1360">
					<stop  offset="0" style="stop-color:#828E93"/>
					<stop  offset="1" style="stop-color:#50565B"/>
				</linearGradient>
				<path class="st43" d="M1707.5,1380L1707.5,1380c-1.38,0-2.5-1.12-2.5-2.5v-35c0-1.38,1.12-2.5,2.5-2.5l0,0
					c1.38,0,2.5,1.12,2.5,2.5v35C1710,1378.88,1708.88,1380,1707.5,1380z"/>
			</g>
			<polygon class="st0" points="1695,1410 1700,1410 1720,1430 1720,1435 			"/>
			<polygon class="st0" points="1720,1435 1845,1435 1840,1430 1720,1430 			"/>
			<linearGradient id="SVGID_38_" gradientUnits="userSpaceOnUse" x1="1705" y1="1400" x2="1710" y2="1400">
				<stop  offset="1.472383e-03" style="stop-color:#F1F1F1"/>
				<stop  offset="1" style="stop-color:#E5E5E5"/>
			</linearGradient>
			<ellipse class="st44" cx="1707.5" cy="1400" rx="2.5" ry="10"/>
			<linearGradient id="SVGID_39_" gradientUnits="userSpaceOnUse" x1="1760" y1="1417.5" x2="1765" y2="1417.5">
				<stop  offset="1.472383e-03" style="stop-color:#F1F1F1"/>
				<stop  offset="1" style="stop-color:#E5E5E5"/>
			</linearGradient>
			<circle class="st45" cx="1762.5" cy="1417.5" r="2.5"/>
			<linearGradient id="SVGID_40_" gradientUnits="userSpaceOnUse" x1="1795" y1="1417.5" x2="1800" y2="1417.5">
				<stop  offset="1.472383e-03" style="stop-color:#F1F1F1"/>
				<stop  offset="1" style="stop-color:#E5E5E5"/>
			</linearGradient>
			<circle class="st46" cx="1797.5" cy="1417.5" r="2.5"/>
			<linearGradient id="SVGID_41_" gradientUnits="userSpaceOnUse" x1="1770" y1="1415" x2="1790" y2="1415">
				<stop  offset="1.472383e-03" style="stop-color:#F1F1F1"/>
				<stop  offset="1" style="stop-color:#E5E5E5"/>
			</linearGradient>
			<circle class="st47" cx="1780" cy="1415" r="10"/>
			<linearGradient id="SVGID_42_" gradientUnits="userSpaceOnUse" x1="1750" y1="1375" x2="1755" y2="1375">
				<stop  offset="0" style="stop-color:#828E93"/>
				<stop  offset="1" style="stop-color:#50565B"/>
			</linearGradient>
			<polygon class="st48" points="1750,1375 1750,1380 1755,1375 1755,1370 			"/>
		</g>
		<g>
			<g>
				<g>
					<polygon class="st1" points="1700,1240 1820,1240 1820,1345 1720,1345 1700,1325 					"/>
					<rect x="1710" y="1255" class="st49" width="40" height="70"/>
					<linearGradient id="SVGID_43_" gradientUnits="userSpaceOnUse" x1="1765" y1="1272.5" x2="1805" y2="1272.5">
						<stop  offset="1.472383e-03" style="stop-color:#D1E3E8"/>
						<stop  offset="1" style="stop-color:#828E93"/>
					</linearGradient>
					<rect x="1765" y="1255" class="st50" width="40" height="35"/>
					<linearGradient id="SVGID_44_" gradientUnits="userSpaceOnUse" x1="1770" y1="1272.5" x2="1805" y2="1272.5">
						<stop  offset="1.472383e-03" style="stop-color:#D1E3E8"/>
						<stop  offset="1" style="stop-color:#828E93"/>
					</linearGradient>
					<rect x="1770" y="1255" class="st51" width="35" height="35"/>
					<polygon class="st26" points="1700,1325 1720,1345 1720,1315 1700,1295 					"/>
					<polygon class="st6" points="1820,1325 1840,1345 1840,1315 1820,1295 					"/>
					<polygon class="st6" points="1820,1325 1840,1345 1840,1315 1820,1295 					"/>
					<g>
						<linearGradient id="SVGID_45_" gradientUnits="userSpaceOnUse" x1="1797.0359" y1="1300" x2="1827.0359" y2="1300">
							<stop  offset="0" style="stop-color:#828E93"/>
							<stop  offset="1" style="stop-color:#50565B"/>
						</linearGradient>
						<polygon class="st52" points="1797.04,1295 1807.04,1305 1827.04,1305 1817.04,1295 						"/>
						<linearGradient id="SVGID_46_" gradientUnits="userSpaceOnUse" x1="1797.0359" y1="1310" x2="1807.0359" y2="1310">
							<stop  offset="0" style="stop-color:#828E93"/>
							<stop  offset="1" style="stop-color:#50565B"/>
						</linearGradient>
						<polygon class="st53" points="1797.04,1295 1797.04,1315 1807.04,1325 1807.04,1305 						"/>
						<linearGradient id="SVGID_47_" gradientUnits="userSpaceOnUse" x1="1807.0359" y1="1315" x2="1827.0359" y2="1315">
							<stop  offset="0" style="stop-color:#828E93"/>
							<stop  offset="1" style="stop-color:#50565B"/>
						</linearGradient>
						<rect x="1807.04" y="1305" class="st54" width="20" height="20"/>
					</g>
					<g class="st55">
						<linearGradient id="SVGID_48_" gradientUnits="userSpaceOnUse" x1="1780" y1="1297.5" x2="1795" y2="1297.5">
							<stop  offset="1.472383e-03" style="stop-color:#D1E3E8"/>
							<stop  offset="1" style="stop-color:#828E93"/>
						</linearGradient>
						<polygon class="st56" points="1780,1295 1785,1300 1795,1300 1790,1295 						"/>
						<linearGradient id="SVGID_49_" gradientUnits="userSpaceOnUse" x1="1780" y1="1302.5" x2="1785" y2="1302.5">
							<stop  offset="1.472383e-03" style="stop-color:#D1E3E8"/>
							<stop  offset="1" style="stop-color:#828E93"/>
						</linearGradient>
						<polygon class="st57" points="1780,1295 1780,1305 1785,1310 1785,1300 						"/>
						<linearGradient id="SVGID_50_" gradientUnits="userSpaceOnUse" x1="1785" y1="1305" x2="1795" y2="1305">
							<stop  offset="1.472383e-03" style="stop-color:#D1E3E8"/>
							<stop  offset="1" style="stop-color:#828E93"/>
						</linearGradient>
						<rect x="1785" y="1300" class="st58" width="10" height="10"/>
					</g>
					<g>
						<linearGradient id="SVGID_51_" gradientUnits="userSpaceOnUse" x1="1770" y1="1305" x2="1800" y2="1305">
							<stop  offset="0" style="stop-color:#FCEBA2"/>
							<stop  offset="1" style="stop-color:#BAA138"/>
						</linearGradient>
						<polygon class="st59" points="1770,1300 1780,1310 1800,1310 1790,1300 						"/>
						<linearGradient id="SVGID_52_" gradientUnits="userSpaceOnUse" x1="1770" y1="1315" x2="1780" y2="1315">
							<stop  offset="0" style="stop-color:#FCEBA2"/>
							<stop  offset="1" style="stop-color:#BAA138"/>
						</linearGradient>
						<polygon class="st60" points="1770,1300 1770,1320 1780,1330 1780,1310 						"/>
						<linearGradient id="SVGID_53_" gradientUnits="userSpaceOnUse" x1="1780" y1="1320" x2="1800" y2="1320">
							<stop  offset="0" style="stop-color:#FCEBA2"/>
							<stop  offset="1" style="stop-color:#BAA138"/>
						</linearGradient>
						<rect x="1780" y="1310" class="st61" width="20" height="20"/>
					</g>
					<rect x="1720" y="1315" class="st62" width="120" height="30"/>
				</g>
			</g>
			<linearGradient id="SVGID_54_" gradientUnits="userSpaceOnUse" x1="1685" y1="1342.5" x2="1720" y2="1342.5">
				<stop  offset="0" style="stop-color:#828E93"/>
				<stop  offset="1" style="stop-color:#50565B"/>
			</linearGradient>
			<polygon class="st63" points="1685,1325 1700,1325 1720,1345 1720,1360 			"/>
			<polygon class="st26" points="1720,1360 1855,1360 1840,1345 1720,1345 			"/>
			<linearGradient id="SVGID_55_" gradientUnits="userSpaceOnUse" x1="1705" y1="1315" x2="1710" y2="1315">
				<stop  offset="1.472383e-03" style="stop-color:#F1F1F1"/>
				<stop  offset="1" style="stop-color:#E5E5E5"/>
			</linearGradient>
			<ellipse class="st64" cx="1707.5" cy="1315" rx="2.5" ry="10"/>
			<linearGradient id="SVGID_56_" gradientUnits="userSpaceOnUse" x1="1760" y1="1332.5" x2="1765" y2="1332.5">
				<stop  offset="1.472383e-03" style="stop-color:#F1F1F1"/>
				<stop  offset="1" style="stop-color:#E5E5E5"/>
			</linearGradient>
			<circle class="st65" cx="1762.5" cy="1332.5" r="2.5"/>
			<linearGradient id="SVGID_57_" gradientUnits="userSpaceOnUse" x1="1795" y1="1332.5" x2="1800" y2="1332.5">
				<stop  offset="1.472383e-03" style="stop-color:#F1F1F1"/>
				<stop  offset="1" style="stop-color:#E5E5E5"/>
			</linearGradient>
			<circle class="st66" cx="1797.5" cy="1332.5" r="2.5"/>
			<linearGradient id="SVGID_58_" gradientUnits="userSpaceOnUse" x1="1770" y1="1330" x2="1790" y2="1330">
				<stop  offset="1.472383e-03" style="stop-color:#F1F1F1"/>
				<stop  offset="1" style="stop-color:#E5E5E5"/>
			</linearGradient>
			<circle class="st67" cx="1780" cy="1330" r="10"/>
		</g>
		<linearGradient id="SVGID_59_" gradientUnits="userSpaceOnUse" x1="1765" y1="1422.5" x2="1800" y2="1422.5">
			<stop  offset="0" style="stop-color:#D1E3E8"/>
			<stop  offset="1" style="stop-color:#FFFFFF"/>
		</linearGradient>
		<polygon class="st68" points="1800,1400 1790,1415 1790,1435 1785,1445 1765,1440 1775,1410 1785,1400 		"/>
		<linearGradient id="SVGID_60_" gradientUnits="userSpaceOnUse" x1="1730" y1="1422.5" x2="1800" y2="1422.5">
			<stop  offset="0" style="stop-color:#F77A61"/>
			<stop  offset="1" style="stop-color:#C15F4F"/>
		</linearGradient>
		<polygon class="st69" points="1760,1400 1770,1395 1800,1395 1800,1400 1785,1410 1780,1430 1775,1435 1755,1450 1730,1430 
			1745,1420 		"/>
		<g>
			<g>
				<g>
					<g>
						<polygon class="st1" points="1700,1155 1820,1155 1820,1260 1720,1260 1700,1240 						"/>
						<linearGradient id="SVGID_61_" gradientUnits="userSpaceOnUse" x1="1710" y1="1205" x2="1750" y2="1205">
							<stop  offset="0" style="stop-color:#828E93"/>
							<stop  offset="1" style="stop-color:#50565B"/>
						</linearGradient>
						<rect x="1710" y="1170" class="st70" width="40" height="70"/>
						<linearGradient id="SVGID_62_" gradientUnits="userSpaceOnUse" x1="1765" y1="1187.5" x2="1805" y2="1187.5">
							<stop  offset="0" style="stop-color:#828E93"/>
							<stop  offset="1" style="stop-color:#50565B"/>
						</linearGradient>
						<rect x="1765" y="1170" class="st71" width="40" height="35"/>
						<linearGradient id="SVGID_63_" gradientUnits="userSpaceOnUse" x1="1710" y1="1205" x2="1715" y2="1205">
							<stop  offset="0" style="stop-color:#828E93"/>
							<stop  offset="1" style="stop-color:#50565B"/>
						</linearGradient>
						<rect x="1710" y="1170" class="st72" width="5" height="70"/>
						<linearGradient id="SVGID_64_" gradientUnits="userSpaceOnUse" x1="1700" y1="1235" x2="1720" y2="1235">
							<stop  offset="0" style="stop-color:#828E93"/>
							<stop  offset="1" style="stop-color:#3C4044"/>
						</linearGradient>
						<polygon class="st73" points="1700,1240 1720,1260 1720,1230 1700,1210 						"/>
						<polygon class="st6" points="1820,1240 1840,1260 1840,1230 1820,1210 						"/>
						<polygon class="st6" points="1820,1240 1840,1260 1840,1230 1820,1210 						"/>
						<linearGradient id="SVGID_65_" gradientUnits="userSpaceOnUse" x1="1720" y1="1245" x2="1840" y2="1245">
							<stop  offset="0" style="stop-color:#828E93"/>
							<stop  offset="1" style="stop-color:#3C4044"/>
						</linearGradient>
						<rect x="1720" y="1230" class="st74" width="120" height="30"/>
					</g>
					<linearGradient id="SVGID_66_" gradientUnits="userSpaceOnUse" x1="1700" y1="1192.5" x2="1720" y2="1192.5">
						<stop  offset="0" style="stop-color:#D1E3E8"/>
						<stop  offset="1" style="stop-color:#FFFFFF"/>
					</linearGradient>
					<polygon class="st75" points="1700,1210 1720,1230 1720,1175 1700,1155 					"/>
					<polygon class="st1" points="1820,1210 1840,1230 1840,1175 1820,1155 					"/>
					<linearGradient id="SVGID_67_" gradientUnits="userSpaceOnUse" x1="1720" y1="1202.5" x2="1755" y2="1202.5">
						<stop  offset="0" style="stop-color:#D1E3E8"/>
						<stop  offset="1" style="stop-color:#FFFFFF"/>
					</linearGradient>
					<rect x="1720" y="1175" class="st76" width="35" height="55"/>
					<linearGradient id="SVGID_68_" gradientUnits="userSpaceOnUse" x1="1760" y1="1202.5" x2="1800" y2="1202.5">
						<stop  offset="0" style="stop-color:#D1E3E8"/>
						<stop  offset="1" style="stop-color:#FFFFFF"/>
					</linearGradient>
					<rect x="1760" y="1175" class="st77" width="40" height="55"/>
					<linearGradient id="SVGID_69_" gradientUnits="userSpaceOnUse" x1="1805" y1="1202.5" x2="1840" y2="1202.5">
						<stop  offset="0" style="stop-color:#D1E3E8"/>
						<stop  offset="1" style="stop-color:#FFFFFF"/>
					</linearGradient>
					<rect x="1805" y="1175" class="st78" width="35" height="55"/>
					<linearGradient id="SVGID_70_" gradientUnits="userSpaceOnUse" x1="1755" y1="1202.5" x2="1760" y2="1202.5">
						<stop  offset="0" style="stop-color:#828E93"/>
						<stop  offset="1" style="stop-color:#3C4044"/>
					</linearGradient>
					<rect x="1755" y="1175" class="st79" width="5" height="55"/>
					<linearGradient id="SVGID_71_" gradientUnits="userSpaceOnUse" x1="1800" y1="1202.5" x2="1805" y2="1202.5">
						<stop  offset="0" style="stop-color:#828E93"/>
						<stop  offset="1" style="stop-color:#3C4044"/>
					</linearGradient>
					<rect x="1800" y="1175" class="st80" width="5" height="55"/>
				</g>
				<polygon class="st0" points="1695,1240 1700,1240 1720,1260 1720,1265 				"/>
				<polygon class="st0" points="1720,1265 1845,1265 1840,1260 1720,1260 				"/>
				<linearGradient id="SVGID_72_" gradientUnits="userSpaceOnUse" x1="1705" y1="1230" x2="1710" y2="1230">
					<stop  offset="1.472383e-03" style="stop-color:#F1F1F1"/>
					<stop  offset="1" style="stop-color:#E5E5E5"/>
				</linearGradient>
				<ellipse class="st81" cx="1707.5" cy="1230" rx="2.5" ry="10"/>
				<linearGradient id="SVGID_73_" gradientUnits="userSpaceOnUse" x1="1760" y1="1247.5" x2="1765" y2="1247.5">
					<stop  offset="1.472383e-03" style="stop-color:#F1F1F1"/>
					<stop  offset="1" style="stop-color:#E5E5E5"/>
				</linearGradient>
				<circle class="st82" cx="1762.5" cy="1247.5" r="2.5"/>
				<linearGradient id="SVGID_74_" gradientUnits="userSpaceOnUse" x1="1795" y1="1247.5" x2="1800" y2="1247.5">
					<stop  offset="1.472383e-03" style="stop-color:#F1F1F1"/>
					<stop  offset="1" style="stop-color:#E5E5E5"/>
				</linearGradient>
				<circle class="st83" cx="1797.5" cy="1247.5" r="2.5"/>
				<linearGradient id="SVGID_75_" gradientUnits="userSpaceOnUse" x1="1770" y1="1245" x2="1790" y2="1245">
					<stop  offset="1.472383e-03" style="stop-color:#F1F1F1"/>
					<stop  offset="1" style="stop-color:#E5E5E5"/>
				</linearGradient>
				<circle class="st84" cx="1780" cy="1245" r="10"/>
				<linearGradient id="SVGID_76_" gradientUnits="userSpaceOnUse" x1="1750" y1="1205" x2="1755" y2="1205">
					<stop  offset="0" style="stop-color:#828E93"/>
					<stop  offset="1" style="stop-color:#50565B"/>
				</linearGradient>
				<polygon class="st85" points="1750,1205 1750,1210 1755,1205 1755,1200 				"/>
				<linearGradient id="SVGID_77_" gradientUnits="userSpaceOnUse" x1="1795" y1="1205" x2="1800" y2="1205">
					<stop  offset="0" style="stop-color:#828E93"/>
					<stop  offset="1" style="stop-color:#50565B"/>
				</linearGradient>
				<polygon class="st86" points="1795,1205 1795,1210 1800,1205 1800,1200 				"/>
			</g>
			<polygon class="st26" points="1680,1155 1720,1195 1860,1195 1870,1195 1830,1155 			"/>
		</g>
	</g>
</g>
</svg>
