<?xml version="1.0" encoding="utf-8"?>
<!-- Generator: Adobe Illustrator 23.1.1, SVG Export Plug-In . SVG Version: 6.00 Build 0)  -->
<svg version="1.1" xmlns="http://www.w3.org/2000/svg" xmlns:xlink="http://www.w3.org/1999/xlink" x="0px" y="0px"
	 viewBox="0 0 3840 2160" style="enable-background:new 0 0 3840 2160;" xml:space="preserve">
<style type="text/css">
	.st0{fill:transparent;}
	.st1{fill:#CBCBCB;}
	.st2{fill:#E5E5E5;}
	.st3{fill:#B2B2B2;}
	.st4{fill:#989898;}
	.st5{fill:url(#SVGID_1_);}
	.st6{fill:url(#SVGID_2_);}
	.st7{fill:url(#SVGID_3_);}
	.st8{fill:url(#SVGID_4_);}
	.st9{fill:url(#SVGID_5_);}
	.st10{fill:url(#SVGID_6_);}
	.st11{fill:url(#SVGID_7_);}
	.st12{fill:url(#SVGID_8_);}
</style>
<g id="Back">
	<rect class="st0" width="3840" height="2160"/>
</g>
<g id="Childplace">
	<path class="st1" d="M836.77,1470h43.43c4.27,0,6.41-5.16,3.39-8.18l-25.41-25.41c-0.9-0.9-2.12-1.4-3.39-1.4h-41.44
		c-4.27,0-6.41,5.16-3.39,8.18L836.77,1470"/>
	<path class="st2" d="M676.77,1405h43.43c4.27,0,6.41-5.16,3.39-8.18l-25.41-25.41c-0.9-0.9-2.12-1.4-3.39-1.4h-41.44
		c-4.27,0-6.41,5.16-3.39,8.18L676.77,1405"/>
	<path class="st3" d="M723.45,1320h-64.69c-6.92,0-10.39,8.37-5.49,13.26l88.29,88.29c11.81,11.81,27.83,18.45,44.53,18.45h55.16
		c6.92,0,10.39-8.37,5.49-13.26l-95.03-95.03C744.21,1324.21,734.05,1320,723.45,1320z"/>
	<polygon class="st3" points="790,1440 620,1440 580,1400 750,1400 	"/>
	<path class="st4" d="M872.11,1510H771.25c-10.41,0-20.39-4.13-27.75-11.49L685,1440h85l-9.79-9.79c-1.92-1.92-0.56-5.21,2.16-5.21
		h22.33c9.8,0,19.2,3.89,26.13,10.82L815,1440l60.89,60.89C879.25,1504.25,876.87,1510,872.11,1510z"/>
	<g>
		<polygon class="st0" points="715,1455 735,1395 755,1415 755,1495 750,1490 750,1420 740,1410 735,1410 720,1455 		"/>
		<polygon class="st0" points="745,1455 765,1395 785,1415 785,1495 780,1490 780,1420 770,1410 765,1410 750,1455 		"/>
		<rect x="745" y="1405" class="st0" width="30" height="5"/>
	</g>
	<g>
		<polygon class="st0" points="780,1455 800,1395 820,1415 820,1495 815,1490 815,1420 805,1410 800,1410 785,1455 		"/>
		<polygon class="st0" points="810,1455 830,1395 850,1415 850,1495 845,1490 845,1420 835,1410 830,1410 815,1455 		"/>
		<rect x="810" y="1405" class="st0" width="30" height="5"/>
	</g>
	<g>
		<linearGradient id="SVGID_1_" gradientUnits="userSpaceOnUse" x1="665" y1="1320" x2="670" y2="1320">
			<stop  offset="0" style="stop-color:#F77A61"/>
			<stop  offset="1" style="stop-color:#C15F4F"/>
		</linearGradient>
		<polygon class="st5" points="665,1335 665,1300 670,1300 670,1340 		"/>
		<g>
			<g>
				<linearGradient id="SVGID_2_" gradientUnits="userSpaceOnUse" x1="670" y1="1312.5" x2="695" y2="1312.5">
					<stop  offset="0" style="stop-color:#F77A61"/>
					<stop  offset="1" style="stop-color:#C15F4F"/>
				</linearGradient>
				<rect x="670" y="1310" class="st6" width="25" height="5"/>
				<linearGradient id="SVGID_3_" gradientUnits="userSpaceOnUse" x1="670" y1="1322.5" x2="695" y2="1322.5">
					<stop  offset="0" style="stop-color:#F77A61"/>
					<stop  offset="1" style="stop-color:#C15F4F"/>
				</linearGradient>
				<rect x="670" y="1320" class="st7" width="25" height="5"/>
				<linearGradient id="SVGID_4_" gradientUnits="userSpaceOnUse" x1="670" y1="1332.5" x2="695" y2="1332.5">
					<stop  offset="0" style="stop-color:#F77A61"/>
					<stop  offset="1" style="stop-color:#C15F4F"/>
				</linearGradient>
				<rect x="670" y="1330" class="st8" width="25" height="5"/>
			</g>
			<linearGradient id="SVGID_5_" gradientUnits="userSpaceOnUse" x1="670" y1="1335" x2="730" y2="1335">
				<stop  offset="0" style="stop-color:#F77A61"/>
				<stop  offset="1" style="stop-color:#C15F4F"/>
			</linearGradient>
			<polyline class="st9" points="670,1300 685,1310 700,1370 730,1370 710,1310 695,1300 670,1300 			"/>
			<linearGradient id="SVGID_6_" gradientUnits="userSpaceOnUse" x1="690" y1="1297.5" x2="710" y2="1297.5">
				<stop  offset="0" style="stop-color:#F77A61"/>
				<stop  offset="1" style="stop-color:#C15F4F"/>
			</linearGradient>
			<path class="st10" d="M710,1310l-20-10v-12.5c0-1.38,1.12-2.5,2.5-2.5l0,0c1.38,0,2.5,1.12,2.5,2.5L710,1310z"/>
			<linearGradient id="SVGID_7_" gradientUnits="userSpaceOnUse" x1="665" y1="1297.5" x2="685" y2="1297.5">
				<stop  offset="0" style="stop-color:#F77A61"/>
				<stop  offset="1" style="stop-color:#C15F4F"/>
			</linearGradient>
			<path class="st11" d="M685,1310l-20-10v-12.5c0-1.38,1.12-2.5,2.5-2.5l0,0c1.38,0,2.5,1.12,2.5,2.5L685,1310z"/>
		</g>
	</g>
	<linearGradient id="SVGID_8_" gradientUnits="userSpaceOnUse" x1="750" y1="1352.5" x2="775" y2="1352.5">
		<stop  offset="0" style="stop-color:#FFFFFF"/>
		<stop  offset="1" style="stop-color:#D1E3E8"/>
	</linearGradient>
	<circle class="st12" cx="762.5" cy="1352.5" r="12.5"/>
</g>
</svg>
