<?xml version="1.0" encoding="utf-8"?>
<!-- Generator: Adobe Illustrator 23.1.1, SVG Export Plug-In . SVG Version: 6.00 Build 0)  -->
<svg version="1.1" xmlns="http://www.w3.org/2000/svg" xmlns:xlink="http://www.w3.org/1999/xlink" x="0px" y="0px"
	 viewBox="0 0 3840 2160" style="enable-background:new 0 0 3840 2160;" xml:space="preserve">
<style type="text/css">
	.st0{fill:transparent;}
	.st1{fill:#E5E5E5;}
	.st2{fill:#50565B;}
	.st3{fill:url(#SVGID_1_);}
	.st4{fill:url(#SVGID_2_);}
	.st5{fill:url(#SVGID_3_);}
	.st6{fill:url(#SVGID_4_);}
	.st7{fill:url(#SVGID_5_);}
	.st8{fill:url(#SVGID_6_);}
	.st9{fill:url(#SVGID_7_);}
	.st10{fill:url(#SVGID_8_);}
	.st11{fill:url(#SVGID_9_);}
	.st12{fill:url(#SVGID_10_);}
	.st13{fill:url(#SVGID_11_);}
	.st14{fill:url(#SVGID_12_);}
	.st15{fill:url(#SVGID_13_);}
	.st16{fill:url(#SVGID_14_);}
	.st17{fill:url(#SVGID_15_);}
	.st18{fill:url(#SVGID_16_);}
	.st19{fill:url(#SVGID_17_);}
	.st20{fill:url(#SVGID_18_);}
	.st21{fill:url(#SVGID_19_);}
	.st22{fill:url(#SVGID_20_);}
	.st23{fill:url(#SVGID_21_);}
	.st24{fill:url(#SVGID_22_);}
	.st25{fill:url(#SVGID_23_);}
	.st26{fill:url(#SVGID_24_);}
	.st27{fill:url(#SVGID_25_);}
	.st28{fill:url(#SVGID_26_);}
	.st29{fill:url(#SVGID_27_);}
	.st30{fill:url(#SVGID_28_);}
	.st31{fill:url(#SVGID_29_);}
	.st32{fill:#8E5C4A;}
	.st33{fill:url(#SVGID_30_);}
	.st34{fill:url(#SVGID_31_);}
	.st35{fill:#BAA138;}
	.st36{fill:#EFD35E;}
	.st37{fill:url(#SVGID_32_);}
	.st38{fill:url(#SVGID_33_);}
	.st39{fill:url(#SVGID_34_);}
	.st40{fill:url(#SVGID_35_);}
	.st41{fill:url(#SVGID_36_);}
	.st42{fill:url(#SVGID_37_);}
	.st43{fill:url(#SVGID_38_);}
	.st44{fill:url(#SVGID_39_);}
	.st45{fill:url(#SVGID_40_);}
	.st46{fill:url(#SVGID_41_);}
	.st47{fill:url(#SVGID_42_);}
	.st48{fill:url(#SVGID_43_);}
	.st49{fill:url(#SVGID_44_);}
	.st50{fill:url(#SVGID_45_);}
	.st51{fill:url(#SVGID_46_);}
	.st52{fill:url(#SVGID_47_);}
	.st53{fill:url(#SVGID_48_);}
	.st54{fill:url(#SVGID_49_);}
	.st55{fill:url(#SVGID_50_);}
	.st56{fill:url(#SVGID_51_);}
	.st57{fill:url(#SVGID_52_);}
	.st58{fill:url(#SVGID_53_);}
	.st59{fill:url(#SVGID_54_);}
	.st60{fill:url(#SVGID_55_);}
	.st61{fill:url(#SVGID_56_);}
	.st62{fill:url(#SVGID_57_);}
	.st63{fill:url(#SVGID_58_);}
	.st64{fill:url(#SVGID_59_);}
	.st65{fill:url(#SVGID_60_);}
	.st66{fill:url(#SVGID_61_);}
	.st67{fill:url(#SVGID_62_);}
	.st68{fill:url(#SVGID_63_);}
	.st69{fill:url(#SVGID_64_);}
	.st70{fill:url(#SVGID_65_);}
	.st71{fill:url(#SVGID_66_);}
	.st72{fill:url(#SVGID_67_);}
	.st73{fill:url(#SVGID_68_);}
	.st74{fill:url(#SVGID_69_);}
	.st75{fill:url(#SVGID_70_);}
	.st76{fill:url(#SVGID_71_);}
	.st77{fill:url(#SVGID_72_);}
	.st78{fill:url(#SVGID_73_);}
	.st79{fill:url(#SVGID_74_);}
	.st80{fill:url(#SVGID_75_);}
	.st81{fill:url(#SVGID_76_);}
	.st82{fill:url(#SVGID_77_);}
	.st83{fill:url(#SVGID_78_);}
	.st84{fill:url(#SVGID_79_);}
	.st85{fill:url(#SVGID_80_);}
	.st86{fill:url(#SVGID_81_);}
	.st87{fill:url(#SVGID_82_);}
	.st88{fill:url(#SVGID_83_);}
	.st89{fill:url(#SVGID_84_);}
	.st90{fill:url(#SVGID_85_);}
	.st91{fill:url(#SVGID_86_);}
	.st92{fill:url(#SVGID_87_);}
	.st93{fill:url(#SVGID_88_);}
	.st94{fill:url(#SVGID_89_);}
	.st95{fill:url(#SVGID_90_);}
	.st96{fill:url(#SVGID_91_);}
	.st97{fill:url(#SVGID_92_);}
	.st98{fill:url(#SVGID_93_);}
	.st99{fill:url(#SVGID_94_);}
	.st100{fill:url(#SVGID_95_);}
	.st101{fill:url(#SVGID_96_);}
	.st102{fill:url(#SVGID_97_);}
	.st103{fill:url(#SVGID_98_);}
	.st104{fill:url(#SVGID_99_);}
	.st105{fill:url(#SVGID_100_);}
</style>
<g id="Back">
	<rect class="st0" width="3840" height="2160"/>
</g>
<g id="Blagoustrij_1">
	<g>
		<circle class="st1" cx="857.5" cy="1175" r="10"/>
		<circle class="st0" cx="852.5" cy="1172.5" r="7.5"/>
		<path class="st2" d="M840,1165v5h30l-9.91,138.71c-0.05,0.42-0.09,0.85-0.09,1.29c0,5.52,4.48,10,10,10c5.52,0,10-4.48,10-10v-145
			H840z"/>
	</g>
	<linearGradient id="SVGID_1_" gradientUnits="userSpaceOnUse" x1="105.2607" y1="1483.125" x2="347.4435" y2="1483.125">
		<stop  offset="0" style="stop-color:#8E5C4A"/>
		<stop  offset="1" style="stop-color:#E29276"/>
	</linearGradient>
	<path class="st3" d="M130,1435h83.15c1.18,0,2.32,0.47,3.16,1.31l17.38,17.38c0.84,0.84,1.97,1.31,3.16,1.31h16.3
		c1.18,0,2.32,0.47,3.16,1.31l17.38,17.38c0.84,0.84,1.97,1.31,3.16,1.31h41.3c1.18,0,2.32,0.47,3.16,1.31l23.57,23.57
		c2.81,2.81,0.82,7.62-3.16,7.62h-0.94c-3.98,0-5.97,4.81-3.16,7.62l8.5,8.5c2.81,2.81,0.82,7.62-3.16,7.62H290h-50h-43.15
		c-1.18,0-2.32-0.47-3.16-1.31l-10.51-10.51c-0.84-0.84-1.97-1.31-3.16-1.31h-18.18c-1.18,0-2.32-0.47-3.16-1.31l-7.63-7.63
		c-2.81-2.81-0.82-7.62,3.16-7.62h0c3.98,0,5.97-4.81,3.16-7.62l-50.8-50.8c-2.77-2.77-0.88-7.52,3.04-7.62L130,1435z"/>
	<g>
		
			<linearGradient id="SVGID_2_" gradientUnits="userSpaceOnUse" x1="6434.9575" y1="1555.0354" x2="6414.4893" y2="1534.567" gradientTransform="matrix(-0.7071 -0.7071 -0.7071 0.7071 5852.3701 4804.7822)">
			<stop  offset="0" style="stop-color:#06EABE"/>
			<stop  offset="1" style="stop-color:#00A78E"/>
		</linearGradient>
		<path class="st4" d="M227.74,1356.15v-9.09c0-0.85-0.48-1.62-1.24-2l-9.33-4.66c-0.53-0.27-1.14-0.31-1.71-0.12l-6.79,2.26
			c-0.56,0.19-1.03,0.59-1.29,1.12l-4.56,9.12c-0.43,0.86-0.26,1.9,0.42,2.58l12.13,12.13c0.6,0.6,1.48,0.81,2.29,0.54l12.35-4.12
			c1.58-0.53,2.05-2.53,0.87-3.7l-2.48-2.48C227.98,1357.31,227.74,1356.74,227.74,1356.15z"/>
		<linearGradient id="SVGID_3_" gradientUnits="userSpaceOnUse" x1="187.2566" y1="1386.1687" x2="198.7579" y2="1386.1687">
			<stop  offset="0" style="stop-color:#E29276"/>
			<stop  offset="1" style="stop-color:#8E5C4A"/>
		</linearGradient>
		<polygon class="st5" points="187.26,1401.5 191.09,1397.67 191.09,1393.84 194.92,1386.17 191.09,1374.67 194.92,1363.17 
			198.76,1363.17 194.92,1367 194.92,1370.83 194.92,1374.67 198.76,1382.33 198.76,1390 194.92,1401.5 187.26,1409.17 		"/>
		
			<linearGradient id="SVGID_4_" gradientUnits="userSpaceOnUse" x1="6589.4595" y1="1439.9926" x2="6544.4053" y2="1394.9385" gradientTransform="matrix(-1 0 0 1 6747.3999 0)">
			<stop  offset="0" style="stop-color:#E29276"/>
			<stop  offset="1" style="stop-color:#8E5C4A"/>
		</linearGradient>
		<path class="st6" d="M180.19,1373.04l-1.11,2.22c-0.08,0.17-0.12,0.36-0.09,0.55l1.85,12.95c0.01,0.1,0.04,0.2,0.09,0.28
			l1.84,3.69l3.79,7.59c0.02,0.04,0.04,0.08,0.05,0.12l1.84,5.53c0.03,0.09,0.05,0.19,0.05,0.29v5.49c0,0.06,0.01,0.12,0.02,0.18
			l1.88,9.38c0.01,0.06,0.02,0.12,0.02,0.18v7.56v7.5c0,0.1,0.02,0.2,0.05,0.29l1.82,5.45c0.03,0.09,0.05,0.19,0.05,0.29v1.38
			c0,0.25,0.1,0.48,0.27,0.66l1.37,1.37c0.17,0.17,0.41,0.27,0.66,0.27h5.35l0,0c1.06,0,1.3,1.48,0.29,1.81l-0.15,0.05
			c-0.09,0.03-0.19,0.05-0.29,0.05h-3.67h-2.89c-0.51,0-0.93,0.42-0.93,0.93v2.51c0,0.25-0.1,0.48-0.27,0.66l-0.73,0.73
			c-0.45,0.45-1.21,0.33-1.49-0.24l-1.08-2.15c-0.16-0.32-0.48-0.51-0.83-0.51h-0.95c-0.25,0-0.48,0.1-0.66,0.27l-3.01,3.01
			c-0.31,0.31-0.81,0.36-1.17,0.12l-5-3.33c-0.07-0.05-0.14-0.08-0.22-0.11l-5.47-1.82c-0.09-0.03-0.19-0.05-0.29-0.05h-4.65
			c-0.51,0-0.93-0.42-0.93-0.93v-0.31c0-0.4,0.26-0.76,0.64-0.88l4.96-1.65c0.09-0.03,0.19-0.05,0.29-0.05h3.39
			c0.18,0,0.36-0.05,0.52-0.16l5.09-3.39c0.26-0.17,0.41-0.46,0.41-0.77v-5.09c0-0.1,0.02-0.2,0.05-0.29l1.77-5.3
			c0.06-0.19,0.06-0.4,0-0.59l-1.77-5.3c-0.03-0.09-0.05-0.19-0.05-0.29v-11.32v-7.43c0-0.14-0.03-0.29-0.1-0.42l-1.81-3.63
			l-1.81-3.63c-0.06-0.13-0.1-0.27-0.1-0.42v-5.37c0-0.1-0.02-0.2-0.05-0.29l-1.82-5.45c-0.03-0.09-0.05-0.19-0.05-0.29v-5.58v-6.72
			c0-0.51,0.42-0.93,0.93-0.93h3.3C180.05,1371.69,180.5,1372.42,180.19,1373.04z"/>
		
			<linearGradient id="SVGID_5_" gradientUnits="userSpaceOnUse" x1="6623.1489" y1="1369.5358" x2="6585.3555" y2="1331.7424" gradientTransform="matrix(-1 0 0 1 6747.3999 0)">
			<stop  offset="0" style="stop-color:#06EABE"/>
			<stop  offset="1" style="stop-color:#00A78E"/>
		</linearGradient>
		<path class="st7" d="M157.72,1335.69l-4.2-2.8c-0.11-0.07-0.21-0.16-0.31-0.25l-1.18-1.18c-0.38-0.38-0.89-0.59-1.42-0.59h-7.9
			c-0.53,0-1.04-0.21-1.42-0.59l-2.13-2.13c-0.65-0.65-1.66-0.78-2.45-0.3l-8,4.8c-0.14,0.08-0.27,0.19-0.39,0.3l-3.06,3.06
			c-0.38,0.38-0.59,0.89-0.59,1.42v4.07c0,0.53,0.21,1.04,0.59,1.42l1.26,1.26c0.97,0.97,0.7,2.6-0.52,3.22l-3.36,1.68
			c-0.99,0.5-1.39,1.7-0.9,2.7l0.8,1.6c0.14,0.28,0.21,0.59,0.21,0.9v4.43c0,0.53,0.21,1.04,0.59,1.42l0.45,0.45
			c0.54,0.54,0.73,1.33,0.49,2.06l-1.35,4.05c-0.18,0.53-0.14,1.13,0.15,1.61c0.26,0.43,0.73,0.81,1.59,0.81H132
			c0.22,0,0.43,0.03,0.64,0.1l4.55,1.52c0.56,0.19,1.17,0.12,1.67-0.18l6.91-4.14c1-0.6,2.31-0.22,2.83,0.82l0.16,0.32
			c0.45,0.89,1.48,1.32,2.43,1.01l9.37-3.12c0.3-0.1,0.56-0.26,0.79-0.49l2.9-2.9c0.38-0.38,0.59-0.89,0.59-1.42v-6.34
			c0-0.31,0.07-0.62,0.21-0.9l1.49-2.98c0.14-0.28,0.21-0.59,0.21-0.9v-5.01c0-0.16,0.02-0.33,0.06-0.49l1.23-4.91
			c0.32-1.27-0.64-2.5-1.95-2.5h-0.01c-0.76,0-1.46-0.43-1.8-1.11l-0.11-0.22c-0.61-1.23-2.25-1.49-3.22-0.52l-0.69,0.69
			C159.58,1336.12,158.52,1336.23,157.72,1335.69z"/>
		
			<linearGradient id="SVGID_6_" gradientUnits="userSpaceOnUse" x1="6604.2036" y1="1370.9358" x2="6540.582" y2="1307.3141" gradientTransform="matrix(-1 0 0 1 6747.3999 0)">
			<stop  offset="0" style="stop-color:#06EABE"/>
			<stop  offset="1" style="stop-color:#00A78E"/>
		</linearGradient>
		<path class="st8" d="M213.22,1323.44l-2.71-1.36c-0.14-0.07-0.26-0.16-0.37-0.26l-1.34-1.34c-0.26-0.26-0.41-0.62-0.41-0.99v-2.23
			c0-0.61-0.39-1.14-0.96-1.33l-4.46-1.49c-0.21-0.07-0.4-0.19-0.55-0.34l-1.44-1.44c-0.15-0.15-0.34-0.27-0.55-0.34l-4.87-1.62
			c-0.35-0.12-0.74-0.09-1.07,0.08l-2.4,1.2c-0.54,0.27-1.2,0.16-1.62-0.26l-2.95-2.95c-0.11-0.11-0.23-0.2-0.37-0.26l-3.1-1.55
			c-0.33-0.17-0.59-0.46-0.71-0.81l-1.54-4.63c-0.12-0.35-0.37-0.65-0.71-0.81l-5.09-2.55c-0.94-0.47-2.04,0.21-2.04,1.26v0.53
			c0,0.61-0.39,1.14-0.96,1.33l-4.46,1.49c-0.21,0.07-0.4,0.19-0.55,0.34l-1.58,1.58c-0.07,0.07-0.12,0.14-0.18,0.21l-3.22,4.84
			c-0.32,0.47-0.89,0.71-1.45,0.6l-7.51-1.5c-0.66-0.13-1.13-0.71-1.13-1.38v-1.26c0-0.78-0.63-1.41-1.41-1.41h-5.49
			c-0.47,0-0.91,0.23-1.17,0.63l-3.17,4.76c-0.15,0.23-0.24,0.5-0.24,0.78v0.9c0,0.37-0.15,0.73-0.41,0.99l-2.85,2.85
			c-0.35,0.35-0.49,0.86-0.37,1.34l1.28,5.13c0.22,0.89-0.45,1.75-1.36,1.75h-3.57c-1.05,0-1.73,1.1-1.26,2.04l0.83,1.65
			c0.05,0.09,0.08,0.19,0.11,0.29l1.68,6.73c0.12,0.48-0.02,0.99-0.37,1.34l-3.03,3.03c-0.15,0.15-0.27,0.34-0.34,0.55l-1.62,4.87
			c-0.12,0.35-0.09,0.74,0.08,1.07l1.5,3.01c0.1,0.2,0.24,0.37,0.41,0.5l6.82,5.11c0.35,0.27,0.56,0.68,0.56,1.13v7.99
			c0,0.53,0.3,1.02,0.78,1.26l6.26,3.13c0.39,0.19,0.66,0.56,0.75,0.98l1.55,7.75c0.13,0.66,0.71,1.13,1.38,1.13h6.36
			c0.09,0,0.18,0.01,0.28,0.03l8.95,1.79c0.31,0.06,0.63,0.02,0.9-0.12l7.05-3.52c0.11-0.06,0.23-0.1,0.35-0.12l8.64-1.73
			c0.46-0.09,0.94,0.05,1.27,0.38l0,0c0.68,0.68,1.82,0.49,2.25-0.37l2.45-4.89c0.29-0.59,0.96-0.9,1.6-0.74l6.29,1.57
			c0.18,0.04,0.36,0.05,0.54,0.03l12.49-1.78c0.4-0.06,0.75-0.28,0.97-0.61l3.4-5.1c0.05-0.08,0.11-0.15,0.18-0.21l3.01-3.01
			c0.43-0.43,0.53-1.08,0.26-1.62l-1.46-2.92l-1.76-3.53c-0.1-0.2-0.15-0.41-0.15-0.63v-2.48c0-0.61,0.39-1.14,0.96-1.33l8.97-2.99
			c0.81-0.27,1.2-1.2,0.81-1.96l-1.04-2.08c-0.1-0.2-0.15-0.41-0.15-0.63v-4.3c0-0.55,0.32-1.07,0.83-1.28
			c0.52-0.22,1.09-0.69,1.09-1.73v-4.87c0-0.53-0.3-1.02-0.78-1.26l-2.96-1.48c-0.06-0.03-0.12-0.06-0.18-0.08l-4.82-1.61
			c-0.51-0.17-1.06-0.04-1.44,0.34l-0.58,0.58C214.41,1323.6,213.76,1323.71,213.22,1323.44z"/>
		
			<linearGradient id="SVGID_7_" gradientUnits="userSpaceOnUse" x1="6002.5078" y1="1342.8092" x2="5983.8696" y2="1324.1713" gradientTransform="matrix(1 0 0 -1 -5792.1406 2721.5542)">
			<stop  offset="0" style="stop-color:#06EABE"/>
			<stop  offset="1" style="stop-color:#00A78E"/>
		</linearGradient>
		<path class="st9" d="M189.98,1395.49l6.32,3.16c0.38,0.19,0.81,0.25,1.23,0.18l10.4-1.73c0.28-0.05,0.55-0.15,0.78-0.31l4.48-2.99
			c0.56-0.37,0.89-1,0.89-1.67v-8.83c0-0.92-0.63-1.73-1.52-1.95l-5.37-1.34c-0.48-0.12-0.91-0.42-1.18-0.83l-2.41-3.61
			c-0.56-0.84-1.66-1.14-2.57-0.68l-9.2,4.6c-0.44,0.22-0.78,0.59-0.97,1.05l-3.27,8.17c-0.18,0.44-0.19,0.93-0.04,1.38l1.42,4.25
			C189.14,1394.83,189.51,1395.25,189.98,1395.49z"/>
		
			<linearGradient id="SVGID_8_" gradientUnits="userSpaceOnUse" x1="5995.5" y1="1436.1819" x2="5984.9097" y2="1425.5912" gradientTransform="matrix(0.9424 -0.3345 -0.3345 -0.9424 -4974.8569 4736.0674)">
			<stop  offset="0" style="stop-color:#06EABE"/>
			<stop  offset="1" style="stop-color:#00A78E"/>
		</linearGradient>
		<path class="st10" d="M187.07,1389.85l3.98,0.49c0.24,0.03,0.48-0.02,0.69-0.13l5.24-2.91c0.14-0.08,0.26-0.19,0.36-0.32
			l1.83-2.45c0.23-0.31,0.29-0.71,0.16-1.07l-1.68-4.73c-0.18-0.49-0.66-0.8-1.19-0.75l-3.13,0.3c-0.28,0.03-0.57-0.05-0.79-0.22
			l-1.98-1.48c-0.46-0.34-1.11-0.29-1.51,0.12l-4.05,4.21c-0.19,0.2-0.31,0.47-0.32,0.75l-0.2,4.99c-0.01,0.27,0.07,0.53,0.24,0.75
			l1.57,2.01C186.5,1389.66,186.77,1389.82,187.07,1389.85z"/>
		
			<linearGradient id="SVGID_9_" gradientUnits="userSpaceOnUse" x1="4343.1572" y1="5440.9956" x2="4334.8198" y2="5432.6582" gradientTransform="matrix(-0.7071 -0.7071 -0.7071 0.7071 7061.4424 584.3348)">
			<stop  offset="0" style="stop-color:#06EABE"/>
			<stop  offset="1" style="stop-color:#00A78E"/>
		</linearGradient>
		<path class="st11" d="M153.78,1361.2v-3.18c0-0.65-0.37-1.25-0.95-1.54l-3.36-1.68c-0.41-0.2-0.88-0.24-1.32-0.09l-2.36,0.79
			c-0.43,0.14-0.79,0.46-1,0.86l-1.6,3.21c-0.33,0.66-0.2,1.47,0.32,1.99l4.56,4.56c0.46,0.46,1.15,0.62,1.77,0.42l3.78-1.26
			c1.22-0.41,1.58-1.95,0.67-2.86h0C153.96,1362.1,153.78,1361.66,153.78,1361.2z"/>
		
			<linearGradient id="SVGID_10_" gradientUnits="userSpaceOnUse" x1="4015.3147" y1="5323.0244" x2="3999.2061" y2="5306.916" gradientTransform="matrix(0.7071 -0.7071 -0.7071 -0.7071 1123.5461 7947.4219)">
			<stop  offset="0" style="stop-color:#06EABE"/>
			<stop  offset="1" style="stop-color:#00A78E"/>
		</linearGradient>
		<path class="st12" d="M197.73,1365.05h6.14c1.26,0,2.42-0.71,2.98-1.84l3.25-6.5c0.4-0.79,0.46-1.71,0.18-2.54l-1.52-4.56
			c-0.28-0.84-0.88-1.53-1.67-1.93l-6.19-3.1c-1.28-0.64-2.83-0.39-3.85,0.62l-8.82,8.82c-0.89,0.89-1.2,2.21-0.81,3.41l2.43,7.3
			c0.78,2.35,3.77,3.05,5.52,1.3h0C196,1365.4,196.85,1365.05,197.73,1365.05z"/>
	</g>
	<g>
		
			<linearGradient id="SVGID_11_" gradientUnits="userSpaceOnUse" x1="6400.4868" y1="1526.3529" x2="6373.792" y2="1499.6581" gradientTransform="matrix(-0.7071 -0.7071 -0.7071 0.7071 5852.3701 4804.7822)">
			<stop  offset="0" style="stop-color:#06EABE"/>
			<stop  offset="1" style="stop-color:#00A78E"/>
		</linearGradient>
		<path class="st13" d="M280.05,1360.85V1349c0-1.1-0.62-2.11-1.61-2.61l-12.17-6.08c-0.69-0.35-1.49-0.4-2.23-0.16l-8.85,2.95
			c-0.73,0.24-1.34,0.77-1.69,1.46l-5.95,11.9c-0.56,1.12-0.34,2.48,0.55,3.37l15.81,15.81c0.78,0.78,1.94,1.05,2.98,0.7l16.1-5.37
			c2.06-0.69,2.67-3.3,1.14-4.83l-3.24-3.24C280.36,1362.37,280.05,1361.62,280.05,1360.85z"/>
		<linearGradient id="SVGID_12_" gradientUnits="userSpaceOnUse" x1="227.2479" y1="1400" x2="242.2479" y2="1400">
			<stop  offset="0" style="stop-color:#E29276"/>
			<stop  offset="1" style="stop-color:#8E5C4A"/>
		</linearGradient>
		<polygon class="st14" points="227.25,1420 232.25,1415 232.25,1410 237.25,1400 232.25,1385 237.25,1370 242.25,1370 237.25,1375 
			237.25,1380 237.25,1385 242.25,1395 242.25,1405 237.25,1420 227.25,1430 		"/>
		
			<linearGradient id="SVGID_13_" gradientUnits="userSpaceOnUse" x1="6558.3862" y1="1470.1968" x2="6499.627" y2="1411.4375" gradientTransform="matrix(-1 0 0 1 6747.3999 0)">
			<stop  offset="0" style="stop-color:#E29276"/>
			<stop  offset="1" style="stop-color:#8E5C4A"/>
		</linearGradient>
		<path class="st15" d="M218.04,1382.87l-1.45,2.89c-0.11,0.22-0.15,0.47-0.12,0.71l2.41,16.88c0.02,0.13,0.06,0.25,0.12,0.37
			l2.41,4.81l4.95,9.9c0.03,0.05,0.05,0.1,0.07,0.16l2.4,7.21c0.04,0.12,0.06,0.25,0.06,0.38v7.16c0,0.08,0.01,0.16,0.02,0.24
			l2.45,12.23c0.02,0.08,0.02,0.16,0.02,0.24v9.85v9.78c0,0.13,0.02,0.26,0.06,0.38l2.37,7.11c0.04,0.12,0.06,0.25,0.06,0.38v1.79
			c0,0.32,0.13,0.63,0.36,0.86l1.78,1.78c0.23,0.23,0.54,0.36,0.86,0.36h6.98h0c1.38,0,1.69,1.93,0.38,2.37l-0.2,0.07
			c-0.12,0.04-0.25,0.06-0.38,0.06h-4.79h-3.77c-0.67,0-1.21,0.54-1.21,1.21v3.27c0,0.32-0.13,0.63-0.36,0.86l-0.95,0.95
			c-0.59,0.59-1.57,0.43-1.94-0.32l-1.4-2.81c-0.21-0.41-0.63-0.67-1.09-0.67h-1.24c-0.32,0-0.63,0.13-0.86,0.36l-3.93,3.93
			c-0.41,0.41-1.05,0.47-1.53,0.15l-6.52-4.34c-0.09-0.06-0.19-0.11-0.29-0.14l-7.14-2.38c-0.12-0.04-0.25-0.06-0.38-0.06h-6.07
			c-0.67,0-1.21-0.54-1.21-1.21v-0.4c0-0.52,0.33-0.99,0.83-1.15l6.46-2.15c0.12-0.04,0.25-0.06,0.38-0.06h4.42
			c0.24,0,0.47-0.07,0.67-0.2l6.63-4.42c0.34-0.23,0.54-0.6,0.54-1.01v-6.63c0-0.13,0.02-0.26,0.06-0.38l2.3-6.91
			c0.08-0.25,0.08-0.52,0-0.77l-2.3-6.91c-0.04-0.12-0.06-0.25-0.06-0.38v-14.76v-9.69c0-0.19-0.04-0.37-0.13-0.54l-2.37-4.73
			l-2.37-4.73c-0.08-0.17-0.13-0.35-0.13-0.54v-7c0-0.13-0.02-0.26-0.06-0.38l-2.37-7.11c-0.04-0.12-0.06-0.25-0.06-0.38v-7.28
			v-8.76c0-0.67,0.54-1.21,1.21-1.21h4.3C217.85,1381.12,218.44,1382.07,218.04,1382.87z"/>
		
			<linearGradient id="SVGID_14_" gradientUnits="userSpaceOnUse" x1="6602.3237" y1="1378.3073" x2="6553.0337" y2="1329.0173" gradientTransform="matrix(-1 0 0 1 6747.3999 0)">
			<stop  offset="0" style="stop-color:#06EABE"/>
			<stop  offset="1" style="stop-color:#00A78E"/>
		</linearGradient>
		<path class="st16" d="M188.73,1334.17l-5.48-3.65c-0.14-0.1-0.28-0.21-0.4-0.33l-1.54-1.54c-0.49-0.49-1.16-0.77-1.85-0.77h-10.3
			c-0.7,0-1.36-0.28-1.85-0.77l-2.77-2.77c-0.85-0.85-2.17-1.01-3.2-0.39l-10.44,6.26c-0.18,0.11-0.35,0.24-0.5,0.39l-3.99,3.99
			c-0.49,0.49-0.77,1.16-0.77,1.85v5.31c0,0.69,0.28,1.36,0.77,1.85l1.65,1.65c1.26,1.26,0.92,3.4-0.68,4.2l-4.38,2.19
			c-1.29,0.65-1.82,2.22-1.17,3.52l1.04,2.09c0.18,0.36,0.28,0.77,0.28,1.17v5.78c0,0.7,0.28,1.36,0.77,1.85l0.58,0.58
			c0.7,0.7,0.95,1.74,0.63,2.68l-1.76,5.28c-0.23,0.7-0.19,1.47,0.19,2.1c0.34,0.56,0.96,1.06,2.08,1.06h9.55
			c0.28,0,0.56,0.05,0.83,0.13l5.93,1.98c0.73,0.24,1.52,0.15,2.18-0.24l9.01-5.4c1.31-0.79,3.01-0.29,3.69,1.08l0.21,0.42
			c0.58,1.17,1.94,1.73,3.17,1.31l12.22-4.07c0.39-0.13,0.74-0.35,1.02-0.63l3.78-3.78c0.49-0.49,0.77-1.16,0.77-1.85v-8.27
			c0-0.41,0.09-0.81,0.28-1.17l1.94-3.88c0.18-0.36,0.28-0.77,0.28-1.17v-6.54c0-0.21,0.03-0.43,0.08-0.64l1.6-6.41
			c0.41-1.65-0.84-3.26-2.54-3.26h-0.01c-0.99,0-1.9-0.56-2.34-1.45l-0.14-0.29c-0.8-1.6-2.93-1.95-4.2-0.68l-0.9,0.9
			C191.15,1334.73,189.77,1334.86,188.73,1334.17z"/>
		
			<linearGradient id="SVGID_15_" gradientUnits="userSpaceOnUse" x1="6577.6152" y1="1380.1332" x2="6494.6401" y2="1297.158" gradientTransform="matrix(-1 0 0 1 6747.3999 0)">
			<stop  offset="0" style="stop-color:#06EABE"/>
			<stop  offset="1" style="stop-color:#00A78E"/>
		</linearGradient>
		<path class="st17" d="M261.1,1318.19l-3.54-1.77c-0.18-0.09-0.34-0.2-0.48-0.34l-1.75-1.75c-0.34-0.34-0.54-0.81-0.54-1.3v-2.91
			c0-0.79-0.51-1.49-1.25-1.74l-5.82-1.94c-0.27-0.09-0.52-0.24-0.72-0.44l-1.88-1.88c-0.2-0.2-0.45-0.35-0.72-0.44l-6.35-2.12
			c-0.46-0.15-0.97-0.12-1.4,0.1l-3.13,1.56c-0.71,0.35-1.56,0.21-2.12-0.34l-3.84-3.84c-0.14-0.14-0.3-0.26-0.48-0.34l-4.04-2.02
			c-0.44-0.22-0.77-0.6-0.92-1.06l-2.01-6.04c-0.15-0.46-0.48-0.84-0.92-1.06l-6.64-3.32c-1.22-0.61-2.65,0.28-2.65,1.64v0.7
			c0,0.79-0.51,1.49-1.25,1.74l-5.82,1.94c-0.27,0.09-0.52,0.24-0.72,0.44l-2.06,2.06c-0.09,0.09-0.16,0.18-0.23,0.28l-4.21,6.31
			c-0.41,0.62-1.16,0.93-1.89,0.78l-9.79-1.96c-0.86-0.17-1.47-0.92-1.47-1.8v-1.65c0-1.01-0.82-1.83-1.83-1.83h-7.16
			c-0.61,0-1.19,0.31-1.53,0.82l-4.13,6.2c-0.2,0.3-0.31,0.66-0.31,1.02v1.18c0,0.49-0.19,0.95-0.54,1.3l-3.72,3.72
			c-0.46,0.46-0.64,1.12-0.48,1.74l1.67,6.69c0.29,1.16-0.59,2.28-1.78,2.28h-4.66c-1.36,0-2.25,1.43-1.64,2.65l1.08,2.15
			c0.06,0.12,0.11,0.25,0.14,0.38l2.19,8.77c0.16,0.63-0.03,1.29-0.48,1.74l-3.95,3.95c-0.2,0.2-0.35,0.45-0.44,0.72l-2.12,6.35
			c-0.15,0.46-0.12,0.97,0.1,1.4l1.96,3.92c0.13,0.25,0.31,0.48,0.54,0.65l8.89,6.67c0.46,0.35,0.73,0.89,0.73,1.47v10.42
			c0,0.69,0.39,1.33,1.01,1.64l8.16,4.08c0.51,0.25,0.87,0.73,0.98,1.28l2.02,10.11c0.17,0.86,0.92,1.47,1.8,1.47h8.29
			c0.12,0,0.24,0.01,0.36,0.04l11.67,2.33c0.4,0.08,0.82,0.02,1.18-0.16l9.19-4.6c0.15-0.07,0.3-0.13,0.46-0.16l11.26-2.25
			c0.6-0.12,1.22,0.07,1.66,0.5l0,0c0.89,0.89,2.38,0.64,2.94-0.48l3.19-6.38c0.38-0.77,1.25-1.17,2.09-0.96l8.2,2.05
			c0.23,0.06,0.47,0.07,0.7,0.04l16.29-2.33c0.52-0.07,0.98-0.36,1.27-0.8l4.43-6.65c0.07-0.1,0.14-0.19,0.23-0.28l3.92-3.92
			c0.56-0.56,0.7-1.41,0.34-2.12l-1.9-3.8l-2.3-4.6c-0.13-0.25-0.19-0.54-0.19-0.82v-3.23c0-0.79,0.51-1.49,1.25-1.74l11.7-3.9
			c1.06-0.35,1.56-1.56,1.06-2.56l-1.35-2.71c-0.13-0.25-0.19-0.54-0.19-0.82v-5.61c0-0.72,0.41-1.39,1.08-1.67
			c0.67-0.28,1.42-0.9,1.42-2.26v-6.35c0-0.69-0.39-1.33-1.01-1.64l-3.86-1.93c-0.08-0.04-0.16-0.07-0.24-0.1l-6.28-2.09
			c-0.66-0.22-1.39-0.05-1.88,0.44l-0.76,0.76C262.66,1318.4,261.81,1318.54,261.1,1318.19z"/>
		
			<linearGradient id="SVGID_16_" gradientUnits="userSpaceOnUse" x1="6049.5293" y1="1331.2363" x2="6025.2217" y2="1306.9287" gradientTransform="matrix(1 0 0 -1 -5792.1406 2721.5542)">
			<stop  offset="0" style="stop-color:#06EABE"/>
			<stop  offset="1" style="stop-color:#00A78E"/>
		</linearGradient>
		<path class="st18" d="M230.8,1412.16l8.24,4.12c0.5,0.25,1.06,0.33,1.6,0.24l13.57-2.26c0.37-0.06,0.71-0.2,1.02-0.4l5.85-3.9
			c0.73-0.49,1.17-1.3,1.17-2.18v-11.51c0-1.2-0.82-2.25-1.99-2.54l-7.01-1.75c-0.63-0.16-1.18-0.55-1.54-1.09l-3.14-4.71
			c-0.73-1.1-2.17-1.48-3.35-0.89l-12,6c-0.57,0.29-1.02,0.77-1.26,1.37l-4.26,10.65c-0.23,0.58-0.25,1.21-0.05,1.8l1.85,5.54
			C229.71,1411.3,230.18,1411.85,230.8,1412.16z"/>
		
			<linearGradient id="SVGID_17_" gradientUnits="userSpaceOnUse" x1="6031.6558" y1="1411.6271" x2="6017.8433" y2="1397.8148" gradientTransform="matrix(0.9424 -0.3345 -0.3345 -0.9424 -4974.8569 4736.0674)">
			<stop  offset="0" style="stop-color:#06EABE"/>
			<stop  offset="1" style="stop-color:#00A78E"/>
		</linearGradient>
		<path class="st19" d="M227,1404.8l5.2,0.64c0.31,0.04,0.63-0.02,0.9-0.18l6.83-3.79c0.18-0.1,0.34-0.24,0.47-0.41l2.39-3.2
			c0.3-0.4,0.38-0.92,0.21-1.39l-2.19-6.16c-0.23-0.64-0.87-1.05-1.55-0.98l-4.08,0.39c-0.37,0.04-0.74-0.07-1.03-0.29l-2.58-1.93
			c-0.6-0.45-1.44-0.38-1.96,0.16l-5.29,5.49c-0.25,0.26-0.4,0.61-0.41,0.97l-0.26,6.51c-0.01,0.35,0.1,0.7,0.31,0.97l2.04,2.62
			C226.25,1404.55,226.61,1404.76,227,1404.8z"/>
		
			<linearGradient id="SVGID_18_" gradientUnits="userSpaceOnUse" x1="4320.1133" y1="5426.5225" x2="4309.2397" y2="5415.6489" gradientTransform="matrix(-0.7071 -0.7071 -0.7071 0.7071 7061.4424 584.3348)">
			<stop  offset="0" style="stop-color:#06EABE"/>
			<stop  offset="1" style="stop-color:#00A78E"/>
		</linearGradient>
		<path class="st20" d="M183.59,1367.44v-4.14c0-0.85-0.48-1.63-1.24-2.01l-4.39-2.19c-0.53-0.27-1.15-0.31-1.72-0.12l-3.08,1.03
			c-0.57,0.19-1.03,0.59-1.3,1.13l-2.09,4.18c-0.43,0.87-0.26,1.91,0.42,2.6l5.95,5.95c0.6,0.6,1.49,0.81,2.3,0.54l4.93-1.64
			c1.59-0.53,2.06-2.54,0.88-3.72l0,0C183.83,1368.61,183.59,1368.04,183.59,1367.44z"/>
		
			<linearGradient id="SVGID_19_" gradientUnits="userSpaceOnUse" x1="4045.3308" y1="5291.4946" x2="4024.3223" y2="5270.4858" gradientTransform="matrix(0.7071 -0.7071 -0.7071 -0.7071 1123.5461 7947.4219)">
			<stop  offset="0" style="stop-color:#06EABE"/>
			<stop  offset="1" style="stop-color:#00A78E"/>
		</linearGradient>
		<path class="st21" d="M240.91,1372.45h8c1.65,0,3.15-0.93,3.89-2.4l4.24-8.48c0.52-1.03,0.6-2.22,0.24-3.32l-1.98-5.95
			c-0.36-1.09-1.15-2-2.18-2.51l-8.08-4.04c-1.67-0.84-3.69-0.51-5.02,0.81l-11.5,11.5c-1.16,1.16-1.57,2.89-1.05,4.45l3.17,9.52
			c1.02,3.07,4.91,3.98,7.2,1.7h0C238.65,1372.91,239.76,1372.45,240.91,1372.45z"/>
	</g>
	
		<linearGradient id="SVGID_20_" gradientUnits="userSpaceOnUse" x1="279.2542" y1="1538.5765" x2="438.3003" y2="1538.5765" gradientTransform="matrix(0.7071 0.7071 0.7071 -0.7071 -981.4892 2369.5244)">
		<stop  offset="0" style="stop-color:#8E5C4A"/>
		<stop  offset="1" style="stop-color:#E29276"/>
	</linearGradient>
	<path class="st22" d="M291.52,1527.21l34.19,34.19c0.75,0.75,1.76,1.17,2.82,1.17h32.06c1.06,0,2.07,0.42,2.82,1.17l11.81,11.81
		c0.75,0.75,1.76,1.17,2.82,1.17h14.38c1.06,0,2.07,0.42,2.82,1.17l6.51,6.51c0.75,0.75,1.76,1.17,2.82,1.17h8.18
		c3.55,0,5.32-4.29,2.82-6.8l-6.74-6.74c-2.51-2.51-0.73-6.8,2.82-6.8h28.39h0.99c3.55,0,5.32-4.29,2.82-6.8L420.41,1535
		c-0.75-0.75-1.76-1.17-2.82-1.17H395.7c-1.06,0-2.07-0.42-2.82-1.17l-7.73-7.73c-2.51-2.51-0.73-6.8,2.82-6.8h0
		c3.55,0,5.32-4.29,2.82-6.8l-5.18-5.18c-0.75-0.75-1.76-1.17-2.82-1.17H279.62c-3.5,0-5.3,4.2-2.88,6.73L291.52,1527.21z"/>
	<g>
		
			<linearGradient id="SVGID_21_" gradientUnits="userSpaceOnUse" x1="5772.2495" y1="1074.8923" x2="5745.5547" y2="1048.1975" gradientTransform="matrix(-0.7071 -0.7071 -0.7071 0.7071 5852.3701 4804.7822)">
			<stop  offset="0" style="stop-color:#06EABE"/>
			<stop  offset="1" style="stop-color:#00A78E"/>
		</linearGradient>
		<path class="st23" d="M1043.51,1485.85V1474c0-1.1-0.62-2.11-1.61-2.61l-12.17-6.08c-0.69-0.35-1.49-0.4-2.23-0.16l-8.85,2.95
			c-0.73,0.24-1.34,0.77-1.69,1.46l-5.95,11.9c-0.56,1.12-0.34,2.48,0.55,3.37l15.81,15.81c0.78,0.78,1.94,1.05,2.98,0.7l16.1-5.37
			c2.06-0.69,2.67-3.3,1.14-4.83l-3.24-3.24C1043.82,1487.37,1043.51,1486.62,1043.51,1485.85z"/>
		<linearGradient id="SVGID_22_" gradientUnits="userSpaceOnUse" x1="990.7095" y1="1525" x2="1005.7095" y2="1525">
			<stop  offset="0" style="stop-color:#E29276"/>
			<stop  offset="1" style="stop-color:#8E5C4A"/>
		</linearGradient>
		<polygon class="st24" points="990.71,1545 995.71,1540 995.71,1535 1000.71,1525 995.71,1510 1000.71,1495 1005.71,1495 
			1000.71,1500 1000.71,1505 1000.71,1510 1005.71,1520 1005.71,1530 1000.71,1545 990.71,1555 		"/>
		
			<linearGradient id="SVGID_23_" gradientUnits="userSpaceOnUse" x1="5794.9243" y1="1595.1968" x2="5736.165" y2="1536.4375" gradientTransform="matrix(-1 0 0 1 6747.3999 0)">
			<stop  offset="0" style="stop-color:#E29276"/>
			<stop  offset="1" style="stop-color:#8E5C4A"/>
		</linearGradient>
		<path class="st25" d="M981.5,1507.87l-1.45,2.89c-0.11,0.22-0.15,0.47-0.12,0.71l2.41,16.88c0.02,0.13,0.06,0.25,0.12,0.37
			l2.41,4.81l4.95,9.9c0.03,0.05,0.05,0.1,0.07,0.16l2.4,7.21c0.04,0.12,0.06,0.25,0.06,0.38v7.16c0,0.08,0.01,0.16,0.02,0.24
			l2.45,12.23c0.02,0.08,0.02,0.16,0.02,0.24v9.85v9.78c0,0.13,0.02,0.26,0.06,0.38l2.37,7.11c0.04,0.12,0.06,0.25,0.06,0.38v1.79
			c0,0.32,0.13,0.63,0.36,0.86l1.78,1.78c0.23,0.23,0.54,0.36,0.86,0.36h6.98l0,0c1.38,0,1.69,1.93,0.38,2.37l-0.2,0.07
			c-0.12,0.04-0.25,0.06-0.38,0.06h-4.79h-3.77c-0.67,0-1.21,0.54-1.21,1.21v3.27c0,0.32-0.13,0.63-0.36,0.86l-0.95,0.95
			c-0.59,0.59-1.57,0.43-1.94-0.32l-1.4-2.81c-0.21-0.41-0.63-0.67-1.09-0.67h-1.24c-0.32,0-0.63,0.13-0.86,0.36l-3.93,3.93
			c-0.41,0.41-1.05,0.47-1.53,0.15l-6.52-4.34c-0.09-0.06-0.19-0.11-0.29-0.14l-7.14-2.38c-0.12-0.04-0.25-0.06-0.38-0.06h-6.07
			c-0.67,0-1.21-0.54-1.21-1.21v-0.4c0-0.52,0.33-0.99,0.83-1.15l6.46-2.15c0.12-0.04,0.25-0.06,0.38-0.06h4.42
			c0.24,0,0.47-0.07,0.67-0.2l6.63-4.42c0.34-0.23,0.54-0.6,0.54-1.01v-6.63c0-0.13,0.02-0.26,0.06-0.38l2.3-6.91
			c0.08-0.25,0.08-0.52,0-0.77l-2.3-6.91c-0.04-0.12-0.06-0.25-0.06-0.38v-14.76v-9.69c0-0.19-0.04-0.37-0.13-0.54l-2.37-4.73
			l-2.37-4.73c-0.08-0.17-0.13-0.35-0.13-0.54v-7c0-0.13-0.02-0.26-0.06-0.38l-2.37-7.11c-0.04-0.12-0.06-0.25-0.06-0.38v-7.28
			v-8.76c0-0.67,0.54-1.21,1.21-1.21h4.3C981.31,1506.12,981.9,1507.07,981.5,1507.87z"/>
		
			<linearGradient id="SVGID_24_" gradientUnits="userSpaceOnUse" x1="5838.8618" y1="1503.3073" x2="5789.5718" y2="1454.0173" gradientTransform="matrix(-1 0 0 1 6747.3999 0)">
			<stop  offset="0" style="stop-color:#06EABE"/>
			<stop  offset="1" style="stop-color:#00A78E"/>
		</linearGradient>
		<path class="st26" d="M952.19,1459.17l-5.48-3.65c-0.14-0.1-0.28-0.21-0.4-0.33l-1.54-1.54c-0.49-0.49-1.16-0.77-1.85-0.77h-10.3
			c-0.7,0-1.36-0.28-1.85-0.77l-2.77-2.77c-0.85-0.85-2.17-1.01-3.2-0.39l-10.44,6.26c-0.18,0.11-0.35,0.24-0.5,0.39l-3.99,3.99
			c-0.49,0.49-0.77,1.16-0.77,1.85v5.31c0,0.69,0.28,1.36,0.77,1.85l1.65,1.65c1.26,1.26,0.92,3.4-0.68,4.2l-4.38,2.19
			c-1.29,0.65-1.82,2.22-1.17,3.52l1.04,2.09c0.18,0.36,0.28,0.77,0.28,1.17v5.78c0,0.7,0.28,1.36,0.77,1.85l0.58,0.58
			c0.7,0.7,0.95,1.74,0.63,2.68l-1.76,5.28c-0.23,0.7-0.19,1.47,0.19,2.1c0.34,0.56,0.96,1.06,2.08,1.06h9.55
			c0.28,0,0.56,0.05,0.83,0.13l5.93,1.98c0.73,0.24,1.52,0.15,2.18-0.24l9.01-5.4c1.31-0.79,3.01-0.29,3.69,1.08l0.21,0.42
			c0.58,1.17,1.94,1.73,3.17,1.31l12.22-4.07c0.39-0.13,0.74-0.35,1.02-0.63l3.78-3.78c0.49-0.49,0.77-1.16,0.77-1.85v-8.27
			c0-0.41,0.09-0.81,0.28-1.17l1.94-3.88c0.18-0.36,0.28-0.77,0.28-1.17v-6.54c0-0.21,0.03-0.43,0.08-0.64l1.6-6.41
			c0.41-1.65-0.84-3.26-2.54-3.26h-0.01c-0.99,0-1.9-0.56-2.34-1.45l-0.14-0.29c-0.8-1.6-2.93-1.95-4.2-0.68l-0.9,0.9
			C954.61,1459.73,953.23,1459.86,952.19,1459.17z"/>
		
			<linearGradient id="SVGID_25_" gradientUnits="userSpaceOnUse" x1="5814.1533" y1="1505.1332" x2="5731.1782" y2="1422.158" gradientTransform="matrix(-1 0 0 1 6747.3999 0)">
			<stop  offset="0" style="stop-color:#06EABE"/>
			<stop  offset="1" style="stop-color:#00A78E"/>
		</linearGradient>
		<path class="st27" d="M1024.57,1443.19l-3.54-1.77c-0.18-0.09-0.34-0.2-0.48-0.34l-1.75-1.75c-0.34-0.34-0.54-0.81-0.54-1.3v-2.91
			c0-0.79-0.51-1.49-1.25-1.74l-5.82-1.94c-0.27-0.09-0.52-0.24-0.72-0.44l-1.88-1.88c-0.2-0.2-0.45-0.35-0.72-0.44l-6.35-2.12
			c-0.46-0.15-0.97-0.12-1.4,0.1l-3.13,1.56c-0.71,0.35-1.56,0.21-2.12-0.34l-3.84-3.84c-0.14-0.14-0.3-0.26-0.48-0.34l-4.04-2.02
			c-0.44-0.22-0.77-0.6-0.92-1.06l-2.01-6.04c-0.15-0.46-0.48-0.84-0.92-1.06l-6.64-3.32c-1.22-0.61-2.65,0.28-2.65,1.64v0.7
			c0,0.79-0.51,1.49-1.25,1.74l-5.82,1.94c-0.27,0.09-0.52,0.24-0.72,0.44l-2.06,2.06c-0.09,0.09-0.16,0.18-0.23,0.28l-4.21,6.31
			c-0.41,0.62-1.16,0.93-1.89,0.78l-9.79-1.96c-0.86-0.17-1.47-0.92-1.47-1.8v-1.65c0-1.01-0.82-1.83-1.83-1.83h-7.16
			c-0.61,0-1.19,0.31-1.53,0.82l-4.13,6.2c-0.2,0.3-0.31,0.66-0.31,1.02v1.18c0,0.49-0.19,0.95-0.54,1.3l-3.72,3.72
			c-0.46,0.46-0.64,1.12-0.48,1.74l1.67,6.69c0.29,1.16-0.59,2.28-1.78,2.28h-4.66c-1.36,0-2.25,1.43-1.64,2.65l1.08,2.15
			c0.06,0.12,0.11,0.25,0.14,0.38l2.19,8.77c0.16,0.63-0.03,1.29-0.48,1.74l-3.95,3.95c-0.2,0.2-0.35,0.45-0.44,0.72l-2.12,6.35
			c-0.15,0.46-0.12,0.97,0.1,1.4l1.96,3.92c0.13,0.25,0.31,0.48,0.54,0.65l8.89,6.67c0.46,0.35,0.73,0.89,0.73,1.47v10.42
			c0,0.69,0.39,1.33,1.01,1.64l8.16,4.08c0.51,0.25,0.87,0.73,0.98,1.28l2.02,10.11c0.17,0.86,0.92,1.47,1.8,1.47h8.29
			c0.12,0,0.24,0.01,0.36,0.04l11.67,2.33c0.4,0.08,0.82,0.02,1.18-0.16l9.19-4.6c0.15-0.07,0.3-0.13,0.46-0.16l11.26-2.25
			c0.6-0.12,1.22,0.07,1.66,0.5l0,0c0.89,0.89,2.38,0.64,2.94-0.48l3.19-6.38c0.38-0.77,1.25-1.17,2.09-0.96l8.2,2.05
			c0.23,0.06,0.47,0.07,0.7,0.04l16.29-2.33c0.52-0.07,0.98-0.36,1.27-0.8l4.43-6.65c0.07-0.1,0.14-0.19,0.23-0.28l3.92-3.92
			c0.56-0.56,0.7-1.41,0.34-2.12l-1.9-3.8l-2.3-4.6c-0.13-0.25-0.19-0.54-0.19-0.82v-3.23c0-0.79,0.51-1.49,1.25-1.74l11.7-3.9
			c1.06-0.35,1.56-1.56,1.06-2.56l-1.35-2.71c-0.13-0.25-0.19-0.54-0.19-0.82v-5.61c0-0.72,0.41-1.39,1.08-1.67
			c0.67-0.28,1.42-0.9,1.42-2.26v-6.35c0-0.69-0.39-1.33-1.01-1.64l-3.86-1.93c-0.08-0.04-0.16-0.07-0.24-0.1l-6.28-2.09
			c-0.66-0.22-1.39-0.05-1.88,0.44l-0.76,0.76C1026.12,1443.4,1025.27,1443.54,1024.57,1443.19z"/>
		
			<linearGradient id="SVGID_26_" gradientUnits="userSpaceOnUse" x1="6812.9907" y1="1206.2363" x2="6788.6831" y2="1181.9287" gradientTransform="matrix(1 0 0 -1 -5792.1406 2721.5542)">
			<stop  offset="0" style="stop-color:#06EABE"/>
			<stop  offset="1" style="stop-color:#00A78E"/>
		</linearGradient>
		<path class="st28" d="M994.26,1537.16l8.24,4.12c0.5,0.25,1.06,0.33,1.6,0.24l13.57-2.26c0.37-0.06,0.71-0.2,1.02-0.4l5.85-3.9
			c0.73-0.49,1.17-1.3,1.17-2.18v-11.51c0-1.2-0.82-2.25-1.99-2.54l-7.01-1.75c-0.63-0.16-1.18-0.55-1.54-1.09l-3.14-4.71
			c-0.73-1.1-2.17-1.48-3.35-0.89l-12,6c-0.57,0.29-1.02,0.77-1.26,1.37l-4.26,10.65c-0.23,0.58-0.25,1.21-0.05,1.8l1.85,5.54
			C993.17,1536.3,993.64,1536.85,994.26,1537.16z"/>
		
			<linearGradient id="SVGID_27_" gradientUnits="userSpaceOnUse" x1="6709.3184" y1="1038.4352" x2="6695.5059" y2="1024.6229" gradientTransform="matrix(0.9424 -0.3345 -0.3345 -0.9424 -4974.8569 4736.0674)">
			<stop  offset="0" style="stop-color:#06EABE"/>
			<stop  offset="1" style="stop-color:#00A78E"/>
		</linearGradient>
		<path class="st29" d="M990.47,1529.8l5.2,0.64c0.31,0.04,0.63-0.02,0.9-0.18l6.83-3.79c0.18-0.1,0.34-0.24,0.47-0.41l2.39-3.2
			c0.3-0.4,0.38-0.92,0.21-1.39l-2.19-6.16c-0.23-0.64-0.87-1.05-1.55-0.98l-4.08,0.39c-0.37,0.04-0.74-0.07-1.03-0.29l-2.58-1.93
			c-0.6-0.45-1.44-0.38-1.96,0.16l-5.29,5.49c-0.25,0.26-0.4,0.61-0.41,0.97l-0.26,6.51c-0.01,0.35,0.1,0.7,0.31,0.97l2.04,2.62
			C989.72,1529.55,990.07,1529.76,990.47,1529.8z"/>
		
			<linearGradient id="SVGID_28_" gradientUnits="userSpaceOnUse" x1="3691.876" y1="4975.062" x2="3681.0022" y2="4964.188" gradientTransform="matrix(-0.7071 -0.7071 -0.7071 0.7071 7061.4424 584.3348)">
			<stop  offset="0" style="stop-color:#06EABE"/>
			<stop  offset="1" style="stop-color:#00A78E"/>
		</linearGradient>
		<path class="st30" d="M947.05,1492.44v-4.14c0-0.85-0.48-1.63-1.24-2.01l-4.39-2.19c-0.53-0.27-1.15-0.31-1.72-0.12l-3.08,1.03
			c-0.57,0.19-1.03,0.59-1.3,1.13l-2.09,4.18c-0.43,0.87-0.26,1.91,0.42,2.6l5.95,5.95c0.6,0.6,1.49,0.81,2.3,0.54l4.93-1.64
			c1.59-0.53,2.06-2.54,0.88-3.72l0,0C947.29,1493.61,947.05,1493.04,947.05,1492.44z"/>
		
			<linearGradient id="SVGID_29_" gradientUnits="userSpaceOnUse" x1="4496.7915" y1="4663.2573" x2="4475.7827" y2="4642.2485" gradientTransform="matrix(0.7071 -0.7071 -0.7071 -0.7071 1123.5461 7947.4219)">
			<stop  offset="0" style="stop-color:#06EABE"/>
			<stop  offset="1" style="stop-color:#00A78E"/>
		</linearGradient>
		<path class="st31" d="M1004.37,1497.45h8c1.65,0,3.15-0.93,3.89-2.4l4.24-8.48c0.52-1.03,0.6-2.22,0.24-3.32l-1.98-5.95
			c-0.36-1.09-1.15-2-2.18-2.51l-8.08-4.04c-1.67-0.84-3.69-0.51-5.02,0.81l-11.5,11.5c-1.16,1.16-1.57,2.89-1.05,4.45l3.17,9.52
			c1.02,3.07,4.91,3.98,7.2,1.7l0,0C1002.12,1497.91,1003.22,1497.45,1004.37,1497.45z"/>
	</g>
	<g>
		<path class="st32" d="M870,1320h12.55c7.97,0,15.62,3.17,21.26,8.81l45.53,45.53c2.09,2.09,0.61,5.66-2.34,5.66h-19.54
			c-7.97,0-15.62-3.17-21.26-8.81l-45.53-45.53c-2.09-2.09-0.61-5.66,2.34-5.66H870z"/>
		<linearGradient id="SVGID_30_" gradientUnits="userSpaceOnUse" x1="867.5" y1="1312.5" x2="880" y2="1312.5">
			<stop  offset="0" style="stop-color:#06EABE"/>
			<stop  offset="1" style="stop-color:#00A78E"/>
		</linearGradient>
		<polygon class="st33" points="880,1330 875,1325 875,1320 867.5,1312.5 875,1305 875,1295 880,1310 875,1315 		"/>
		<linearGradient id="SVGID_31_" gradientUnits="userSpaceOnUse" x1="883.2303" y1="1340" x2="901.7697" y2="1340">
			<stop  offset="0" style="stop-color:#06EABE"/>
			<stop  offset="1" style="stop-color:#00A78E"/>
		</linearGradient>
		<path class="st34" d="M885.52,1335h8.53c0.61,0,1.19,0.24,1.62,0.67l5.43,5.43c1.44,1.44,0.42,3.9-1.62,3.9h-8.53
			c-0.61,0-1.19-0.24-1.62-0.67l-5.43-5.43C882.46,1337.46,883.48,1335,885.52,1335z"/>
		<path class="st35" d="M883.75,1325h8.53c0.61,0,1.19,0.24,1.62,0.67l5.43,5.43c1.44,1.44,0.42,3.9-1.62,3.9h-8.53
			c-0.61,0-1.19-0.24-1.62-0.67l-5.43-5.43C880.69,1327.46,881.71,1325,883.75,1325z"/>
		<path class="st35" d="M912.29,1360h8.53c0.61,0,1.19,0.24,1.62,0.67l5.43,5.43c1.44,1.44,0.42,3.9-1.62,3.9h-8.53
			c-0.61,0-1.19-0.24-1.62-0.67l-5.43-5.43C909.23,1362.46,910.25,1360,912.29,1360z"/>
		<polygon class="st36" points="920,1355 925,1345 920,1335 920,1330 925,1335 930,1345 930,1355 920,1360 		"/>
		<linearGradient id="SVGID_32_" gradientUnits="userSpaceOnUse" x1="921.4606" y1="1371.3485" x2="945" y2="1371.3485">
			<stop  offset="0" style="stop-color:#06EABE"/>
			<stop  offset="1" style="stop-color:#00A78E"/>
		</linearGradient>
		<path class="st37" d="M924.37,1365h10.83c0.77,0,1.51,0.31,2.05,0.85l6.89,6.89c1.83,1.83,0.53,4.96-2.05,4.96h-10.83
			c-0.77,0-1.51-0.31-2.05-0.85l-6.89-6.89C920.49,1368.13,921.78,1365,924.37,1365z"/>
		<linearGradient id="SVGID_33_" gradientUnits="userSpaceOnUse" x1="900.7303" y1="1361.1515" x2="915" y2="1361.1515">
			<stop  offset="0" style="stop-color:#06EABE"/>
			<stop  offset="1" style="stop-color:#00A78E"/>
		</linearGradient>
		<path class="st38" d="M902.49,1357.3h6.57c0.47,0,0.91,0.19,1.24,0.52l4.18,4.18c1.11,1.11,0.32,3.01-1.24,3.01h-6.57
			c-0.47,0-0.91-0.19-1.24-0.52l-4.18-4.18C900.14,1359.2,900.93,1357.3,902.49,1357.3z"/>
		<polygon class="st36" points="891.07,1328.46 883.16,1320.55 880,1311.07 881.58,1300 884.74,1309.49 887.91,1318.97 
			894.23,1322.14 		"/>
		<polygon class="st36" points="868.93,1300 876.84,1307.91 880,1317.39 878.42,1328.46 875.26,1318.97 872.09,1309.49 
			865.77,1306.32 		"/>
		
			<linearGradient id="SVGID_34_" gradientUnits="userSpaceOnUse" x1="917.1859" y1="1333.8129" x2="929.6859" y2="1333.8129" gradientTransform="matrix(0.7071 0.7071 -0.7071 0.7071 1223.1353 -237.9097)">
			<stop  offset="0" style="stop-color:#06EABE"/>
			<stop  offset="1" style="stop-color:#00A78E"/>
		</linearGradient>
		<polygon class="st39" points="925,1375 925,1367.93 928.54,1364.39 928.54,1353.79 939.14,1353.79 946.21,1346.72 939.14,1360.86 
			932.07,1360.86 		"/>
		<linearGradient id="SVGID_35_" gradientUnits="userSpaceOnUse" x1="885" y1="1307.5" x2="900" y2="1307.5">
			<stop  offset="0" style="stop-color:#06EABE"/>
			<stop  offset="1" style="stop-color:#00A78E"/>
		</linearGradient>
		<polygon class="st40" points="885,1330 890,1320 890,1310 885,1300 890,1285 890,1300 900,1310 895,1320 890,1330 		"/>
		<linearGradient id="SVGID_36_" gradientUnits="userSpaceOnUse" x1="905" y1="1337.5" x2="920" y2="1337.5">
			<stop  offset="0" style="stop-color:#06EABE"/>
			<stop  offset="1" style="stop-color:#00A78E"/>
		</linearGradient>
		<polygon class="st41" points="905,1360 910,1350 910,1340 905,1330 910,1315 910,1330 920,1340 915,1350 910,1360 		"/>
		<linearGradient id="SVGID_37_" gradientUnits="userSpaceOnUse" x1="880" y1="1315" x2="900" y2="1315">
			<stop  offset="0" style="stop-color:#06EABE"/>
			<stop  offset="1" style="stop-color:#00A78E"/>
		</linearGradient>
		<polygon class="st42" points="880,1325 880,1320 885,1315 885,1310 900,1300 890,1315 885,1320 885,1325 880,1330 		"/>
		<polygon class="st36" points="899.74,1349.23 891.84,1341.32 888.68,1331.84 890.26,1320.77 893.42,1330.26 896.58,1339.74 
			902.91,1342.91 		"/>
		
			<linearGradient id="SVGID_38_" gradientUnits="userSpaceOnUse" x1="865" y1="1327.5" x2="880" y2="1327.5" gradientTransform="matrix(-1 0 0 1 1775 0)">
			<stop  offset="0" style="stop-color:#BA785D"/>
			<stop  offset="1" style="stop-color:#00A78E"/>
		</linearGradient>
		<polygon class="st43" points="910,1350 910,1340 900,1335 900,1325 905,1315 900,1305 900,1320 895,1330 895,1340 905,1350 		"/>
		
			<linearGradient id="SVGID_39_" gradientUnits="userSpaceOnUse" x1="903.2843" y1="1350.8579" x2="923.2843" y2="1350.8579" gradientTransform="matrix(0.7071 -0.7071 0.7071 0.7071 -694.5258 1033.2664)">
			<stop  offset="0" style="stop-color:#06EABE"/>
			<stop  offset="1" style="stop-color:#00A78E"/>
		</linearGradient>
		<polygon class="st44" points="906.46,1356.82 902.93,1353.28 902.93,1346.21 899.39,1342.68 902.93,1325 906.46,1342.68 
			906.46,1349.75 910,1353.28 910,1360.36 		"/>
		<linearGradient id="SVGID_40_" gradientUnits="userSpaceOnUse" x1="925" y1="1355" x2="945" y2="1355">
			<stop  offset="0" style="stop-color:#BA785D"/>
			<stop  offset="1" style="stop-color:#00A78E"/>
		</linearGradient>
		<polygon class="st45" points="930,1365 935,1355 935,1345 935,1340 940,1335 940,1345 945,1360 940,1365 925,1375 		"/>
		<linearGradient id="SVGID_41_" gradientUnits="userSpaceOnUse" x1="915" y1="1365" x2="930" y2="1365">
			<stop  offset="0" style="stop-color:#06EABE"/>
			<stop  offset="1" style="stop-color:#00A78E"/>
		</linearGradient>
		<polygon class="st46" points="915,1355 925,1355 925,1360 930,1365 925,1375 925,1365 920,1360 		"/>
		<polygon class="st36" points="880,1335 885,1330 885.52,1335 880,1340 		"/>
		
			<linearGradient id="SVGID_42_" gradientUnits="userSpaceOnUse" x1="855.0359" y1="1325.4943" x2="867.5359" y2="1325.4943" gradientTransform="matrix(0.8736 -0.4866 0.4866 0.8736 -531.3862 578.84)">
			<stop  offset="0" style="stop-color:#06EABE"/>
			<stop  offset="1" style="stop-color:#00A78E"/>
		</linearGradient>
		<polygon class="st47" points="880,1330 873.2,1328.06 870.77,1323.7 860.56,1320.79 863.47,1310.59 858.6,1301.86 870.27,1312.53 
			868.33,1319.33 		"/>
	</g>
	<g>
		<path class="st32" d="M1127.34,1577.34h12.55c7.97,0,15.62,3.17,21.26,8.81l45.53,45.53c2.09,2.09,0.61,5.66-2.34,5.66h-19.54
			c-7.97,0-15.62-3.17-21.26-8.81L1118,1583c-2.09-2.09-0.61-5.66,2.34-5.66H1127.34z"/>
		<linearGradient id="SVGID_43_" gradientUnits="userSpaceOnUse" x1="1124.8417" y1="1569.8417" x2="1137.3417" y2="1569.8417">
			<stop  offset="0" style="stop-color:#06EABE"/>
			<stop  offset="1" style="stop-color:#00A78E"/>
		</linearGradient>
		<polygon class="st48" points="1137.34,1587.34 1132.34,1582.34 1132.34,1577.34 1124.84,1569.84 1132.34,1562.34 1132.34,1552.34 
			1137.34,1567.34 1132.34,1572.34 		"/>
		<linearGradient id="SVGID_44_" gradientUnits="userSpaceOnUse" x1="1140.5719" y1="1597.3417" x2="1159.1113" y2="1597.3417">
			<stop  offset="0" style="stop-color:#06EABE"/>
			<stop  offset="1" style="stop-color:#00A78E"/>
		</linearGradient>
		<path class="st49" d="M1142.86,1592.34h8.53c0.61,0,1.19,0.24,1.62,0.67l5.43,5.43c1.44,1.44,0.42,3.9-1.62,3.9h-8.53
			c-0.61,0-1.19-0.24-1.62-0.67l-5.43-5.43C1139.81,1594.81,1140.83,1592.34,1142.86,1592.34z"/>
		<path class="st35" d="M1141.09,1582.34h8.53c0.61,0,1.19,0.24,1.62,0.67l5.43,5.43c1.44,1.44,0.42,3.9-1.62,3.9h-8.53
			c-0.61,0-1.19-0.24-1.62-0.67l-5.43-5.43C1138.04,1584.81,1139.06,1582.34,1141.09,1582.34z"/>
		<path class="st35" d="M1169.63,1617.34h8.53c0.61,0,1.19,0.24,1.62,0.67l5.43,5.43c1.44,1.44,0.42,3.9-1.62,3.9h-8.53
			c-0.61,0-1.19-0.24-1.62-0.67l-5.43-5.43C1166.58,1619.81,1167.6,1617.34,1169.63,1617.34z"/>
		<polygon class="st36" points="1177.34,1612.34 1182.34,1602.34 1177.34,1592.34 1177.34,1587.34 1182.34,1592.34 1187.34,1602.34 
			1187.34,1612.34 1177.34,1617.34 		"/>
		<linearGradient id="SVGID_45_" gradientUnits="userSpaceOnUse" x1="1178.8022" y1="1628.6902" x2="1202.3417" y2="1628.6902">
			<stop  offset="0" style="stop-color:#06EABE"/>
			<stop  offset="1" style="stop-color:#00A78E"/>
		</linearGradient>
		<path class="st50" d="M1181.71,1622.34h10.83c0.77,0,1.51,0.31,2.05,0.85l6.89,6.89c1.83,1.83,0.53,4.96-2.05,4.96h-10.83
			c-0.77,0-1.51-0.31-2.05-0.85l-6.89-6.89C1177.83,1625.47,1179.12,1622.34,1181.71,1622.34z"/>
		<linearGradient id="SVGID_46_" gradientUnits="userSpaceOnUse" x1="1158.0719" y1="1618.4932" x2="1172.3417" y2="1618.4932">
			<stop  offset="0" style="stop-color:#06EABE"/>
			<stop  offset="1" style="stop-color:#00A78E"/>
		</linearGradient>
		<path class="st51" d="M1159.84,1614.64h6.57c0.47,0,0.91,0.19,1.24,0.52l4.18,4.18c1.11,1.11,0.32,3.01-1.24,3.01h-6.57
			c-0.47,0-0.91-0.19-1.24-0.52l-4.18-4.18C1157.48,1616.54,1158.27,1614.64,1159.84,1614.64z"/>
		<polygon class="st36" points="1148.41,1585.8 1140.5,1577.9 1137.34,1568.41 1138.92,1557.34 1142.09,1566.83 1145.25,1576.32 
			1151.57,1579.48 		"/>
		<polygon class="st36" points="1126.27,1557.34 1134.18,1565.25 1137.34,1574.73 1135.76,1585.8 1132.6,1576.32 1129.44,1566.83 
			1123.11,1563.67 		"/>
		
			<linearGradient id="SVGID_47_" gradientUnits="userSpaceOnUse" x1="1281.1219" y1="1333.8129" x2="1293.6219" y2="1333.8129" gradientTransform="matrix(0.7071 0.7071 -0.7071 0.7071 1223.1353 -237.9097)">
			<stop  offset="0" style="stop-color:#06EABE"/>
			<stop  offset="1" style="stop-color:#00A78E"/>
		</linearGradient>
		<polygon class="st52" points="1182.34,1632.34 1182.34,1625.27 1185.88,1621.73 1185.88,1611.13 1196.48,1611.13 1203.55,1604.06 
			1196.48,1618.2 1189.41,1618.2 		"/>
		<linearGradient id="SVGID_48_" gradientUnits="userSpaceOnUse" x1="1142.3417" y1="1564.8417" x2="1157.3417" y2="1564.8417">
			<stop  offset="0" style="stop-color:#06EABE"/>
			<stop  offset="1" style="stop-color:#00A78E"/>
		</linearGradient>
		<polygon class="st53" points="1142.34,1587.34 1147.34,1577.34 1147.34,1567.34 1142.34,1557.34 1147.34,1542.34 1147.34,1557.34 
			1157.34,1567.34 1152.34,1577.34 1147.34,1587.34 		"/>
		<linearGradient id="SVGID_49_" gradientUnits="userSpaceOnUse" x1="1162.3417" y1="1594.8417" x2="1177.3417" y2="1594.8417">
			<stop  offset="0" style="stop-color:#06EABE"/>
			<stop  offset="1" style="stop-color:#00A78E"/>
		</linearGradient>
		<polygon class="st54" points="1162.34,1617.34 1167.34,1607.34 1167.34,1597.34 1162.34,1587.34 1167.34,1572.34 1167.34,1587.34 
			1177.34,1597.34 1172.34,1607.34 1167.34,1617.34 		"/>
		<linearGradient id="SVGID_50_" gradientUnits="userSpaceOnUse" x1="1137.3417" y1="1572.3417" x2="1157.3417" y2="1572.3417">
			<stop  offset="0" style="stop-color:#06EABE"/>
			<stop  offset="1" style="stop-color:#00A78E"/>
		</linearGradient>
		<polygon class="st55" points="1137.34,1582.34 1137.34,1577.34 1142.34,1572.34 1142.34,1567.34 1157.34,1557.34 1147.34,1572.34 
			1142.34,1577.34 1142.34,1582.34 1137.34,1587.34 		"/>
		<polygon class="st36" points="1157.09,1606.57 1149.18,1598.67 1146.02,1589.18 1147.6,1578.11 1150.76,1587.6 1153.92,1597.09 
			1160.25,1600.25 		"/>
		
			<linearGradient id="SVGID_51_" gradientUnits="userSpaceOnUse" x1="607.6583" y1="1584.8417" x2="622.6583" y2="1584.8417" gradientTransform="matrix(-1 0 0 1 1775 0)">
			<stop  offset="0" style="stop-color:#BA785D"/>
			<stop  offset="1" style="stop-color:#00A78E"/>
		</linearGradient>
		<polygon class="st56" points="1167.34,1607.34 1167.34,1597.34 1157.34,1592.34 1157.34,1582.34 1162.34,1572.34 1157.34,1562.34 
			1157.34,1577.34 1152.34,1587.34 1152.34,1597.34 1162.34,1607.34 		"/>
		
			<linearGradient id="SVGID_52_" gradientUnits="userSpaceOnUse" x1="903.2843" y1="1714.7939" x2="923.2843" y2="1714.7939" gradientTransform="matrix(0.7071 -0.7071 0.7071 0.7071 -694.5258 1033.2664)">
			<stop  offset="0" style="stop-color:#06EABE"/>
			<stop  offset="1" style="stop-color:#00A78E"/>
		</linearGradient>
		<polygon class="st57" points="1163.81,1614.16 1160.27,1610.63 1160.27,1603.55 1156.73,1600.02 1160.27,1582.34 1163.81,1600.02 
			1163.81,1607.09 1167.34,1610.63 1167.34,1617.7 		"/>
		<linearGradient id="SVGID_53_" gradientUnits="userSpaceOnUse" x1="1182.3417" y1="1612.3417" x2="1202.3417" y2="1612.3417">
			<stop  offset="0" style="stop-color:#BA785D"/>
			<stop  offset="1" style="stop-color:#00A78E"/>
		</linearGradient>
		<polygon class="st58" points="1187.34,1622.34 1192.34,1612.34 1192.34,1602.34 1192.34,1597.34 1197.34,1592.34 1197.34,1602.34 
			1202.34,1617.34 1197.34,1622.34 1182.34,1632.34 		"/>
		<linearGradient id="SVGID_54_" gradientUnits="userSpaceOnUse" x1="1172.3417" y1="1622.3417" x2="1187.3417" y2="1622.3417">
			<stop  offset="0" style="stop-color:#06EABE"/>
			<stop  offset="1" style="stop-color:#00A78E"/>
		</linearGradient>
		<polygon class="st59" points="1172.34,1612.34 1182.34,1612.34 1182.34,1617.34 1187.34,1622.34 1182.34,1632.34 1182.34,1622.34 
			1177.34,1617.34 		"/>
		<polygon class="st36" points="1137.34,1592.34 1142.34,1587.34 1142.86,1592.34 1137.34,1597.34 		"/>
		
			<linearGradient id="SVGID_55_" gradientUnits="userSpaceOnUse" x1="954.6409" y1="1675.5347" x2="967.1409" y2="1675.5347" gradientTransform="matrix(0.8736 -0.4866 0.4866 0.8736 -531.3862 578.84)">
			<stop  offset="0" style="stop-color:#06EABE"/>
			<stop  offset="1" style="stop-color:#00A78E"/>
		</linearGradient>
		<polygon class="st60" points="1137.34,1587.34 1130.54,1585.41 1128.11,1581.04 1117.91,1578.14 1120.81,1567.93 1115.94,1559.2 
			1127.61,1569.87 1125.67,1576.67 		"/>
	</g>
	<g>
		<path class="st32" d="M1212.34,1662.34h12.55c7.97,0,15.62,3.17,21.26,8.81l45.53,45.53c2.09,2.09,0.61,5.66-2.34,5.66h-19.54
			c-7.97,0-15.62-3.17-21.26-8.81L1203,1668c-2.09-2.09-0.61-5.66,2.34-5.66H1212.34z"/>
		<linearGradient id="SVGID_56_" gradientUnits="userSpaceOnUse" x1="1209.8417" y1="1654.8417" x2="1222.3417" y2="1654.8417">
			<stop  offset="0" style="stop-color:#06EABE"/>
			<stop  offset="1" style="stop-color:#00A78E"/>
		</linearGradient>
		<polygon class="st61" points="1222.34,1672.34 1217.34,1667.34 1217.34,1662.34 1209.84,1654.84 1217.34,1647.34 1217.34,1637.34 
			1222.34,1652.34 1217.34,1657.34 		"/>
		<linearGradient id="SVGID_57_" gradientUnits="userSpaceOnUse" x1="1225.5719" y1="1682.3417" x2="1244.1113" y2="1682.3417">
			<stop  offset="0" style="stop-color:#06EABE"/>
			<stop  offset="1" style="stop-color:#00A78E"/>
		</linearGradient>
		<path class="st62" d="M1227.86,1677.34h8.53c0.61,0,1.19,0.24,1.62,0.67l5.43,5.43c1.44,1.44,0.42,3.9-1.62,3.9h-8.53
			c-0.61,0-1.19-0.24-1.62-0.67l-5.43-5.43C1224.81,1679.81,1225.83,1677.34,1227.86,1677.34z"/>
		<path class="st35" d="M1226.09,1667.34h8.53c0.61,0,1.19,0.24,1.62,0.67l5.43,5.43c1.44,1.44,0.42,3.9-1.62,3.9h-8.53
			c-0.61,0-1.19-0.24-1.62-0.67l-5.43-5.43C1223.04,1669.81,1224.06,1667.34,1226.09,1667.34z"/>
		<path class="st35" d="M1254.63,1702.34h8.53c0.61,0,1.19,0.24,1.62,0.67l5.43,5.43c1.44,1.44,0.42,3.9-1.62,3.9h-8.53
			c-0.61,0-1.19-0.24-1.62-0.67l-5.43-5.43C1251.58,1704.81,1252.6,1702.34,1254.63,1702.34z"/>
		<polygon class="st36" points="1262.34,1697.34 1267.34,1687.34 1262.34,1677.34 1262.34,1672.34 1267.34,1677.34 1272.34,1687.34 
			1272.34,1697.34 1262.34,1702.34 		"/>
		<linearGradient id="SVGID_58_" gradientUnits="userSpaceOnUse" x1="1263.8022" y1="1713.6902" x2="1287.3417" y2="1713.6902">
			<stop  offset="0" style="stop-color:#06EABE"/>
			<stop  offset="1" style="stop-color:#00A78E"/>
		</linearGradient>
		<path class="st63" d="M1266.71,1707.34h10.83c0.77,0,1.51,0.31,2.05,0.85l6.89,6.89c1.83,1.83,0.53,4.96-2.05,4.96h-10.83
			c-0.77,0-1.51-0.31-2.05-0.85l-6.89-6.89C1262.83,1710.47,1264.12,1707.34,1266.71,1707.34z"/>
		<linearGradient id="SVGID_59_" gradientUnits="userSpaceOnUse" x1="1243.0719" y1="1703.4932" x2="1257.3417" y2="1703.4932">
			<stop  offset="0" style="stop-color:#06EABE"/>
			<stop  offset="1" style="stop-color:#00A78E"/>
		</linearGradient>
		<path class="st64" d="M1244.84,1699.64h6.57c0.47,0,0.91,0.19,1.24,0.52l4.18,4.18c1.11,1.11,0.32,3.01-1.24,3.01h-6.57
			c-0.47,0-0.91-0.19-1.24-0.52l-4.18-4.18C1242.48,1701.54,1243.27,1699.64,1244.84,1699.64z"/>
		<polygon class="st36" points="1233.41,1670.8 1225.5,1662.9 1222.34,1653.41 1223.92,1642.34 1227.09,1651.83 1230.25,1661.32 
			1236.57,1664.48 		"/>
		<polygon class="st36" points="1211.27,1642.34 1219.18,1650.25 1222.34,1659.73 1220.76,1670.8 1217.6,1661.32 1214.44,1651.83 
			1208.11,1648.67 		"/>
		
			<linearGradient id="SVGID_60_" gradientUnits="userSpaceOnUse" x1="1401.3301" y1="1333.8129" x2="1413.8301" y2="1333.8129" gradientTransform="matrix(0.7071 0.7071 -0.7071 0.7071 1223.1353 -237.9097)">
			<stop  offset="0" style="stop-color:#06EABE"/>
			<stop  offset="1" style="stop-color:#00A78E"/>
		</linearGradient>
		<polygon class="st65" points="1267.34,1717.34 1267.34,1710.27 1270.88,1706.73 1270.88,1696.13 1281.48,1696.13 1288.55,1689.06 
			1281.48,1703.2 1274.41,1703.2 		"/>
		<linearGradient id="SVGID_61_" gradientUnits="userSpaceOnUse" x1="1227.3417" y1="1649.8417" x2="1242.3417" y2="1649.8417">
			<stop  offset="0" style="stop-color:#06EABE"/>
			<stop  offset="1" style="stop-color:#00A78E"/>
		</linearGradient>
		<polygon class="st66" points="1227.34,1672.34 1232.34,1662.34 1232.34,1652.34 1227.34,1642.34 1232.34,1627.34 1232.34,1642.34 
			1242.34,1652.34 1237.34,1662.34 1232.34,1672.34 		"/>
		<linearGradient id="SVGID_62_" gradientUnits="userSpaceOnUse" x1="1247.3417" y1="1679.8417" x2="1262.3417" y2="1679.8417">
			<stop  offset="0" style="stop-color:#06EABE"/>
			<stop  offset="1" style="stop-color:#00A78E"/>
		</linearGradient>
		<polygon class="st67" points="1247.34,1702.34 1252.34,1692.34 1252.34,1682.34 1247.34,1672.34 1252.34,1657.34 1252.34,1672.34 
			1262.34,1682.34 1257.34,1692.34 1252.34,1702.34 		"/>
		<linearGradient id="SVGID_63_" gradientUnits="userSpaceOnUse" x1="1222.3417" y1="1657.3417" x2="1242.3417" y2="1657.3417">
			<stop  offset="0" style="stop-color:#06EABE"/>
			<stop  offset="1" style="stop-color:#00A78E"/>
		</linearGradient>
		<polygon class="st68" points="1222.34,1667.34 1222.34,1662.34 1227.34,1657.34 1227.34,1652.34 1242.34,1642.34 1232.34,1657.34 
			1227.34,1662.34 1227.34,1667.34 1222.34,1672.34 		"/>
		<polygon class="st36" points="1242.09,1691.57 1234.18,1683.67 1231.02,1674.18 1232.6,1663.11 1235.76,1672.6 1238.92,1682.09 
			1245.25,1685.25 		"/>
		
			<linearGradient id="SVGID_64_" gradientUnits="userSpaceOnUse" x1="522.6583" y1="1669.8417" x2="537.6583" y2="1669.8417" gradientTransform="matrix(-1 0 0 1 1775 0)">
			<stop  offset="0" style="stop-color:#BA785D"/>
			<stop  offset="1" style="stop-color:#00A78E"/>
		</linearGradient>
		<polygon class="st69" points="1252.34,1692.34 1252.34,1682.34 1242.34,1677.34 1242.34,1667.34 1247.34,1657.34 1242.34,1647.34 
			1242.34,1662.34 1237.34,1672.34 1237.34,1682.34 1247.34,1692.34 		"/>
		
			<linearGradient id="SVGID_65_" gradientUnits="userSpaceOnUse" x1="903.2843" y1="1835.0021" x2="923.2843" y2="1835.0021" gradientTransform="matrix(0.7071 -0.7071 0.7071 0.7071 -694.5258 1033.2664)">
			<stop  offset="0" style="stop-color:#06EABE"/>
			<stop  offset="1" style="stop-color:#00A78E"/>
		</linearGradient>
		<polygon class="st70" points="1248.81,1699.16 1245.27,1695.63 1245.27,1688.55 1241.73,1685.02 1245.27,1667.34 1248.81,1685.02 
			1248.81,1692.09 1252.34,1695.63 1252.34,1702.7 		"/>
		<linearGradient id="SVGID_66_" gradientUnits="userSpaceOnUse" x1="1267.3417" y1="1697.3417" x2="1287.3417" y2="1697.3417">
			<stop  offset="0" style="stop-color:#BA785D"/>
			<stop  offset="1" style="stop-color:#00A78E"/>
		</linearGradient>
		<polygon class="st71" points="1272.34,1707.34 1277.34,1697.34 1277.34,1687.34 1277.34,1682.34 1282.34,1677.34 1282.34,1687.34 
			1287.34,1702.34 1282.34,1707.34 1267.34,1717.34 		"/>
		<linearGradient id="SVGID_67_" gradientUnits="userSpaceOnUse" x1="1257.3417" y1="1707.3417" x2="1272.3417" y2="1707.3417">
			<stop  offset="0" style="stop-color:#06EABE"/>
			<stop  offset="1" style="stop-color:#00A78E"/>
		</linearGradient>
		<polygon class="st72" points="1257.34,1697.34 1267.34,1697.34 1267.34,1702.34 1272.34,1707.34 1267.34,1717.34 1267.34,1707.34 
			1262.34,1702.34 		"/>
		<polygon class="st36" points="1222.34,1677.34 1227.34,1672.34 1227.86,1677.34 1222.34,1682.34 		"/>
		
			<linearGradient id="SVGID_68_" gradientUnits="userSpaceOnUse" x1="987.5405" y1="1791.1531" x2="1000.0405" y2="1791.1531" gradientTransform="matrix(0.8736 -0.4866 0.4866 0.8736 -531.3862 578.84)">
			<stop  offset="0" style="stop-color:#06EABE"/>
			<stop  offset="1" style="stop-color:#00A78E"/>
		</linearGradient>
		<polygon class="st73" points="1222.34,1672.34 1215.54,1670.41 1213.11,1666.04 1202.91,1663.14 1205.81,1652.93 1200.94,1644.2 
			1212.61,1654.87 1210.67,1661.67 		"/>
	</g>
	<g>
		
			<linearGradient id="SVGID_69_" gradientUnits="userSpaceOnUse" x1="4062.6025" y1="2407.5881" x2="4075.1025" y2="2407.5881" gradientTransform="matrix(-0.8872 -0.4613 -0.4613 0.8872 4982.3481 1217.9636)">
			<stop  offset="0" style="stop-color:#BA785D"/>
			<stop  offset="1" style="stop-color:#00A78E"/>
		</linearGradient>
		<polygon class="st74" points="248.03,1489.54 254.77,1487.41 257.08,1482.97 267.19,1479.78 264,1469.66 268.61,1460.79 
			257.26,1471.79 259.39,1478.54 		"/>
		<polygon class="st36" points="271.69,1468.03 261.03,1471.39 253.85,1478.35 250.14,1488.9 257.33,1481.94 264.51,1474.99 
			271.58,1475.1 		"/>
		
			<linearGradient id="SVGID_70_" gradientUnits="userSpaceOnUse" x1="4080.1025" y1="2402.5881" x2="4095.1025" y2="2402.5881" gradientTransform="matrix(-0.8872 -0.4613 -0.4613 0.8872 4982.3481 1217.9636)">
			<stop  offset="0" style="stop-color:#BA785D"/>
			<stop  offset="1" style="stop-color:#00A78E"/>
		</linearGradient>
		<polygon class="st75" points="243.59,1487.23 243.77,1476.05 248.39,1467.18 257.43,1460.61 259.92,1445 253,1458.31 
			239.51,1462.57 239.34,1473.75 239.16,1484.93 		"/>
		
			<linearGradient id="SVGID_71_" gradientUnits="userSpaceOnUse" x1="4075.1025" y1="2410.0881" x2="4095.1025" y2="2410.0881" gradientTransform="matrix(-0.8872 -0.4613 -0.4613 0.8872 4982.3481 1217.9636)">
			<stop  offset="0" style="stop-color:#BA785D"/>
			<stop  offset="1" style="stop-color:#00A78E"/>
		</linearGradient>
		<polygon class="st76" points="250.34,1485.1 252.64,1480.67 250.51,1473.92 252.82,1469.49 244.13,1453.69 246.08,1471.62 
			248.21,1478.36 245.9,1482.8 248.03,1489.54 		"/>
		
			<linearGradient id="SVGID_72_" gradientUnits="userSpaceOnUse" x1="3113.54" y1="3836.8799" x2="3126.04" y2="3836.8799" gradientTransform="matrix(-0.5506 -0.8348 -0.8348 0.5506 5186.7622 1976.6743)">
			<stop  offset="0" style="stop-color:#BA785D"/>
			<stop  offset="1" style="stop-color:#00A78E"/>
		</linearGradient>
		<polygon class="st77" points="248.03,1489.54 254.96,1490.96 259.13,1488.21 269.52,1490.34 271.65,1479.95 280,1474.44 
			264.73,1478.53 263.3,1485.45 		"/>
	</g>
	<g>
		
			<linearGradient id="SVGID_73_" gradientUnits="userSpaceOnUse" x1="4163.4941" y1="2437.5081" x2="4175.9941" y2="2437.5081" gradientTransform="matrix(0.8872 -0.4613 0.4613 0.8872 -4631.5063 1217.9636)">
			<stop  offset="0" style="stop-color:#BA785D"/>
			<stop  offset="1" style="stop-color:#00A78E"/>
		</linearGradient>
		<polygon class="st78" points="206.13,1469.54 199.38,1467.41 197.08,1462.97 186.96,1459.78 190.16,1449.66 185.54,1440.79 
			196.9,1451.79 194.77,1458.54 		"/>
		<polygon class="st36" points="182.47,1448.03 193.13,1451.39 200.31,1458.35 204.01,1468.9 196.83,1461.94 189.65,1454.99 
			182.58,1455.1 		"/>
		
			<linearGradient id="SVGID_74_" gradientUnits="userSpaceOnUse" x1="4180.9941" y1="2432.5081" x2="4195.9941" y2="2432.5081" gradientTransform="matrix(0.8872 -0.4613 0.4613 0.8872 -4631.5063 1217.9636)">
			<stop  offset="0" style="stop-color:#BA785D"/>
			<stop  offset="1" style="stop-color:#00A78E"/>
		</linearGradient>
		<polygon class="st79" points="210.56,1467.23 210.39,1456.05 205.77,1447.18 196.72,1440.61 194.24,1425 201.16,1438.31 
			214.65,1442.57 214.82,1453.75 215,1464.93 		"/>
		
			<linearGradient id="SVGID_75_" gradientUnits="userSpaceOnUse" x1="4175.9941" y1="2440.0081" x2="4195.9941" y2="2440.0081" gradientTransform="matrix(0.8872 -0.4613 0.4613 0.8872 -4631.5063 1217.9636)">
			<stop  offset="0" style="stop-color:#BA785D"/>
			<stop  offset="1" style="stop-color:#00A78E"/>
		</linearGradient>
		<polygon class="st80" points="203.82,1465.1 201.51,1460.67 203.64,1453.92 201.34,1449.49 210.03,1433.69 208.08,1451.62 
			205.95,1458.36 208.26,1462.8 206.13,1469.54 		"/>
		
			<linearGradient id="SVGID_76_" gradientUnits="userSpaceOnUse" x1="3187.1243" y1="3912.1111" x2="3199.6243" y2="3912.1111" gradientTransform="matrix(0.5506 -0.8348 0.8348 0.5506 -4835.9204 1976.6743)">
			<stop  offset="0" style="stop-color:#BA785D"/>
			<stop  offset="1" style="stop-color:#00A78E"/>
		</linearGradient>
		<polygon class="st81" points="206.13,1469.54 199.2,1470.96 195.03,1468.21 184.64,1470.34 182.51,1459.95 174.16,1454.44 
			189.43,1458.53 190.85,1465.45 		"/>
	</g>
	<g>
		
			<linearGradient id="SVGID_77_" gradientUnits="userSpaceOnUse" x1="4140.6816" y1="2403.9402" x2="4151.6514" y2="2403.9402" gradientTransform="matrix(0.8872 -0.4613 0.4613 0.8872 -4631.5063 1217.9636)">
			<stop  offset="0" style="stop-color:#BA785D"/>
			<stop  offset="1" style="stop-color:#00A78E"/>
		</linearGradient>
		<polygon class="st82" points="168.06,1449.09 162.14,1447.22 160.11,1443.32 151.24,1440.52 154.04,1431.65 149.99,1423.86 
			159.96,1433.51 158.09,1439.43 		"/>
		<polygon class="st36" points="147.29,1430.21 156.65,1433.16 162.95,1439.27 166.2,1448.53 159.9,1442.42 153.6,1436.31 
			147.39,1436.41 		"/>
		
			<linearGradient id="SVGID_78_" gradientUnits="userSpaceOnUse" x1="4156.0396" y1="2399.5525" x2="4169.2031" y2="2399.5525" gradientTransform="matrix(0.8872 -0.4613 0.4613 0.8872 -4631.5063 1217.9636)">
			<stop  offset="0" style="stop-color:#BA785D"/>
			<stop  offset="1" style="stop-color:#00A78E"/>
		</linearGradient>
		<polygon class="st83" points="171.95,1447.06 171.79,1437.25 167.74,1429.47 159.8,1423.7 157.62,1410 163.7,1421.68 
			175.53,1425.42 175.69,1435.23 175.84,1445.04 		"/>
		
			<linearGradient id="SVGID_79_" gradientUnits="userSpaceOnUse" x1="4151.6514" y1="2406.1343" x2="4169.2031" y2="2406.1343" gradientTransform="matrix(0.8872 -0.4613 0.4613 0.8872 -4631.5063 1217.9636)">
			<stop  offset="0" style="stop-color:#BA785D"/>
			<stop  offset="1" style="stop-color:#00A78E"/>
		</linearGradient>
		<polygon class="st84" points="166.03,1445.19 164.01,1441.3 165.88,1435.38 163.85,1431.49 171.48,1417.63 169.77,1433.36 
			167.9,1439.28 169.92,1443.17 168.06,1449.09 		"/>
		
			<linearGradient id="SVGID_80_" gradientUnits="userSpaceOnUse" x1="3184.7637" y1="3871.2109" x2="3195.7334" y2="3871.2109" gradientTransform="matrix(0.5506 -0.8348 0.8348 0.5506 -4835.9204 1976.6743)">
			<stop  offset="0" style="stop-color:#BA785D"/>
			<stop  offset="1" style="stop-color:#00A78E"/>
		</linearGradient>
		<polygon class="st85" points="168.06,1449.09 161.98,1450.33 158.31,1447.92 149.2,1449.79 147.33,1440.67 140,1435.84 
			153.4,1439.42 154.65,1445.5 		"/>
	</g>
	<g>
		<g>
			
				<linearGradient id="SVGID_81_" gradientUnits="userSpaceOnUse" x1="6401.02" y1="1016.6287" x2="6351.8408" y2="967.4492" gradientTransform="matrix(-4.489700e-11 1 1 4.489700e-11 94.7569 -4852.3267)">
				<stop  offset="0" style="stop-color:#06EABE"/>
				<stop  offset="1" style="stop-color:#00A78E"/>
			</linearGradient>
			<path class="st86" d="M1074.67,1494.57l-1.05,2.1c-0.05,0.1-0.12,0.2-0.2,0.28l-1.03,1.03c-0.2,0.2-0.48,0.32-0.77,0.32h-1.72
				c-0.47,0-0.88,0.3-1.03,0.74l-1.15,3.45c-0.05,0.16-0.14,0.31-0.26,0.42l-1.11,1.11c-0.12,0.12-0.21,0.26-0.26,0.42l-1.25,3.76
				c-0.09,0.27-0.07,0.57,0.06,0.83l0.93,1.85c0.21,0.42,0.13,0.92-0.2,1.25l-2.28,2.28c-0.08,0.08-0.15,0.18-0.2,0.28l-1.2,2.4
				c-0.13,0.26-0.35,0.45-0.63,0.55l-3.58,1.19c-0.27,0.09-0.5,0.29-0.63,0.55l-1.97,3.94c-0.36,0.72,0.16,1.57,0.97,1.57h0.41
				c0.47,0,0.88,0.3,1.03,0.74l1.15,3.45c0.05,0.16,0.14,0.31,0.26,0.42l1.22,1.22c0.05,0.05,0.11,0.1,0.17,0.14l3.74,2.49
				c0.37,0.24,0.55,0.69,0.46,1.12l-1.16,5.8c-0.1,0.51-0.55,0.87-1.07,0.87h-0.98c-0.6,0-1.09,0.49-1.09,1.09v4.24
				c0,0.36,0.18,0.7,0.48,0.9l3.68,2.45c0.18,0.12,0.39,0.18,0.6,0.18h0.7c0.29,0,0.56,0.11,0.77,0.32l2.2,2.2
				c0.27,0.27,0.66,0.38,1.03,0.29l3.96-0.99c0.69-0.17,1.35,0.35,1.35,1.05v2.76c0,0.81,0.85,1.33,1.57,0.97l1.28-0.64
				c0.07-0.04,0.15-0.06,0.22-0.08l5.2-1.3c0.37-0.09,0.76,0.02,1.03,0.29l2.34,2.34c0.12,0.12,0.26,0.21,0.42,0.26l3.76,1.25
				c0.27,0.09,0.57,0.07,0.83-0.06l2.32-1.16c0.15-0.08,0.28-0.19,0.38-0.32l3.95-5.27c0.21-0.27,0.53-0.43,0.87-0.43h6.17
				c0.41,0,0.79-0.23,0.97-0.6l2.42-4.84c0.15-0.3,0.43-0.51,0.76-0.58l5.99-1.2c0.51-0.1,0.87-0.55,0.87-1.07v-4.91
				c0-0.07,0.01-0.14,0.02-0.21l1.38-6.92c0.05-0.24,0.01-0.48-0.09-0.7l-2.72-5.45c-0.04-0.09-0.07-0.18-0.09-0.27l-1.34-6.68
				c-0.07-0.36,0.04-0.72,0.3-0.98l0,0c0.52-0.52,0.38-1.41-0.28-1.74l-3.78-1.89c-0.46-0.23-0.69-0.74-0.57-1.24l1.21-4.86
				c0.03-0.14,0.04-0.28,0.02-0.42l-1.38-9.65c-0.04-0.31-0.22-0.58-0.47-0.75l-3.94-2.63c-0.06-0.04-0.12-0.09-0.17-0.14
				l-2.33-2.33c-0.33-0.33-0.84-0.41-1.25-0.2l-2.26,1.13l-2.73,1.36c-0.15,0.08-0.32,0.11-0.49,0.11h-1.92
				c-0.47,0-0.88-0.3-1.03-0.74l-2.31-6.94c-0.21-0.63-0.93-0.92-1.52-0.63l-1.61,0.8c-0.15,0.08-0.32,0.11-0.49,0.11h-3.33
				c-0.43,0-0.83-0.24-0.99-0.64c-0.17-0.4-0.53-0.84-1.34-0.84h-3.76c-0.41,0-0.79,0.23-0.97,0.6l-1.14,2.29
				c-0.02,0.05-0.04,0.09-0.06,0.14l-1.24,3.72c-0.13,0.39-0.03,0.82,0.26,1.11l0.45,0.45
				C1074.8,1493.64,1074.88,1494.15,1074.67,1494.57z"/>
			
				<linearGradient id="SVGID_82_" gradientUnits="userSpaceOnUse" x1="6835.6929" y1="946.5664" x2="6792.8213" y2="903.6949" gradientTransform="matrix(-0.4788 0.8779 0.8779 0.4788 3558.6548 -4894.563)">
				<stop  offset="0" style="stop-color:#06EABE"/>
				<stop  offset="1" style="stop-color:#00A78E"/>
			</linearGradient>
			<path class="st87" d="M1111.51,1503.23l-1.68,1.17c-0.08,0.06-0.18,0.1-0.27,0.13l-1.22,0.36c-0.24,0.07-0.5,0.04-0.72-0.08
				l-1.32-0.72c-0.36-0.2-0.8-0.14-1.1,0.14l-2.32,2.16c-0.11,0.1-0.24,0.17-0.38,0.22l-1.32,0.39c-0.14,0.04-0.27,0.12-0.38,0.22
				l-2.53,2.36c-0.18,0.17-0.29,0.41-0.3,0.66l-0.06,1.8c-0.01,0.41-0.29,0.76-0.68,0.88l-2.69,0.79c-0.1,0.03-0.19,0.07-0.27,0.13
				l-1.92,1.33c-0.21,0.14-0.46,0.2-0.71,0.15l-3.24-0.58c-0.25-0.04-0.5,0.01-0.71,0.15l-3.15,2.19c-0.58,0.4-0.53,1.27,0.09,1.61
				l0.32,0.17c0.36,0.2,0.55,0.6,0.48,1l-0.56,3.12c-0.03,0.14-0.02,0.29,0.02,0.43l0.42,1.44c0.02,0.06,0.04,0.12,0.07,0.17
				l1.82,3.47c0.18,0.34,0.13,0.75-0.11,1.05l-3.31,3.96c-0.29,0.35-0.78,0.44-1.18,0.22l-0.75-0.41c-0.46-0.25-1.04-0.08-1.29,0.38
				l-1.77,3.25c-0.15,0.28-0.15,0.61-0.01,0.89l1.79,3.41c0.09,0.17,0.22,0.3,0.39,0.39l0.53,0.29c0.22,0.12,0.38,0.32,0.46,0.56
				l0.77,2.6c0.09,0.32,0.35,0.57,0.67,0.65l3.45,0.9c0.6,0.16,0.89,0.83,0.59,1.37l-1.15,2.11c-0.34,0.62,0.09,1.38,0.8,1.4
				l1.24,0.04c0.07,0,0.14,0.01,0.2,0.03l4.52,1.18c0.32,0.08,0.58,0.33,0.67,0.65l0.81,2.77c0.04,0.14,0.12,0.27,0.22,0.38
				l2.36,2.53c0.17,0.18,0.41,0.29,0.66,0.3l2.26,0.08c0.15,0.01,0.29-0.02,0.43-0.08l5.23-2.38c0.27-0.12,0.59-0.11,0.85,0.03
				l4.73,2.58c0.32,0.17,0.7,0.15,0.99-0.05l3.87-2.69c0.24-0.17,0.54-0.21,0.82-0.13l5.09,1.58c0.43,0.13,0.9-0.05,1.11-0.45
				l2.05-3.76c0.03-0.05,0.07-0.11,0.11-0.15l3.95-4.72c0.14-0.16,0.21-0.36,0.22-0.57l0.19-5.31c0-0.08,0.02-0.17,0.04-0.25
				l1.76-5.67c0.09-0.3,0.33-0.54,0.64-0.63l0,0c0.62-0.18,0.88-0.92,0.51-1.45l-2.11-3.03c-0.25-0.36-0.22-0.86,0.08-1.18
				l2.96-3.21c0.08-0.09,0.15-0.2,0.19-0.31l2.97-7.96c0.09-0.25,0.08-0.53-0.05-0.77l-1.92-3.65c-0.03-0.06-0.05-0.11-0.07-0.17
				l-0.81-2.75c-0.12-0.39-0.47-0.67-0.88-0.68l-2.2-0.08l-2.66-0.09c-0.15-0.01-0.29-0.04-0.42-0.11l-1.47-0.8
				c-0.36-0.2-0.55-0.6-0.48-1l1.13-6.27c0.1-0.57-0.32-1.09-0.9-1.11l-1.56-0.06c-0.15-0.01-0.29-0.04-0.42-0.12l-2.55-1.39
				c-0.33-0.18-0.53-0.53-0.49-0.9c0.04-0.38-0.06-0.86-0.67-1.2l-2.88-1.57c-0.32-0.17-0.7-0.15-0.99,0.05l-1.83,1.27
				c-0.04,0.03-0.07,0.05-0.1,0.08l-2.5,2.33c-0.26,0.24-0.36,0.62-0.26,0.96l0.16,0.53
				C1111.99,1502.58,1111.84,1503,1111.51,1503.23z"/>
		</g>
	</g>
	<linearGradient id="SVGID_83_" gradientUnits="userSpaceOnUse" x1="185.9538" y1="1532.8125" x2="345" y2="1532.8125">
		<stop  offset="0" style="stop-color:#06EABE"/>
		<stop  offset="1" style="stop-color:#00A78E"/>
	</linearGradient>
	<path class="st88" d="M211.25,1490h48.35c1.06,0,2.07,0.42,2.82,1.17l22.67,22.67c0.75,0.75,1.76,1.17,2.82,1.17h16.7
		c1.06,0,2.07,0.42,2.82,1.17l10.17,10.17c0.75,0.75,1.76,1.17,2.82,1.17h9.2c1.06,0,2.07,0.42,2.82,1.17l5.79,5.79
		c2.51,2.51,0.73,6.8-2.82,6.8h-9.53c-3.55,0-5.32,4.29-2.82,6.8l20.08,20.08l0.7,0.7c2.51,2.51,0.73,6.8-2.82,6.8H307.9
		c-1.06,0-2.07-0.42-2.82-1.17l-15.48-15.48c-0.75-0.75-1.76-1.17-2.82-1.17h-10.93c-3.55,0-5.32,4.29-2.82,6.8h0
		c2.51,2.51,0.73,6.8-2.82,6.8h-7.33c-1.06,0-2.07-0.42-2.82-1.17l-72.95-72.95c-2.48-2.48-0.78-6.72,2.72-6.8L211.25,1490z"/>
	<g>
		<path class="st32" d="M182.65,1480h12.55c7.97,0,15.62,3.17,21.26,8.81l45.53,45.53c2.09,2.09,0.61,5.66-2.34,5.66H240.1
			c-7.97,0-15.62-3.17-21.26-8.81l-45.53-45.53c-2.09-2.09-0.61-5.66,2.34-5.66H182.65z"/>
		<linearGradient id="SVGID_84_" gradientUnits="userSpaceOnUse" x1="180.1463" y1="1472.5" x2="192.6463" y2="1472.5">
			<stop  offset="0" style="stop-color:#06EABE"/>
			<stop  offset="1" style="stop-color:#00A78E"/>
		</linearGradient>
		<polygon class="st89" points="192.65,1490 187.65,1485 187.65,1480 180.15,1472.5 187.65,1465 187.65,1455 192.65,1470 
			187.65,1475 		"/>
		<linearGradient id="SVGID_85_" gradientUnits="userSpaceOnUse" x1="195.8766" y1="1500" x2="214.416" y2="1500">
			<stop  offset="0" style="stop-color:#06EABE"/>
			<stop  offset="1" style="stop-color:#00A78E"/>
		</linearGradient>
		<path class="st90" d="M198.17,1495h8.53c0.61,0,1.19,0.24,1.62,0.67l5.43,5.43c1.44,1.44,0.42,3.9-1.62,3.9h-8.53
			c-0.61,0-1.19-0.24-1.62-0.67l-5.43-5.43C195.11,1497.46,196.13,1495,198.17,1495z"/>
		<path class="st35" d="M196.4,1485h8.53c0.61,0,1.19,0.24,1.62,0.67l5.43,5.43c1.44,1.44,0.42,3.9-1.62,3.9h-8.53
			c-0.61,0-1.19-0.24-1.62-0.67l-5.43-5.43C193.34,1487.46,194.36,1485,196.4,1485z"/>
		<path class="st35" d="M224.94,1520h8.53c0.61,0,1.19,0.24,1.62,0.67l5.43,5.43c1.44,1.44,0.42,3.9-1.62,3.9h-8.53
			c-0.61,0-1.19-0.24-1.62-0.67l-5.43-5.43C221.88,1522.46,222.9,1520,224.94,1520z"/>
		<polygon class="st36" points="232.65,1515 237.65,1505 232.65,1495 232.65,1490 237.65,1495 242.65,1505 242.65,1515 232.65,1520 
					"/>
		<linearGradient id="SVGID_86_" gradientUnits="userSpaceOnUse" x1="234.1069" y1="1531.3485" x2="257.6463" y2="1531.3485">
			<stop  offset="0" style="stop-color:#06EABE"/>
			<stop  offset="1" style="stop-color:#00A78E"/>
		</linearGradient>
		<path class="st91" d="M237.02,1525h10.83c0.77,0,1.51,0.31,2.05,0.85l6.89,6.89c1.83,1.83,0.53,4.96-2.05,4.96h-10.83
			c-0.77,0-1.51-0.31-2.05-0.85l-6.89-6.89C233.13,1528.13,234.43,1525,237.02,1525z"/>
		<linearGradient id="SVGID_87_" gradientUnits="userSpaceOnUse" x1="213.3766" y1="1521.1515" x2="227.6463" y2="1521.1515">
			<stop  offset="0" style="stop-color:#06EABE"/>
			<stop  offset="1" style="stop-color:#00A78E"/>
		</linearGradient>
		<path class="st92" d="M215.14,1517.3h6.57c0.47,0,0.91,0.19,1.24,0.52l4.18,4.18c1.11,1.11,0.32,3.01-1.24,3.01h-6.57
			c-0.47,0-0.91-0.19-1.24-0.52l-4.18-4.18C212.79,1519.2,213.57,1517.3,215.14,1517.3z"/>
		<polygon class="st36" points="203.71,1488.46 195.81,1480.55 192.65,1471.07 194.23,1460 197.39,1469.49 200.55,1478.97 
			206.88,1482.14 		"/>
		<polygon class="st36" points="181.58,1460 189.48,1467.91 192.65,1477.39 191.07,1488.46 187.9,1478.97 184.74,1469.49 
			178.42,1466.32 		"/>
		
			<linearGradient id="SVGID_88_" gradientUnits="userSpaceOnUse" x1="544.2905" y1="1932.9824" x2="556.7905" y2="1932.9824" gradientTransform="matrix(0.7071 0.7071 -0.7071 0.7071 1223.1353 -237.9097)">
			<stop  offset="0" style="stop-color:#06EABE"/>
			<stop  offset="1" style="stop-color:#00A78E"/>
		</linearGradient>
		<polygon class="st93" points="237.65,1535 237.65,1527.93 241.18,1524.39 241.18,1513.79 251.79,1513.79 258.86,1506.72 
			251.79,1520.86 244.72,1520.86 		"/>
		<linearGradient id="SVGID_89_" gradientUnits="userSpaceOnUse" x1="197.6463" y1="1467.5" x2="212.6463" y2="1467.5">
			<stop  offset="0" style="stop-color:#06EABE"/>
			<stop  offset="1" style="stop-color:#00A78E"/>
		</linearGradient>
		<polygon class="st94" points="197.65,1490 202.65,1480 202.65,1470 197.65,1460 202.65,1445 202.65,1460 212.65,1470 207.65,1480 
			202.65,1490 		"/>
		<linearGradient id="SVGID_90_" gradientUnits="userSpaceOnUse" x1="217.6463" y1="1497.5" x2="232.6463" y2="1497.5">
			<stop  offset="0" style="stop-color:#06EABE"/>
			<stop  offset="1" style="stop-color:#00A78E"/>
		</linearGradient>
		<polygon class="st95" points="217.65,1520 222.65,1510 222.65,1500 217.65,1490 222.65,1475 222.65,1490 232.65,1500 227.65,1510 
			222.65,1520 		"/>
		<linearGradient id="SVGID_91_" gradientUnits="userSpaceOnUse" x1="192.6463" y1="1475" x2="212.6463" y2="1475">
			<stop  offset="0" style="stop-color:#06EABE"/>
			<stop  offset="1" style="stop-color:#00A78E"/>
		</linearGradient>
		<polygon class="st96" points="192.65,1485 192.65,1480 197.65,1475 197.65,1470 212.65,1460 202.65,1475 197.65,1480 197.65,1485 
			192.65,1490 		"/>
		<polygon class="st36" points="212.39,1509.23 204.48,1501.32 201.32,1491.84 202.9,1480.77 206.07,1490.26 209.23,1499.74 
			215.55,1502.91 		"/>
		
			<linearGradient id="SVGID_92_" gradientUnits="userSpaceOnUse" x1="1552.3538" y1="1487.5" x2="1567.3538" y2="1487.5" gradientTransform="matrix(-1 0 0 1 1775 0)">
			<stop  offset="0" style="stop-color:#BA785D"/>
			<stop  offset="1" style="stop-color:#00A78E"/>
		</linearGradient>
		<polygon class="st97" points="222.65,1510 222.65,1500 212.65,1495 212.65,1485 217.65,1475 212.65,1465 212.65,1480 207.65,1490 
			207.65,1500 217.65,1510 		"/>
		
			<linearGradient id="SVGID_93_" gradientUnits="userSpaceOnUse" x1="304.1147" y1="977.9625" x2="324.1147" y2="977.9625" gradientTransform="matrix(0.7071 -0.7071 0.7071 0.7071 -694.5258 1033.2664)">
			<stop  offset="0" style="stop-color:#06EABE"/>
			<stop  offset="1" style="stop-color:#00A78E"/>
		</linearGradient>
		<polygon class="st98" points="219.11,1516.82 215.58,1513.28 215.58,1506.21 212.04,1502.68 215.58,1485 219.11,1502.68 
			219.11,1509.75 222.65,1513.28 222.65,1520.36 		"/>
		<linearGradient id="SVGID_94_" gradientUnits="userSpaceOnUse" x1="237.6463" y1="1515" x2="257.6463" y2="1515">
			<stop  offset="0" style="stop-color:#BA785D"/>
			<stop  offset="1" style="stop-color:#00A78E"/>
		</linearGradient>
		<polygon class="st99" points="242.65,1525 247.65,1515 247.65,1505 247.65,1500 252.65,1495 252.65,1505 257.65,1520 252.65,1525 
			237.65,1535 		"/>
		<linearGradient id="SVGID_95_" gradientUnits="userSpaceOnUse" x1="227.6463" y1="1525" x2="242.6463" y2="1525">
			<stop  offset="0" style="stop-color:#06EABE"/>
			<stop  offset="1" style="stop-color:#00A78E"/>
		</linearGradient>
		<polygon class="st100" points="227.65,1515 237.65,1515 237.65,1520 242.65,1525 237.65,1535 237.65,1525 232.65,1520 		"/>
		<polygon class="st36" points="192.65,1495 197.65,1490 198.17,1495 192.65,1500 		"/>
		
			<linearGradient id="SVGID_96_" gradientUnits="userSpaceOnUse" x1="176.6865" y1="1130.8223" x2="189.1865" y2="1130.8223" gradientTransform="matrix(0.8736 -0.4866 0.4866 0.8736 -531.3862 578.84)">
			<stop  offset="0" style="stop-color:#06EABE"/>
			<stop  offset="1" style="stop-color:#00A78E"/>
		</linearGradient>
		<polygon class="st101" points="192.65,1490 185.85,1488.06 183.41,1483.7 173.21,1480.79 176.11,1470.59 171.25,1461.86 
			182.91,1472.53 180.98,1479.33 		"/>
	</g>
	<g>
		<linearGradient id="SVGID_97_" gradientUnits="userSpaceOnUse" x1="260.1463" y1="1477.5" x2="272.6463" y2="1477.5">
			<stop  offset="0" style="stop-color:#06EABE"/>
			<stop  offset="1" style="stop-color:#00A78E"/>
		</linearGradient>
		<polygon class="st102" points="272.65,1495 267.65,1490 267.65,1485 260.15,1477.5 267.65,1470 267.65,1460 272.65,1475 
			267.65,1480 		"/>
		<polygon class="st36" points="261.58,1465 269.48,1472.91 272.65,1482.39 271.07,1493.46 267.9,1483.97 264.74,1474.49 
			258.42,1471.32 		"/>
		<linearGradient id="SVGID_98_" gradientUnits="userSpaceOnUse" x1="277.6463" y1="1472.5" x2="292.6463" y2="1472.5">
			<stop  offset="0" style="stop-color:#06EABE"/>
			<stop  offset="1" style="stop-color:#00A78E"/>
		</linearGradient>
		<polygon class="st103" points="277.65,1495 282.65,1485 282.65,1475 277.65,1465 282.65,1450 282.65,1465 292.65,1475 
			287.65,1485 282.65,1495 		"/>
		<linearGradient id="SVGID_99_" gradientUnits="userSpaceOnUse" x1="272.6463" y1="1480" x2="292.6463" y2="1480">
			<stop  offset="0" style="stop-color:#06EABE"/>
			<stop  offset="1" style="stop-color:#00A78E"/>
		</linearGradient>
		<polygon class="st104" points="272.65,1490 272.65,1485 277.65,1480 277.65,1475 292.65,1465 282.65,1480 277.65,1485 
			277.65,1490 272.65,1495 		"/>
		
			<linearGradient id="SVGID_100_" gradientUnits="userSpaceOnUse" x1="244.1444" y1="1174.1169" x2="256.6444" y2="1174.1169" gradientTransform="matrix(0.8736 -0.4866 0.4866 0.8736 -531.3862 578.84)">
			<stop  offset="0" style="stop-color:#06EABE"/>
			<stop  offset="1" style="stop-color:#00A78E"/>
		</linearGradient>
		<polygon class="st105" points="272.65,1495 265.85,1493.06 263.41,1488.7 253.21,1485.79 256.11,1475.59 251.25,1466.86 
			262.91,1477.53 260.98,1484.33 		"/>
	</g>
	<g>
		<circle class="st1" cx="1267.5" cy="1590" r="10"/>
		<circle class="st0" cx="1262.5" cy="1587.5" r="7.5"/>
		<path class="st2" d="M1250,1580v5h30l-9.91,138.71c-0.05,0.42-0.09,0.85-0.09,1.29c0,5.52,4.48,10,10,10c5.52,0,10-4.48,10-10
			v-145H1250z"/>
	</g>
	<g>
		<circle class="st1" cx="802.5" cy="1375" r="10"/>
		<circle class="st0" cx="797.5" cy="1372.5" r="7.5"/>
		<path class="st2" d="M785,1365v5h30l-9.91,138.71c-0.05,0.42-0.09,0.85-0.09,1.29c0,5.52,4.48,10,10,10c5.52,0,10-4.48,10-10v-145
			H785z"/>
	</g>
	<g>
		<circle class="st1" cx="2177.5" cy="1565" r="10"/>
		<circle class="st0" cx="2172.5" cy="1562.5" r="7.5"/>
		<path class="st2" d="M2160,1555v5h30l-9.91,138.71c-0.05,0.42-0.09,0.85-0.09,1.29c0,5.52,4.48,10,10,10s10-4.48,10-10v-145H2160z
			"/>
	</g>
	<g>
		<circle class="st1" cx="562.5" cy="1375" r="10"/>
		<circle class="st0" cx="557.5" cy="1372.5" r="7.5"/>
		<path class="st2" d="M545,1365v5h30l-9.91,138.71c-0.05,0.42-0.09,0.85-0.09,1.29c0,5.52,4.48,10,10,10c5.52,0,10-4.48,10-10v-145
			H545z"/>
	</g>
</g>
</svg>
