<?xml version="1.0" encoding="utf-8"?>
<!-- Generator: Adobe Illustrator 23.1.1, SVG Export Plug-In . SVG Version: 6.00 Build 0)  -->
<svg version="1.1" xmlns="http://www.w3.org/2000/svg" xmlns:xlink="http://www.w3.org/1999/xlink" x="0px" y="0px"
	 viewBox="0 0 3840 2160" style="enable-background:new 0 0 3840 2160;" xml:space="preserve">
<style type="text/css">
	.st0{fill:transparent;}
	.st1{fill:#CBCBCB;}
	.st2{fill:url(#SVGID_1_);}
	.st3{fill:url(#SVGID_2_);}
	.st4{fill:url(#SVGID_3_);}
	.st5{fill:url(#SVGID_4_);}
	.st6{fill:url(#SVGID_5_);}
	.st7{fill:url(#SVGID_6_);}
	.st8{fill:url(#SVGID_7_);}
	.st9{fill:url(#SVGID_8_);}
	.st10{fill:url(#SVGID_9_);}
	.st11{fill:url(#SVGID_10_);}
	.st12{fill:url(#SVGID_11_);}
	.st13{fill:url(#SVGID_12_);}
	.st14{fill:url(#SVGID_13_);}
	.st15{fill:url(#SVGID_14_);}
	.st16{fill:url(#SVGID_15_);}
	.st17{fill:#E29276;}
	.st18{fill:#8E5C4A;}
	.st19{fill:#BA785D;}
	.st20{fill:url(#SVGID_16_);}
	.st21{fill:url(#SVGID_17_);}
	.st22{fill:url(#SVGID_18_);}
	.st23{fill:url(#SVGID_19_);}
	.st24{fill:url(#SVGID_20_);}
	.st25{fill:url(#SVGID_21_);}
	.st26{fill:url(#SVGID_22_);}
	.st27{fill:url(#SVGID_23_);}
	.st28{fill:url(#SVGID_24_);}
	.st29{fill:url(#SVGID_25_);}
	.st30{fill:url(#SVGID_26_);}
	.st31{fill:url(#SVGID_27_);}
	.st32{fill:url(#SVGID_28_);}
	.st33{fill:url(#SVGID_29_);}
	.st34{fill:url(#SVGID_30_);}
	.st35{fill:url(#SVGID_31_);}
	.st36{fill:url(#SVGID_32_);}
	.st37{fill:url(#SVGID_33_);}
	.st38{fill:url(#SVGID_34_);}
	.st39{fill:url(#SVGID_35_);}
	.st40{fill:url(#SVGID_36_);}
	.st41{fill:url(#SVGID_37_);}
	.st42{fill:url(#SVGID_38_);}
	.st43{fill:url(#SVGID_39_);}
	.st44{fill:url(#SVGID_40_);}
	.st45{fill:url(#SVGID_41_);}
	.st46{fill:url(#SVGID_42_);}
	.st47{fill:url(#SVGID_43_);}
	.st48{fill:url(#SVGID_44_);}
	.st49{fill:url(#SVGID_45_);}
	.st50{fill:url(#SVGID_46_);}
	.st51{fill:url(#SVGID_47_);}
	.st52{fill:url(#SVGID_48_);}
	.st53{fill:url(#SVGID_49_);}
	.st54{fill:url(#SVGID_50_);}
	.st55{fill:url(#SVGID_51_);}
	.st56{fill:url(#SVGID_52_);}
	.st57{fill:url(#SVGID_53_);}
	.st58{fill:url(#SVGID_54_);}
	.st59{fill:url(#SVGID_55_);}
	.st60{fill:url(#SVGID_56_);}
	.st61{fill:url(#SVGID_57_);}
	.st62{fill:url(#SVGID_58_);}
	.st63{fill:url(#SVGID_59_);}
	.st64{fill:url(#SVGID_60_);}
	.st65{fill:url(#SVGID_61_);}
	.st66{fill:url(#SVGID_62_);}
</style>
<g id="Back">
	<rect class="st0" width="3840" height="2160"/>
</g>
<g id="Skver">
	<g>
		<g>
			<polygon class="st1" points="655.86,1330 690.86,1330 890,1529.14 855,1529.14 			"/>
			<g>
				<g>
					
						<linearGradient id="SVGID_1_" gradientUnits="userSpaceOnUse" x1="6199.0664" y1="553.3399" x2="6162.9775" y2="517.2508" gradientTransform="matrix(-4.489700e-11 1 1 4.489700e-11 94.7569 -4852.3267)">
						<stop  offset="0" style="stop-color:#06EABE"/>
						<stop  offset="1" style="stop-color:#00A78E"/>
					</linearGradient>
					<path class="st2" d="M621.15,1307.02l-0.77,1.54c-0.04,0.08-0.09,0.15-0.15,0.21l-0.76,0.76c-0.15,0.15-0.35,0.23-0.56,0.23
						h-1.26c-0.34,0-0.65,0.22-0.76,0.55l-0.84,2.53c-0.04,0.12-0.11,0.22-0.19,0.31l-0.82,0.82c-0.09,0.09-0.15,0.19-0.19,0.31
						l-0.92,2.76c-0.07,0.2-0.05,0.42,0.04,0.61l0.68,1.36c0.15,0.31,0.09,0.68-0.15,0.92l-1.67,1.67
						c-0.06,0.06-0.11,0.13-0.15,0.21l-0.88,1.76c-0.09,0.19-0.26,0.33-0.46,0.4l-2.63,0.88c-0.2,0.07-0.37,0.21-0.46,0.4
						l-1.44,2.89c-0.27,0.53,0.12,1.15,0.71,1.15h0.3c0.34,0,0.65,0.22,0.76,0.55l0.84,2.53c0.04,0.12,0.11,0.22,0.19,0.31l0.9,0.9
						c0.04,0.04,0.08,0.07,0.12,0.1l2.74,1.83c0.27,0.18,0.4,0.5,0.34,0.82l-0.85,4.26c-0.07,0.37-0.4,0.64-0.78,0.64h-0.72
						c-0.44,0-0.8,0.36-0.8,0.8v3.11c0,0.27,0.13,0.52,0.36,0.66l2.7,1.8c0.13,0.09,0.28,0.13,0.44,0.13h0.51
						c0.21,0,0.41,0.08,0.56,0.23l1.62,1.62c0.2,0.2,0.49,0.28,0.76,0.21l2.91-0.73c0.5-0.13,0.99,0.26,0.99,0.77v2.03
						c0,0.59,0.62,0.98,1.15,0.71l0.94-0.47c0.05-0.03,0.11-0.05,0.16-0.06l3.82-0.95c0.27-0.07,0.56,0.01,0.76,0.21l1.72,1.72
						c0.09,0.09,0.19,0.15,0.31,0.19l2.76,0.92c0.2,0.07,0.42,0.05,0.61-0.04l1.71-0.85c0.11-0.06,0.21-0.14,0.28-0.23l2.9-3.87
						c0.15-0.2,0.39-0.32,0.64-0.32h4.53c0.3,0,0.58-0.17,0.71-0.44l1.77-3.55c0.11-0.22,0.32-0.38,0.56-0.43l4.4-0.88
						c0.37-0.07,0.64-0.4,0.64-0.78v-3.61c0-0.05,0.01-0.1,0.02-0.16l1.02-5.08c0.03-0.17,0.01-0.35-0.07-0.51l-2-4
						c-0.03-0.06-0.05-0.13-0.07-0.2l-0.98-4.9c-0.05-0.26,0.03-0.53,0.22-0.72l0,0c0.39-0.39,0.28-1.03-0.21-1.28l-2.78-1.39
						c-0.33-0.17-0.51-0.54-0.42-0.91l0.89-3.57c0.03-0.1,0.03-0.2,0.02-0.31l-1.01-7.08c-0.03-0.22-0.16-0.43-0.35-0.55l-2.89-1.93
						c-0.04-0.03-0.08-0.06-0.12-0.1l-1.71-1.71c-0.24-0.24-0.61-0.3-0.92-0.15l-1.65,0.83l-2,1c-0.11,0.06-0.23,0.08-0.36,0.08H635
						c-0.34,0-0.65-0.22-0.76-0.55l-1.7-5.09c-0.15-0.46-0.68-0.68-1.11-0.46l-1.18,0.59c-0.11,0.06-0.23,0.08-0.36,0.08h-2.44
						c-0.31,0-0.61-0.18-0.73-0.47c-0.12-0.29-0.39-0.62-0.98-0.62h-2.76c-0.3,0-0.58,0.17-0.71,0.44l-0.84,1.68
						c-0.02,0.03-0.03,0.07-0.04,0.1l-0.91,2.73c-0.1,0.29-0.02,0.6,0.19,0.82l0.33,0.33
						C621.25,1306.34,621.31,1306.71,621.15,1307.02z"/>
					
						<linearGradient id="SVGID_2_" gradientUnits="userSpaceOnUse" x1="6878.2744" y1="440.382" x2="6846.8145" y2="408.9219" gradientTransform="matrix(-0.4788 0.8779 0.8779 0.4788 3558.6548 -4894.563)">
						<stop  offset="0" style="stop-color:#06EABE"/>
						<stop  offset="1" style="stop-color:#00A78E"/>
					</linearGradient>
					<path class="st3" d="M648.19,1313.38l-1.23,0.86c-0.06,0.04-0.13,0.08-0.2,0.1l-0.9,0.26c-0.18,0.05-0.37,0.03-0.53-0.06
						l-0.97-0.53c-0.26-0.14-0.59-0.1-0.81,0.1l-1.7,1.58c-0.08,0.07-0.17,0.13-0.28,0.16l-0.97,0.28c-0.1,0.03-0.2,0.08-0.28,0.16
						l-1.86,1.73c-0.14,0.13-0.21,0.3-0.22,0.48l-0.05,1.32c-0.01,0.3-0.21,0.56-0.5,0.64l-1.98,0.58c-0.07,0.02-0.14,0.05-0.2,0.1
						l-1.41,0.98c-0.15,0.11-0.34,0.15-0.52,0.11l-2.38-0.43c-0.18-0.03-0.37,0.01-0.52,0.11l-2.31,1.61
						c-0.42,0.3-0.39,0.93,0.06,1.18l0.23,0.13c0.26,0.14,0.4,0.44,0.35,0.73l-0.41,2.29c-0.02,0.11-0.01,0.22,0.02,0.32l0.31,1.06
						c0.01,0.04,0.03,0.09,0.05,0.13l1.34,2.54c0.13,0.25,0.1,0.55-0.08,0.77l-2.43,2.9c-0.21,0.25-0.58,0.32-0.87,0.16l-0.55-0.3
						c-0.34-0.18-0.76-0.06-0.94,0.28l-1.3,2.38c-0.11,0.2-0.11,0.45-0.01,0.66l1.31,2.5c0.06,0.12,0.16,0.22,0.28,0.29l0.39,0.21
						c0.16,0.09,0.28,0.24,0.33,0.41l0.56,1.91c0.07,0.23,0.26,0.42,0.49,0.48l2.53,0.66c0.44,0.11,0.65,0.61,0.44,1.01l-0.85,1.55
						c-0.25,0.45,0.07,1.01,0.59,1.03l0.91,0.03c0.05,0,0.1,0.01,0.15,0.02l3.32,0.86c0.24,0.06,0.42,0.24,0.49,0.48l0.6,2.03
						c0.03,0.1,0.08,0.2,0.16,0.28l1.73,1.86c0.13,0.14,0.3,0.21,0.48,0.22l1.66,0.06c0.11,0,0.22-0.02,0.31-0.06l3.83-1.75
						c0.2-0.09,0.43-0.08,0.62,0.02l3.47,1.89c0.23,0.13,0.51,0.11,0.73-0.04l2.84-1.98c0.18-0.12,0.4-0.16,0.6-0.09l3.73,1.16
						c0.32,0.1,0.66-0.04,0.82-0.33l1.5-2.76c0.02-0.04,0.05-0.08,0.08-0.11l2.9-3.46c0.1-0.12,0.16-0.27,0.16-0.42l0.14-3.89
						c0-0.06,0.01-0.12,0.03-0.18l1.29-4.16c0.07-0.22,0.24-0.39,0.47-0.46l0,0c0.46-0.13,0.65-0.67,0.37-1.06l-1.55-2.22
						c-0.19-0.27-0.16-0.63,0.06-0.87l2.17-2.36c0.06-0.07,0.11-0.14,0.14-0.23l2.18-5.84c0.07-0.19,0.06-0.39-0.04-0.57l-1.41-2.68
						c-0.02-0.04-0.04-0.08-0.05-0.13l-0.59-2.02c-0.08-0.29-0.34-0.49-0.64-0.5l-1.61-0.06l-1.95-0.07c-0.11,0-0.21-0.03-0.31-0.08
						l-1.08-0.59c-0.26-0.14-0.4-0.44-0.35-0.73l0.83-4.6c0.07-0.42-0.24-0.8-0.66-0.82l-1.15-0.04c-0.11,0-0.21-0.03-0.31-0.08
						l-1.87-1.02c-0.24-0.13-0.39-0.39-0.36-0.66c0.03-0.28-0.04-0.63-0.49-0.88l-2.11-1.15c-0.23-0.13-0.51-0.11-0.73,0.04
						l-1.34,0.93c-0.03,0.02-0.05,0.04-0.08,0.06l-1.84,1.71c-0.19,0.18-0.27,0.45-0.19,0.71l0.11,0.39
						C648.54,1312.9,648.43,1313.21,648.19,1313.38z"/>
				</g>
			</g>
			<g>
				
					<linearGradient id="SVGID_3_" gradientUnits="userSpaceOnUse" x1="551.1728" y1="1291.8248" x2="530.2987" y2="1270.9507" gradientTransform="matrix(1 0 0 1 170.8128 0)">
					<stop  offset="0" style="stop-color:#E29276"/>
					<stop  offset="1" style="stop-color:#8E5C4A"/>
				</linearGradient>
				<polygon class="st4" points="720.94,1292.87 708.42,1284.52 708.42,1280.34 704.24,1276.17 704.24,1267.82 708.42,1271.99 
					708.42,1276.17 712.59,1280.34 712.59,1284.52 716.58,1284.61 720.94,1288.69 				"/>
				
					<linearGradient id="SVGID_4_" gradientUnits="userSpaceOnUse" x1="-1123.2157" y1="1280.5393" x2="-1114.6198" y2="1280.5393" gradientTransform="matrix(1 0 0 1 1847.3511 0)">
					<stop  offset="0" style="stop-color:#E29276"/>
					<stop  offset="1" style="stop-color:#8E5C4A"/>
				</linearGradient>
				<polygon class="st5" points="724.14,1292 727,1289.14 727,1286.27 729.87,1280.54 727,1271.94 729.87,1263.35 732.73,1263.35 
					729.87,1266.21 729.87,1269.08 729.87,1271.94 732.73,1277.67 732.73,1283.4 729.87,1292 724.14,1297.73 				"/>
				
					<linearGradient id="SVGID_5_" gradientUnits="userSpaceOnUse" x1="7889.4199" y1="1311.8199" x2="7861.75" y2="1284.1499" gradientTransform="matrix(-1 0 0 1 8594.751 0)">
					<stop  offset="0" style="stop-color:#E29276"/>
					<stop  offset="1" style="stop-color:#8E5C4A"/>
				</linearGradient>
				<path class="st6" d="M718.86,1270.52l-0.83,1.32c-0.06,0.1-0.09,0.21-0.07,0.33l1.38,7.7c0.01,0.06,0.03,0.12,0.07,0.17
					l1.38,2.19l2.84,4.51c0.01,0.02,0.03,0.05,0.04,0.07l1.38,3.29c0.02,0.06,0.04,0.12,0.04,0.18v3.27c0,0.04,0,0.07,0.01,0.11
					l1.4,5.58c0.01,0.04,0.01,0.07,0.01,0.11v4.49v4.46c0,0.06,0.01,0.12,0.04,0.17l1.36,3.24c0.02,0.06,0.04,0.12,0.04,0.17v0.82
					c0,0.15,0.07,0.29,0.2,0.39l1.02,0.81c0.13,0.1,0.31,0.16,0.49,0.16h4l0,0c0.79,0,0.97,0.88,0.22,1.08l-0.11,0.03
					c-0.07,0.02-0.15,0.03-0.22,0.03h-2.74h-2.16c-0.38,0-0.7,0.25-0.7,0.55v1.49c0,0.15-0.07,0.29-0.2,0.39l-0.54,0.43
					c-0.34,0.27-0.9,0.19-1.11-0.14l-0.81-1.28c-0.12-0.19-0.36-0.31-0.62-0.31h-0.71c-0.18,0-0.36,0.06-0.49,0.16l-2.25,1.79
					c-0.23,0.19-0.6,0.22-0.88,0.07l-4.88-0.43c-0.07-0.02-0.15-0.03-0.22-0.03h-3.48c-0.38,0-0.7-0.25-0.7-0.55v-0.18
					c0-0.24,0.19-0.45,0.48-0.53l3.7-0.98c0.07-0.02,0.15-0.03,0.22-0.03l3.61-4.81c0.19-0.1,0.31-0.28,0.31-0.46v-3.02
					c0-0.06,0.01-0.12,0.04-0.18l1.32-3.15c0.05-0.11,0.05-0.24,0-0.35l-1.32-3.15c-0.02-0.06-0.04-0.12-0.04-0.17v-6.73v-4.42
					c0-0.09-0.03-0.17-0.07-0.25l-1.36-2.16l-1.36-2.16c-0.05-0.08-0.07-0.16-0.07-0.25v-3.19c0-0.06-0.01-0.12-0.04-0.17
					l-1.36-3.24c-0.02-0.06-0.04-0.12-0.04-0.17v-3.32v-3.99c0-0.31,0.31-0.55,0.7-0.55h2.47
					C718.75,1269.72,719.09,1270.15,718.86,1270.52z"/>
				
					<linearGradient id="SVGID_6_" gradientUnits="userSpaceOnUse" x1="7910.9072" y1="1274.136" x2="7882.6611" y2="1245.89" gradientTransform="matrix(-1 0 0 1 8594.751 0)">
					<stop  offset="0" style="stop-color:#06EABE"/>
					<stop  offset="1" style="stop-color:#00A78E"/>
				</linearGradient>
				<path class="st7" d="M708.86,1248.84l-3.14-2.09c-0.08-0.05-0.16-0.12-0.23-0.19l-0.88-0.88c-0.28-0.28-0.66-0.44-1.06-0.44
					h-5.9c-0.4,0-0.78-0.16-1.06-0.44l-1.59-1.59c-0.49-0.49-1.24-0.58-1.83-0.23l-5.98,3.59c-0.11,0.06-0.2,0.14-0.29,0.23
					l-2.29,2.29c-0.28,0.28-0.44,0.66-0.44,1.06v3.04c0,0.4,0.16,0.78,0.44,1.06l0.94,0.94c0.72,0.72,0.53,1.95-0.39,2.41
					l-2.51,1.25c-0.74,0.37-1.04,1.27-0.67,2.01l0.6,1.2c0.1,0.21,0.16,0.44,0.16,0.67v3.31c0,0.4,0.16,0.78,0.44,1.06l0.33,0.33
					c0.4,0.4,0.54,1,0.36,1.54l-1.01,3.03c-0.13,0.4-0.11,0.84,0.11,1.2c0.19,0.32,0.55,0.61,1.19,0.61h5.47
					c0.16,0,0.32,0.03,0.47,0.08l3.4,1.13c0.42,0.14,0.87,0.09,1.25-0.14l5.16-3.1c0.75-0.45,1.72-0.17,2.12,0.62l0.12,0.24
					c0.33,0.67,1.11,0.99,1.82,0.75l7-2.33c0.22-0.07,0.42-0.2,0.59-0.36l2.17-2.17c0.28-0.28,0.44-0.66,0.44-1.06v-4.74
					c0-0.23,0.05-0.46,0.16-0.67l1.11-2.22c0.1-0.21,0.16-0.44,0.16-0.67v-3.75c0-0.12,0.02-0.25,0.04-0.36l0.92-3.67
					c0.24-0.95-0.48-1.87-1.46-1.87h-0.01c-0.57,0-1.09-0.32-1.34-0.83l-0.08-0.16c-0.46-0.92-1.68-1.12-2.41-0.39l-0.51,0.51
					C710.25,1249.16,709.45,1249.24,708.86,1248.84z"/>
				
					<linearGradient id="SVGID_7_" gradientUnits="userSpaceOnUse" x1="7780.0122" y1="2542.7336" x2="7732.4629" y2="2495.1841" gradientTransform="matrix(-0.7071 -0.7071 -0.7071 0.7071 7981.0034 4947.0835)">
					<stop  offset="0" style="stop-color:#06EABE"/>
					<stop  offset="1" style="stop-color:#00A78E"/>
				</linearGradient>
				<path class="st8" d="M743.82,1255.67l-0.72-2.15c-0.04-0.11-0.05-0.22-0.05-0.33v-1.41c0-0.28,0.11-0.55,0.31-0.74l1.18-1.18
					c0.32-0.32,0.4-0.81,0.2-1.21l-1.57-3.14c-0.07-0.15-0.11-0.31-0.11-0.47v-1.52c0-0.16-0.04-0.32-0.11-0.47l-1.72-3.43
					c-0.12-0.25-0.34-0.44-0.61-0.53l-1.9-0.63c-0.43-0.14-0.72-0.54-0.72-1v-3.11c0-0.11-0.02-0.23-0.05-0.33l-0.82-2.46
					c-0.09-0.26-0.07-0.55,0.06-0.8l1.63-3.26c0.12-0.25,0.15-0.54,0.06-0.8l-1.35-4.04c-0.25-0.74-1.19-0.96-1.74-0.41l-0.28,0.28
					c-0.32,0.32-0.81,0.4-1.21,0.2l-3.14-1.57c-0.15-0.07-0.31-0.11-0.47-0.11h-1.67c-0.07,0-0.14,0.01-0.21,0.02l-4.26,0.85
					c-0.42,0.08-0.84-0.09-1.08-0.45l-3.17-4.76c-0.28-0.42-0.22-0.97,0.13-1.33l0.67-0.67c0.41-0.41,0.41-1.08,0-1.49l-2.9-2.9
					c-0.25-0.25-0.6-0.36-0.95-0.29l-4.19,0.84c-0.2,0.04-0.39,0.14-0.54,0.29l-0.48,0.48c-0.2,0.2-0.46,0.31-0.74,0.31h-3.01
					c-0.37,0-0.71,0.19-0.9,0.51l-2.03,3.39c-0.35,0.59-1.16,0.69-1.64,0.2l-1.89-1.89c-0.55-0.55-1.49-0.33-1.74,0.41l-0.44,1.31
					c-0.02,0.07-0.06,0.14-0.1,0.21l-2.67,4.44c-0.19,0.32-0.53,0.51-0.9,0.51h-3.2c-0.16,0-0.32,0.04-0.47,0.11l-3.43,1.72
					c-0.25,0.12-0.44,0.34-0.53,0.61l-0.79,2.38c-0.05,0.15-0.07,0.32-0.04,0.48l0.9,6.31c0.05,0.33-0.06,0.66-0.3,0.89l-4.22,4.22
					c-0.28,0.28-0.38,0.7-0.25,1.08l1.65,4.96c0.1,0.31,0.06,0.65-0.12,0.92l-3.28,4.92c-0.28,0.42-0.22,0.97,0.13,1.33l3.36,3.36
					c0.05,0.05,0.09,0.1,0.13,0.16l3.78,5.68c0.13,0.19,0.32,0.34,0.54,0.41l5.59,1.86c0.09,0.03,0.17,0.07,0.25,0.12l5.48,3.65
					c0.29,0.19,0.47,0.52,0.47,0.87l0,0c0,0.72,0.7,1.22,1.38,1l3.88-1.29c0.47-0.16,0.98,0.03,1.23,0.46l2.49,4.15
					c0.07,0.12,0.16,0.22,0.27,0.3l7.54,5.66c0.24,0.18,0.54,0.25,0.84,0.19l4.49-0.9c0.07-0.01,0.14-0.02,0.21-0.02h3.18
					c0.45,0,0.85-0.29,1-0.72l0.77-2.31l0.93-2.8c0.05-0.15,0.14-0.3,0.25-0.41l1.31-1.31c0.32-0.32,0.81-0.4,1.21-0.2l6.32,3.16
					c0.57,0.29,1.26,0,1.47-0.61l0.55-1.65c0.05-0.15,0.14-0.3,0.25-0.41l2.27-2.27c0.29-0.29,0.73-0.4,1.11-0.24
					c0.39,0.16,0.94,0.21,1.49-0.34l2.57-2.57c0.28-0.28,0.38-0.7,0.25-1.08l-0.78-2.34c-0.02-0.05-0.03-0.09-0.06-0.14l-1.7-3.39
					c-0.18-0.36-0.54-0.58-0.94-0.58h-0.61C744.37,1256.39,743.97,1256.1,743.82,1255.67z"/>
				
					<linearGradient id="SVGID_8_" gradientUnits="userSpaceOnUse" x1="4686.1973" y1="1446.5634" x2="4672.2676" y2="1432.6337" gradientTransform="matrix(1 0 0 -1 -3944.7896 2721.5542)">
					<stop  offset="0" style="stop-color:#06EABE"/>
					<stop  offset="1" style="stop-color:#00A78E"/>
				</linearGradient>
				<path class="st9" d="M726.17,1287.51l4.72,2.36c0.28,0.14,0.61,0.19,0.92,0.14l7.77-1.3c0.21-0.03,0.41-0.11,0.59-0.23
					l3.35-2.23c0.42-0.28,0.67-0.75,0.67-1.25v-6.6c0-0.69-0.47-1.29-1.14-1.46l-4.02-1c-0.36-0.09-0.68-0.31-0.89-0.62l-1.8-2.7
					c-0.42-0.63-1.24-0.85-1.92-0.51l-6.88,3.44c-0.33,0.16-0.59,0.44-0.72,0.79l-2.44,6.1c-0.13,0.33-0.14,0.7-0.03,1.03l1.06,3.17
					C725.55,1287.02,725.82,1287.33,726.17,1287.51z"/>
				
					<linearGradient id="SVGID_9_" gradientUnits="userSpaceOnUse" x1="4793.291" y1="1972.5626" x2="4785.3755" y2="1964.6475" gradientTransform="matrix(0.9424 -0.3345 -0.3345 -0.9424 -3127.5059 4736.0674)">
					<stop  offset="0" style="stop-color:#06EABE"/>
					<stop  offset="1" style="stop-color:#00A78E"/>
				</linearGradient>
				<path class="st10" d="M724,1283.29l2.98,0.37c0.18,0.02,0.36-0.01,0.52-0.1l3.92-2.17c0.11-0.06,0.2-0.14,0.27-0.24l1.37-1.83
					c0.17-0.23,0.22-0.53,0.12-0.8l-1.25-3.53c-0.13-0.37-0.5-0.6-0.89-0.56l-2.34,0.23c-0.21,0.02-0.42-0.04-0.59-0.17l-1.48-1.1
					c-0.34-0.26-0.83-0.22-1.13,0.09l-3.03,3.15c-0.14,0.15-0.23,0.35-0.24,0.56l-0.15,3.73c-0.01,0.2,0.06,0.4,0.18,0.56l1.17,1.5
					C723.57,1283.15,723.77,1283.26,724,1283.29z"/>
				
					<linearGradient id="SVGID_10_" gradientUnits="userSpaceOnUse" x1="5310.6587" y1="6276.811" x2="5304.4277" y2="6270.5796" gradientTransform="matrix(-0.7071 -0.7071 -0.7071 0.7071 8908.7939 584.3348)">
					<stop  offset="0" style="stop-color:#06EABE"/>
					<stop  offset="1" style="stop-color:#00A78E"/>
				</linearGradient>
				<path class="st11" d="M723.27,1267.94v-2.37c0-0.49-0.28-0.93-0.71-1.15l-2.51-1.26c-0.31-0.15-0.66-0.18-0.98-0.07l-1.77,0.59
					c-0.32,0.11-0.59,0.34-0.75,0.65l-1.2,2.4c-0.25,0.5-0.15,1.1,0.24,1.49l3.41,3.41c0.35,0.35,0.86,0.47,1.32,0.31l2.82-0.94
					c0.91-0.3,1.18-1.46,0.5-2.13l0,0C723.41,1268.61,723.27,1268.28,723.27,1267.94z"/>
			</g>
			<g>
				<g>
					
						<linearGradient id="SVGID_11_" gradientUnits="userSpaceOnUse" x1="6199.0664" y1="638.3399" x2="6162.9775" y2="602.2508" gradientTransform="matrix(-4.489700e-11 1 1 4.489700e-11 94.7569 -4852.3267)">
						<stop  offset="0" style="stop-color:#06EABE"/>
						<stop  offset="1" style="stop-color:#00A78E"/>
					</linearGradient>
					<path class="st12" d="M706.15,1307.02l-0.77,1.54c-0.04,0.08-0.09,0.15-0.15,0.21l-0.76,0.76c-0.15,0.15-0.35,0.23-0.56,0.23
						h-1.26c-0.34,0-0.65,0.22-0.76,0.55l-0.84,2.53c-0.04,0.12-0.11,0.22-0.19,0.31l-0.82,0.82c-0.09,0.09-0.15,0.19-0.19,0.31
						l-0.92,2.76c-0.07,0.2-0.05,0.42,0.04,0.61l0.68,1.36c0.15,0.31,0.09,0.68-0.15,0.92l-1.67,1.67
						c-0.06,0.06-0.11,0.13-0.15,0.21l-0.88,1.76c-0.09,0.19-0.26,0.33-0.46,0.4l-2.63,0.88c-0.2,0.07-0.37,0.21-0.46,0.4
						l-1.44,2.89c-0.27,0.53,0.12,1.15,0.71,1.15h0.3c0.34,0,0.65,0.22,0.76,0.55l0.84,2.53c0.04,0.12,0.11,0.22,0.19,0.31l0.9,0.9
						c0.04,0.04,0.08,0.07,0.12,0.1l2.74,1.83c0.27,0.18,0.4,0.5,0.34,0.82l-0.85,4.26c-0.07,0.37-0.4,0.64-0.78,0.64h-0.72
						c-0.44,0-0.8,0.36-0.8,0.8v3.11c0,0.27,0.13,0.52,0.36,0.66l2.7,1.8c0.13,0.09,0.28,0.13,0.44,0.13h0.51
						c0.21,0,0.41,0.08,0.56,0.23l1.62,1.62c0.2,0.2,0.49,0.28,0.76,0.21l2.91-0.73c0.5-0.13,0.99,0.26,0.99,0.77v2.03
						c0,0.59,0.62,0.98,1.15,0.71l0.94-0.47c0.05-0.03,0.11-0.05,0.16-0.06l3.82-0.95c0.27-0.07,0.56,0.01,0.76,0.21l1.72,1.72
						c0.09,0.09,0.19,0.15,0.31,0.19l2.76,0.92c0.2,0.07,0.42,0.05,0.61-0.04l1.71-0.85c0.11-0.06,0.21-0.14,0.28-0.23l2.9-3.87
						c0.15-0.2,0.39-0.32,0.64-0.32h4.53c0.3,0,0.58-0.17,0.71-0.44l1.77-3.55c0.11-0.22,0.32-0.38,0.56-0.43l4.4-0.88
						c0.37-0.07,0.64-0.4,0.64-0.78v-3.61c0-0.05,0.01-0.1,0.02-0.16l1.02-5.08c0.03-0.17,0.01-0.35-0.07-0.51l-2-4
						c-0.03-0.06-0.05-0.13-0.07-0.2l-0.98-4.9c-0.05-0.26,0.03-0.53,0.22-0.72l0,0c0.39-0.39,0.28-1.03-0.21-1.28l-2.78-1.39
						c-0.33-0.17-0.51-0.54-0.42-0.91l0.89-3.57c0.03-0.1,0.03-0.2,0.02-0.31l-1.01-7.08c-0.03-0.22-0.16-0.43-0.35-0.55l-2.89-1.93
						c-0.04-0.03-0.08-0.06-0.12-0.1l-1.71-1.71c-0.24-0.24-0.61-0.3-0.92-0.15l-1.65,0.83l-2,1c-0.11,0.06-0.23,0.08-0.36,0.08H720
						c-0.34,0-0.65-0.22-0.76-0.55l-1.7-5.09c-0.15-0.46-0.68-0.68-1.11-0.46l-1.18,0.59c-0.11,0.06-0.23,0.08-0.36,0.08h-2.44
						c-0.31,0-0.61-0.18-0.73-0.47c-0.12-0.29-0.39-0.62-0.98-0.62h-2.76c-0.3,0-0.58,0.17-0.71,0.44l-0.84,1.68
						c-0.02,0.03-0.03,0.07-0.04,0.1l-0.91,2.73c-0.1,0.29-0.02,0.6,0.19,0.82l0.33,0.33
						C706.25,1306.34,706.31,1306.71,706.15,1307.02z"/>
					
						<linearGradient id="SVGID_12_" gradientUnits="userSpaceOnUse" x1="6837.5796" y1="515.0074" x2="6806.1196" y2="483.5472" gradientTransform="matrix(-0.4788 0.8779 0.8779 0.4788 3558.6548 -4894.563)">
						<stop  offset="0" style="stop-color:#06EABE"/>
						<stop  offset="1" style="stop-color:#00A78E"/>
					</linearGradient>
					<path class="st13" d="M733.19,1313.38l-1.23,0.86c-0.06,0.04-0.13,0.08-0.2,0.1l-0.9,0.26c-0.18,0.05-0.37,0.03-0.53-0.06
						l-0.97-0.53c-0.26-0.14-0.59-0.1-0.81,0.1l-1.7,1.58c-0.08,0.07-0.17,0.13-0.28,0.16l-0.97,0.28c-0.1,0.03-0.2,0.08-0.28,0.16
						l-1.86,1.73c-0.14,0.13-0.21,0.3-0.22,0.48l-0.05,1.32c-0.01,0.3-0.21,0.56-0.5,0.64l-1.98,0.58c-0.07,0.02-0.14,0.05-0.2,0.1
						l-1.41,0.98c-0.15,0.11-0.34,0.15-0.52,0.11l-2.38-0.43c-0.18-0.03-0.37,0.01-0.52,0.11l-2.31,1.61
						c-0.42,0.3-0.39,0.93,0.06,1.18l0.23,0.13c0.26,0.14,0.4,0.44,0.35,0.73l-0.41,2.29c-0.02,0.11-0.01,0.22,0.02,0.32l0.31,1.06
						c0.01,0.04,0.03,0.09,0.05,0.13l1.34,2.54c0.13,0.25,0.1,0.55-0.08,0.77l-2.43,2.9c-0.21,0.25-0.58,0.32-0.87,0.16l-0.55-0.3
						c-0.34-0.18-0.76-0.06-0.94,0.28l-1.3,2.38c-0.11,0.2-0.11,0.45-0.01,0.66l1.31,2.5c0.06,0.12,0.16,0.22,0.28,0.29l0.39,0.21
						c0.16,0.09,0.28,0.24,0.33,0.41l0.56,1.91c0.07,0.23,0.26,0.42,0.49,0.48l2.53,0.66c0.44,0.11,0.65,0.61,0.44,1.01l-0.85,1.55
						c-0.25,0.45,0.07,1.01,0.59,1.03l0.91,0.03c0.05,0,0.1,0.01,0.15,0.02l3.32,0.86c0.24,0.06,0.42,0.24,0.49,0.48l0.6,2.03
						c0.03,0.1,0.08,0.2,0.16,0.28l1.73,1.86c0.13,0.14,0.3,0.21,0.48,0.22l1.66,0.06c0.11,0,0.22-0.02,0.31-0.06l3.83-1.75
						c0.2-0.09,0.43-0.08,0.62,0.02l3.47,1.89c0.23,0.13,0.51,0.11,0.73-0.04l2.84-1.98c0.18-0.12,0.4-0.16,0.6-0.09l3.73,1.16
						c0.32,0.1,0.66-0.04,0.82-0.33l1.5-2.76c0.02-0.04,0.05-0.08,0.08-0.11l2.9-3.46c0.1-0.12,0.16-0.27,0.16-0.42l0.14-3.89
						c0-0.06,0.01-0.12,0.03-0.18l1.29-4.16c0.07-0.22,0.24-0.39,0.47-0.46l0,0c0.46-0.13,0.65-0.67,0.37-1.06l-1.55-2.22
						c-0.19-0.27-0.16-0.63,0.06-0.87l2.17-2.36c0.06-0.07,0.11-0.14,0.14-0.23l2.18-5.84c0.07-0.19,0.06-0.39-0.04-0.57l-1.41-2.68
						c-0.02-0.04-0.04-0.08-0.05-0.13l-0.59-2.02c-0.08-0.29-0.34-0.49-0.64-0.5l-1.61-0.06l-1.95-0.07c-0.11,0-0.21-0.03-0.31-0.08
						l-1.08-0.59c-0.26-0.14-0.4-0.44-0.35-0.73l0.83-4.6c0.07-0.42-0.24-0.8-0.66-0.82l-1.15-0.04c-0.11,0-0.21-0.03-0.31-0.08
						l-1.87-1.02c-0.24-0.13-0.39-0.39-0.36-0.66c0.03-0.28-0.04-0.63-0.49-0.88l-2.11-1.15c-0.23-0.13-0.51-0.11-0.73,0.04
						l-1.34,0.93c-0.03,0.02-0.05,0.04-0.08,0.06l-1.84,1.71c-0.19,0.18-0.27,0.45-0.19,0.71l0.11,0.39
						C733.54,1312.9,733.43,1313.21,733.19,1313.38z"/>
				</g>
			</g>
			<g>
				<g>
					<g>
						<g>
							<linearGradient id="SVGID_13_" gradientUnits="userSpaceOnUse" x1="690" y1="1372.5" x2="695" y2="1372.5">
								<stop  offset="0" style="stop-color:#E29276"/>
								<stop  offset="1" style="stop-color:#8E5C4A"/>
							</linearGradient>
							<path class="st14" d="M692.5,1385L692.5,1385c-1.38,0-2.5-1.12-2.5-2.5V1360h5v22.5C695,1383.88,693.88,1385,692.5,1385z"/>
						</g>
						<g>
							<linearGradient id="SVGID_14_" gradientUnits="userSpaceOnUse" x1="665" y1="1372.5" x2="670" y2="1372.5">
								<stop  offset="0" style="stop-color:#E29276"/>
								<stop  offset="1" style="stop-color:#8E5C4A"/>
							</linearGradient>
							<path class="st15" d="M667.5,1385L667.5,1385c-1.38,0-2.5-1.12-2.5-2.5V1360h5v22.5C670,1383.88,668.88,1385,667.5,1385z"/>
						</g>
						<g>
							<linearGradient id="SVGID_15_" gradientUnits="userSpaceOnUse" x1="645" y1="1352.5" x2="650" y2="1352.5">
								<stop  offset="0" style="stop-color:#E29276"/>
								<stop  offset="1" style="stop-color:#8E5C4A"/>
							</linearGradient>
							<path class="st16" d="M647.5,1365L647.5,1365c-1.38,0-2.5-1.12-2.5-2.5V1340h5v22.5C650,1363.88,648.88,1365,647.5,1365z"/>
						</g>
						<polygon class="st17" points="645,1340 665,1360 695,1360 675,1340 						"/>
					</g>
					<polygon class="st18" points="645,1340 645,1345 665,1365 665,1360 					"/>
					<polygon class="st18" points="645,1325 645,1340 665,1360 665,1345 					"/>
					<rect x="665" y="1360" class="st19" width="30" height="5"/>
				</g>
				<polygon class="st17" points="645,1325 650,1325 670,1345 665,1345 				"/>
				<rect x="665" y="1345" class="st19" width="5" height="15"/>
			</g>
			<g>
				
					<linearGradient id="SVGID_16_" gradientUnits="userSpaceOnUse" x1="629.294" y1="1361.8248" x2="608.4199" y2="1340.9507" gradientTransform="matrix(-1 0 0 1 1420.7478 0)">
					<stop  offset="0" style="stop-color:#E29276"/>
					<stop  offset="1" style="stop-color:#8E5C4A"/>
				</linearGradient>
				<polygon class="st20" points="792.5,1362.87 805.02,1354.52 805.02,1350.34 809.2,1346.17 809.2,1337.82 805.02,1341.99 
					805.02,1346.17 800.85,1350.34 800.85,1354.52 796.86,1354.61 792.5,1358.69 				"/>
				
					<linearGradient id="SVGID_17_" gradientUnits="userSpaceOnUse" x1="-1045.0945" y1="1350.5393" x2="-1036.4985" y2="1350.5393" gradientTransform="matrix(-1 0 0 1 -255.7905 0)">
					<stop  offset="0" style="stop-color:#E29276"/>
					<stop  offset="1" style="stop-color:#8E5C4A"/>
				</linearGradient>
				<polygon class="st21" points="789.3,1362 786.44,1359.14 786.44,1356.27 783.57,1350.54 786.44,1341.94 783.57,1333.35 
					780.71,1333.35 783.57,1336.21 783.57,1339.08 783.57,1341.94 780.71,1347.67 780.71,1353.4 783.57,1362 789.3,1367.73 				"/>
				
					<linearGradient id="SVGID_18_" gradientUnits="userSpaceOnUse" x1="7811.2988" y1="1381.8199" x2="7783.6289" y2="1354.1499" gradientTransform="matrix(1 0 0 1 -7003.1904 0)">
					<stop  offset="0" style="stop-color:#E29276"/>
					<stop  offset="1" style="stop-color:#8E5C4A"/>
				</linearGradient>
				<path class="st22" d="M794.58,1340.52l0.83,1.32c0.06,0.1,0.09,0.21,0.07,0.33l-1.38,7.7c-0.01,0.06-0.03,0.12-0.07,0.17
					l-1.38,2.19l-2.84,4.51c-0.01,0.02-0.03,0.05-0.04,0.07l-1.38,3.29c-0.02,0.06-0.04,0.12-0.04,0.18v3.27
					c0,0.04,0,0.07-0.01,0.11l-1.4,5.58c-0.01,0.04-0.01,0.07-0.01,0.11v4.49v4.46c0,0.06-0.01,0.12-0.04,0.17l-1.36,3.24
					c-0.02,0.06-0.04,0.12-0.04,0.17v0.82c0,0.15-0.07,0.29-0.2,0.39l-1.02,0.81c-0.13,0.1-0.31,0.16-0.49,0.16h-4l0,0
					c-0.79,0-0.97,0.88-0.22,1.08l0.11,0.03c0.07,0.02,0.15,0.03,0.22,0.03h2.74h2.16c0.38,0,0.7,0.25,0.7,0.55v1.49
					c0,0.15,0.07,0.29,0.2,0.39l0.54,0.43c0.34,0.27,0.9,0.19,1.11-0.14l0.81-1.28c0.12-0.19,0.36-0.31,0.62-0.31h0.71
					c0.18,0,0.36,0.06,0.49,0.16l2.25,1.79c0.23,0.19,0.6,0.22,0.88,0.07l4.88-0.43c0.07-0.02,0.15-0.03,0.22-0.03h3.48
					c0.38,0,0.7-0.25,0.7-0.55v-0.18c0-0.24-0.19-0.45-0.48-0.53l-3.7-0.98c-0.07-0.02-0.15-0.03-0.22-0.03l-3.61-4.81
					c-0.19-0.1-0.31-0.28-0.31-0.46v-3.02c0-0.06-0.01-0.12-0.04-0.18l-1.32-3.15c-0.05-0.11-0.05-0.24,0-0.35l1.32-3.15
					c0.02-0.06,0.04-0.12,0.04-0.17v-6.73v-4.42c0-0.09,0.03-0.17,0.07-0.25l1.36-2.16l1.36-2.16c0.05-0.08,0.07-0.16,0.07-0.25
					v-3.19c0-0.06,0.01-0.12,0.04-0.17l1.36-3.24c0.02-0.06,0.04-0.12,0.04-0.17v-3.32v-3.99c0-0.31-0.31-0.55-0.7-0.55h-2.47
					C794.69,1339.72,794.35,1340.15,794.58,1340.52z"/>
				
					<linearGradient id="SVGID_19_" gradientUnits="userSpaceOnUse" x1="7832.7861" y1="1344.136" x2="7804.54" y2="1315.89" gradientTransform="matrix(1 0 0 1 -7003.1904 0)">
					<stop  offset="0" style="stop-color:#06EABE"/>
					<stop  offset="1" style="stop-color:#00A78E"/>
				</linearGradient>
				<path class="st23" d="M804.58,1318.84l3.14-2.09c0.08-0.05,0.16-0.12,0.23-0.19l0.88-0.88c0.28-0.28,0.66-0.44,1.06-0.44h5.9
					c0.4,0,0.78-0.16,1.06-0.44l1.59-1.59c0.49-0.49,1.24-0.58,1.83-0.23l5.98,3.59c0.11,0.06,0.2,0.14,0.29,0.23l2.29,2.29
					c0.28,0.28,0.44,0.66,0.44,1.06v3.04c0,0.4-0.16,0.78-0.44,1.06l-0.94,0.94c-0.72,0.72-0.53,1.95,0.39,2.41l2.51,1.25
					c0.74,0.37,1.04,1.27,0.67,2.01l-0.6,1.2c-0.1,0.21-0.16,0.44-0.16,0.67v3.31c0,0.4-0.16,0.78-0.44,1.06l-0.33,0.33
					c-0.4,0.4-0.54,1-0.36,1.54l1.01,3.03c0.13,0.4,0.11,0.84-0.11,1.2c-0.19,0.32-0.55,0.61-1.19,0.61h-5.47
					c-0.16,0-0.32,0.03-0.47,0.08l-3.4,1.13c-0.42,0.14-0.87,0.09-1.25-0.14l-5.16-3.1c-0.75-0.45-1.72-0.17-2.12,0.62l-0.12,0.24
					c-0.33,0.67-1.11,0.99-1.82,0.75l-7-2.33c-0.22-0.07-0.42-0.2-0.59-0.36l-2.17-2.17c-0.28-0.28-0.44-0.66-0.44-1.06v-4.74
					c0-0.23-0.05-0.46-0.16-0.67l-1.11-2.22c-0.1-0.21-0.16-0.44-0.16-0.67v-3.75c0-0.12-0.02-0.25-0.04-0.36l-0.92-3.67
					c-0.24-0.95,0.48-1.87,1.46-1.87h0.01c0.57,0,1.09-0.32,1.34-0.83l0.08-0.16c0.46-0.92,1.68-1.12,2.41-0.39l0.51,0.51
					C803.19,1319.16,803.99,1319.24,804.58,1318.84z"/>
				
					<linearGradient id="SVGID_20_" gradientUnits="userSpaceOnUse" x1="7675.2749" y1="2536.9912" x2="7627.7251" y2="2489.4417" gradientTransform="matrix(0.7071 -0.7071 0.7071 0.7071 -6389.4429 4947.0835)">
					<stop  offset="0" style="stop-color:#06EABE"/>
					<stop  offset="1" style="stop-color:#00A78E"/>
				</linearGradient>
				<path class="st24" d="M769.61,1325.67l0.72-2.15c0.04-0.11,0.05-0.22,0.05-0.33v-1.41c0-0.28-0.11-0.55-0.31-0.74l-1.18-1.18
					c-0.32-0.32-0.4-0.81-0.2-1.21l1.57-3.14c0.07-0.15,0.11-0.31,0.11-0.47v-1.52c0-0.16,0.04-0.32,0.11-0.47l1.72-3.43
					c0.12-0.25,0.34-0.44,0.61-0.53l1.9-0.63c0.43-0.14,0.72-0.54,0.72-1v-3.11c0-0.11,0.02-0.23,0.05-0.33l0.82-2.46
					c0.09-0.26,0.07-0.55-0.06-0.8l-1.63-3.26c-0.12-0.25-0.15-0.54-0.06-0.8l1.35-4.04c0.25-0.74,1.19-0.96,1.74-0.41l0.28,0.28
					c0.32,0.32,0.81,0.4,1.21,0.2l3.14-1.57c0.15-0.07,0.31-0.11,0.47-0.11h1.67c0.07,0,0.14,0.01,0.21,0.02l4.26,0.85
					c0.42,0.08,0.84-0.09,1.08-0.45l3.17-4.76c0.28-0.42,0.22-0.97-0.13-1.33l-0.67-0.67c-0.41-0.41-0.41-1.08,0-1.49l2.9-2.9
					c0.25-0.25,0.6-0.36,0.95-0.29l4.19,0.84c0.2,0.04,0.39,0.14,0.54,0.29l0.48,0.48c0.2,0.2,0.46,0.31,0.74,0.31h3.01
					c0.37,0,0.71,0.19,0.9,0.51l2.03,3.39c0.35,0.59,1.16,0.69,1.64,0.2l1.89-1.89c0.55-0.55,1.49-0.33,1.74,0.41l0.44,1.31
					c0.02,0.07,0.06,0.14,0.1,0.21l2.67,4.44c0.19,0.32,0.53,0.51,0.9,0.51h3.2c0.16,0,0.32,0.04,0.47,0.11l3.43,1.72
					c0.25,0.12,0.44,0.34,0.53,0.61l0.79,2.38c0.05,0.15,0.07,0.32,0.04,0.48l-0.9,6.31c-0.05,0.33,0.06,0.66,0.3,0.89l4.22,4.22
					c0.28,0.28,0.38,0.7,0.25,1.08l-1.65,4.96c-0.1,0.31-0.06,0.65,0.12,0.92l3.28,4.92c0.28,0.42,0.22,0.97-0.13,1.33l-3.36,3.36
					c-0.05,0.05-0.09,0.1-0.13,0.16l-3.78,5.68c-0.13,0.19-0.32,0.34-0.54,0.41l-5.59,1.86c-0.09,0.03-0.17,0.07-0.25,0.12
					l-5.48,3.65c-0.29,0.19-0.47,0.52-0.47,0.87l0,0c0,0.72-0.7,1.22-1.38,1l-3.88-1.29c-0.47-0.16-0.98,0.03-1.23,0.46l-2.49,4.15
					c-0.07,0.12-0.16,0.22-0.27,0.3l-7.54,5.66c-0.24,0.18-0.54,0.25-0.84,0.19l-4.49-0.9c-0.07-0.01-0.14-0.02-0.21-0.02h-3.18
					c-0.45,0-0.85-0.29-1-0.72l-0.77-2.31l-0.93-2.8c-0.05-0.15-0.14-0.3-0.25-0.41l-1.31-1.31c-0.32-0.32-0.81-0.4-1.21-0.2
					l-6.32,3.16c-0.57,0.29-1.26,0-1.47-0.61l-0.55-1.65c-0.05-0.15-0.14-0.3-0.25-0.41l-2.27-2.27c-0.29-0.29-0.73-0.4-1.11-0.24
					c-0.39,0.16-0.94,0.21-1.49-0.34l-2.57-2.57c-0.28-0.28-0.38-0.7-0.25-1.08l0.78-2.34c0.02-0.05,0.03-0.09,0.06-0.14l1.7-3.39
					c0.18-0.36,0.54-0.58,0.94-0.58h0.61C769.07,1326.39,769.47,1326.1,769.61,1325.67z"/>
				
					<linearGradient id="SVGID_21_" gradientUnits="userSpaceOnUse" x1="4764.3188" y1="1376.5634" x2="4750.3887" y2="1362.6337" gradientTransform="matrix(-1 0 0 -1 5536.3501 2721.5542)">
					<stop  offset="0" style="stop-color:#06EABE"/>
					<stop  offset="1" style="stop-color:#00A78E"/>
				</linearGradient>
				<path class="st25" d="M787.27,1357.51l-4.72,2.36c-0.28,0.14-0.61,0.19-0.92,0.14l-7.77-1.3c-0.21-0.03-0.41-0.11-0.59-0.23
					l-3.35-2.23c-0.42-0.28-0.67-0.75-0.67-1.25v-6.6c0-0.69,0.47-1.29,1.14-1.46l4.02-1c0.36-0.09,0.68-0.31,0.89-0.62l1.8-2.7
					c0.42-0.63,1.24-0.85,1.92-0.51l6.88,3.44c0.33,0.16,0.59,0.44,0.72,0.79l2.44,6.1c0.13,0.33,0.14,0.7,0.03,1.03l-1.06,3.17
					C787.89,1357.02,787.62,1357.33,787.27,1357.51z"/>
				
					<linearGradient id="SVGID_22_" gradientUnits="userSpaceOnUse" x1="4843.4951" y1="1880.4624" x2="4835.5796" y2="1872.5471" gradientTransform="matrix(-0.9424 -0.3345 0.3345 -0.9424 4719.0664 4736.0674)">
					<stop  offset="0" style="stop-color:#06EABE"/>
					<stop  offset="1" style="stop-color:#00A78E"/>
				</linearGradient>
				<path class="st26" d="M789.44,1353.29l-2.98,0.37c-0.18,0.02-0.36-0.01-0.52-0.1l-3.92-2.17c-0.11-0.06-0.2-0.14-0.27-0.24
					l-1.37-1.83c-0.17-0.23-0.22-0.53-0.12-0.8l1.25-3.53c0.13-0.37,0.5-0.6,0.89-0.56l2.34,0.23c0.21,0.02,0.42-0.04,0.59-0.17
					l1.48-1.1c0.34-0.26,0.83-0.22,1.13,0.09l3.03,3.15c0.14,0.15,0.23,0.35,0.24,0.56l0.15,3.73c0.01,0.2-0.06,0.4-0.18,0.56
					l-1.17,1.5C789.87,1353.15,789.67,1353.26,789.44,1353.29z"/>
				
					<linearGradient id="SVGID_23_" gradientUnits="userSpaceOnUse" x1="5205.9214" y1="6271.0684" x2="5199.6899" y2="6264.8374" gradientTransform="matrix(0.7071 -0.7071 0.7071 0.7071 -7317.2329 584.3348)">
					<stop  offset="0" style="stop-color:#06EABE"/>
					<stop  offset="1" style="stop-color:#00A78E"/>
				</linearGradient>
				<path class="st27" d="M790.17,1337.94v-2.37c0-0.49,0.28-0.93,0.71-1.15l2.51-1.26c0.31-0.15,0.66-0.18,0.98-0.07l1.77,0.59
					c0.32,0.11,0.59,0.34,0.75,0.65l1.2,2.4c0.25,0.5,0.15,1.1-0.24,1.49l-3.41,3.41c-0.35,0.35-0.86,0.47-1.32,0.31l-2.82-0.94
					c-0.91-0.3-1.18-1.46-0.5-2.13l0,0C790.03,1338.61,790.17,1338.28,790.17,1337.94z"/>
			</g>
			<g>
				<g>
					
						<linearGradient id="SVGID_24_" gradientUnits="userSpaceOnUse" x1="6272.6582" y1="721.4611" x2="6236.5688" y2="685.372" gradientTransform="matrix(0 1 -1 0 1496.8037 -4852.3267)">
						<stop  offset="0" style="stop-color:#06EABE"/>
						<stop  offset="1" style="stop-color:#00A78E"/>
					</linearGradient>
					<path class="st28" d="M802.29,1380.61l0.77,1.54c0.04,0.08,0.09,0.15,0.15,0.21l0.76,0.76c0.15,0.15,0.35,0.23,0.56,0.23h1.26
						c0.34,0,0.65,0.22,0.76,0.55l0.84,2.53c0.04,0.12,0.11,0.22,0.19,0.31l0.82,0.82c0.09,0.09,0.15,0.19,0.19,0.31l0.92,2.76
						c0.07,0.2,0.05,0.42-0.04,0.61l-0.68,1.36c-0.15,0.31-0.09,0.68,0.15,0.92l1.67,1.67c0.06,0.06,0.11,0.13,0.15,0.21l0.88,1.76
						c0.09,0.19,0.26,0.33,0.46,0.4l2.63,0.88c0.2,0.07,0.37,0.21,0.46,0.4l1.44,2.89c0.27,0.53-0.12,1.15-0.71,1.15h-0.3
						c-0.34,0-0.65,0.22-0.76,0.55l-0.84,2.53c-0.04,0.12-0.11,0.22-0.19,0.31l-0.9,0.9c-0.04,0.04-0.08,0.07-0.12,0.1l-2.74,1.83
						c-0.27,0.18-0.4,0.5-0.34,0.82l0.85,4.26c0.07,0.37,0.4,0.64,0.78,0.64h0.72c0.44,0,0.8,0.36,0.8,0.8v3.11
						c0,0.27-0.13,0.52-0.36,0.66l-2.7,1.8c-0.13,0.09-0.29,0.13-0.44,0.13h-0.51c-0.21,0-0.41,0.08-0.56,0.23l-1.62,1.62
						c-0.2,0.2-0.49,0.28-0.76,0.21l-2.91-0.73c-0.5-0.13-0.99,0.26-0.99,0.77v2.03c0,0.59-0.62,0.98-1.15,0.71l-0.94-0.47
						c-0.05-0.03-0.11-0.05-0.16-0.06l-3.82-0.95c-0.27-0.07-0.56,0.01-0.76,0.21l-1.72,1.72c-0.09,0.09-0.19,0.15-0.31,0.19
						l-2.76,0.92c-0.2,0.07-0.42,0.05-0.61-0.04l-1.71-0.85c-0.11-0.06-0.21-0.14-0.28-0.23l-2.9-3.87
						c-0.15-0.2-0.39-0.32-0.64-0.32h-4.53c-0.3,0-0.58-0.17-0.71-0.44l-1.77-3.55c-0.11-0.22-0.32-0.38-0.56-0.43l-4.4-0.88
						c-0.37-0.07-0.64-0.4-0.64-0.78v-3.61c0-0.05-0.01-0.1-0.02-0.16l-1.02-5.08c-0.03-0.17-0.01-0.35,0.07-0.51l2-4
						c0.03-0.06,0.05-0.13,0.07-0.2l0.98-4.9c0.05-0.26-0.03-0.53-0.22-0.72l0,0c-0.39-0.39-0.28-1.03,0.21-1.28l2.78-1.39
						c0.33-0.17,0.51-0.54,0.42-0.91l-0.89-3.57c-0.03-0.1-0.03-0.2-0.02-0.31l1.01-7.08c0.03-0.22,0.16-0.43,0.35-0.55l2.89-1.93
						c0.04-0.03,0.08-0.06,0.12-0.1l1.71-1.71c0.24-0.24,0.61-0.3,0.92-0.15l1.65,0.83l2,1c0.11,0.06,0.23,0.08,0.36,0.08h1.41
						c0.34,0,0.65-0.22,0.76-0.55l1.7-5.09c0.15-0.46,0.68-0.68,1.11-0.46l1.18,0.59c0.11,0.06,0.23,0.08,0.36,0.08h2.44
						c0.31,0,0.61-0.18,0.73-0.47c0.12-0.29,0.39-0.62,0.98-0.62h2.76c0.3,0,0.58,0.17,0.71,0.44l0.84,1.68
						c0.02,0.03,0.03,0.07,0.04,0.1l0.91,2.73c0.1,0.29,0.02,0.6-0.19,0.82l-0.33,0.33
						C802.19,1379.94,802.13,1380.31,802.29,1380.61z"/>
					
						<linearGradient id="SVGID_25_" gradientUnits="userSpaceOnUse" x1="6862.3936" y1="623.216" x2="6830.9336" y2="591.7559" gradientTransform="matrix(0.4788 0.8779 -0.8779 0.4788 -1967.0941 -4894.563)">
						<stop  offset="0" style="stop-color:#06EABE"/>
						<stop  offset="1" style="stop-color:#00A78E"/>
					</linearGradient>
					<path class="st29" d="M775.25,1386.97l1.23,0.86c0.06,0.04,0.13,0.08,0.2,0.1l0.9,0.26c0.18,0.05,0.37,0.03,0.53-0.06
						l0.97-0.53c0.26-0.14,0.59-0.1,0.81,0.1l1.7,1.58c0.08,0.07,0.17,0.13,0.28,0.16l0.97,0.28c0.1,0.03,0.2,0.08,0.28,0.16
						l1.86,1.73c0.14,0.13,0.21,0.3,0.22,0.48l0.05,1.32c0.01,0.3,0.21,0.56,0.5,0.64l1.98,0.58c0.07,0.02,0.14,0.05,0.2,0.1
						l1.41,0.98c0.15,0.11,0.34,0.15,0.52,0.11l2.38-0.43c0.18-0.03,0.37,0.01,0.52,0.11l2.31,1.61c0.42,0.3,0.39,0.93-0.06,1.18
						l-0.23,0.13c-0.26,0.14-0.4,0.44-0.35,0.73l0.41,2.29c0.02,0.11,0.01,0.22-0.02,0.32l-0.31,1.06
						c-0.01,0.04-0.03,0.09-0.05,0.13l-1.34,2.54c-0.13,0.25-0.1,0.55,0.08,0.77l2.43,2.9c0.21,0.25,0.58,0.32,0.87,0.16l0.55-0.3
						c0.34-0.18,0.76-0.06,0.94,0.28l1.3,2.38c0.11,0.2,0.11,0.45,0.01,0.66l-1.31,2.5c-0.06,0.12-0.16,0.22-0.28,0.29l-0.39,0.21
						c-0.16,0.09-0.28,0.24-0.33,0.41l-0.56,1.91c-0.07,0.23-0.26,0.42-0.49,0.48l-2.53,0.66c-0.44,0.11-0.65,0.61-0.44,1.01
						l0.85,1.55c0.25,0.45-0.07,1.01-0.59,1.03l-0.91,0.03c-0.05,0-0.1,0.01-0.15,0.02l-3.32,0.86c-0.24,0.06-0.42,0.24-0.49,0.48
						l-0.6,2.03c-0.03,0.1-0.08,0.2-0.16,0.28l-1.73,1.86c-0.13,0.14-0.3,0.21-0.48,0.22l-1.66,0.06c-0.11,0-0.22-0.02-0.31-0.06
						l-3.83-1.75c-0.2-0.09-0.43-0.08-0.62,0.02l-3.47,1.89c-0.23,0.13-0.51,0.11-0.73-0.04l-2.84-1.98
						c-0.18-0.12-0.4-0.16-0.6-0.09l-3.73,1.16c-0.32,0.1-0.66-0.04-0.82-0.33l-1.5-2.76c-0.02-0.04-0.05-0.08-0.08-0.11l-2.9-3.46
						c-0.1-0.12-0.16-0.27-0.16-0.42l-0.14-3.89c0-0.06-0.01-0.12-0.03-0.18l-1.29-4.16c-0.07-0.22-0.24-0.39-0.47-0.46l0,0
						c-0.46-0.13-0.65-0.67-0.37-1.06l1.55-2.22c0.19-0.27,0.16-0.63-0.06-0.87l-2.17-2.36c-0.06-0.07-0.11-0.14-0.14-0.23
						l-2.18-5.84c-0.07-0.19-0.06-0.39,0.04-0.57l1.41-2.68c0.02-0.04,0.04-0.08,0.05-0.13l0.59-2.02c0.08-0.29,0.34-0.49,0.64-0.5
						l1.61-0.06l1.95-0.07c0.11,0,0.21-0.03,0.31-0.08l1.08-0.59c0.26-0.14,0.4-0.44,0.35-0.73l-0.83-4.6
						c-0.07-0.42,0.24-0.8,0.66-0.82l1.15-0.04c0.11,0,0.21-0.03,0.31-0.08l1.87-1.02c0.24-0.13,0.39-0.39,0.36-0.66
						c-0.03-0.28,0.04-0.63,0.49-0.88l2.11-1.15c0.23-0.13,0.51-0.11,0.73,0.04l1.34,0.93c0.03,0.02,0.05,0.04,0.08,0.06l1.84,1.71
						c0.19,0.18,0.27,0.45,0.19,0.71l-0.11,0.39C774.9,1386.49,775.01,1386.8,775.25,1386.97z"/>
				</g>
			</g>
			<g>
				<g>
					
						<linearGradient id="SVGID_26_" gradientUnits="userSpaceOnUse" x1="6787.1523" y1="711.8483" x2="6759.4072" y2="684.1031" gradientTransform="matrix(-0.9593 -0.2823 0.2823 -0.9593 7006.3604 3979.6677)">
						<stop  offset="0" style="stop-color:#06EABE"/>
						<stop  offset="1" style="stop-color:#00A78E"/>
					</linearGradient>
					<path class="st30" d="M721.47,1407.98l-1.53,0.22c-0.08,0.01-0.15,0.03-0.22,0.06l-0.85,0.36c-0.17,0.07-0.29,0.19-0.35,0.34
						l-0.32,0.86c-0.09,0.23-0.36,0.4-0.66,0.41l-2.4,0.07c-0.11,0-0.22,0.03-0.32,0.07l-0.92,0.39c-0.1,0.04-0.21,0.07-0.32,0.07
						l-2.62,0.07c-0.19,0.01-0.38-0.05-0.52-0.15l-1-0.73c-0.23-0.17-0.56-0.2-0.83-0.08l-1.87,0.8c-0.07,0.03-0.14,0.05-0.22,0.06
						l-1.74,0.25c-0.19,0.03-0.35,0.11-0.46,0.23l-1.43,1.61c-0.11,0.12-0.28,0.21-0.46,0.23l-2.87,0.4
						c-0.53,0.07-0.97-0.31-0.82-0.72l0.08-0.21c0.09-0.23-0.03-0.48-0.28-0.62l-1.97-1.08c-0.09-0.05-0.17-0.12-0.22-0.19
						l-0.55-0.79c-0.02-0.03-0.04-0.07-0.06-0.1l-0.88-2.23c-0.09-0.22-0.33-0.37-0.62-0.4l-3.9-0.27c-0.34-0.02-0.66,0.15-0.75,0.4
						l-0.18,0.49c-0.11,0.3-0.51,0.47-0.89,0.38l-2.69-0.62c-0.23-0.05-0.41-0.19-0.48-0.37l-0.87-2.19c-0.04-0.11-0.04-0.22,0-0.33
						l0.13-0.35c0.05-0.14,0.03-0.3-0.06-0.43l-0.99-1.42c-0.12-0.17-0.12-0.39,0.01-0.56l1.37-1.83c0.24-0.32,0.03-0.72-0.42-0.83
						l-1.75-0.41c-0.51-0.12-0.69-0.62-0.32-0.93l0.64-0.54c0.04-0.03,0.07-0.06,0.09-0.1l1.8-2.4c0.13-0.17,0.13-0.38,0.01-0.56
						l-1.05-1.51c-0.05-0.08-0.08-0.16-0.09-0.25l-0.09-2.06c-0.01-0.15,0.06-0.3,0.19-0.41l1.17-0.99
						c0.08-0.06,0.17-0.11,0.27-0.14l4.09-1.2c0.21-0.06,0.37-0.2,0.44-0.37l1.15-3.08c0.08-0.21,0.29-0.36,0.56-0.4l3.52-0.5
						c0.22-0.03,0.41-0.14,0.51-0.29l1.88-2.81c0.16-0.24,0.51-0.36,0.84-0.28l3.12,0.72c0.05,0.01,0.09,0.02,0.14,0.02l4.65,0.33
						c0.16,0.01,0.31,0.06,0.43,0.15l2.95,2.16c0.05,0.03,0.1,0.06,0.16,0.09l3.99,1.65c0.21,0.09,0.47,0.09,0.68,0l0,0
						c0.43-0.18,0.97,0.02,1.05,0.4l0.49,2.16c0.06,0.26,0.34,0.45,0.68,0.46l3.31,0.11c0.09,0,0.18,0.02,0.27,0.05l5.87,2.1
						c0.19,0.07,0.33,0.19,0.39,0.35l0.93,2.35c0.01,0.04,0.03,0.07,0.06,0.1l1.04,1.5c0.15,0.21,0.11,0.48-0.11,0.66l-1.14,0.96
						l-1.37,1.16c-0.08,0.06-0.13,0.14-0.16,0.23l-0.36,0.96c-0.09,0.23,0.03,0.48,0.28,0.62l3.97,2.17c0.36,0.2,0.41,0.6,0.12,0.85
						L729,1403c-0.08,0.06-0.13,0.14-0.16,0.23l-0.62,1.66c-0.08,0.21,0,0.45,0.22,0.59c0.22,0.14,0.43,0.39,0.28,0.79l-0.7,1.88
						c-0.08,0.21-0.29,0.36-0.56,0.4l-1.66,0.23c-0.03,0-0.07,0.01-0.1,0.01l-2.6,0.07c-0.27,0.01-0.53-0.11-0.66-0.29l-0.2-0.29
						C722.08,1408.06,721.77,1407.94,721.47,1407.98z"/>
					
						<linearGradient id="SVGID_27_" gradientUnits="userSpaceOnUse" x1="6251.1362" y1="834.4806" x2="6221.7983" y2="805.1428" gradientTransform="matrix(-0.7071 -0.7071 0.7071 -0.7071 4527.1489 6399.1475)">
						<stop  offset="0" style="stop-color:#06EABE"/>
						<stop  offset="1" style="stop-color:#00A78E"/>
					</linearGradient>
					<path class="st31" d="M706.34,1427.18l-1.69-0.44c-0.08-0.02-0.17-0.03-0.26-0.03h-1.11c-0.22,0-0.43,0.07-0.58,0.19
						l-0.92,0.73c-0.25,0.2-0.64,0.25-0.95,0.12l-2.47-0.97c-0.11-0.05-0.24-0.07-0.37-0.07h-1.2c-0.13,0-0.25-0.02-0.37-0.07
						l-2.69-1.06c-0.2-0.08-0.34-0.21-0.41-0.38l-0.5-1.17c-0.11-0.26-0.43-0.44-0.78-0.44h-2.45c-0.09,0-0.18-0.01-0.26-0.03
						l-1.93-0.51c-0.21-0.05-0.43-0.04-0.63,0.04l-2.56,1.01c-0.2,0.08-0.42,0.09-0.63,0.04l-3.17-0.83
						c-0.58-0.15-0.76-0.73-0.32-1.07l0.22-0.17c0.25-0.2,0.31-0.5,0.15-0.75l-1.23-1.94c-0.06-0.09-0.09-0.19-0.09-0.29v-1.03
						c0-0.04,0.01-0.09,0.02-0.13l0.67-2.63c0.07-0.26-0.07-0.52-0.35-0.67l-3.74-1.96c-0.33-0.17-0.76-0.14-1.04,0.08l-0.52,0.41
						c-0.32,0.25-0.85,0.25-1.17,0l-2.28-1.79c-0.2-0.15-0.28-0.37-0.23-0.59l0.66-2.58c0.03-0.13,0.11-0.24,0.23-0.33l0.38-0.29
						c0.15-0.12,0.24-0.29,0.24-0.46v-1.86c0-0.23,0.15-0.44,0.4-0.56l2.66-1.25c0.46-0.22,0.54-0.72,0.16-1.01l-1.48-1.16
						c-0.43-0.34-0.26-0.92,0.32-1.07l1.03-0.27c0.06-0.02,0.11-0.03,0.16-0.06l3.49-1.64c0.25-0.12,0.4-0.33,0.4-0.56v-1.97
						c0-0.1,0.03-0.2,0.09-0.29l1.35-2.12c0.1-0.15,0.27-0.27,0.48-0.33l1.87-0.49c0.12-0.03,0.25-0.04,0.38-0.03l4.95,0.56
						c0.26,0.03,0.52-0.04,0.7-0.18l3.31-2.6c0.22-0.17,0.55-0.23,0.84-0.16l3.89,1.02c0.24,0.06,0.51,0.04,0.72-0.08l3.86-2.02
						c0.33-0.17,0.76-0.14,1.04,0.08l2.64,2.07c0.04,0.03,0.08,0.06,0.13,0.08l4.46,2.33c0.15,0.08,0.27,0.2,0.33,0.33l1.46,3.45
						c0.02,0.05,0.06,0.11,0.1,0.15l2.87,3.38c0.15,0.18,0.41,0.29,0.69,0.29l0,0c0.56,0,0.96,0.43,0.78,0.85l-1.02,2.39
						c-0.12,0.29,0.03,0.6,0.36,0.76l3.26,1.54c0.09,0.04,0.17,0.1,0.24,0.17l4.44,4.65c0.14,0.15,0.2,0.34,0.15,0.52l-0.71,2.77
						c-0.01,0.04-0.02,0.08-0.02,0.13v1.96c0,0.28-0.23,0.53-0.56,0.62l-1.82,0.48l-2.2,0.57c-0.12,0.03-0.23,0.09-0.32,0.16
						l-1.03,0.81c-0.25,0.2-0.31,0.5-0.15,0.75l2.48,3.9c0.22,0.35,0,0.78-0.48,0.91l-1.29,0.34c-0.12,0.03-0.23,0.09-0.32,0.16
						l-1.79,1.4c-0.23,0.18-0.31,0.45-0.19,0.69c0.13,0.24,0.16,0.58-0.27,0.92l-2.02,1.59c-0.22,0.17-0.55,0.23-0.84,0.16
						l-1.84-0.48c-0.04-0.01-0.07-0.02-0.11-0.04l-2.67-1.05c-0.28-0.11-0.46-0.33-0.46-0.58v-0.38
						C706.91,1427.51,706.68,1427.27,706.34,1427.18z"/>
				</g>
			</g>
			<g>
				<g>
					<g>
						<g>
							<linearGradient id="SVGID_28_" gradientUnits="userSpaceOnUse" x1="845" y1="1442.5" x2="850" y2="1442.5">
								<stop  offset="0" style="stop-color:#E29276"/>
								<stop  offset="1" style="stop-color:#8E5C4A"/>
							</linearGradient>
							<path class="st32" d="M847.5,1455L847.5,1455c-1.38,0-2.5-1.12-2.5-2.5V1430h5v22.5C850,1453.88,848.88,1455,847.5,1455z"/>
						</g>
						<g>
							<linearGradient id="SVGID_29_" gradientUnits="userSpaceOnUse" x1="820" y1="1442.5" x2="825" y2="1442.5">
								<stop  offset="0" style="stop-color:#E29276"/>
								<stop  offset="1" style="stop-color:#8E5C4A"/>
							</linearGradient>
							<path class="st33" d="M822.5,1455L822.5,1455c-1.38,0-2.5-1.12-2.5-2.5V1430h5v22.5C825,1453.88,823.88,1455,822.5,1455z"/>
						</g>
						<g>
							<linearGradient id="SVGID_30_" gradientUnits="userSpaceOnUse" x1="800" y1="1422.5" x2="805" y2="1422.5">
								<stop  offset="0" style="stop-color:#E29276"/>
								<stop  offset="1" style="stop-color:#8E5C4A"/>
							</linearGradient>
							<path class="st34" d="M802.5,1435L802.5,1435c-1.38,0-2.5-1.12-2.5-2.5V1410h5v22.5C805,1433.88,803.88,1435,802.5,1435z"/>
						</g>
						<polygon class="st17" points="800,1410 820,1430 850,1430 830,1410 						"/>
					</g>
					<polygon class="st18" points="800,1410 800,1415 820,1435 820,1430 					"/>
					<polygon class="st18" points="825,1395 825,1410 845,1430 845,1415 					"/>
					<rect x="820" y="1430" class="st19" width="30" height="5"/>
				</g>
				<polygon class="st17" points="825,1395 830,1395 850,1415 845,1415 				"/>
				<rect x="845" y="1415" class="st19" width="5" height="15"/>
			</g>
			<g>
				<g>
					
						<linearGradient id="SVGID_31_" gradientUnits="userSpaceOnUse" x1="6357.8755" y1="760.669" x2="6326.2158" y2="729.0095" gradientTransform="matrix(0.7071 0.7071 0.7071 -0.7071 -4243.1323 -2474.7676)">
						<stop  offset="0" style="stop-color:#06EABE"/>
						<stop  offset="1" style="stop-color:#00A78E"/>
					</linearGradient>
					<path class="st35" d="M749.09,1475.13l0.48,1.43c0.02,0.07,0.04,0.15,0.04,0.22v0.94c0,0.19-0.07,0.36-0.2,0.49l-0.78,0.78
						c-0.21,0.21-0.27,0.54-0.13,0.81l1.05,2.09c0.05,0.1,0.07,0.2,0.07,0.31v1.02c0,0.11,0.03,0.22,0.07,0.31l1.14,2.28
						c0.08,0.17,0.23,0.29,0.4,0.35l1.26,0.42c0.29,0.1,0.48,0.36,0.48,0.66v2.07c0,0.08,0.01,0.15,0.04,0.22l0.55,1.64
						c0.06,0.18,0.05,0.37-0.04,0.53l-1.09,2.17c-0.08,0.17-0.1,0.36-0.04,0.53l0.9,2.69c0.16,0.49,0.79,0.64,1.16,0.27l0.19-0.19
						c0.21-0.21,0.54-0.27,0.81-0.13l2.09,1.05c0.1,0.05,0.2,0.07,0.31,0.07h1.11c0.05,0,0.09,0,0.14-0.01l2.84-0.57
						c0.28-0.06,0.56,0.06,0.72,0.3l2.11,3.17c0.19,0.28,0.15,0.65-0.09,0.88l-0.45,0.44c-0.27,0.27-0.27,0.72,0,0.99l1.93,1.93
						c0.17,0.17,0.4,0.24,0.63,0.19l2.79-0.56c0.14-0.03,0.26-0.09,0.36-0.19l0.32-0.32c0.13-0.13,0.31-0.2,0.49-0.2h2
						c0.25,0,0.47-0.13,0.6-0.34l1.35-2.26c0.23-0.39,0.77-0.46,1.09-0.13l1.26,1.26c0.37,0.37,0.99,0.22,1.16-0.27l0.29-0.87
						c0.02-0.05,0.04-0.09,0.06-0.14l1.77-2.96c0.13-0.21,0.35-0.34,0.6-0.34h2.13c0.11,0,0.22-0.03,0.31-0.07l2.28-1.14
						c0.17-0.08,0.29-0.23,0.35-0.4l0.53-1.59c0.03-0.1,0.04-0.21,0.03-0.32l-0.6-4.2c-0.03-0.22,0.04-0.44,0.2-0.59l2.81-2.81
						c0.19-0.19,0.25-0.46,0.17-0.72l-1.1-3.3c-0.07-0.2-0.04-0.43,0.08-0.61l2.18-3.27c0.19-0.28,0.15-0.65-0.09-0.88l-2.24-2.24
						c-0.03-0.03-0.06-0.07-0.09-0.11l-2.52-3.78c-0.09-0.13-0.21-0.23-0.36-0.28l-3.72-1.24c-0.06-0.02-0.12-0.05-0.17-0.08
						l-3.65-2.43c-0.19-0.13-0.31-0.35-0.31-0.58l0,0c0-0.48-0.47-0.81-0.92-0.66l-2.58,0.86c-0.31,0.1-0.65-0.02-0.82-0.3
						l-1.66-2.76c-0.05-0.08-0.11-0.15-0.18-0.2l-5.02-3.77c-0.16-0.12-0.36-0.17-0.56-0.13l-2.99,0.6
						c-0.05,0.01-0.09,0.01-0.14,0.01h-2.12c-0.3,0-0.57,0.19-0.66,0.48l-0.51,1.54l-0.62,1.86c-0.03,0.1-0.09,0.2-0.17,0.27
						l-0.87,0.87c-0.21,0.21-0.54,0.27-0.81,0.13l-4.21-2.1c-0.38-0.19-0.84,0-0.98,0.4l-0.37,1.1c-0.03,0.1-0.09,0.2-0.17,0.27
						l-1.51,1.51c-0.19,0.19-0.49,0.26-0.74,0.16c-0.26-0.11-0.62-0.14-0.99,0.23l-1.71,1.71c-0.19,0.19-0.25,0.46-0.17,0.72
						l0.52,1.56c0.01,0.03,0.02,0.06,0.04,0.09l1.13,2.26c0.12,0.24,0.36,0.39,0.63,0.39h0.41
						C748.73,1474.65,748.99,1474.84,749.09,1475.13z"/>
					
						<linearGradient id="SVGID_32_" gradientUnits="userSpaceOnUse" x1="6917.7891" y1="697.5051" x2="6890.1904" y2="669.9063" gradientTransform="matrix(0.2823 0.9593 0.9593 -0.2823 -1823.6521 -4953.979)">
						<stop  offset="0" style="stop-color:#06EABE"/>
						<stop  offset="1" style="stop-color:#00A78E"/>
					</linearGradient>
					<path class="st36" d="M769.8,1462.3l-0.23,1.3c-0.01,0.06-0.03,0.13-0.06,0.18l-0.39,0.72c-0.08,0.14-0.21,0.25-0.36,0.29
						l-0.93,0.27c-0.25,0.07-0.43,0.3-0.44,0.56l-0.07,2.04c0,0.09-0.03,0.19-0.07,0.27l-0.42,0.78c-0.05,0.08-0.07,0.18-0.07,0.27
						l-0.08,2.22c-0.01,0.16,0.05,0.32,0.16,0.44l0.79,0.85c0.18,0.19,0.21,0.48,0.09,0.71l-0.87,1.59
						c-0.03,0.06-0.05,0.12-0.06,0.18l-0.27,1.48c-0.03,0.16-0.12,0.3-0.25,0.39l-1.74,1.21c-0.13,0.09-0.22,0.23-0.25,0.39
						l-0.44,2.43c-0.08,0.45,0.34,0.82,0.77,0.69l0.22-0.07c0.25-0.07,0.52,0.02,0.67,0.24l1.16,1.67c0.05,0.08,0.13,0.14,0.21,0.19
						l0.85,0.46c0.04,0.02,0.07,0.04,0.11,0.05l2.41,0.75c0.24,0.07,0.4,0.28,0.43,0.53l0.29,3.31c0.03,0.29-0.16,0.56-0.44,0.64
						l-0.53,0.15c-0.32,0.1-0.51,0.43-0.41,0.76l0.67,2.28c0.06,0.2,0.21,0.35,0.4,0.41l2.37,0.74c0.11,0.04,0.24,0.04,0.35,0
						l0.38-0.11c0.16-0.05,0.32-0.03,0.46,0.05l1.53,0.84c0.19,0.1,0.42,0.1,0.6-0.01l1.98-1.16c0.34-0.2,0.78-0.03,0.89,0.35
						l0.44,1.49c0.13,0.44,0.67,0.58,1,0.27l0.59-0.55c0.03-0.03,0.07-0.06,0.11-0.08l2.59-1.52c0.18-0.11,0.41-0.11,0.6-0.01
						l1.63,0.89c0.08,0.05,0.18,0.07,0.27,0.07l2.22,0.08c0.16,0.01,0.32-0.05,0.44-0.16l1.07-0.99c0.07-0.06,0.12-0.14,0.16-0.23
						l1.29-3.46c0.07-0.18,0.22-0.32,0.4-0.37l3.32-0.98c0.22-0.07,0.39-0.25,0.43-0.48l0.54-2.99c0.03-0.19,0.15-0.34,0.32-0.43
						l3.04-1.59c0.26-0.14,0.38-0.43,0.3-0.71l-0.78-2.64c-0.01-0.04-0.02-0.08-0.02-0.12l-0.35-3.94
						c-0.01-0.14-0.07-0.26-0.16-0.36l-2.33-2.5c-0.04-0.04-0.07-0.08-0.09-0.13l-1.78-3.38c-0.09-0.18-0.09-0.4,0-0.58l0,0
						c0.2-0.37-0.02-0.82-0.43-0.89l-2.34-0.42c-0.28-0.05-0.49-0.29-0.5-0.58l-0.12-2.81c0-0.08-0.02-0.16-0.05-0.23l-2.27-4.98
						c-0.07-0.16-0.21-0.28-0.37-0.33l-2.54-0.79c-0.04-0.01-0.08-0.03-0.11-0.05l-1.62-0.88c-0.23-0.13-0.52-0.09-0.71,0.09
						l-1.04,0.96l-1.25,1.17c-0.07,0.06-0.15,0.11-0.24,0.14l-1.03,0.3c-0.25,0.07-0.52-0.02-0.67-0.24l-2.34-3.37
						c-0.21-0.3-0.64-0.35-0.92-0.1l-0.74,0.69c-0.07,0.06-0.15,0.11-0.24,0.14l-1.79,0.53c-0.23,0.07-0.48,0-0.63-0.19
						c-0.15-0.19-0.42-0.37-0.85-0.24l-2.03,0.6c-0.22,0.07-0.39,0.25-0.43,0.48l-0.25,1.41c-0.01,0.03-0.01,0.06-0.01,0.09
						l-0.08,2.2c-0.01,0.23,0.11,0.45,0.32,0.56l0.31,0.17C769.72,1461.79,769.85,1462.05,769.8,1462.3z"/>
				</g>
			</g>
			<g>
				
					<linearGradient id="SVGID_33_" gradientUnits="userSpaceOnUse" x1="556.0137" y1="1435.1051" x2="535.1396" y2="1414.2311" gradientTransform="matrix(-1 0 0 1 1420.7478 0)">
					<stop  offset="0" style="stop-color:#E29276"/>
					<stop  offset="1" style="stop-color:#8E5C4A"/>
				</linearGradient>
				<polygon class="st37" points="865.78,1436.15 878.3,1427.8 878.3,1423.62 882.48,1419.45 882.48,1411.1 878.3,1415.27 
					878.3,1419.45 874.13,1423.62 874.13,1427.8 870.14,1427.89 865.78,1431.97 				"/>
				
					<linearGradient id="SVGID_34_" gradientUnits="userSpaceOnUse" x1="-1118.3748" y1="1423.8196" x2="-1109.7789" y2="1423.8196" gradientTransform="matrix(-1 0 0 1 -255.7905 0)">
					<stop  offset="0" style="stop-color:#E29276"/>
					<stop  offset="1" style="stop-color:#8E5C4A"/>
				</linearGradient>
				<polygon class="st38" points="862.58,1435.28 859.72,1432.42 859.72,1429.55 856.85,1423.82 859.72,1415.22 856.85,1406.63 
					853.99,1406.63 856.85,1409.49 856.85,1412.36 856.85,1415.22 853.99,1420.95 853.99,1426.68 856.85,1435.28 862.58,1441.01 
									"/>
				
					<linearGradient id="SVGID_35_" gradientUnits="userSpaceOnUse" x1="7884.5791" y1="1455.1002" x2="7856.9092" y2="1427.4302" gradientTransform="matrix(1 0 0 1 -7003.1904 0)">
					<stop  offset="0" style="stop-color:#E29276"/>
					<stop  offset="1" style="stop-color:#8E5C4A"/>
				</linearGradient>
				<path class="st39" d="M867.86,1413.8l0.83,1.32c0.06,0.1,0.09,0.21,0.07,0.33l-1.38,7.7c-0.01,0.06-0.03,0.12-0.07,0.17
					l-1.38,2.19l-2.84,4.51c-0.01,0.02-0.03,0.05-0.04,0.07l-1.38,3.29c-0.02,0.06-0.04,0.12-0.04,0.18v3.27
					c0,0.04,0,0.07-0.01,0.11l-1.4,5.58c-0.01,0.04-0.01,0.07-0.01,0.11v4.49v4.46c0,0.06-0.01,0.12-0.04,0.17l-1.36,3.24
					c-0.02,0.06-0.04,0.12-0.04,0.18v0.82c0,0.15-0.07,0.29-0.2,0.39l-1.02,0.81c-0.13,0.1-0.31,0.16-0.49,0.16h-4l0,0
					c-0.79,0-0.97,0.88-0.22,1.08l0.11,0.03c0.07,0.02,0.15,0.03,0.22,0.03h2.75h2.16c0.38,0,0.7,0.25,0.7,0.55v1.49
					c0,0.15,0.07,0.29,0.2,0.39l0.54,0.43c0.34,0.27,0.9,0.19,1.11-0.14l0.8-1.28c0.12-0.19,0.36-0.31,0.62-0.31h0.71
					c0.18,0,0.36,0.06,0.49,0.16l2.25,1.79c0.23,0.19,0.6,0.22,0.88,0.07l4.88-0.43c0.07-0.02,0.15-0.03,0.22-0.03h3.48
					c0.38,0,0.7-0.25,0.7-0.55v-0.18c0-0.24-0.19-0.45-0.48-0.53l-3.7-0.98c-0.07-0.02-0.15-0.03-0.22-0.03l-3.61-4.81
					c-0.19-0.1-0.31-0.28-0.31-0.46v-3.02c0-0.06-0.01-0.12-0.04-0.18l-1.32-3.15c-0.05-0.11-0.05-0.24,0-0.35l1.32-3.15
					c0.02-0.06,0.04-0.12,0.04-0.17v-6.73v-4.42c0-0.09,0.03-0.17,0.07-0.25l1.36-2.16l1.36-2.16c0.05-0.08,0.07-0.16,0.07-0.25
					v-3.19c0-0.06,0.01-0.12,0.04-0.18l1.36-3.24c0.02-0.06,0.04-0.12,0.04-0.17v-3.32v-3.99c0-0.31-0.31-0.55-0.7-0.55h-2.47
					C867.97,1413,867.63,1413.43,867.86,1413.8z"/>
				
					<linearGradient id="SVGID_36_" gradientUnits="userSpaceOnUse" x1="7906.0664" y1="1417.4163" x2="7877.8203" y2="1389.1703" gradientTransform="matrix(1 0 0 1 -7003.1904 0)">
					<stop  offset="0" style="stop-color:#06EABE"/>
					<stop  offset="1" style="stop-color:#00A78E"/>
				</linearGradient>
				<path class="st40" d="M877.86,1392.12l3.14-2.09c0.08-0.05,0.16-0.12,0.23-0.19l0.88-0.88c0.28-0.28,0.66-0.44,1.06-0.44h5.9
					c0.4,0,0.78-0.16,1.06-0.44l1.59-1.59c0.49-0.49,1.24-0.58,1.83-0.23l5.98,3.59c0.11,0.06,0.2,0.14,0.29,0.23l2.29,2.29
					c0.28,0.28,0.44,0.66,0.44,1.06v3.04c0,0.4-0.16,0.78-0.44,1.06l-0.94,0.94c-0.72,0.72-0.53,1.95,0.39,2.41l2.51,1.25
					c0.74,0.37,1.04,1.27,0.67,2.01l-0.6,1.2c-0.1,0.21-0.16,0.44-0.16,0.67v3.31c0,0.4-0.16,0.78-0.44,1.06l-0.33,0.33
					c-0.4,0.4-0.54,1-0.36,1.54l1.01,3.03c0.13,0.4,0.11,0.84-0.11,1.2c-0.19,0.32-0.55,0.61-1.19,0.61h-5.47
					c-0.16,0-0.32,0.03-0.47,0.08l-3.4,1.13c-0.42,0.14-0.87,0.09-1.25-0.14l-5.16-3.1c-0.75-0.45-1.72-0.17-2.12,0.62l-0.12,0.24
					c-0.33,0.67-1.11,0.99-1.82,0.75l-7-2.33c-0.22-0.07-0.42-0.2-0.59-0.36l-2.17-2.17c-0.28-0.28-0.44-0.66-0.44-1.06v-4.74
					c0-0.23-0.05-0.46-0.16-0.67l-1.11-2.22c-0.1-0.21-0.16-0.44-0.16-0.67v-3.75c0-0.12-0.02-0.24-0.04-0.36l-0.92-3.67
					c-0.24-0.95,0.48-1.87,1.46-1.87h0.01c0.57,0,1.09-0.32,1.34-0.83l0.08-0.16c0.46-0.92,1.68-1.12,2.41-0.39l0.51,0.51
					C876.47,1392.44,877.27,1392.52,877.86,1392.12z"/>
				
					<linearGradient id="SVGID_37_" gradientUnits="userSpaceOnUse" x1="7675.2749" y1="2640.6252" x2="7627.7251" y2="2593.0754" gradientTransform="matrix(0.7071 -0.7071 0.7071 0.7071 -6389.4429 4947.0835)">
					<stop  offset="0" style="stop-color:#06EABE"/>
					<stop  offset="1" style="stop-color:#00A78E"/>
				</linearGradient>
				<path class="st41" d="M842.89,1398.95l0.72-2.15c0.04-0.11,0.05-0.22,0.05-0.33v-1.41c0-0.28-0.11-0.55-0.31-0.74l-1.18-1.18
					c-0.32-0.32-0.4-0.81-0.2-1.21l1.57-3.14c0.07-0.15,0.11-0.31,0.11-0.47v-1.52c0-0.16,0.04-0.32,0.11-0.47l1.72-3.43
					c0.12-0.25,0.34-0.44,0.61-0.53l1.9-0.63c0.43-0.14,0.72-0.54,0.72-1v-3.11c0-0.11,0.02-0.23,0.05-0.33l0.82-2.46
					c0.09-0.26,0.07-0.55-0.06-0.8l-1.63-3.26c-0.12-0.25-0.15-0.54-0.06-0.8l1.35-4.04c0.25-0.74,1.19-0.96,1.74-0.41l0.28,0.28
					c0.32,0.32,0.81,0.4,1.21,0.2l3.14-1.57c0.15-0.07,0.31-0.11,0.47-0.11h1.67c0.07,0,0.14,0.01,0.21,0.02l4.26,0.85
					c0.42,0.08,0.84-0.09,1.08-0.45l3.17-4.76c0.28-0.42,0.22-0.97-0.13-1.33l-0.67-0.67c-0.41-0.41-0.41-1.08,0-1.49l2.9-2.9
					c0.25-0.25,0.6-0.36,0.95-0.29l4.19,0.84c0.2,0.04,0.39,0.14,0.54,0.29l0.48,0.48c0.2,0.2,0.46,0.31,0.74,0.31h3.01
					c0.37,0,0.71,0.19,0.9,0.51l2.03,3.39c0.35,0.59,1.16,0.69,1.64,0.2l1.89-1.89c0.55-0.55,1.49-0.33,1.74,0.41l0.44,1.31
					c0.02,0.07,0.06,0.14,0.1,0.21l2.67,4.44c0.19,0.32,0.53,0.51,0.9,0.51h3.2c0.16,0,0.32,0.04,0.47,0.11l3.43,1.72
					c0.25,0.12,0.44,0.34,0.53,0.61l0.79,2.38c0.05,0.15,0.07,0.32,0.04,0.48l-0.9,6.31c-0.05,0.33,0.06,0.66,0.3,0.89l4.22,4.22
					c0.28,0.28,0.38,0.7,0.25,1.08l-1.65,4.96c-0.1,0.31-0.06,0.65,0.12,0.92l3.28,4.92c0.28,0.42,0.22,0.97-0.13,1.33l-3.36,3.36
					c-0.05,0.05-0.09,0.1-0.13,0.16l-3.78,5.68c-0.13,0.19-0.32,0.34-0.54,0.41l-5.59,1.86c-0.09,0.03-0.17,0.07-0.25,0.12
					l-5.48,3.65c-0.29,0.19-0.47,0.52-0.47,0.87l0,0c0,0.72-0.7,1.22-1.38,1l-3.88-1.29c-0.47-0.16-0.98,0.03-1.23,0.46l-2.49,4.15
					c-0.07,0.12-0.16,0.22-0.27,0.3l-7.54,5.66c-0.24,0.18-0.54,0.25-0.84,0.19l-4.49-0.9c-0.07-0.01-0.14-0.02-0.21-0.02h-3.18
					c-0.45,0-0.85-0.29-1-0.72l-0.77-2.31l-0.93-2.8c-0.05-0.15-0.14-0.3-0.25-0.41l-1.31-1.31c-0.32-0.32-0.81-0.4-1.21-0.2
					l-6.32,3.16c-0.57,0.29-1.26,0-1.47-0.61l-0.55-1.65c-0.05-0.15-0.14-0.3-0.25-0.41l-2.27-2.27c-0.29-0.29-0.73-0.4-1.11-0.24
					c-0.39,0.16-0.94,0.21-1.49-0.34l-2.57-2.57c-0.28-0.28-0.38-0.7-0.25-1.08l0.78-2.34c0.02-0.05,0.03-0.09,0.06-0.14l1.7-3.39
					c0.18-0.36,0.54-0.58,0.94-0.58h0.61C842.35,1399.67,842.75,1399.38,842.89,1398.95z"/>
				
					<linearGradient id="SVGID_38_" gradientUnits="userSpaceOnUse" x1="4691.0381" y1="1303.2831" x2="4677.1084" y2="1289.3534" gradientTransform="matrix(-1 0 0 -1 5536.3501 2721.5542)">
					<stop  offset="0" style="stop-color:#06EABE"/>
					<stop  offset="1" style="stop-color:#00A78E"/>
				</linearGradient>
				<path class="st42" d="M860.55,1430.79l-4.72,2.36c-0.28,0.14-0.61,0.19-0.92,0.14l-7.77-1.3c-0.21-0.03-0.41-0.11-0.59-0.23
					l-3.35-2.23c-0.42-0.28-0.67-0.75-0.67-1.25v-6.6c0-0.69,0.47-1.29,1.14-1.46l4.02-1c0.36-0.09,0.68-0.31,0.89-0.62l1.8-2.7
					c0.42-0.63,1.24-0.85,1.92-0.51l6.88,3.44c0.33,0.16,0.59,0.44,0.72,0.79l2.44,6.1c0.13,0.33,0.14,0.7,0.03,1.03l-1.06,3.17
					C861.17,1430.3,860.9,1430.61,860.55,1430.79z"/>
				
					<linearGradient id="SVGID_39_" gradientUnits="userSpaceOnUse" x1="4749.9229" y1="1835.9176" x2="4742.0073" y2="1828.0023" gradientTransform="matrix(-0.9424 -0.3345 0.3345 -0.9424 4719.0664 4736.0674)">
					<stop  offset="0" style="stop-color:#06EABE"/>
					<stop  offset="1" style="stop-color:#00A78E"/>
				</linearGradient>
				<path class="st43" d="M862.72,1426.57l-2.98,0.37c-0.18,0.02-0.36-0.01-0.52-0.1l-3.92-2.17c-0.11-0.06-0.2-0.14-0.27-0.24
					l-1.37-1.83c-0.17-0.23-0.22-0.53-0.12-0.8l1.25-3.53c0.13-0.37,0.5-0.6,0.89-0.56l2.34,0.23c0.21,0.02,0.42-0.04,0.59-0.17
					l1.48-1.1c0.34-0.26,0.83-0.22,1.13,0.09l3.03,3.15c0.14,0.15,0.23,0.35,0.24,0.56l0.15,3.73c0.01,0.2-0.06,0.4-0.18,0.56
					l-1.17,1.5C863.15,1426.43,862.95,1426.55,862.72,1426.57z"/>
				
					<linearGradient id="SVGID_40_" gradientUnits="userSpaceOnUse" x1="5205.9214" y1="6374.7026" x2="5199.6899" y2="6368.4712" gradientTransform="matrix(0.7071 -0.7071 0.7071 0.7071 -7317.2329 584.3348)">
					<stop  offset="0" style="stop-color:#06EABE"/>
					<stop  offset="1" style="stop-color:#00A78E"/>
				</linearGradient>
				<path class="st44" d="M863.45,1411.22v-2.37c0-0.49,0.28-0.93,0.71-1.15l2.51-1.26c0.31-0.15,0.66-0.18,0.98-0.07l1.77,0.59
					c0.32,0.11,0.59,0.34,0.75,0.65l1.2,2.4c0.25,0.5,0.15,1.1-0.24,1.49l-3.41,3.41c-0.35,0.35-0.86,0.47-1.32,0.31l-2.82-0.94
					c-0.91-0.3-1.18-1.46-0.5-2.13l0,0C863.31,1411.89,863.45,1411.56,863.45,1411.22z"/>
			</g>
			<g>
				<g>
					
						<linearGradient id="SVGID_41_" gradientUnits="userSpaceOnUse" x1="6345.9385" y1="648.1808" x2="6309.8491" y2="612.0917" gradientTransform="matrix(0 1 -1 0 1496.8037 -4852.3267)">
						<stop  offset="0" style="stop-color:#06EABE"/>
						<stop  offset="1" style="stop-color:#00A78E"/>
					</linearGradient>
					<path class="st45" d="M875.57,1453.89l0.77,1.54c0.04,0.08,0.09,0.15,0.15,0.21l0.76,0.76c0.15,0.15,0.35,0.23,0.56,0.23h1.26
						c0.34,0,0.65,0.22,0.76,0.55l0.84,2.53c0.04,0.12,0.11,0.22,0.19,0.31l0.82,0.82c0.09,0.09,0.15,0.19,0.19,0.31l0.92,2.76
						c0.07,0.2,0.05,0.42-0.04,0.61l-0.68,1.36c-0.15,0.31-0.09,0.68,0.15,0.92l1.67,1.67c0.06,0.06,0.11,0.13,0.15,0.21l0.88,1.76
						c0.09,0.19,0.26,0.33,0.46,0.4l2.63,0.88c0.2,0.07,0.37,0.21,0.46,0.4l1.44,2.89c0.27,0.53-0.12,1.15-0.71,1.15h-0.3
						c-0.34,0-0.65,0.22-0.76,0.55l-0.84,2.53c-0.04,0.12-0.11,0.22-0.19,0.31l-0.9,0.9c-0.04,0.04-0.08,0.07-0.12,0.1l-2.74,1.83
						c-0.27,0.18-0.4,0.5-0.34,0.82l0.85,4.26c0.07,0.37,0.4,0.64,0.78,0.64h0.72c0.44,0,0.8,0.36,0.8,0.8v3.11
						c0,0.27-0.13,0.52-0.36,0.66l-2.7,1.8c-0.13,0.09-0.29,0.13-0.44,0.13h-0.51c-0.21,0-0.41,0.08-0.56,0.23l-1.62,1.62
						c-0.2,0.2-0.49,0.28-0.76,0.21l-2.91-0.73c-0.5-0.13-0.99,0.25-0.99,0.77v2.03c0,0.59-0.62,0.98-1.15,0.71l-0.94-0.47
						c-0.05-0.03-0.11-0.05-0.16-0.06l-3.82-0.95c-0.27-0.07-0.56,0.01-0.76,0.21l-1.72,1.72c-0.09,0.09-0.19,0.15-0.31,0.19
						l-2.76,0.92c-0.2,0.07-0.42,0.05-0.61-0.04l-1.71-0.85c-0.11-0.06-0.21-0.14-0.28-0.23l-2.9-3.87
						c-0.15-0.2-0.39-0.32-0.64-0.32h-4.53c-0.3,0-0.58-0.17-0.71-0.44l-1.77-3.55c-0.11-0.22-0.32-0.38-0.56-0.43l-4.4-0.88
						c-0.37-0.07-0.64-0.4-0.64-0.78v-3.61c0-0.05-0.01-0.1-0.02-0.16l-1.02-5.08c-0.03-0.17-0.01-0.35,0.07-0.51l2-4
						c0.03-0.06,0.05-0.13,0.07-0.2l0.98-4.9c0.05-0.26-0.03-0.53-0.22-0.72l0,0c-0.39-0.39-0.28-1.03,0.21-1.28l2.78-1.39
						c0.33-0.17,0.51-0.54,0.42-0.91l-0.89-3.57c-0.03-0.1-0.03-0.2-0.02-0.31l1.01-7.08c0.03-0.22,0.16-0.43,0.35-0.55l2.89-1.93
						c0.04-0.03,0.08-0.06,0.12-0.1l1.71-1.71c0.24-0.24,0.61-0.3,0.92-0.15l1.65,0.83l2,1c0.11,0.06,0.23,0.08,0.36,0.08h1.41
						c0.34,0,0.65-0.22,0.76-0.55l1.7-5.09c0.15-0.46,0.68-0.68,1.11-0.46l1.18,0.59c0.11,0.06,0.23,0.08,0.36,0.08h2.44
						c0.31,0,0.61-0.18,0.73-0.47c0.12-0.29,0.39-0.62,0.98-0.62h2.76c0.3,0,0.58,0.17,0.71,0.44l0.84,1.68
						c0.02,0.03,0.03,0.07,0.04,0.1l0.91,2.73c0.1,0.29,0.02,0.6-0.19,0.82l-0.33,0.33
						C875.47,1453.22,875.41,1453.59,875.57,1453.89z"/>
					
						<linearGradient id="SVGID_42_" gradientUnits="userSpaceOnUse" x1="6961.8135" y1="593.9637" x2="6930.3535" y2="562.5036" gradientTransform="matrix(0.4788 0.8779 -0.8779 0.4788 -1967.0941 -4894.563)">
						<stop  offset="0" style="stop-color:#06EABE"/>
						<stop  offset="1" style="stop-color:#00A78E"/>
					</linearGradient>
					<path class="st46" d="M848.53,1460.25l1.23,0.86c0.06,0.04,0.13,0.08,0.2,0.1l0.9,0.26c0.18,0.05,0.37,0.03,0.53-0.06
						l0.97-0.53c0.26-0.14,0.59-0.1,0.81,0.1l1.7,1.58c0.08,0.07,0.17,0.13,0.28,0.16l0.97,0.28c0.1,0.03,0.2,0.08,0.28,0.16
						l1.86,1.73c0.13,0.13,0.21,0.3,0.22,0.48l0.05,1.32c0.01,0.3,0.21,0.56,0.5,0.64l1.98,0.58c0.07,0.02,0.14,0.05,0.2,0.1
						l1.41,0.98c0.15,0.11,0.34,0.15,0.52,0.11l2.38-0.43c0.18-0.03,0.37,0.01,0.52,0.11l2.31,1.61c0.42,0.3,0.39,0.93-0.06,1.18
						l-0.23,0.13c-0.26,0.14-0.4,0.44-0.35,0.73l0.41,2.29c0.02,0.11,0.01,0.22-0.02,0.32l-0.31,1.06
						c-0.01,0.04-0.03,0.09-0.05,0.13l-1.34,2.54c-0.13,0.25-0.1,0.55,0.08,0.77l2.43,2.9c0.21,0.25,0.58,0.32,0.87,0.16l0.55-0.3
						c0.34-0.18,0.76-0.06,0.94,0.28l1.3,2.38c0.11,0.2,0.11,0.45,0.01,0.66l-1.31,2.5c-0.06,0.12-0.16,0.22-0.28,0.29l-0.39,0.21
						c-0.16,0.09-0.28,0.24-0.33,0.41l-0.56,1.91c-0.07,0.23-0.26,0.42-0.49,0.48l-2.53,0.66c-0.44,0.11-0.65,0.61-0.44,1.01
						l0.85,1.55c0.25,0.45-0.07,1.01-0.59,1.03l-0.91,0.03c-0.05,0-0.1,0.01-0.15,0.02l-3.32,0.86c-0.24,0.06-0.42,0.24-0.49,0.48
						l-0.6,2.03c-0.03,0.1-0.08,0.2-0.16,0.28l-1.73,1.86c-0.13,0.14-0.3,0.21-0.48,0.22l-1.66,0.06c-0.11,0-0.22-0.02-0.31-0.06
						l-3.83-1.75c-0.2-0.09-0.43-0.08-0.62,0.02l-3.47,1.89c-0.23,0.13-0.51,0.11-0.73-0.04l-2.84-1.98
						c-0.18-0.12-0.4-0.16-0.6-0.09l-3.73,1.16c-0.32,0.1-0.66-0.04-0.82-0.33l-1.5-2.76c-0.02-0.04-0.05-0.08-0.08-0.11l-2.9-3.46
						c-0.1-0.12-0.16-0.27-0.16-0.42l-0.14-3.89c0-0.06-0.01-0.12-0.03-0.18l-1.29-4.16c-0.07-0.22-0.24-0.39-0.47-0.46l0,0
						c-0.46-0.13-0.65-0.67-0.37-1.06l1.55-2.22c0.19-0.27,0.16-0.63-0.06-0.87l-2.17-2.36c-0.06-0.07-0.11-0.14-0.14-0.23
						l-2.18-5.84c-0.07-0.19-0.06-0.39,0.04-0.57l1.41-2.68c0.02-0.04,0.04-0.08,0.05-0.13l0.59-2.02c0.08-0.29,0.34-0.49,0.64-0.5
						l1.61-0.06l1.95-0.07c0.11,0,0.21-0.03,0.31-0.08l1.08-0.59c0.26-0.14,0.4-0.44,0.35-0.73l-0.83-4.6
						c-0.07-0.42,0.24-0.8,0.66-0.82l1.15-0.04c0.11,0,0.21-0.03,0.31-0.08l1.87-1.02c0.24-0.13,0.39-0.39,0.36-0.66
						c-0.03-0.28,0.04-0.63,0.49-0.88l2.11-1.15c0.23-0.13,0.51-0.11,0.73,0.04l1.34,0.93c0.03,0.02,0.05,0.04,0.08,0.06l1.84,1.71
						c0.19,0.18,0.27,0.45,0.19,0.71l-0.11,0.39C848.18,1459.77,848.29,1460.08,848.53,1460.25z"/>
				</g>
			</g>
		</g>
		<g>
			<g>
				
					<linearGradient id="SVGID_43_" gradientUnits="userSpaceOnUse" x1="2130.2971" y1="1352.5" x2="2142.7971" y2="1352.5" gradientTransform="matrix(-1 0 0 1 2891.3984 0)">
					<stop  offset="0" style="stop-color:#BA785D"/>
					<stop  offset="1" style="stop-color:#00A78E"/>
				</linearGradient>
				<polygon class="st47" points="748.6,1370 753.6,1365 753.6,1360 761.1,1352.5 753.6,1345 753.6,1335 748.6,1350 753.6,1355 				
					"/>
				<linearGradient id="SVGID_44_" gradientUnits="userSpaceOnUse" x1="748.6014" y1="1354.2302" x2="762.8317" y2="1354.2302">
					<stop  offset="0" style="stop-color:#BA785D"/>
					<stop  offset="1" style="stop-color:#00A78E"/>
				</linearGradient>
				<polygon class="st48" points="759.67,1340 751.76,1347.91 748.6,1357.39 750.18,1368.46 753.34,1358.97 756.51,1349.49 
					762.83,1346.32 				"/>
				
					<linearGradient id="SVGID_45_" gradientUnits="userSpaceOnUse" x1="2147.7971" y1="1347.5" x2="2162.7971" y2="1347.5" gradientTransform="matrix(-1 0 0 1 2891.3984 0)">
					<stop  offset="0" style="stop-color:#BA785D"/>
					<stop  offset="1" style="stop-color:#00A78E"/>
				</linearGradient>
				<polygon class="st49" points="743.6,1370 738.6,1360 738.6,1350 743.6,1340 738.6,1325 738.6,1340 728.6,1350 733.6,1360 
					738.6,1370 				"/>
				
					<linearGradient id="SVGID_46_" gradientUnits="userSpaceOnUse" x1="2142.7971" y1="1355" x2="2162.7971" y2="1355" gradientTransform="matrix(-1 0 0 1 2891.3984 0)">
					<stop  offset="0" style="stop-color:#BA785D"/>
					<stop  offset="1" style="stop-color:#00A78E"/>
				</linearGradient>
				<polygon class="st50" points="748.6,1365 748.6,1360 743.6,1355 743.6,1350 728.6,1340 738.6,1355 743.6,1360 743.6,1365 
					748.6,1370 				"/>
				
					<linearGradient id="SVGID_47_" gradientUnits="userSpaceOnUse" x1="1938.7965" y1="1974.8936" x2="1951.2965" y2="1974.8936" gradientTransform="matrix(-0.8736 -0.4866 -0.4866 0.8736 3422.7847 578.84)">
					<stop  offset="0" style="stop-color:#BA785D"/>
					<stop  offset="1" style="stop-color:#00A78E"/>
				</linearGradient>
				<polygon class="st51" points="748.6,1370 755.4,1368.06 757.84,1363.7 768.04,1360.79 765.13,1350.59 770,1341.86 
					758.33,1352.53 760.27,1359.33 				"/>
			</g>
			<g>
				
					<linearGradient id="SVGID_48_" gradientUnits="userSpaceOnUse" x1="2120.7852" y1="1358.108" x2="2133.2852" y2="1358.108" gradientTransform="matrix(-0.9756 -0.2196 -0.2196 0.9756 3136.9741 505.7406)">
					<stop  offset="0" style="stop-color:#BA785D"/>
					<stop  offset="1" style="stop-color:#00A78E"/>
				</linearGradient>
				<polygon class="st52" points="753.68,1379.3 759.65,1375.52 760.75,1370.64 769.72,1364.97 764.05,1356.01 766.24,1346.25 
					758.07,1359.79 761.85,1365.76 				"/>
				
					<linearGradient id="SVGID_49_" gradientUnits="userSpaceOnUse" x1="758.1133" y1="1359.8383" x2="772.3435" y2="1359.8383" gradientTransform="matrix(0.9756 0.2196 -0.2196 0.9756 316.1554 -129.2145)">
					<stop  offset="0" style="stop-color:#BA785D"/>
					<stop  offset="1" style="stop-color:#00A78E"/>
				</linearGradient>
				<polygon class="st53" points="771.06,1352.46 761.61,1358.44 756.45,1367 755.56,1378.14 760.73,1369.58 765.89,1361.02 
					772.76,1359.32 				"/>
				
					<linearGradient id="SVGID_50_" gradientUnits="userSpaceOnUse" x1="2138.2852" y1="1353.108" x2="2153.2852" y2="1353.108" gradientTransform="matrix(-0.9756 -0.2196 -0.2196 0.9756 3136.9741 505.7406)">
					<stop  offset="0" style="stop-color:#BA785D"/>
					<stop  offset="1" style="stop-color:#00A78E"/>
				</linearGradient>
				<polygon class="st54" points="748.8,1378.2 746.12,1367.35 748.31,1357.59 755.39,1348.93 753.8,1333.2 750.51,1347.83 
					738.56,1355.39 741.24,1366.25 743.92,1377.1 				"/>
				
					<linearGradient id="SVGID_51_" gradientUnits="userSpaceOnUse" x1="2133.2852" y1="1360.608" x2="2153.2852" y2="1360.608" gradientTransform="matrix(-0.9756 -0.2196 -0.2196 0.9756 3136.9741 505.7406)">
					<stop  offset="0" style="stop-color:#BA785D"/>
					<stop  offset="1" style="stop-color:#00A78E"/>
				</linearGradient>
				<polygon class="st55" points="754.78,1374.42 755.87,1369.54 752.09,1363.57 753.19,1358.69 740.75,1345.64 747.22,1362.47 
					751,1368.44 749.9,1373.32 753.68,1379.3 				"/>
				
					<linearGradient id="SVGID_52_" gradientUnits="userSpaceOnUse" x1="1927.7579" y1="1975.1646" x2="1940.2579" y2="1975.1646" gradientTransform="matrix(-0.7455 -0.6666 -0.6666 0.7455 3528.2749 1187.1442)">
					<stop  offset="0" style="stop-color:#BA785D"/>
					<stop  offset="1" style="stop-color:#00A78E"/>
				</linearGradient>
				<polygon class="st56" points="753.68,1379.3 760.74,1378.9 764.07,1375.18 774.66,1374.58 774.07,1363.99 780.73,1356.54 
					767.01,1364.39 767.4,1371.45 				"/>
			</g>
		</g>
		<g>
			<g>
				
					<linearGradient id="SVGID_53_" gradientUnits="userSpaceOnUse" x1="2136.0312" y1="1433.2028" x2="2148.5312" y2="1433.2028" gradientTransform="matrix(-1 0 0 1 2891.3984 0)">
					<stop  offset="0" style="stop-color:#BA785D"/>
					<stop  offset="1" style="stop-color:#00A78E"/>
				</linearGradient>
				<polygon class="st57" points="742.87,1450.7 747.87,1445.7 747.87,1440.7 755.37,1433.2 747.87,1425.7 747.87,1415.7 
					742.87,1430.7 747.87,1435.7 				"/>
				<linearGradient id="SVGID_54_" gradientUnits="userSpaceOnUse" x1="742.8672" y1="1434.933" x2="757.0975" y2="1434.933">
					<stop  offset="0" style="stop-color:#BA785D"/>
					<stop  offset="1" style="stop-color:#00A78E"/>
				</linearGradient>
				<polygon class="st58" points="753.94,1420.7 746.03,1428.61 742.87,1438.1 744.45,1449.16 747.61,1439.68 750.77,1430.19 
					757.1,1427.03 				"/>
				
					<linearGradient id="SVGID_55_" gradientUnits="userSpaceOnUse" x1="2153.5312" y1="1428.2028" x2="2168.5312" y2="1428.2028" gradientTransform="matrix(-1 0 0 1 2891.3984 0)">
					<stop  offset="0" style="stop-color:#BA785D"/>
					<stop  offset="1" style="stop-color:#00A78E"/>
				</linearGradient>
				<polygon class="st59" points="737.87,1450.7 732.87,1440.7 732.87,1430.7 737.87,1420.7 732.87,1405.7 732.87,1420.7 
					722.87,1430.7 727.87,1440.7 732.87,1450.7 				"/>
				
					<linearGradient id="SVGID_56_" gradientUnits="userSpaceOnUse" x1="2148.5312" y1="1435.7028" x2="2168.5312" y2="1435.7028" gradientTransform="matrix(-1 0 0 1 2891.3984 0)">
					<stop  offset="0" style="stop-color:#BA785D"/>
					<stop  offset="1" style="stop-color:#00A78E"/>
				</linearGradient>
				<polygon class="st60" points="742.87,1445.7 742.87,1440.7 737.87,1435.7 737.87,1430.7 722.87,1420.7 732.87,1435.7 
					737.87,1440.7 737.87,1445.7 742.87,1450.7 				"/>
				
					<linearGradient id="SVGID_57_" gradientUnits="userSpaceOnUse" x1="1904.5377" y1="2048.1885" x2="1917.0377" y2="2048.1885" gradientTransform="matrix(-0.8736 -0.4866 -0.4866 0.8736 3422.7847 578.84)">
					<stop  offset="0" style="stop-color:#BA785D"/>
					<stop  offset="1" style="stop-color:#00A78E"/>
				</linearGradient>
				<polygon class="st61" points="742.87,1450.7 749.67,1448.77 752.1,1444.4 762.3,1441.5 759.4,1431.29 764.27,1422.56 
					752.6,1433.23 754.53,1440.03 				"/>
			</g>
			<g>
				
					<linearGradient id="SVGID_58_" gradientUnits="userSpaceOnUse" x1="2108.657" y1="1438.1" x2="2121.157" y2="1438.1" gradientTransform="matrix(-0.9756 -0.2196 -0.2196 0.9756 3136.9741 505.7406)">
					<stop  offset="0" style="stop-color:#BA785D"/>
					<stop  offset="1" style="stop-color:#00A78E"/>
				</linearGradient>
				<polygon class="st62" points="747.94,1460 753.92,1456.22 755.02,1451.34 763.98,1445.67 758.31,1436.71 760.51,1426.95 
					752.34,1440.49 756.12,1446.46 				"/>
				
					<linearGradient id="SVGID_59_" gradientUnits="userSpaceOnUse" x1="770.2415" y1="1439.8303" x2="784.4717" y2="1439.8303" gradientTransform="matrix(0.9756 0.2196 -0.2196 0.9756 316.1554 -129.2145)">
					<stop  offset="0" style="stop-color:#BA785D"/>
					<stop  offset="1" style="stop-color:#00A78E"/>
				</linearGradient>
				<polygon class="st63" points="765.33,1433.16 755.88,1439.14 750.71,1447.7 749.82,1458.85 754.99,1450.28 760.16,1441.72 
					767.03,1440.03 				"/>
				
					<linearGradient id="SVGID_60_" gradientUnits="userSpaceOnUse" x1="2126.157" y1="1433.1" x2="2141.157" y2="1433.1" gradientTransform="matrix(-0.9756 -0.2196 -0.2196 0.9756 3136.9741 505.7406)">
					<stop  offset="0" style="stop-color:#BA785D"/>
					<stop  offset="1" style="stop-color:#00A78E"/>
				</linearGradient>
				<polygon class="st64" points="743.07,1458.9 740.38,1448.05 742.58,1438.29 749.65,1429.63 748.07,1413.9 744.78,1428.54 
					732.82,1436.1 735.51,1446.95 738.19,1457.8 				"/>
				
					<linearGradient id="SVGID_61_" gradientUnits="userSpaceOnUse" x1="2121.157" y1="1440.6" x2="2141.157" y2="1440.6" gradientTransform="matrix(-0.9756 -0.2196 -0.2196 0.9756 3136.9741 505.7406)">
					<stop  offset="0" style="stop-color:#BA785D"/>
					<stop  offset="1" style="stop-color:#00A78E"/>
				</linearGradient>
				<polygon class="st65" points="749.04,1455.12 750.14,1450.24 746.36,1444.27 747.46,1439.39 735.02,1426.34 741.48,1443.17 
					745.26,1449.15 744.16,1454.02 747.94,1460 				"/>
				
					<linearGradient id="SVGID_62_" gradientUnits="userSpaceOnUse" x1="1878.2397" y1="2039.1471" x2="1890.7397" y2="2039.1471" gradientTransform="matrix(-0.7455 -0.6666 -0.6666 0.7455 3528.2749 1187.1442)">
					<stop  offset="0" style="stop-color:#BA785D"/>
					<stop  offset="1" style="stop-color:#00A78E"/>
				</linearGradient>
				<polygon class="st66" points="747.94,1460 755,1459.61 758.34,1455.88 768.93,1455.29 768.33,1444.7 775,1437.24 
					761.27,1445.09 761.67,1452.15 				"/>
			</g>
		</g>
	</g>
</g>
</svg>
