<?xml version="1.0" encoding="utf-8"?>
<!-- Generator: Adobe Illustrator 23.1.1, SVG Export Plug-In . SVG Version: 6.00 Build 0)  -->
<svg version="1.1" xmlns="http://www.w3.org/2000/svg" xmlns:xlink="http://www.w3.org/1999/xlink" x="0px" y="0px"
	 viewBox="0 0 3840 2160" style="enable-background:new 0 0 3840 2160;" xml:space="preserve">
<style type="text/css">
	.st0{fill:transparent;}
	.st1{fill:url(#SVGID_1_);}
	.st2{fill:#50565B;}
	.st3{fill:#828E93;}
	.st4{fill:url(#SVGID_2_);}
	.st5{fill:#FCEBA2;}
	.st6{fill:url(#SVGID_3_);}
	.st7{fill:url(#SVGID_4_);}
	.st8{fill:url(#SVGID_5_);}
	.st9{fill:url(#SVGID_6_);}
	.st10{fill:url(#SVGID_7_);}
	.st11{fill:url(#SVGID_8_);}
	.st12{fill:url(#SVGID_9_);}
	.st13{fill:#B2B2B2;}
	.st14{fill:url(#SVGID_10_);}
	.st15{opacity:0.5;fill:url(#SVGID_11_);}
	.st16{opacity:0.5;fill:url(#SVGID_12_);}
	.st17{opacity:0.5;fill:url(#SVGID_13_);}
	.st18{opacity:0.5;fill:url(#SVGID_14_);}
	.st19{opacity:0.5;fill:url(#SVGID_15_);}
	.st20{opacity:0.5;fill:url(#SVGID_16_);}
	.st21{opacity:0.5;fill:url(#SVGID_17_);}
	.st22{opacity:0.5;fill:url(#SVGID_18_);}
	.st23{fill:url(#SVGID_19_);}
	.st24{fill:url(#SVGID_20_);}
	.st25{fill:url(#SVGID_21_);}
	.st26{fill:url(#SVGID_22_);}
	.st27{fill:url(#SVGID_23_);}
	.st28{fill:url(#SVGID_24_);}
	.st29{fill:url(#SVGID_25_);}
	.st30{fill:url(#SVGID_26_);}
	.st31{fill:url(#SVGID_27_);}
	.st32{fill:url(#SVGID_28_);}
	.st33{fill:url(#SVGID_29_);}
	.st34{fill:#8E5C4A;}
	.st35{fill:url(#SVGID_30_);}
	.st36{fill:url(#SVGID_31_);}
	.st37{fill:url(#SVGID_32_);}
	.st38{fill:url(#SVGID_33_);}
	.st39{fill:url(#SVGID_34_);}
	.st40{fill:url(#SVGID_35_);}
	.st41{fill:url(#SVGID_36_);}
	.st42{fill:#E5E5E5;}
	.st43{fill:url(#SVGID_37_);}
	.st44{fill:url(#SVGID_38_);}
</style>
<g id="Back">
	<rect class="st0" width="3840" height="2160"/>
</g>
<g id="First_floor">
	<linearGradient id="SVGID_1_" gradientUnits="userSpaceOnUse" x1="900" y1="1362.5" x2="1065" y2="1362.5">
		<stop  offset="1.472383e-03" style="stop-color:#D1E3E8"/>
		<stop  offset="1" style="stop-color:#B0C1C6"/>
	</linearGradient>
	<polygon class="st1" points="900,1320 980,1320 1065,1405 985,1405 	"/>
	<polygon class="st2" points="1149.87,1484.87 1149.87,1394.87 1179.87,1424.87 1179.87,1514.87 	"/>
	<polygon class="st3" points="1149.87,1489.87 1149.87,1484.87 1179.87,1514.87 1180.13,1520.13 	"/>
	<g>
		<polygon class="st2" points="1065,1400 1065,1310 1095,1340 1095,1430 		"/>
		<linearGradient id="SVGID_2_" gradientUnits="userSpaceOnUse" x1="1075" y1="1370" x2="1095" y2="1370">
			<stop  offset="0" style="stop-color:#FFFFFF"/>
			<stop  offset="1" style="stop-color:#D1E3E8"/>
		</linearGradient>
		<polygon class="st4" points="1075,1320 1075,1400 1095,1420 1095,1340 		"/>
		<circle class="st5" cx="1077.5" cy="1322.5" r="7.5"/>
		<polygon class="st3" points="1065,1405 1065,1400 1095,1430 1095.25,1435.25 		"/>
		<linearGradient id="SVGID_3_" gradientUnits="userSpaceOnUse" x1="1075" y1="1390" x2="1095" y2="1390">
			<stop  offset="1.472383e-03" style="stop-color:#D1E3E8"/>
			<stop  offset="1" style="stop-color:#B0C1C6"/>
		</linearGradient>
		<polygon class="st6" points="1075,1360 1095,1380 1095,1420 1075,1400 		"/>
		<linearGradient id="SVGID_4_" gradientUnits="userSpaceOnUse" x1="1080" y1="1345" x2="1090" y2="1345">
			<stop  offset="1.472383e-03" style="stop-color:#D1E3E8"/>
			<stop  offset="1" style="stop-color:#B0C1C6"/>
		</linearGradient>
		<polygon class="st7" points="1080,1340 1080,1345 1090,1355 1090,1345 1080,1335 		"/>
	</g>
	<linearGradient id="SVGID_5_" gradientUnits="userSpaceOnUse" x1="1160" y1="1455" x2="1180" y2="1455">
		<stop  offset="0" style="stop-color:#FFFFFF"/>
		<stop  offset="1" style="stop-color:#D1E3E8"/>
	</linearGradient>
	<polygon class="st8" points="1160,1405 1160,1485 1180,1505 1180,1425 	"/>
	<linearGradient id="SVGID_6_" gradientUnits="userSpaceOnUse" x1="1160" y1="1480" x2="1180" y2="1480">
		<stop  offset="1.472383e-03" style="stop-color:#D1E3E8"/>
		<stop  offset="1" style="stop-color:#B0C1C6"/>
	</linearGradient>
	<polygon class="st9" points="1160,1460 1180,1480 1180,1500 1160,1480 	"/>
	<linearGradient id="SVGID_7_" gradientUnits="userSpaceOnUse" x1="1160" y1="1455" x2="1180" y2="1455">
		<stop  offset="1.472383e-03" style="stop-color:#D1E3E8"/>
		<stop  offset="1" style="stop-color:#B0C1C6"/>
	</linearGradient>
	<polygon class="st10" points="1160,1435 1180,1455 1180,1475 1160,1455 	"/>
	<linearGradient id="SVGID_8_" gradientUnits="userSpaceOnUse" x1="1160" y1="1430" x2="1180" y2="1430">
		<stop  offset="1.472383e-03" style="stop-color:#D1E3E8"/>
		<stop  offset="1" style="stop-color:#B0C1C6"/>
	</linearGradient>
	<polygon class="st11" points="1160,1410 1180,1430 1180,1450 1160,1430 	"/>
	<g>
		<linearGradient id="SVGID_9_" gradientUnits="userSpaceOnUse" x1="1020" y1="1310" x2="1060" y2="1310">
			<stop  offset="0" style="stop-color:#FFFFFF"/>
			<stop  offset="1" style="stop-color:#D1E3E8"/>
		</linearGradient>
		<polygon class="st12" points="1020,1240 1060,1280 1060,1380 1020,1340 		"/>
		<g>
			<polygon class="st13" points="1005,1225 1010,1225 1065,1280 1060,1280 			"/>
			<polygon class="st0" points="1005,1245 1060,1300 1060,1280 1005,1225 			"/>
			<linearGradient id="SVGID_10_" gradientUnits="userSpaceOnUse" x1="1060" y1="1290" x2="1065" y2="1290">
				<stop  offset="0" style="stop-color:#E5E5E5"/>
				<stop  offset="1" style="stop-color:#F1F1F1"/>
			</linearGradient>
			<rect x="1060" y="1280" class="st14" width="5" height="20"/>
		</g>
		<polygon class="st3" points="1010,1235 1010,1245 1015,1250 		"/>
		<polygon class="st3" points="1050,1285 1050,1275 1045,1270 		"/>
		<polygon class="st3" points="1020,1255 1020,1245 1025,1250 1025,1260 		"/>
		<polygon class="st3" points="1030,1265 1030,1255 1040,1265 1040,1275 1035,1270 1035,1265 		"/>
		<linearGradient id="SVGID_11_" gradientUnits="userSpaceOnUse" x1="1019.8438" y1="1340" x2="1059.6875" y2="1340">
			<stop  offset="1.472383e-03" style="stop-color:#D1E3E8"/>
			<stop  offset="1" style="stop-color:#B0C1C6"/>
		</linearGradient>
		<polygon class="st15" points="1020,1300 1027.5,1307.5 1027.5,1315 1033.75,1321.25 1033.75,1330 1033.75,1340 1044.38,1350.62 
			1044.38,1345 1059.69,1360.31 1059.69,1380 1019.84,1340.16 		"/>
		
			<linearGradient id="SVGID_12_" gradientUnits="userSpaceOnUse" x1="1039.1421" y1="1330.8579" x2="1054.1421" y2="1330.8579" gradientTransform="matrix(0.7071 0.7071 -0.7071 0.7071 1253.4708 -336.1464)">
			<stop  offset="1.472383e-03" style="stop-color:#D1E3E8"/>
			<stop  offset="1" style="stop-color:#B0C1C6"/>
		</linearGradient>
		<path class="st16" d="M1057.8,1350.3c-1.95,1.95-5.91,1.16-8.84-1.77s-3.72-6.89-1.77-8.84s5.91-1.16,8.84,1.77
			S1059.76,1348.35,1057.8,1350.3z"/>
		
			<linearGradient id="SVGID_13_" gradientUnits="userSpaceOnUse" x1="991.5618" y1="1318.4835" x2="1001.4494" y2="1318.4835" gradientTransform="matrix(0.7071 0.7071 -0.7071 0.7071 1253.4708 -336.1464)">
			<stop  offset="1.472383e-03" style="stop-color:#D1E3E8"/>
			<stop  offset="1" style="stop-color:#B0C1C6"/>
		</linearGradient>
		<path class="st17" d="M1029.29,1304.29c-1.29,1.29-3.9,0.77-5.83-1.17c-1.93-1.93-2.45-4.54-1.17-5.83
			c1.29-1.29,3.9-0.77,5.83,1.17S1030.58,1303.01,1029.29,1304.29z"/>
	</g>
	<polygon class="st13" points="1100,1340 1150,1390 1150,1470 1100,1420 	"/>
	<circle class="st5" cx="1162.37" cy="1407.37" r="7.5"/>
	<linearGradient id="SVGID_14_" gradientUnits="userSpaceOnUse" x1="1195" y1="1465" x2="1215" y2="1465">
		<stop  offset="0" style="stop-color:#F77A61"/>
		<stop  offset="1" style="stop-color:#C15F4F"/>
	</linearGradient>
	<polygon class="st18" points="1195,1435 1195,1475 1215,1495 1215,1455 	"/>
	<linearGradient id="SVGID_15_" gradientUnits="userSpaceOnUse" x1="1190" y1="1517.5" x2="1225" y2="1517.5">
		<stop  offset="1.472383e-03" style="stop-color:#D1E3E8"/>
		<stop  offset="1" style="stop-color:#B0C1C6"/>
	</linearGradient>
	<polygon class="st19" points="1190,1490 1200,1500 1205,1505 1205,1515 1210,1520 1210,1515 1225,1530 1225,1545 1190,1510 	"/>
	
		<linearGradient id="SVGID_16_" gradientUnits="userSpaceOnUse" x1="1261.5165" y1="1555.4353" x2="1291.5165" y2="1555.4353" gradientTransform="matrix(0.7071 0.7071 -0.7071 0.7071 1460.3643 -430.6312)">
		<stop  offset="1.472383e-03" style="stop-color:#D1E3E8"/>
		<stop  offset="1" style="stop-color:#B0C1C6"/>
	</linearGradient>
	<path class="st20" d="M1273.75,1582.47c-2.93,2.93-10.05,0.55-15.91-5.3s-8.23-12.98-5.3-15.91s10.05-0.55,15.91,5.3
		C1274.3,1572.42,1276.67,1579.54,1273.75,1582.47z"/>
	
		<linearGradient id="SVGID_17_" gradientUnits="userSpaceOnUse" x1="1230.6002" y1="1555.4353" x2="1260.6002" y2="1555.4353" gradientTransform="matrix(0.7071 0.7071 -0.7071 0.7071 1460.3643 -430.6312)">
		<stop  offset="1.472383e-03" style="stop-color:#D1E3E8"/>
		<stop  offset="1" style="stop-color:#B0C1C6"/>
	</linearGradient>
	<path class="st21" d="M1251.88,1560.61c-2.93,2.93-10.05,0.55-15.91-5.3c-5.86-5.86-8.23-12.98-5.3-15.91s10.05-0.55,15.91,5.3
		C1252.44,1550.55,1254.81,1557.68,1251.88,1560.61z"/>
	<linearGradient id="SVGID_18_" gradientUnits="userSpaceOnUse" x1="1240" y1="1500" x2="1270" y2="1500">
		<stop  offset="1.472383e-03" style="stop-color:#D1E3E8"/>
		<stop  offset="1" style="stop-color:#B0C1C6"/>
	</linearGradient>
	<polygon class="st22" points="1240,1490 1245.62,1494.69 1245.62,1499.69 1250.62,1504.69 1250.62,1509.69 1260,1520 1260,1515 
		1265,1520 1265,1515 1270,1520 1270,1509.69 1240,1480 	"/>
	<g>
		<linearGradient id="SVGID_19_" gradientUnits="userSpaceOnUse" x1="1222.5" y1="1600" x2="1237.5" y2="1600">
			<stop  offset="0" style="stop-color:#8E5C4A"/>
			<stop  offset="1" style="stop-color:#E29276"/>
		</linearGradient>
		<ellipse class="st23" cx="1230" cy="1600" rx="7.5" ry="2.5"/>
		<linearGradient id="SVGID_20_" gradientUnits="userSpaceOnUse" x1="1227.5" y1="1587.5" x2="1232.5" y2="1587.5">
			<stop  offset="0" style="stop-color:#8E5C4A"/>
			<stop  offset="1" style="stop-color:#E29276"/>
		</linearGradient>
		<rect x="1227.5" y="1572.5" class="st24" width="5" height="30"/>
		<linearGradient id="SVGID_21_" gradientUnits="userSpaceOnUse" x1="1207.5" y1="1572.5" x2="1252.5" y2="1572.5">
			<stop  offset="0" style="stop-color:#8E5C4A"/>
			<stop  offset="1" style="stop-color:#E29276"/>
		</linearGradient>
		<ellipse class="st25" cx="1230" cy="1572.5" rx="22.5" ry="10"/>
	</g>
	<g>
		<polygon class="st2" points="1197.8,1588.84 1183.66,1574.7 1190.73,1574.7 1201.34,1585.3 		"/>
		<path class="st3" d="M1165,1560l15,15h11.23c3.24,0,4.86-3.91,2.57-6.2l0,0c-5.63-5.63-13.28-8.8-21.24-8.8H1165z"/>
		<polygon class="st2" points="1165,1560 1165,1540 1170,1545 1170,1565 		"/>
		<polygon class="st2" points="1165,1580 1165,1560 1170,1565 1170,1580 		"/>
		<polygon class="st2" points="1175,1570 1175,1550 1180,1555 1180,1575 		"/>
		<polygon class="st2" points="1175,1590 1175,1570 1180,1575 1180,1590 		"/>
		<polygon class="st2" points="1165,1540 1180,1555 1180,1560 1165,1545 		"/>
	</g>
	<g>
		<g>
			<linearGradient id="SVGID_22_" gradientUnits="userSpaceOnUse" x1="1185" y1="1562.5" x2="1200" y2="1562.5">
				<stop  offset="0" style="stop-color:#8E5C4A"/>
				<stop  offset="1" style="stop-color:#E29276"/>
			</linearGradient>
			<ellipse class="st26" cx="1192.5" cy="1562.5" rx="7.5" ry="2.5"/>
			<linearGradient id="SVGID_23_" gradientUnits="userSpaceOnUse" x1="1190" y1="1550" x2="1195" y2="1550">
				<stop  offset="0" style="stop-color:#8E5C4A"/>
				<stop  offset="1" style="stop-color:#E29276"/>
			</linearGradient>
			<rect x="1190" y="1535" class="st27" width="5" height="30"/>
			<linearGradient id="SVGID_24_" gradientUnits="userSpaceOnUse" x1="1170" y1="1535" x2="1215" y2="1535">
				<stop  offset="0" style="stop-color:#8E5C4A"/>
				<stop  offset="1" style="stop-color:#E29276"/>
			</linearGradient>
			<ellipse class="st28" cx="1192.5" cy="1535" rx="22.5" ry="10"/>
		</g>
		<linearGradient id="SVGID_25_" gradientUnits="userSpaceOnUse" x1="1200" y1="1537.5" x2="1210" y2="1537.5">
			<stop  offset="1.472383e-03" style="stop-color:#D1E3E8"/>
			<stop  offset="1" style="stop-color:#828E93"/>
		</linearGradient>
		<ellipse class="st29" cx="1205" cy="1537.5" rx="5" ry="2.5"/>
	</g>
	<polygon class="st3" points="1065,1405 925,1405 955,1435 1095,1435 	"/>
	<polygon class="st3" points="1150,1490 1010,1490 1040,1520 1180,1520 	"/>
	<g>
		<g>
			<linearGradient id="SVGID_26_" gradientUnits="userSpaceOnUse" x1="1005" y1="1347.5" x2="1010" y2="1347.5">
				<stop  offset="0" style="stop-color:#828E93"/>
				<stop  offset="1" style="stop-color:#3C4044"/>
			</linearGradient>
			<rect x="1005" y="1340" class="st30" width="5" height="15"/>
		</g>
		<g>
			<linearGradient id="SVGID_27_" gradientUnits="userSpaceOnUse" x1="980" y1="1347.5" x2="985" y2="1347.5">
				<stop  offset="0" style="stop-color:#828E93"/>
				<stop  offset="1" style="stop-color:#3C4044"/>
			</linearGradient>
			<rect x="980" y="1340" class="st31" width="5" height="15"/>
		</g>
		<g>
			<linearGradient id="SVGID_28_" gradientUnits="userSpaceOnUse" x1="960" y1="1327.5" x2="965" y2="1327.5">
				<stop  offset="0" style="stop-color:#828E93"/>
				<stop  offset="1" style="stop-color:#3C4044"/>
			</linearGradient>
			<rect x="960" y="1320" class="st32" width="5" height="15"/>
		</g>
		<linearGradient id="SVGID_29_" gradientUnits="userSpaceOnUse" x1="960" y1="1330" x2="1010" y2="1330">
			<stop  offset="0" style="stop-color:#828E93"/>
			<stop  offset="1" style="stop-color:#3C4044"/>
		</linearGradient>
		<polygon class="st33" points="960,1320 980,1340 1010,1340 990,1320 		"/>
	</g>
	<g>
		<path class="st3" d="M1084.38,1440.62l4.27,12.82c1.18,3.54,4.49,5.93,8.23,5.93l0,0c3.73,0,7.05-2.39,8.23-5.93l4.27-12.82
			H1084.38z"/>
		<ellipse class="st2" cx="1096.88" cy="1439.38" rx="12.5" ry="6.25"/>
		<ellipse class="st34" cx="1099.38" cy="1440.62" rx="10" ry="5"/>
		<linearGradient id="SVGID_30_" gradientUnits="userSpaceOnUse" x1="1094.375" y1="1423.125" x2="1109.375" y2="1423.125">
			<stop  offset="0" style="stop-color:#06EABE"/>
			<stop  offset="1" style="stop-color:#00A78E"/>
		</linearGradient>
		<polygon class="st35" points="1099.38,1440.62 1104.38,1425.62 1099.38,1420.62 1099.38,1415.62 1094.38,1405.62 1099.38,1410.62 
			1104.38,1420.62 1109.38,1425.62 1104.38,1440.62 		"/>
		<linearGradient id="SVGID_31_" gradientUnits="userSpaceOnUse" x1="1089.375" y1="1423.125" x2="1099.375" y2="1423.125">
			<stop  offset="0" style="stop-color:#06EABE"/>
			<stop  offset="1" style="stop-color:#00A78E"/>
		</linearGradient>
		<polygon class="st36" points="1089.38,1410.62 1089.38,1420.62 1094.38,1425.62 1099.38,1435.62 1099.38,1425.62 1094.38,1420.62 
					"/>
		<linearGradient id="SVGID_32_" gradientUnits="userSpaceOnUse" x1="1104.375" y1="1420.625" x2="1114.375" y2="1420.625">
			<stop  offset="0" style="stop-color:#06EABE"/>
			<stop  offset="1" style="stop-color:#00A78E"/>
		</linearGradient>
		<polygon class="st37" points="1104.38,1440.62 1114.38,1430.62 1114.38,1420.62 1109.38,1410.62 1109.38,1400.62 1104.38,1405.62 
			1104.38,1415.62 1109.38,1425.62 1104.38,1435.62 		"/>
	</g>
	<g>
		<path class="st3" d="M1025,1381.25l4.27,12.82c1.18,3.54,4.49,5.93,8.23,5.93l0,0c3.73,0,7.05-2.39,8.23-5.93l4.27-12.82H1025z"/>
		<ellipse class="st2" cx="1037.5" cy="1380" rx="12.5" ry="6.25"/>
		<ellipse class="st34" cx="1040" cy="1381.25" rx="10" ry="5"/>
		<linearGradient id="SVGID_33_" gradientUnits="userSpaceOnUse" x1="1035" y1="1363.75" x2="1050" y2="1363.75">
			<stop  offset="0" style="stop-color:#06EABE"/>
			<stop  offset="1" style="stop-color:#00A78E"/>
		</linearGradient>
		<polygon class="st38" points="1040,1381.25 1045,1366.25 1040,1361.25 1040,1356.25 1035,1346.25 1040,1351.25 1045,1361.25 
			1050,1366.25 1045,1381.25 		"/>
		<linearGradient id="SVGID_34_" gradientUnits="userSpaceOnUse" x1="1030" y1="1363.75" x2="1040" y2="1363.75">
			<stop  offset="0" style="stop-color:#06EABE"/>
			<stop  offset="1" style="stop-color:#00A78E"/>
		</linearGradient>
		<polygon class="st39" points="1030,1351.25 1030,1361.25 1035,1366.25 1040,1376.25 1040,1366.25 1035,1361.25 		"/>
		<linearGradient id="SVGID_35_" gradientUnits="userSpaceOnUse" x1="1045" y1="1361.25" x2="1055" y2="1361.25">
			<stop  offset="0" style="stop-color:#06EABE"/>
			<stop  offset="1" style="stop-color:#00A78E"/>
		</linearGradient>
		<polygon class="st40" points="1045,1381.25 1055,1371.25 1055,1361.25 1050,1351.25 1050,1341.25 1045,1346.25 1045,1356.25 
			1050,1366.25 1045,1376.25 		"/>
	</g>
	<g>
		<polygon class="st0" points="1105,1375 1110,1380 1110,1405 1105,1400 		"/>
		<g>
			<path class="st3" d="M1130,1395h12.5c1.38,0,2.5,1.12,2.5,2.5l0,0c0,1.38-1.12,2.5-2.5,2.5H1130V1395z"/>
			<path class="st3" d="M1130,1385h12.5c1.38,0,2.5,1.12,2.5,2.5l0,0c0,1.38-1.12,2.5-2.5,2.5H1130V1385z"/>
			<linearGradient id="SVGID_36_" gradientUnits="userSpaceOnUse" x1="1110" y1="1392.5" x2="1130" y2="1392.5">
				<stop  offset="0" style="stop-color:#E5E5E5"/>
				<stop  offset="1" style="stop-color:#F1F1F1"/>
			</linearGradient>
			<polygon class="st41" points="1130,1385 1130,1380 1110,1380 1110,1405 1130,1405 			"/>
			<polygon class="st42" points="1125,1375 1130,1380 1110,1380 1105,1375 			"/>
			<linearGradient id="SVGID_37_" gradientUnits="userSpaceOnUse" x1="1115" y1="1400" x2="1125" y2="1400">
				<stop  offset="0" style="stop-color:#F77A61"/>
				<stop  offset="1" style="stop-color:#C15F4F"/>
			</linearGradient>
			<circle class="st43" cx="1120" cy="1400" r="5"/>
			<linearGradient id="SVGID_38_" gradientUnits="userSpaceOnUse" x1="1120" y1="1395" x2="1130" y2="1395">
				<stop  offset="0" style="stop-color:#F77A61"/>
				<stop  offset="1" style="stop-color:#C15F4F"/>
			</linearGradient>
			<circle class="st44" cx="1125" cy="1395" r="5"/>
			<rect x="1115" y="1380" transform="matrix(3.639695e-13 1 -1 3.639695e-13 2505 270)" class="st0" width="5" height="15"/>
		</g>
	</g>
</g>
</svg>
