<?xml version="1.0" encoding="utf-8"?>
<!-- Generator: Adobe Illustrator 23.1.1, SVG Export Plug-In . SVG Version: 6.00 Build 0)  -->
<svg version="1.1" xmlns="http://www.w3.org/2000/svg" xmlns:xlink="http://www.w3.org/1999/xlink" x="0px" y="0px"
	 viewBox="0 0 3840 2160" style="enable-background:new 0 0 3840 2160;" xml:space="preserve">
<style type="text/css">
	.st0{fill:transparent;}
	.st1{fill:#CBCBCB;}
	.st2{fill:#E5E5E5;}
	.st3{fill:url(#SVGID_1_);}
	.st4{fill:url(#SVGID_2_);}
	.st5{fill:url(#SVGID_3_);}
	.st6{fill:url(#SVGID_4_);}
	.st7{fill:url(#SVGID_5_);}
	.st8{fill:url(#SVGID_6_);}
	.st9{fill:url(#SVGID_7_);}
	.st10{fill:url(#SVGID_8_);}
	.st11{opacity:0.5;fill:#CBCBCB;}
	.st12{fill:url(#SVGID_9_);}
	.st13{fill:url(#SVGID_10_);}
	.st14{fill:url(#SVGID_11_);}
	.st15{fill:#828E93;}
	.st16{fill:url(#SVGID_12_);}
	.st17{fill:#3C4044;}
	.st18{fill:url(#SVGID_13_);}
	.st19{fill:url(#SVGID_14_);}
	.st20{fill:url(#SVGID_15_);}
	.st21{fill:url(#SVGID_16_);}
	.st22{fill:url(#SVGID_17_);}
	.st23{fill:url(#SVGID_18_);}
	.st24{fill:url(#SVGID_19_);}
	.st25{fill:url(#SVGID_20_);}
	.st26{fill:url(#SVGID_21_);}
	.st27{fill:url(#SVGID_22_);}
	.st28{fill:url(#SVGID_23_);}
	.st29{fill:#50565B;}
	.st30{fill:url(#SVGID_24_);}
	.st31{fill:url(#SVGID_25_);}
	.st32{fill:url(#SVGID_26_);}
	.st33{fill:url(#SVGID_27_);}
	.st34{fill:url(#SVGID_28_);}
	.st35{fill:url(#SVGID_29_);}
	.st36{fill:url(#SVGID_30_);}
	.st37{fill:url(#SVGID_31_);}
	.st38{fill:url(#SVGID_32_);}
	.st39{fill:url(#SVGID_33_);}
	.st40{fill:url(#SVGID_34_);}
	.st41{fill:url(#SVGID_35_);}
	.st42{fill:url(#SVGID_36_);}
	.st43{fill:url(#SVGID_37_);}
	.st44{fill:url(#SVGID_38_);}
	.st45{fill:url(#SVGID_39_);}
	.st46{fill:url(#SVGID_40_);}
	.st47{fill:url(#SVGID_41_);}
	.st48{fill:url(#SVGID_42_);}
	.st49{fill:url(#SVGID_43_);}
	.st50{fill:url(#SVGID_44_);}
	.st51{fill:url(#SVGID_45_);}
	.st52{fill:url(#SVGID_46_);}
	.st53{fill:url(#SVGID_47_);}
	.st54{fill:url(#SVGID_48_);}
	.st55{fill:url(#SVGID_49_);}
	.st56{fill:url(#SVGID_50_);}
	.st57{fill:url(#SVGID_51_);}
	.st58{fill:url(#SVGID_52_);}
	.st59{fill:url(#SVGID_53_);}
	.st60{fill:#EFD35E;}
	.st61{fill:url(#SVGID_54_);}
</style>
<g id="Back">
	<rect class="st0" width="3840" height="2160"/>
</g>
<g id="Public_transport_1_">
	<rect x="80" y="2020" class="st1" width="3680" height="80"/>
	<polygon class="st2" points="2700,2020 80,2020 80,1980 2660,1980 	"/>
	<g>
		<linearGradient id="SVGID_1_" gradientUnits="userSpaceOnUse" x1="1060" y1="1957.5" x2="1155" y2="1957.5">
			<stop  offset="0" style="stop-color:#FFFFFF"/>
			<stop  offset="1" style="stop-color:#D1E3E8"/>
		</linearGradient>
		<rect x="1060" y="1930" class="st3" width="95" height="55"/>
		<linearGradient id="SVGID_2_" gradientUnits="userSpaceOnUse" x1="1160" y1="1962.5" x2="1175" y2="1962.5">
			<stop  offset="0" style="stop-color:#FFFFFF"/>
			<stop  offset="1" style="stop-color:#D1E3E8"/>
		</linearGradient>
		<polygon class="st4" points="1160,1925 1160,1985 1175,2000 1175,1935 		"/>
		<rect x="1055" y="1915" class="st1" width="5" height="70"/>
		<rect x="1075" y="1935" class="st1" width="5" height="70"/>
		<rect x="1155" y="1915" class="st1" width="5" height="70"/>
		<rect x="1175" y="1935" class="st1" width="5" height="70"/>
		<linearGradient id="SVGID_3_" gradientUnits="userSpaceOnUse" x1="1050" y1="1922.5" x2="1190" y2="1922.5">
			<stop  offset="0" style="stop-color:#50565B"/>
			<stop  offset="1" style="stop-color:#3C4044"/>
		</linearGradient>
		<path class="st5" d="M1050,1915l30.43,25c0,0,24.35-10,48.7-10c24.35,0,60.87,10,60.87,10l-30.43-25c0,0-18.26-10-48.7-10
			C1080.43,1905,1050,1915,1050,1915z"/>
		<linearGradient id="SVGID_4_" gradientUnits="userSpaceOnUse" x1="1060" y1="1962.5" x2="1075" y2="1962.5">
			<stop  offset="0" style="stop-color:#FFFFFF"/>
			<stop  offset="1" style="stop-color:#D1E3E8"/>
		</linearGradient>
		<polygon class="st6" points="1060,1925 1060,1985 1075,2000 1075,1940 		"/>
		<g>
			<g>
				<linearGradient id="SVGID_5_" gradientUnits="userSpaceOnUse" x1="1150" y1="1990" x2="1155" y2="1990">
					<stop  offset="0" style="stop-color:#828E93"/>
					<stop  offset="1" style="stop-color:#3C4044"/>
				</linearGradient>
				<rect x="1150" y="1982.5" class="st7" width="5" height="15"/>
			</g>
			<g>
				<linearGradient id="SVGID_6_" gradientUnits="userSpaceOnUse" x1="1100" y1="1990" x2="1105" y2="1990">
					<stop  offset="0" style="stop-color:#828E93"/>
					<stop  offset="1" style="stop-color:#3C4044"/>
				</linearGradient>
				<rect x="1100" y="1982.5" class="st8" width="5" height="15"/>
			</g>
			<g>
				<linearGradient id="SVGID_7_" gradientUnits="userSpaceOnUse" x1="1090" y1="1982.5" x2="1095" y2="1982.5">
					<stop  offset="0" style="stop-color:#828E93"/>
					<stop  offset="1" style="stop-color:#3C4044"/>
				</linearGradient>
				<rect x="1090" y="1975" class="st9" width="5" height="15"/>
			</g>
			<linearGradient id="SVGID_8_" gradientUnits="userSpaceOnUse" x1="1085" y1="1980" x2="1160" y2="1980">
				<stop  offset="0" style="stop-color:#828E93"/>
				<stop  offset="1" style="stop-color:#3C4044"/>
			</linearGradient>
			<polygon class="st10" points="1085,1975 1095,1985 1160,1985 1150,1975 			"/>
		</g>
		<rect x="1125" y="1940" class="st11" width="20" height="30"/>
	</g>
	<g>
		<rect x="1215" y="1930" class="st1" width="5" height="75"/>
		<linearGradient id="SVGID_9_" gradientUnits="userSpaceOnUse" x1="1205" y1="1917.5" x2="1230" y2="1917.5">
			<stop  offset="0" style="stop-color:#008CBF"/>
			<stop  offset="1" style="stop-color:#006CBF"/>
		</linearGradient>
		<path class="st12" d="M1221.36,1935h-7.73c-4.77,0-8.64-3.87-8.64-8.64v-17.73c0-4.77,3.87-8.64,8.64-8.64h7.73
			c4.77,0,8.64,3.87,8.64,8.64v17.73C1230,1931.13,1226.13,1935,1221.36,1935z"/>
		<path class="st0" d="M1221.36,1925h-5c-4.77,0-8.64-3.87-8.64-8.64v-5.23c0-4.77,3.87-8.64,8.64-8.64h5
			c4.77,0,8.64,3.87,8.64,8.64v5.23C1230,1921.13,1226.13,1925,1221.36,1925z"/>
	</g>
	<g>
		<g>
			<linearGradient id="SVGID_10_" gradientUnits="userSpaceOnUse" x1="3127.5" y1="1966.25" x2="3180" y2="1966.25">
				<stop  offset="0" style="stop-color:#F77A61"/>
				<stop  offset="1" style="stop-color:#C15F4F"/>
			</linearGradient>
			<polygon class="st13" points="3180,1990 3127.5,1937.5 3150,1995 			"/>
			<linearGradient id="SVGID_11_" gradientUnits="userSpaceOnUse" x1="2770" y1="2025" x2="3180" y2="2025">
				<stop  offset="0" style="stop-color:#F77A61"/>
				<stop  offset="1" style="stop-color:#C15F4F"/>
			</linearGradient>
			<polygon class="st14" points="3180,2070 2770,2070 2770,1980 3150,1980 3180,1990 			"/>
			<rect x="2770" y="1930" class="st15" width="355" height="50"/>
			<linearGradient id="SVGID_12_" gradientUnits="userSpaceOnUse" x1="2730" y1="1905" x2="3125" y2="1905">
				<stop  offset="0" style="stop-color:#E5E5E5"/>
				<stop  offset="1" style="stop-color:#F1F1F1"/>
			</linearGradient>
			<polygon class="st16" points="2730,1880 2780,1930 3125,1930 3075,1880 			"/>
			<polygon class="st17" points="2720,1885 2730,1880 2780,1930 2770,1935 			"/>
			<linearGradient id="SVGID_13_" gradientUnits="userSpaceOnUse" x1="2720" y1="2000" x2="2770" y2="2000">
				<stop  offset="0" style="stop-color:#F77A61"/>
				<stop  offset="1" style="stop-color:#C15F4F"/>
			</linearGradient>
			<polygon class="st18" points="2720,1930 2720,2020 2770,2070 2770,1980 			"/>
			<polygon class="st15" points="3125,1930 3150,1980 3125,1980 			"/>
			<polygon class="st15" points="2720,1930 2720,1900 2770,1950 2770,1980 			"/>
			<linearGradient id="SVGID_14_" gradientUnits="userSpaceOnUse" x1="2795" y1="1962.5" x2="2890" y2="1962.5">
				<stop  offset="0" style="stop-color:#D1E3E8"/>
				<stop  offset="1" style="stop-color:#FFFFFF"/>
			</linearGradient>
			<polygon class="st19" points="2795,1955 2805,1935 2890,1935 2890,1990 2795,1990 			"/>
			
				<linearGradient id="SVGID_15_" gradientUnits="userSpaceOnUse" x1="1002.5" y1="-585" x2="1057.5" y2="-585" gradientTransform="matrix(0 1 -1 0 2302.5 932.5)">
				<stop  offset="0" style="stop-color:#D1E3E8"/>
				<stop  offset="1" style="stop-color:#FFFFFF"/>
			</linearGradient>
			<polygon class="st20" points="2885,1935 2885,1990 2890,1990 2890,1935 			"/>
			<g>
				<linearGradient id="SVGID_16_" gradientUnits="userSpaceOnUse" x1="2895" y1="1962.5" x2="2950" y2="1962.5">
					<stop  offset="0" style="stop-color:#D1E3E8"/>
					<stop  offset="1" style="stop-color:#FFFFFF"/>
				</linearGradient>
				<rect x="2895" y="1935" class="st21" width="55" height="55"/>
				
					<linearGradient id="SVGID_17_" gradientUnits="userSpaceOnUse" x1="1002.5" y1="-620" x2="1057.5" y2="-620" gradientTransform="matrix(0 1 -1 0 2302.5 932.5)">
					<stop  offset="0" style="stop-color:#D1E3E8"/>
					<stop  offset="1" style="stop-color:#FFFFFF"/>
				</linearGradient>
				<polygon class="st22" points="2920,1935 2920,1990 2925,1990 2925,1935 				"/>
			</g>
			<g>
				<linearGradient id="SVGID_18_" gradientUnits="userSpaceOnUse" x1="2835" y1="1962.5" x2="2890" y2="1962.5">
					<stop  offset="0" style="stop-color:#D1E3E8"/>
					<stop  offset="1" style="stop-color:#FFFFFF"/>
				</linearGradient>
				<rect x="2835" y="1935" class="st23" width="55" height="55"/>
				
					<linearGradient id="SVGID_19_" gradientUnits="userSpaceOnUse" x1="1002.5" y1="-560" x2="1057.5" y2="-560" gradientTransform="matrix(0 1 -1 0 2302.5 932.5)">
					<stop  offset="0" style="stop-color:#D1E3E8"/>
					<stop  offset="1" style="stop-color:#FFFFFF"/>
				</linearGradient>
				<polygon class="st24" points="2860,1935 2860,1990 2865,1990 2865,1935 				"/>
			</g>
			<g>
				<linearGradient id="SVGID_20_" gradientUnits="userSpaceOnUse" x1="2955" y1="1962.5" x2="3010" y2="1962.5">
					<stop  offset="0" style="stop-color:#D1E3E8"/>
					<stop  offset="1" style="stop-color:#FFFFFF"/>
				</linearGradient>
				<rect x="2955" y="1935" class="st25" width="55" height="55"/>
				
					<linearGradient id="SVGID_21_" gradientUnits="userSpaceOnUse" x1="1002.5" y1="-680" x2="1057.5" y2="-680" gradientTransform="matrix(0 1 -1 0 2302.5 932.5)">
					<stop  offset="0" style="stop-color:#D1E3E8"/>
					<stop  offset="1" style="stop-color:#FFFFFF"/>
				</linearGradient>
				<polygon class="st26" points="2980,1935 2980,1990 2985,1990 2985,1935 				"/>
			</g>
			<g>
				<linearGradient id="SVGID_22_" gradientUnits="userSpaceOnUse" x1="3015" y1="1962.5" x2="3070" y2="1962.5">
					<stop  offset="0" style="stop-color:#D1E3E8"/>
					<stop  offset="1" style="stop-color:#FFFFFF"/>
				</linearGradient>
				<rect x="3015" y="1935" class="st27" width="55" height="55"/>
				
					<linearGradient id="SVGID_23_" gradientUnits="userSpaceOnUse" x1="1002.5" y1="-740" x2="1057.5" y2="-740" gradientTransform="matrix(0 1 -1 0 2302.5 932.5)">
					<stop  offset="0" style="stop-color:#D1E3E8"/>
					<stop  offset="1" style="stop-color:#FFFFFF"/>
				</linearGradient>
				<polygon class="st28" points="3040,1935 3040,1990 3045,1990 3045,1935 				"/>
			</g>
			<rect x="3180" y="1995" class="st29" width="5" height="20"/>
			<rect x="3180" y="2050" class="st29" width="5" height="10"/>
			<linearGradient id="SVGID_24_" gradientUnits="userSpaceOnUse" x1="3095" y1="1962.5" x2="3145" y2="1962.5">
				<stop  offset="0" style="stop-color:#D1E3E8"/>
				<stop  offset="1" style="stop-color:#FFFFFF"/>
			</linearGradient>
			<polygon class="st30" points="3095,1935 3095,1990 3145,1990 3137.5,1982.5 3115,1935 			"/>
			<polygon class="st15" points="2975,1890 2990,1905 3040,1905 3025,1890 			"/>
			<polygon class="st15" points="2815,1890 2830,1905 2880,1905 2865,1890 			"/>
			<linearGradient id="SVGID_25_" gradientUnits="userSpaceOnUse" x1="2820" y1="2067.5" x2="2885" y2="2067.5">
				<stop  offset="0" style="stop-color:#828E93"/>
				<stop  offset="1" style="stop-color:#50565B"/>
			</linearGradient>
			<circle class="st31" cx="2852.5" cy="2067.5" r="32.5"/>
			<linearGradient id="SVGID_26_" gradientUnits="userSpaceOnUse" x1="2830" y1="2067.75" x2="2875.5" y2="2067.75">
				<stop  offset="0" style="stop-color:#50565B"/>
				<stop  offset="1" style="stop-color:#3C4044"/>
			</linearGradient>
			<circle class="st32" cx="2852.75" cy="2067.75" r="22.75"/>
			<linearGradient id="SVGID_27_" gradientUnits="userSpaceOnUse" x1="3065" y1="2067.5" x2="3130" y2="2067.5">
				<stop  offset="0" style="stop-color:#828E93"/>
				<stop  offset="1" style="stop-color:#50565B"/>
			</linearGradient>
			<circle class="st33" cx="3097.5" cy="2067.5" r="32.5"/>
			<linearGradient id="SVGID_28_" gradientUnits="userSpaceOnUse" x1="3075" y1="2067.75" x2="3120.5" y2="2067.75">
				<stop  offset="0" style="stop-color:#50565B"/>
				<stop  offset="1" style="stop-color:#3C4044"/>
			</linearGradient>
			<circle class="st34" cx="3097.75" cy="2067.75" r="22.75"/>
		</g>
		<g>
			<g>
				<linearGradient id="SVGID_29_" gradientUnits="userSpaceOnUse" x1="2355" y1="2025" x2="2680" y2="2025">
					<stop  offset="0" style="stop-color:#F77A61"/>
					<stop  offset="1" style="stop-color:#C15F4F"/>
				</linearGradient>
				<rect x="2355" y="1980" class="st35" width="325" height="90"/>
				<rect x="2355" y="1930" class="st15" width="325" height="50"/>
				<linearGradient id="SVGID_30_" gradientUnits="userSpaceOnUse" x1="2315" y1="1905" x2="2680" y2="1905">
					<stop  offset="0" style="stop-color:#E5E5E5"/>
					<stop  offset="1" style="stop-color:#F1F1F1"/>
				</linearGradient>
				<polygon class="st36" points="2315,1880 2365,1930 2680,1930 2630,1880 				"/>
				<polygon class="st17" points="2305,1900 2315,1880 2365,1930 2355,1950 				"/>
				<linearGradient id="SVGID_31_" gradientUnits="userSpaceOnUse" x1="2305" y1="2000" x2="2355" y2="2000">
					<stop  offset="0" style="stop-color:#F77A61"/>
					<stop  offset="1" style="stop-color:#C15F4F"/>
				</linearGradient>
				<polygon class="st37" points="2305,1930 2305,2020 2355,2070 2355,1980 				"/>
				<polygon class="st15" points="2305,1930 2305,1900 2355,1950 2355,1980 				"/>
				<linearGradient id="SVGID_32_" gradientUnits="userSpaceOnUse" x1="2360" y1="1962.5" x2="2475" y2="1962.5">
					<stop  offset="0" style="stop-color:#D1E3E8"/>
					<stop  offset="1" style="stop-color:#FFFFFF"/>
				</linearGradient>
				<polygon class="st38" points="2360,1955 2370,1935 2475,1935 2475,1990 2360,1990 				"/>
				
					<linearGradient id="SVGID_33_" gradientUnits="userSpaceOnUse" x1="1002.5" y1="-170" x2="1057.5" y2="-170" gradientTransform="matrix(0 1 -1 0 2302.5 932.5)">
					<stop  offset="0" style="stop-color:#D1E3E8"/>
					<stop  offset="1" style="stop-color:#FFFFFF"/>
				</linearGradient>
				<polygon class="st39" points="2470,1935 2470,1990 2475,1990 2475,1935 				"/>
				<g>
					<linearGradient id="SVGID_34_" gradientUnits="userSpaceOnUse" x1="2480" y1="1962.5" x2="2535" y2="1962.5">
						<stop  offset="0" style="stop-color:#D1E3E8"/>
						<stop  offset="1" style="stop-color:#FFFFFF"/>
					</linearGradient>
					<rect x="2480" y="1935" class="st40" width="55" height="55"/>
					
						<linearGradient id="SVGID_35_" gradientUnits="userSpaceOnUse" x1="1002.5" y1="-205" x2="1057.5" y2="-205" gradientTransform="matrix(0 1 -1 0 2302.5 932.5)">
						<stop  offset="0" style="stop-color:#D1E3E8"/>
						<stop  offset="1" style="stop-color:#FFFFFF"/>
					</linearGradient>
					<polygon class="st41" points="2505,1935 2505,1990 2510,1990 2510,1935 					"/>
				</g>
				<g>
					<linearGradient id="SVGID_36_" gradientUnits="userSpaceOnUse" x1="2420" y1="1962.5" x2="2475" y2="1962.5">
						<stop  offset="0" style="stop-color:#D1E3E8"/>
						<stop  offset="1" style="stop-color:#FFFFFF"/>
					</linearGradient>
					<rect x="2420" y="1935" class="st42" width="55" height="55"/>
					
						<linearGradient id="SVGID_37_" gradientUnits="userSpaceOnUse" x1="1002.5" y1="-145" x2="1057.5" y2="-145" gradientTransform="matrix(0 1 -1 0 2302.5 932.5)">
						<stop  offset="0" style="stop-color:#D1E3E8"/>
						<stop  offset="1" style="stop-color:#FFFFFF"/>
					</linearGradient>
					<polygon class="st43" points="2445,1935 2445,1990 2450,1990 2450,1935 					"/>
				</g>
				<g>
					<linearGradient id="SVGID_38_" gradientUnits="userSpaceOnUse" x1="2540" y1="1962.5" x2="2595" y2="1962.5">
						<stop  offset="0" style="stop-color:#D1E3E8"/>
						<stop  offset="1" style="stop-color:#FFFFFF"/>
					</linearGradient>
					<rect x="2540" y="1935" class="st44" width="55" height="55"/>
					
						<linearGradient id="SVGID_39_" gradientUnits="userSpaceOnUse" x1="1002.5" y1="-265" x2="1057.5" y2="-265" gradientTransform="matrix(0 1 -1 0 2302.5 932.5)">
						<stop  offset="0" style="stop-color:#D1E3E8"/>
						<stop  offset="1" style="stop-color:#FFFFFF"/>
					</linearGradient>
					<polygon class="st45" points="2565,1935 2565,1990 2570,1990 2570,1935 					"/>
				</g>
				<g>
					<linearGradient id="SVGID_40_" gradientUnits="userSpaceOnUse" x1="2600" y1="1962.5" x2="2655" y2="1962.5">
						<stop  offset="0" style="stop-color:#D1E3E8"/>
						<stop  offset="1" style="stop-color:#FFFFFF"/>
					</linearGradient>
					<rect x="2600" y="1935" class="st46" width="55" height="55"/>
					
						<linearGradient id="SVGID_41_" gradientUnits="userSpaceOnUse" x1="1002.5" y1="-325" x2="1057.5" y2="-325" gradientTransform="matrix(0 1 -1 0 2302.5 932.5)">
						<stop  offset="0" style="stop-color:#D1E3E8"/>
						<stop  offset="1" style="stop-color:#FFFFFF"/>
					</linearGradient>
					<polygon class="st47" points="2625,1935 2625,1990 2630,1990 2630,1935 					"/>
				</g>
				<polygon class="st15" points="2385,1870 2410,1895 2490,1895 2465,1870 				"/>
				<polygon class="st15" points="2510,1890 2525,1905 2575,1905 2560,1890 				"/>
				<linearGradient id="SVGID_42_" gradientUnits="userSpaceOnUse" x1="2435" y1="2067.5" x2="2500" y2="2067.5">
					<stop  offset="0" style="stop-color:#828E93"/>
					<stop  offset="1" style="stop-color:#50565B"/>
				</linearGradient>
				<circle class="st48" cx="2467.5" cy="2067.5" r="32.5"/>
				<linearGradient id="SVGID_43_" gradientUnits="userSpaceOnUse" x1="2445" y1="2067.75" x2="2490.5" y2="2067.75">
					<stop  offset="0" style="stop-color:#50565B"/>
					<stop  offset="1" style="stop-color:#3C4044"/>
				</linearGradient>
				<circle class="st49" cx="2467.75" cy="2067.75" r="22.75"/>
				<polygon class="st17" points="2385,1890 2385,1870 2410,1895 2410,1915 				"/>
				<rect x="2410" y="1895" class="st15" width="80" height="20"/>
			</g>
			<g>
				<linearGradient id="SVGID_44_" gradientUnits="userSpaceOnUse" x1="2630" y1="1975" x2="2685" y2="1975">
					<stop  offset="0" style="stop-color:#50565B"/>
					<stop  offset="1" style="stop-color:#3C4044"/>
				</linearGradient>
				<polygon class="st50" points="2635,1880 2685,1930 2685,2070 2680,2070 2680,1930 2630,1880 				"/>
				<polygon class="st15" points="2645,1885 2690,1930 2690,2075 2685,2075 2680,2070 2685,2070 2685,1930 2640,1885 				"/>
			</g>
			<g>
				<linearGradient id="SVGID_45_" gradientUnits="userSpaceOnUse" x1="2640" y1="1975" x2="2695" y2="1975">
					<stop  offset="0" style="stop-color:#50565B"/>
					<stop  offset="1" style="stop-color:#3C4044"/>
				</linearGradient>
				<polygon class="st51" points="2645,1880 2695,1930 2695,2070 2690,2070 2690,1930 2645,1885 2640,1885 2640,1880 				"/>
				<polygon class="st15" points="2655,1885 2700,1930 2700,2075 2695,2075 2690,2070 2695,2070 2695,1930 2650,1885 				"/>
			</g>
			<g>
				<linearGradient id="SVGID_46_" gradientUnits="userSpaceOnUse" x1="2650" y1="1975" x2="2705" y2="1975">
					<stop  offset="0" style="stop-color:#50565B"/>
					<stop  offset="1" style="stop-color:#3C4044"/>
				</linearGradient>
				<polygon class="st52" points="2655,1880 2705,1930 2705,2070 2700,2070 2700,1930 2655,1885 2650,1885 2650,1880 				"/>
				<polygon class="st15" points="2665,1885 2710,1930 2710,2075 2705,2075 2700,2070 2705,2070 2705,1930 2660,1885 				"/>
			</g>
			<g>
				<linearGradient id="SVGID_47_" gradientUnits="userSpaceOnUse" x1="2660" y1="1975" x2="2715" y2="1975">
					<stop  offset="0" style="stop-color:#50565B"/>
					<stop  offset="1" style="stop-color:#3C4044"/>
				</linearGradient>
				<polygon class="st53" points="2665,1880 2715,1930 2715,2070 2710,2070 2710,1930 2665,1885 2660,1885 2660,1880 				"/>
				<polygon class="st15" points="2675,1885 2720,1930 2720,2075 2715,2075 2710,2070 2715,2070 2715,1930 2670,1885 				"/>
			</g>
			<g>
				<linearGradient id="SVGID_48_" gradientUnits="userSpaceOnUse" x1="2670" y1="1975" x2="2725" y2="1975">
					<stop  offset="0" style="stop-color:#50565B"/>
					<stop  offset="1" style="stop-color:#3C4044"/>
				</linearGradient>
				<polygon class="st54" points="2675,1880 2725,1930 2725,2070 2720,2070 2720,1930 2675,1885 2670,1885 2670,1880 				"/>
				<polygon class="st15" points="2685,1885 2730,1930 2730,2075 2725,2075 2720,2070 2725,2070 2725,1930 2680,1885 				"/>
			</g>
			<g>
				<linearGradient id="SVGID_49_" gradientUnits="userSpaceOnUse" x1="2680" y1="1975" x2="2735" y2="1975">
					<stop  offset="0" style="stop-color:#50565B"/>
					<stop  offset="1" style="stop-color:#3C4044"/>
				</linearGradient>
				<polygon class="st55" points="2685,1880 2735,1930 2735,2070 2730,2070 2730,1930 2685,1885 2680,1885 2680,1880 				"/>
				<polygon class="st15" points="2695,1885 2740,1930 2740,2075 2735,2075 2730,2070 2735,2070 2735,1930 2690,1885 				"/>
			</g>
			<g>
				<linearGradient id="SVGID_50_" gradientUnits="userSpaceOnUse" x1="2690" y1="1975" x2="2745" y2="1975">
					<stop  offset="0" style="stop-color:#50565B"/>
					<stop  offset="1" style="stop-color:#3C4044"/>
				</linearGradient>
				<polygon class="st56" points="2695,1880 2745,1930 2745,2070 2740,2070 2740,1930 2695,1885 2690,1885 2690,1880 				"/>
				<polygon class="st15" points="2705,1885 2750,1930 2750,2075 2745,2075 2740,2070 2745,2070 2745,1930 2700,1885 				"/>
			</g>
			<g>
				<linearGradient id="SVGID_51_" gradientUnits="userSpaceOnUse" x1="2700" y1="1975" x2="2755" y2="1975">
					<stop  offset="0" style="stop-color:#50565B"/>
					<stop  offset="1" style="stop-color:#3C4044"/>
				</linearGradient>
				<polygon class="st57" points="2705,1880 2755,1930 2755,2070 2750,2070 2750,1930 2705,1885 2700,1885 2700,1880 				"/>
				<polygon class="st15" points="2715,1885 2760,1930 2760,2075 2755,2075 2750,2070 2755,2070 2755,1930 2710,1885 				"/>
			</g>
			<g>
				<linearGradient id="SVGID_52_" gradientUnits="userSpaceOnUse" x1="2710" y1="1975" x2="2765" y2="1975">
					<stop  offset="0" style="stop-color:#50565B"/>
					<stop  offset="1" style="stop-color:#3C4044"/>
				</linearGradient>
				<polygon class="st58" points="2715,1880 2765,1930 2765,2070 2760,2070 2760,1930 2715,1885 2710,1885 2710,1880 				"/>
				<polygon class="st15" points="2725,1885 2770,1930 2770,2075 2765,2075 2760,2070 2765,2070 2765,1930 2720,1885 				"/>
			</g>
		</g>
		<polygon class="st17" points="2315,1965 2315,1975 2340,2000 2340,1990 		"/>
		<polygon class="st17" points="2315,1980 2315,1990 2340,2015 2340,2005 		"/>
		<polygon class="st17" points="2315,1995 2315,2005 2340,2030 2340,2020 		"/>
		<linearGradient id="SVGID_53_" gradientUnits="userSpaceOnUse" x1="2305" y1="2012.5" x2="2315" y2="2012.5">
			<stop  offset="0" style="stop-color:#D1E3E8"/>
			<stop  offset="1" style="stop-color:#FFFFFF"/>
		</linearGradient>
		<polygon class="st59" points="2305,2005 2305,2010 2315,2020 2315,2015 		"/>
		<polygon class="st60" points="2305,2010 2305,2015 2315,2025 2315,2020 		"/>
		<linearGradient id="SVGID_54_" gradientUnits="userSpaceOnUse" x1="2340" y1="2050" x2="2355" y2="2050">
			<stop  offset="0" style="stop-color:#D1E3E8"/>
			<stop  offset="1" style="stop-color:#FFFFFF"/>
		</linearGradient>
		<polygon class="st61" points="2340,2040 2340,2045 2355,2060 2355,2055 		"/>
		<polygon class="st60" points="2340,2045 2340,2050 2355,2065 2355,2060 		"/>
		<circle class="st60" cx="2430" cy="2005" r="5"/>
		<circle class="st60" cx="2375" cy="2005" r="5"/>
		<circle class="st60" cx="2820" cy="2005" r="5"/>
		<circle class="st60" cx="3130" cy="2005" r="5"/>
	</g>
</g>
</svg>
