<?xml version="1.0" encoding="utf-8"?>
<!-- Generator: Adobe Illustrator 23.1.1, SVG Export Plug-In . SVG Version: 6.00 Build 0)  -->
<svg version="1.1" id="Options" xmlns="http://www.w3.org/2000/svg" xmlns:xlink="http://www.w3.org/1999/xlink" x="0px" y="0px"
	 viewBox="0 0 400 400" style="enable-background:new 0 0 400 400;" xml:space="preserve">
<style type="text/css">
	.st0{fill:none;}
	.st1{fill:#828E93;}
	.st2{opacity:0.25;fill:#50565B;enable-background:new    ;}
</style>
<title>Artboard 2</title>
<rect class="st0" width="400" height="400"/>
<circle class="st1" cx="115" cy="210" r="40"/>
<circle class="st1" cx="80" cy="245" r="40"/>
<circle class="st1" cx="77.5" cy="192.5" r="32.5"/>
<polygon class="st1" points="140,234.5 185,195.9 275,195.9 320,234.5 "/>
<polygon class="st1" points="151.9,195.9 190.5,157.2 267.8,157.2 306.4,195.9 "/>
<polygon class="st1" points="170,160 199,131 256.9,131 285.9,160 "/>
<polygon class="st1" points="113.3,292.4 171.2,234.5 287.1,234.5 345,292.4 "/>
<rect x="225" y="292.4" class="st1" width="19.3" height="67.6"/>
<path class="st1" d="M215,300h50c2.8,0,5,2.2,5,5l0,0c0,2.8-2.2,5-5,5h-50c-2.8,0-5-2.2-5-5l0,0C210,302.2,212.2,300,215,300z"/>
<path class="st1" d="M195,320h50c2.8,0,5,2.2,5,5l0,0c0,2.8-2.2,5-5,5h-50c-2.8,0-5-2.2-5-5l0,0C190,322.2,192.2,320,195,320z"/>
<polygon class="st2" points="140,235 185,196.4 275,196.4 320,235 "/>
<polygon class="st2" points="170,160 199,131 256.9,131 285.9,160 "/>
<rect x="100" y="265" class="st1" width="10" height="95"/>
<path class="st1" d="M130,205v45c0,2.8-2.2,5-5,5h-15c-2.8,0-5,2.2-5,5l0,0c0,2.8,2.2,5,5,5h25c2.8,0,5-2.2,5-5v-55c0-2.8-2.2-5-5-5
	l0,0C132.2,200,130,202.2,130,205z"/>
<path class="st1" d="M85,305v-45c0-2.8-2.2-5-5-5l0,0c-2.8,0-5,2.2-5,5v55c0,2.8,2.2,5,5,5h25c2.8,0,5-2.2,5-5l0,0c0-2.8-2.2-5-5-5
	H90C87.2,310,85,307.8,85,305z"/>
<rect x="60" y="350" class="st1" width="60" height="10"/>
<rect x="280" y="350" class="st1" width="40" height="10"/>
<rect x="160" y="350" class="st1" width="65" height="10"/>
<rect x="230" y="350" class="st1" width="30" height="10"/>
<polygon class="st1" points="190.5,133.3 209.8,114 248.4,114 267.8,133.3 "/>
<polygon class="st1" points="209.8,114 200.2,114 229.1,85 258.1,114 "/>
</svg>
