<?xml version="1.0" encoding="utf-8"?>
<!-- Generator: Adobe Illustrator 23.1.1, SVG Export Plug-In . SVG Version: 6.00 Build 0)  -->
<svg version="1.1" id="Options" xmlns="http://www.w3.org/2000/svg" xmlns:xlink="http://www.w3.org/1999/xlink" x="0px" y="0px"
	 viewBox="0 0 400 400" style="enable-background:new 0 0 400 400;" xml:space="preserve">
<style type="text/css">
	.st0{fill:none;}
	.st1{opacity:0.5;}
	.st2{fill:url(#SVGID_1_);}
	.st3{fill:url(#SVGID_2_);}
	.st4{fill:url(#SVGID_3_);}
	.st5{fill:url(#SVGID_4_);}
	.st6{fill:url(#SVGID_5_);}
	.st7{fill:url(#SVGID_6_);}
	.st8{fill:url(#SVGID_7_);}
	.st9{fill:url(#SVGID_8_);}
	.st10{fill:url(#SVGID_9_);}
	.st11{fill:url(#SVGID_10_);}
	.st12{fill:url(#SVGID_11_);}
	.st13{fill:url(#SVGID_12_);}
	.st14{fill:url(#SVGID_13_);}
	.st15{fill:url(#SVGID_14_);}
	.st16{fill:url(#SVGID_15_);}
	.st17{fill:url(#SVGID_16_);}
	.st18{fill:url(#SVGID_17_);}
	.st19{fill:url(#SVGID_18_);}
	.st20{fill:url(#SVGID_19_);}
	.st21{fill:url(#SVGID_20_);}
	.st22{fill:url(#SVGID_21_);}
</style>
<title>Artboard 2</title>
<rect class="st0" width="400" height="400"/>
<g class="st1">
	<linearGradient id="SVGID_1_" gradientUnits="userSpaceOnUse" x1="140" y1="215.2" x2="320" y2="215.2">
		<stop  offset="0" style="stop-color:#00E9BD"/>
		<stop  offset="1" style="stop-color:#007C65"/>
	</linearGradient>
	<polygon class="st2" points="140,234.5 185,195.9 275,195.9 320,234.5 	"/>
	<linearGradient id="SVGID_2_" gradientUnits="userSpaceOnUse" x1="151.9" y1="176.55" x2="306.4" y2="176.55">
		<stop  offset="0" style="stop-color:#00E9BD"/>
		<stop  offset="1" style="stop-color:#007C65"/>
	</linearGradient>
	<polygon class="st3" points="151.9,195.9 190.5,157.2 267.8,157.2 306.4,195.9 	"/>
	<linearGradient id="SVGID_3_" gradientUnits="userSpaceOnUse" x1="170" y1="145.5" x2="285.9" y2="145.5">
		<stop  offset="0" style="stop-color:#00E9BD"/>
		<stop  offset="1" style="stop-color:#007C65"/>
	</linearGradient>
	<polygon class="st4" points="170,160 199,131 256.9,131 285.9,160 	"/>
	<linearGradient id="SVGID_4_" gradientUnits="userSpaceOnUse" x1="113.3" y1="263.45" x2="345" y2="263.45">
		<stop  offset="0" style="stop-color:#00E9BD"/>
		<stop  offset="1" style="stop-color:#007C65"/>
	</linearGradient>
	<polygon class="st5" points="113.3,292.4 171.2,234.5 287.1,234.5 345,292.4 	"/>
	<linearGradient id="SVGID_5_" gradientUnits="userSpaceOnUse" x1="234.65" y1="371.2144" x2="234.65" y2="261.4969">
		<stop  offset="0" style="stop-color:#8D5C4A"/>
		<stop  offset="1" style="stop-color:#E19176"/>
	</linearGradient>
	<rect x="225" y="292.4" class="st6" width="19.3" height="67.6"/>
	<linearGradient id="SVGID_6_" gradientUnits="userSpaceOnUse" x1="240" y1="371.2144" x2="240" y2="261.4969">
		<stop  offset="0" style="stop-color:#8D5C4A"/>
		<stop  offset="1" style="stop-color:#E19176"/>
	</linearGradient>
	<path class="st7" d="M215,300h50c2.8,0,5,2.2,5,5l0,0c0,2.8-2.2,5-5,5h-50c-2.8,0-5-2.2-5-5l0,0C210,302.2,212.2,300,215,300z"/>
	<linearGradient id="SVGID_7_" gradientUnits="userSpaceOnUse" x1="220" y1="371.2144" x2="220" y2="261.4969">
		<stop  offset="0" style="stop-color:#8D5C4A"/>
		<stop  offset="1" style="stop-color:#E19176"/>
	</linearGradient>
	<path class="st8" d="M195,320h50c2.8,0,5,2.2,5,5l0,0c0,2.8-2.2,5-5,5h-50c-2.8,0-5-2.2-5-5l0,0C190,322.2,192.2,320,195,320z"/>
	<linearGradient id="SVGID_8_" gradientUnits="userSpaceOnUse" x1="140" y1="215.7" x2="320" y2="215.7">
		<stop  offset="0" style="stop-color:#00A68D"/>
		<stop  offset="1" style="stop-color:#007C65"/>
	</linearGradient>
	<polygon class="st9" points="140,235 185,196.4 275,196.4 320,235 	"/>
	<linearGradient id="SVGID_9_" gradientUnits="userSpaceOnUse" x1="170" y1="145.5" x2="285.9" y2="145.5">
		<stop  offset="0" style="stop-color:#00A68D"/>
		<stop  offset="1" style="stop-color:#007C65"/>
	</linearGradient>
	<polygon class="st10" points="170,160 199,131 256.9,131 285.9,160 	"/>
	<linearGradient id="SVGID_10_" gradientUnits="userSpaceOnUse" x1="105" y1="368.3348" x2="105" y2="239.6859">
		<stop  offset="0" style="stop-color:#8D5C4A"/>
		<stop  offset="1" style="stop-color:#E19176"/>
	</linearGradient>
	<rect x="100" y="265" class="st11" width="10" height="95"/>
	<linearGradient id="SVGID_11_" gradientUnits="userSpaceOnUse" x1="122.5" y1="368.3348" x2="122.5" y2="239.6859">
		<stop  offset="0" style="stop-color:#8D5C4A"/>
		<stop  offset="1" style="stop-color:#E19176"/>
	</linearGradient>
	<path class="st12" d="M130,205v45c0,2.8-2.2,5-5,5h-15c-2.8,0-5,2.2-5,5l0,0c0,2.8,2.2,5,5,5h25c2.8,0,5-2.2,5-5v-55
		c0-2.8-2.2-5-5-5l0,0C132.2,200,130,202.2,130,205z"/>
	<linearGradient id="SVGID_12_" gradientUnits="userSpaceOnUse" x1="92.5" y1="368.3348" x2="92.5" y2="239.6859">
		<stop  offset="0" style="stop-color:#8D5C4A"/>
		<stop  offset="1" style="stop-color:#E19176"/>
	</linearGradient>
	<path class="st13" d="M85,305v-45c0-2.8-2.2-5-5-5l0,0c-2.8,0-5,2.2-5,5v55c0,2.8,2.2,5,5,5h25c2.8,0,5-2.2,5-5l0,0
		c0-2.8-2.2-5-5-5H90C87.2,310,85,307.8,85,305z"/>
	<linearGradient id="SVGID_13_" gradientUnits="userSpaceOnUse" x1="90" y1="368.3348" x2="90" y2="239.6859">
		<stop  offset="0" style="stop-color:#8D5C4A"/>
		<stop  offset="1" style="stop-color:#E19176"/>
	</linearGradient>
	<rect x="60" y="350" class="st14" width="60" height="10"/>
	<linearGradient id="SVGID_14_" gradientUnits="userSpaceOnUse" x1="300" y1="371.2144" x2="300" y2="261.4969">
		<stop  offset="0" style="stop-color:#8D5C4A"/>
		<stop  offset="1" style="stop-color:#E19176"/>
	</linearGradient>
	<rect x="280" y="350" class="st15" width="40" height="10"/>
	<linearGradient id="SVGID_15_" gradientUnits="userSpaceOnUse" x1="192.5" y1="371.2144" x2="192.5" y2="261.4969">
		<stop  offset="0" style="stop-color:#8D5C4A"/>
		<stop  offset="1" style="stop-color:#E19176"/>
	</linearGradient>
	<rect x="160" y="350" class="st16" width="65" height="10"/>
	<linearGradient id="SVGID_16_" gradientUnits="userSpaceOnUse" x1="245" y1="371.2144" x2="245" y2="261.4969">
		<stop  offset="0" style="stop-color:#8D5C4A"/>
		<stop  offset="1" style="stop-color:#E19176"/>
	</linearGradient>
	<rect x="230" y="350" class="st17" width="30" height="10"/>
	<linearGradient id="SVGID_17_" gradientUnits="userSpaceOnUse" x1="190.5" y1="123.65" x2="267.8" y2="123.65">
		<stop  offset="0" style="stop-color:#00E9BD"/>
		<stop  offset="1" style="stop-color:#007C65"/>
	</linearGradient>
	<polygon class="st18" points="190.5,133.3 209.8,114 248.4,114 267.8,133.3 	"/>
	<linearGradient id="SVGID_18_" gradientUnits="userSpaceOnUse" x1="200.2" y1="99.5" x2="258.1" y2="99.5">
		<stop  offset="0" style="stop-color:#00E9BD"/>
		<stop  offset="1" style="stop-color:#007C65"/>
	</linearGradient>
	<polygon class="st19" points="209.8,114 200.2,114 229.1,85 258.1,114 	"/>
	<linearGradient id="SVGID_19_" gradientUnits="userSpaceOnUse" x1="75" y1="210" x2="155" y2="210">
		<stop  offset="0" style="stop-color:#00E9BD"/>
		<stop  offset="1" style="stop-color:#007C65"/>
	</linearGradient>
	<circle class="st20" cx="115" cy="210" r="40"/>
	<linearGradient id="SVGID_20_" gradientUnits="userSpaceOnUse" x1="40" y1="245" x2="120" y2="245">
		<stop  offset="0" style="stop-color:#00E9BD"/>
		<stop  offset="1" style="stop-color:#007C65"/>
	</linearGradient>
	<circle class="st21" cx="80" cy="245" r="40"/>
	<linearGradient id="SVGID_21_" gradientUnits="userSpaceOnUse" x1="45" y1="192.5" x2="110" y2="192.5">
		<stop  offset="0" style="stop-color:#00E9BD"/>
		<stop  offset="1" style="stop-color:#007C65"/>
	</linearGradient>
	<circle class="st22" cx="77.5" cy="192.5" r="32.5"/>
</g>
</svg>
