<?xml version="1.0" encoding="utf-8"?>
<!-- Generator: Adobe Illustrator 23.1.1, SVG Export Plug-In . SVG Version: 6.00 Build 0)  -->
<svg version="1.1" id="Options" xmlns="http://www.w3.org/2000/svg" xmlns:xlink="http://www.w3.org/1999/xlink" x="0px" y="0px"
	 viewBox="0 0 400 400" style="enable-background:new 0 0 400 400;" xml:space="preserve">
<style type="text/css">
	.st0{fill:none;}
	.st1{fill:#828E93;}
	.st2{opacity:0.25;fill:#50565B;enable-background:new    ;}
</style>
<title>Artboard 2 copy</title>
<rect class="st0" width="400" height="400"/>
<rect x="120" y="120" class="st1" width="180" height="240"/>
<rect x="50" y="200" class="st1" width="60" height="160"/>
<rect x="110" y="110" class="st1" width="200" height="10"/>
<rect x="130" y="100" class="st1" width="160" height="10"/>
<rect x="150" y="80" class="st1" width="40" height="20"/>
<path class="st1" d="M259,90h2c5,0,9,4,9,9v1l0,0h-20l0,0v-1C250,94,254,90,259,90z"/>
<rect x="65" y="190" class="st1" width="35" height="10"/>
<circle class="st1" cx="327" cy="283.5" r="22"/>
<circle class="st1" cx="346.2" cy="293" r="22"/>
<circle class="st1" cx="347.6" cy="273.9" r="17.9"/>
<rect x="335" y="307.8" class="st1" width="6.1" height="52.2"/>
<rect x="310" y="340" class="st1" width="6.1" height="20"/>
<rect x="135" y="130" class="st2" width="20" height="30"/>
<rect x="165" y="130" class="st2" width="35" height="30"/>
<rect x="225" y="130" class="st2" width="20" height="30"/>
<rect x="255" y="130" class="st2" width="35" height="30"/>
<rect x="135" y="170" class="st2" width="20" height="30"/>
<rect x="165" y="170" class="st2" width="35" height="30"/>
<rect x="225" y="170" class="st2" width="20" height="30"/>
<rect x="255" y="170" class="st2" width="35" height="30"/>
<rect x="135" y="210" class="st2" width="20" height="30"/>
<rect x="165" y="210" class="st2" width="35" height="30"/>
<rect x="225" y="210" class="st2" width="20" height="30"/>
<rect x="255" y="210" class="st2" width="35" height="30"/>
<rect x="135" y="250" class="st2" width="20" height="30"/>
<rect x="165" y="250" class="st2" width="35" height="30"/>
<rect x="225" y="250" class="st2" width="20" height="30"/>
<rect x="255" y="250" class="st2" width="35" height="30"/>
<rect x="135" y="290" class="st2" width="20" height="30"/>
<rect x="130" y="285" class="st2" width="75" height="10"/>
<rect x="220" y="285" class="st2" width="75" height="10"/>
<rect x="60" y="290" class="st2" width="10" height="30"/>
<rect x="75" y="290" class="st2" width="25" height="30"/>
<rect x="60" y="250" class="st2" width="10" height="30"/>
<rect x="75" y="250" class="st2" width="25" height="30"/>
<rect x="60" y="210" class="st2" width="10" height="30"/>
<rect x="75" y="210" class="st2" width="25" height="30"/>
<rect x="165" y="290" class="st2" width="35" height="30"/>
<rect x="225" y="290" class="st2" width="20" height="30"/>
<rect x="255" y="290" class="st2" width="35" height="30"/>
<circle class="st1" cx="310" cy="325" r="20"/>
</svg>
