<?xml version="1.0" encoding="utf-8"?>
<!-- Generator: Adobe Illustrator 22.1.0, SVG Export Plug-In . SVG Version: 6.00 Build 0)  -->
<svg version="1.1" id="Options" xmlns="http://www.w3.org/2000/svg" xmlns:xlink="http://www.w3.org/1999/xlink" x="0px" y="0px"
	 viewBox="0 0 318.2 280" style="enable-background:new 0 0 318.2 280;" xml:space="preserve">
<style type="text/css">
	.st0{fill:none;}
	.st1{opacity:0.5;}
	.st2{fill:url(#SVGID_1_);}
	.st3{fill:url(#SVGID_2_);}
	.st4{fill:url(#SVGID_3_);}
	.st5{fill:url(#SVGID_4_);}
	.st6{fill:url(#SVGID_5_);}
	.st7{fill:url(#SVGID_6_);}
	.st8{fill:url(#SVGID_7_);}
	.st9{fill:url(#SVGID_8_);}
	.st10{fill:url(#SVGID_9_);}
	.st11{fill:url(#SVGID_10_);}
	.st12{fill:url(#SVGID_11_);}
	.st13{fill:url(#SVGID_12_);}
	.st14{opacity:0.25;fill:#50565B;enable-background:new    ;}
	.st15{fill:url(#SVGID_13_);}
</style>
<title>Artboard 2 copy</title>
<rect x="-50" y="-80" class="st0" width="400" height="400"/>
<g class="st1">
	
		<linearGradient id="SVGID_1_" gradientUnits="userSpaceOnUse" x1="285" y1="643.9" x2="291.1" y2="643.9" gradientTransform="matrix(1 0 0 1 0 -390)">
		<stop  offset="0" style="stop-color:#B9785D"/>
		<stop  offset="1" style="stop-color:#8D5C4A"/>
	</linearGradient>
	<rect x="285" y="227.8" class="st2" width="6.1" height="52.2"/>
	
		<linearGradient id="SVGID_2_" gradientUnits="userSpaceOnUse" x1="70" y1="550" x2="250" y2="550" gradientTransform="matrix(1 0 0 1 0 -390)">
		<stop  offset="0" style="stop-color:#EED25E"/>
		<stop  offset="1" style="stop-color:#FBEAA1"/>
	</linearGradient>
	<rect x="70" y="40" class="st3" width="180" height="240"/>
	
		<linearGradient id="SVGID_3_" gradientUnits="userSpaceOnUse" x1="0" y1="590" x2="60" y2="590" gradientTransform="matrix(1 0 0 1 0 -390)">
		<stop  offset="0" style="stop-color:#EED25E"/>
		<stop  offset="1" style="stop-color:#FBEAA1"/>
	</linearGradient>
	<rect y="120" class="st4" width="60" height="160"/>
	
		<linearGradient id="SVGID_4_" gradientUnits="userSpaceOnUse" x1="60" y1="425" x2="260" y2="425" gradientTransform="matrix(1 0 0 1 0 -390)">
		<stop  offset="1.472383e-03" style="stop-color:#D0E2E7"/>
		<stop  offset="1" style="stop-color:#818D92"/>
	</linearGradient>
	<rect x="60" y="30" class="st5" width="200" height="10"/>
	
		<linearGradient id="SVGID_5_" gradientUnits="userSpaceOnUse" x1="80" y1="415" x2="240" y2="415" gradientTransform="matrix(1 0 0 1 0 -390)">
		<stop  offset="1.472383e-03" style="stop-color:#D0E2E7"/>
		<stop  offset="1" style="stop-color:#818D92"/>
	</linearGradient>
	<rect x="80" y="20" class="st6" width="160" height="10"/>
	
		<linearGradient id="SVGID_6_" gradientUnits="userSpaceOnUse" x1="100" y1="400" x2="140" y2="400" gradientTransform="matrix(1 0 0 1 0 -390)">
		<stop  offset="1.472383e-03" style="stop-color:#D0E2E7"/>
		<stop  offset="1" style="stop-color:#818D92"/>
	</linearGradient>
	<rect x="100" class="st7" width="40" height="20"/>
	
		<linearGradient id="SVGID_7_" gradientUnits="userSpaceOnUse" x1="200" y1="405" x2="220" y2="405" gradientTransform="matrix(1 0 0 1 0 -390)">
		<stop  offset="1.472383e-03" style="stop-color:#D0E2E7"/>
		<stop  offset="1" style="stop-color:#818D92"/>
	</linearGradient>
	<path class="st8" d="M209,10h2c5,0,9,4,9,9v1l0,0h-20l0,0v-1C200,14,204,10,209,10z"/>
	
		<linearGradient id="SVGID_8_" gradientUnits="userSpaceOnUse" x1="15" y1="505" x2="50" y2="505" gradientTransform="matrix(1 0 0 1 0 -390)">
		<stop  offset="1.472383e-03" style="stop-color:#D0E2E7"/>
		<stop  offset="1" style="stop-color:#818D92"/>
	</linearGradient>
	<rect x="15" y="110" class="st9" width="35" height="10"/>
	
		<linearGradient id="SVGID_9_" gradientUnits="userSpaceOnUse" x1="255" y1="593.5" x2="299" y2="593.5" gradientTransform="matrix(1 0 0 1 0 -390)">
		<stop  offset="0" style="stop-color:#00E9BD"/>
		<stop  offset="1" style="stop-color:#007C65"/>
	</linearGradient>
	<circle class="st10" cx="277" cy="203.5" r="22"/>
	
		<linearGradient id="SVGID_10_" gradientUnits="userSpaceOnUse" x1="274.2" y1="603" x2="318.2" y2="603" gradientTransform="matrix(1 0 0 1 0 -390)">
		<stop  offset="0" style="stop-color:#00E9BD"/>
		<stop  offset="1" style="stop-color:#007C65"/>
	</linearGradient>
	<circle class="st11" cx="296.2" cy="213" r="22"/>
	
		<linearGradient id="SVGID_11_" gradientUnits="userSpaceOnUse" x1="279.7" y1="583.9" x2="315.5" y2="583.9" gradientTransform="matrix(1 0 0 1 0 -390)">
		<stop  offset="0" style="stop-color:#00E9BD"/>
		<stop  offset="1" style="stop-color:#007C65"/>
	</linearGradient>
	<circle class="st12" cx="297.6" cy="193.9" r="17.9"/>
	
		<linearGradient id="SVGID_12_" gradientUnits="userSpaceOnUse" x1="260" y1="660" x2="266.1" y2="660" gradientTransform="matrix(1 0 0 1 0 -390)">
		<stop  offset="0" style="stop-color:#B9785D"/>
		<stop  offset="1" style="stop-color:#8D5C4A"/>
	</linearGradient>
	<rect x="260" y="260" class="st13" width="6.1" height="20"/>
	<rect x="85" y="50" class="st14" width="20" height="30"/>
	<rect x="115" y="50" class="st14" width="35" height="30"/>
	<rect x="175" y="50" class="st14" width="20" height="30"/>
	<rect x="205" y="50" class="st14" width="35" height="30"/>
	<rect x="85" y="90" class="st14" width="20" height="30"/>
	<rect x="115" y="90" class="st14" width="35" height="30"/>
	<rect x="175" y="90" class="st14" width="20" height="30"/>
	<rect x="205" y="90" class="st14" width="35" height="30"/>
	<rect x="85" y="130" class="st14" width="20" height="30"/>
	<rect x="115" y="130" class="st14" width="35" height="30"/>
	<rect x="175" y="130" class="st14" width="20" height="30"/>
	<rect x="205" y="130" class="st14" width="35" height="30"/>
	<rect x="85" y="170" class="st14" width="20" height="30"/>
	<rect x="115" y="170" class="st14" width="35" height="30"/>
	<rect x="175" y="170" class="st14" width="20" height="30"/>
	<rect x="205" y="170" class="st14" width="35" height="30"/>
	<rect x="85" y="210" class="st14" width="20" height="30"/>
	<rect x="80" y="205" class="st14" width="75" height="10"/>
	<rect x="170" y="205" class="st14" width="75" height="10"/>
	<rect x="10" y="210" class="st14" width="10" height="30"/>
	<rect x="25" y="210" class="st14" width="25" height="30"/>
	<rect x="10" y="170" class="st14" width="10" height="30"/>
	<rect x="25" y="170" class="st14" width="25" height="30"/>
	<rect x="10" y="130" class="st14" width="10" height="30"/>
	<rect x="25" y="130" class="st14" width="25" height="30"/>
	<rect x="115" y="210" class="st14" width="35" height="30"/>
	<rect x="175" y="210" class="st14" width="20" height="30"/>
	<rect x="205" y="210" class="st14" width="35" height="30"/>
	
		<linearGradient id="SVGID_13_" gradientUnits="userSpaceOnUse" x1="240" y1="635" x2="280" y2="635" gradientTransform="matrix(1 0 0 1 0 -390)">
		<stop  offset="0" style="stop-color:#00E9BD"/>
		<stop  offset="1" style="stop-color:#00A68D"/>
	</linearGradient>
	<circle class="st15" cx="260" cy="245" r="20"/>
</g>
</svg>
