<?xml version="1.0" encoding="utf-8"?>
<!-- Generator: Adobe Illustrator 23.1.1, SVG Export Plug-In . SVG Version: 6.00 Build 0)  -->
<svg version="1.1" id="Options" xmlns="http://www.w3.org/2000/svg" xmlns:xlink="http://www.w3.org/1999/xlink" x="0px" y="0px"
	 viewBox="0 0 400 400" style="enable-background:new 0 0 400 400;" xml:space="preserve">
<style type="text/css">
	.st0{fill:none;}
	.st1{opacity:0.5;}
	.st2{fill:url(#SVGID_1_);}
	.st3{fill:url(#SVGID_2_);}
	.st4{fill:url(#SVGID_3_);}
	.st5{fill:url(#SVGID_4_);}
	.st6{fill:url(#SVGID_5_);}
	.st7{fill:url(#SVGID_6_);}
	.st8{fill:url(#SVGID_7_);}
	.st9{fill:url(#SVGID_8_);}
	.st10{fill:url(#SVGID_9_);}
	.st11{fill:url(#SVGID_10_);}
	.st12{fill:url(#SVGID_11_);}
	.st13{fill:url(#SVGID_12_);}
	.st14{opacity:0.25;fill:#50565B;enable-background:new    ;}
	.st15{fill:url(#SVGID_13_);}
</style>
<title>Artboard 2 copy</title>
<rect class="st0" width="400" height="400"/>
<g class="st1">
	
		<linearGradient id="SVGID_1_" gradientUnits="userSpaceOnUse" x1="335" y1="68.1" x2="341.1" y2="68.1" gradientTransform="matrix(1 0 0 -1 0 402)">
		<stop  offset="0" style="stop-color:#B9785D"/>
		<stop  offset="1" style="stop-color:#8D5C4A"/>
	</linearGradient>
	<rect x="335" y="307.8" class="st2" width="6.1" height="52.2"/>
	
		<linearGradient id="SVGID_2_" gradientUnits="userSpaceOnUse" x1="120" y1="162" x2="300" y2="162" gradientTransform="matrix(1 0 0 -1 0 402)">
		<stop  offset="0" style="stop-color:#EED25E"/>
		<stop  offset="1" style="stop-color:#FBEAA1"/>
	</linearGradient>
	<rect x="120" y="120" class="st3" width="180" height="240"/>
	
		<linearGradient id="SVGID_3_" gradientUnits="userSpaceOnUse" x1="50" y1="122" x2="110" y2="122" gradientTransform="matrix(1 0 0 -1 0 402)">
		<stop  offset="0" style="stop-color:#EED25E"/>
		<stop  offset="1" style="stop-color:#FBEAA1"/>
	</linearGradient>
	<rect x="50" y="200" class="st4" width="60" height="160"/>
	
		<linearGradient id="SVGID_4_" gradientUnits="userSpaceOnUse" x1="110" y1="287" x2="310" y2="287" gradientTransform="matrix(1 0 0 -1 0 402)">
		<stop  offset="1.472383e-03" style="stop-color:#D0E2E7"/>
		<stop  offset="1" style="stop-color:#818D92"/>
	</linearGradient>
	<rect x="110" y="110" class="st5" width="200" height="10"/>
	
		<linearGradient id="SVGID_5_" gradientUnits="userSpaceOnUse" x1="130" y1="297" x2="290" y2="297" gradientTransform="matrix(1 0 0 -1 0 402)">
		<stop  offset="1.472383e-03" style="stop-color:#D0E2E7"/>
		<stop  offset="1" style="stop-color:#818D92"/>
	</linearGradient>
	<rect x="130" y="100" class="st6" width="160" height="10"/>
	
		<linearGradient id="SVGID_6_" gradientUnits="userSpaceOnUse" x1="150" y1="312" x2="190" y2="312" gradientTransform="matrix(1 0 0 -1 0 402)">
		<stop  offset="1.472383e-03" style="stop-color:#D0E2E7"/>
		<stop  offset="1" style="stop-color:#818D92"/>
	</linearGradient>
	<rect x="150" y="80" class="st7" width="40" height="20"/>
	
		<linearGradient id="SVGID_7_" gradientUnits="userSpaceOnUse" x1="250" y1="307" x2="270" y2="307" gradientTransform="matrix(1 0 0 -1 0 402)">
		<stop  offset="1.472383e-03" style="stop-color:#D0E2E7"/>
		<stop  offset="1" style="stop-color:#818D92"/>
	</linearGradient>
	<path class="st8" d="M259,90h2c5,0,9,4,9,9v1l0,0h-20l0,0v-1C250,94,254,90,259,90z"/>
	
		<linearGradient id="SVGID_8_" gradientUnits="userSpaceOnUse" x1="65" y1="207" x2="100" y2="207" gradientTransform="matrix(1 0 0 -1 0 402)">
		<stop  offset="1.472383e-03" style="stop-color:#D0E2E7"/>
		<stop  offset="1" style="stop-color:#818D92"/>
	</linearGradient>
	<rect x="65" y="190" class="st9" width="35" height="10"/>
	
		<linearGradient id="SVGID_9_" gradientUnits="userSpaceOnUse" x1="305" y1="118.5" x2="349" y2="118.5" gradientTransform="matrix(1 0 0 -1 0 402)">
		<stop  offset="0" style="stop-color:#00E9BD"/>
		<stop  offset="1" style="stop-color:#007C65"/>
	</linearGradient>
	<circle class="st10" cx="327" cy="283.5" r="22"/>
	
		<linearGradient id="SVGID_10_" gradientUnits="userSpaceOnUse" x1="324.2" y1="109" x2="368.2" y2="109" gradientTransform="matrix(1 0 0 -1 0 402)">
		<stop  offset="0" style="stop-color:#00E9BD"/>
		<stop  offset="1" style="stop-color:#007C65"/>
	</linearGradient>
	<circle class="st11" cx="346.2" cy="293" r="22"/>
	
		<linearGradient id="SVGID_11_" gradientUnits="userSpaceOnUse" x1="329.7" y1="128.1" x2="365.5" y2="128.1" gradientTransform="matrix(1 0 0 -1 0 402)">
		<stop  offset="0" style="stop-color:#00E9BD"/>
		<stop  offset="1" style="stop-color:#007C65"/>
	</linearGradient>
	<circle class="st12" cx="347.6" cy="273.9" r="17.9"/>
	
		<linearGradient id="SVGID_12_" gradientUnits="userSpaceOnUse" x1="310" y1="52" x2="316.1" y2="52" gradientTransform="matrix(1 0 0 -1 0 402)">
		<stop  offset="0" style="stop-color:#B9785D"/>
		<stop  offset="1" style="stop-color:#8D5C4A"/>
	</linearGradient>
	<rect x="310" y="340" class="st13" width="6.1" height="20"/>
	<rect x="135" y="130" class="st14" width="20" height="30"/>
	<rect x="165" y="130" class="st14" width="35" height="30"/>
	<rect x="225" y="130" class="st14" width="20" height="30"/>
	<rect x="255" y="130" class="st14" width="35" height="30"/>
	<rect x="135" y="170" class="st14" width="20" height="30"/>
	<rect x="165" y="170" class="st14" width="35" height="30"/>
	<rect x="225" y="170" class="st14" width="20" height="30"/>
	<rect x="255" y="170" class="st14" width="35" height="30"/>
	<rect x="135" y="210" class="st14" width="20" height="30"/>
	<rect x="165" y="210" class="st14" width="35" height="30"/>
	<rect x="225" y="210" class="st14" width="20" height="30"/>
	<rect x="255" y="210" class="st14" width="35" height="30"/>
	<rect x="135" y="250" class="st14" width="20" height="30"/>
	<rect x="165" y="250" class="st14" width="35" height="30"/>
	<rect x="225" y="250" class="st14" width="20" height="30"/>
	<rect x="255" y="250" class="st14" width="35" height="30"/>
	<rect x="135" y="290" class="st14" width="20" height="30"/>
	<rect x="130" y="285" class="st14" width="75" height="10"/>
	<rect x="220" y="285" class="st14" width="75" height="10"/>
	<rect x="60" y="290" class="st14" width="10" height="30"/>
	<rect x="75" y="290" class="st14" width="25" height="30"/>
	<rect x="60" y="250" class="st14" width="10" height="30"/>
	<rect x="75" y="250" class="st14" width="25" height="30"/>
	<rect x="60" y="210" class="st14" width="10" height="30"/>
	<rect x="75" y="210" class="st14" width="25" height="30"/>
	<rect x="165" y="290" class="st14" width="35" height="30"/>
	<rect x="225" y="290" class="st14" width="20" height="30"/>
	<rect x="255" y="290" class="st14" width="35" height="30"/>
	
		<linearGradient id="SVGID_13_" gradientUnits="userSpaceOnUse" x1="290" y1="77" x2="330" y2="77" gradientTransform="matrix(1 0 0 -1 0 402)">
		<stop  offset="0" style="stop-color:#00E9BD"/>
		<stop  offset="1" style="stop-color:#00A68D"/>
	</linearGradient>
	<circle class="st15" cx="310" cy="325" r="20"/>
</g>
</svg>
