<?xml version="1.0" encoding="utf-8"?>
<!-- Generator: Adobe Illustrator 23.1.1, SVG Export Plug-In . SVG Version: 6.00 Build 0)  -->
<svg version="1.1" id="Options" xmlns="http://www.w3.org/2000/svg" xmlns:xlink="http://www.w3.org/1999/xlink" x="0px" y="0px"
	 viewBox="0 0 400 400" style="enable-background:new 0 0 400 400;" xml:space="preserve">
<style type="text/css">
	.st0{fill:none;}
	.st1{fill:#828E93;}
	.st2{opacity:0.25;fill:#50565B;enable-background:new    ;}
</style>
<title>Artboard 2 copy 2</title>
<rect class="st0" width="400" height="400"/>
<path class="st1" d="M75,240L75,240c2.8,0,5,2.2,5,5v110c0,2.8-2.2,5-5,5l0,0c-2.8,0-5-2.2-5-5V245C70,242.2,72.2,240,75,240z"/>
<rect x="80" y="250" class="st1" width="30" height="10"/>
<rect x="80" y="290" class="st1" width="30" height="10"/>
<rect x="80" y="330" class="st1" width="30" height="10"/>
<rect x="40" y="250" class="st1" width="30" height="10"/>
<rect x="40" y="290" class="st1" width="30" height="10"/>
<rect x="40" y="330" class="st1" width="30" height="10"/>
<rect x="290" y="250" class="st1" width="30" height="10"/>
<rect x="290" y="290" class="st1" width="30" height="10"/>
<rect x="290" y="330" class="st1" width="30" height="10"/>
<rect x="330" y="250" class="st1" width="30" height="10"/>
<rect x="330" y="290" class="st1" width="30" height="10"/>
<rect x="330" y="330" class="st1" width="30" height="10"/>
<path class="st1" d="M115,240L115,240c2.8,0,5,2.2,5,5v110c0,2.8-2.2,5-5,5l0,0c-2.8,0-5-2.2-5-5V245C110,242.2,112.2,240,115,240z"
	/>
<rect x="280" y="80" class="st1" width="10" height="280"/>
<path class="st1" d="M325,240L325,240c2.8,0,5,2.2,5,5v110c0,2.8-2.2,5-5,5l0,0c-2.8,0-5-2.2-5-5V245C320,242.2,322.2,240,325,240z"
	/>
<polygon class="st1" points="220,120 240,100 320,100 340,100 320,120 340,140 240,140 "/>
<polygon class="st2" points="230,120 243.7,106.3 325,106.3 311.3,120 325,133.7 243.7,133.7 "/>
</svg>
