<?xml version="1.0" encoding="utf-8"?>
<!-- Generator: Adobe Illustrator 23.1.1, SVG Export Plug-In . SVG Version: 6.00 Build 0)  -->
<svg version="1.1" id="Options" xmlns="http://www.w3.org/2000/svg" xmlns:xlink="http://www.w3.org/1999/xlink" x="0px" y="0px"
	 viewBox="0 0 400 400" style="enable-background:new 0 0 400 400;" xml:space="preserve">
<style type="text/css">
	.st0{fill:none;}
	.st1{opacity:0.5;}
	.st2{fill:url(#SVGID_1_);}
	.st3{fill:#007C65;}
	.st4{fill:url(#SVGID_2_);}
	.st5{fill:#818D92;}
	.st6{fill:url(#SVGID_3_);}
	.st7{fill:url(#SVGID_4_);}
	.st8{fill:url(#SVGID_5_);}
	.st9{fill:url(#SVGID_6_);}
	.st10{fill:url(#SVGID_7_);}
	.st11{fill:url(#SVGID_8_);}
	.st12{fill:url(#SVGID_9_);}
	.st13{fill:url(#SVGID_10_);}
	.st14{fill:url(#SVGID_11_);}
	.st15{fill:url(#SVGID_12_);}
	.st16{fill:url(#SVGID_13_);}
	.st17{fill:url(#SVGID_14_);}
	.st18{fill:url(#SVGID_15_);}
	.st19{fill:url(#SVGID_16_);}
	.st20{fill:#00A68D;}
	.st21{fill:url(#SVGID_17_);}
	.st22{opacity:0.25;fill:#007C65;enable-background:new    ;}
</style>
<title>Artboard 2 copy 3</title>
<rect class="st0" width="400" height="400"/>
<g class="st1">
	<g>
		
			<linearGradient id="SVGID_1_" gradientUnits="userSpaceOnUse" x1="275" y1="129.5" x2="310" y2="129.5" gradientTransform="matrix(1 0 0 -1 0 402)">
			<stop  offset="0" style="stop-color:#E19176"/>
			<stop  offset="1" style="stop-color:#8D5C4A"/>
		</linearGradient>
		<path class="st2" d="M285,290v-45c0-2.8-2.2-5-5-5l0,0c-2.8,0-5,2.2-5,5v50v5c0,2.8,2.2,5,5,5h5h20c2.8,0,5-2.2,5-5l0,0
			c0-2.8-2.2-5-5-5h-15C287.2,295,285,292.8,285,290z"/>
		<circle class="st3" cx="290" cy="220" r="35"/>
		
			<linearGradient id="SVGID_2_" gradientUnits="userSpaceOnUse" x1="70" y1="232" x2="90" y2="232" gradientTransform="matrix(1 0 0 -1 0 402)">
			<stop  offset="1.472383e-03" style="stop-color:#D0E2E7"/>
			<stop  offset="1" style="stop-color:#818D92"/>
		</linearGradient>
		<circle class="st4" cx="80" cy="170" r="10"/>
		<polygon class="st5" points="45,290 75,260 75,270 45,300 		"/>
		<polygon class="st5" points="45,325 75,295 75,305 45,335 		"/>
		<polygon class="st5" points="75,290 105,260 105,270 75,300 		"/>
		<polygon class="st5" points="75,325 105,295 105,305 75,335 		"/>
		<polygon class="st5" points="105,290 135,260 135,270 105,300 		"/>
		<polygon class="st5" points="105,325 135,295 135,305 105,335 		"/>
		<polygon class="st5" points="135,290 165,260 165,270 135,300 		"/>
		<polygon class="st5" points="135,325 165,295 165,305 135,335 		"/>
		<polygon class="st5" points="165,290 195,260 195,270 165,300 		"/>
		<polygon class="st5" points="165,325 195,295 195,305 165,335 		"/>
		<polygon class="st5" points="195,290 225,260 225,270 195,300 		"/>
		<polygon class="st5" points="195,325 225,295 225,305 195,335 		"/>
		<polygon class="st5" points="225,290 255,260 255,270 225,300 		"/>
		<polygon class="st5" points="225,325 255,295 255,305 225,335 		"/>
		
			<linearGradient id="SVGID_3_" gradientUnits="userSpaceOnUse" x1="40.0772" y1="119" x2="50.0772" y2="119" gradientTransform="matrix(1 0 0 -1 0 402)">
			<stop  offset="1.472383e-03" style="stop-color:#D0E2E7"/>
			<stop  offset="1" style="stop-color:#AFC0C5"/>
		</linearGradient>
		<rect x="40.1" y="210" class="st6" width="10" height="146"/>
		
			<linearGradient id="SVGID_4_" gradientUnits="userSpaceOnUse" x1="70" y1="99" x2="80" y2="99" gradientTransform="matrix(1 0 0 -1 0 402)">
			<stop  offset="1.472383e-03" style="stop-color:#D0E2E7"/>
			<stop  offset="1" style="stop-color:#AFC0C5"/>
		</linearGradient>
		<path class="st7" d="M75,250L75,250c-2.8,0-5,2.2-5,5v96c0,2.8,2.2,5,5,5l0,0c2.8,0,5-2.2,5-5v-96C80,252.2,77.8,250,75,250z"/>
		
			<linearGradient id="SVGID_5_" gradientUnits="userSpaceOnUse" x1="130" y1="99" x2="140" y2="99" gradientTransform="matrix(1 0 0 -1 0 402)">
			<stop  offset="1.472383e-03" style="stop-color:#D0E2E7"/>
			<stop  offset="1" style="stop-color:#AFC0C5"/>
		</linearGradient>
		<path class="st8" d="M135,250L135,250c-2.8,0-5,2.2-5,5v96c0,2.8,2.2,5,5,5l0,0c2.8,0,5-2.2,5-5v-96C140,252.2,137.8,250,135,250z
			"/>
		
			<linearGradient id="SVGID_6_" gradientUnits="userSpaceOnUse" x1="190" y1="99" x2="200" y2="99" gradientTransform="matrix(1 0 0 -1 0 402)">
			<stop  offset="1.472383e-03" style="stop-color:#D0E2E7"/>
			<stop  offset="1" style="stop-color:#AFC0C5"/>
		</linearGradient>
		<path class="st9" d="M195,250L195,250c-2.8,0-5,2.2-5,5v96c0,2.8,2.2,5,5,5l0,0c2.8,0,5-2.2,5-5v-96C200,252.2,197.8,250,195,250z
			"/>
		
			<linearGradient id="SVGID_7_" gradientUnits="userSpaceOnUse" x1="220.0772" y1="119" x2="230.0772" y2="119" gradientTransform="matrix(1 0 0 -1 0 402)">
			<stop  offset="1.472383e-03" style="stop-color:#D0E2E7"/>
			<stop  offset="1" style="stop-color:#AFC0C5"/>
		</linearGradient>
		<rect x="220.1" y="210" class="st10" width="10" height="146"/>
		
			<linearGradient id="SVGID_8_" gradientUnits="userSpaceOnUse" x1="250" y1="99" x2="260" y2="99" gradientTransform="matrix(1 0 0 -1 0 402)">
			<stop  offset="1.472383e-03" style="stop-color:#D0E2E7"/>
			<stop  offset="1" style="stop-color:#AFC0C5"/>
		</linearGradient>
		<path class="st11" d="M255,250L255,250c-2.8,0-5,2.2-5,5v96c0,2.8,2.2,5,5,5l0,0c2.8,0,5-2.2,5-5v-96C260,252.2,257.8,250,255,250
			z"/>
		
			<linearGradient id="SVGID_9_" gradientUnits="userSpaceOnUse" x1="100" y1="137" x2="110" y2="137" gradientTransform="matrix(1 0 0 -1 0 402)">
			<stop  offset="1.472383e-03" style="stop-color:#D0E2E7"/>
			<stop  offset="1" style="stop-color:#AFC0C5"/>
		</linearGradient>
		<rect x="100" y="170" class="st12" width="10" height="190"/>
		
			<linearGradient id="SVGID_10_" gradientUnits="userSpaceOnUse" x1="160.0772" y1="119" x2="170.0772" y2="119" gradientTransform="matrix(1 0 0 -1 0 402)">
			<stop  offset="1.472383e-03" style="stop-color:#D0E2E7"/>
			<stop  offset="1" style="stop-color:#AFC0C5"/>
		</linearGradient>
		<rect x="160.1" y="210" class="st13" width="10" height="146"/>
		<rect x="20" y="350" class="st5" width="360" height="10"/>
		
			<linearGradient id="SVGID_11_" gradientUnits="userSpaceOnUse" x1="35" y1="197" x2="55" y2="197" gradientTransform="matrix(1 0 0 -1 0 402)">
			<stop  offset="1.472383e-03" style="stop-color:#D0E2E7"/>
			<stop  offset="1" style="stop-color:#AFC0C5"/>
		</linearGradient>
		<circle class="st14" cx="45" cy="205" r="10"/>
		
			<linearGradient id="SVGID_12_" gradientUnits="userSpaceOnUse" x1="155" y1="197" x2="175" y2="197" gradientTransform="matrix(1 0 0 -1 0 402)">
			<stop  offset="1.472383e-03" style="stop-color:#D0E2E7"/>
			<stop  offset="1" style="stop-color:#AFC0C5"/>
		</linearGradient>
		<circle class="st15" cx="165" cy="205" r="10"/>
		
			<linearGradient id="SVGID_13_" gradientUnits="userSpaceOnUse" x1="100" y1="247" x2="110" y2="247" gradientTransform="matrix(1 0 0 -1 0 402)">
			<stop  offset="0" style="stop-color:#818D92"/>
			<stop  offset="1" style="stop-color:#50565B"/>
		</linearGradient>
		<circle class="st16" cx="105" cy="155" r="5"/>
		
			<linearGradient id="SVGID_14_" gradientUnits="userSpaceOnUse" x1="215" y1="197" x2="235" y2="197" gradientTransform="matrix(1 0 0 -1 0 402)">
			<stop  offset="1.472383e-03" style="stop-color:#D0E2E7"/>
			<stop  offset="1" style="stop-color:#AFC0C5"/>
		</linearGradient>
		<circle class="st17" cx="225" cy="205" r="10"/>
		
			<linearGradient id="SVGID_15_" gradientUnits="userSpaceOnUse" x1="90" y1="231" x2="120" y2="231" gradientTransform="matrix(1 0 0 -1 0 402)">
			<stop  offset="0" style="stop-color:#818D92"/>
			<stop  offset="1" style="stop-color:#50565B"/>
		</linearGradient>
		<circle class="st18" cx="105" cy="171" r="15"/>
		
			<linearGradient id="SVGID_16_" gradientUnits="userSpaceOnUse" x1="298.952" y1="115.7" x2="319.9984" y2="115.7" gradientTransform="matrix(1 0 0 -1 0 402)">
			<stop  offset="0" style="stop-color:#E19176"/>
			<stop  offset="1" style="stop-color:#8D5C4A"/>
		</linearGradient>
		<polygon class="st19" points="299,350 320,350 320,222.6 299,222.6 		"/>
		<circle class="st20" cx="330" cy="187.5" r="50"/>
		<circle class="st20" cx="297.5" cy="137.5" r="47.5"/>
		
			<linearGradient id="SVGID_17_" gradientUnits="userSpaceOnUse" x1="75" y1="232" x2="125" y2="232" gradientTransform="matrix(1 0 0 -1 0 402)">
			<stop  offset="0" style="stop-color:#818D92"/>
			<stop  offset="1" style="stop-color:#50565B"/>
		</linearGradient>
		<rect x="75" y="160" class="st21" width="50" height="20"/>
		<g>
			<path class="st3" d="M97.3,326.7l-8.4-8.4c-5.1-5.1-5.1-13.4,0-18.5l5.1-5.1c2.5-2.5,5.8-3.8,9.3-3.8h8.8c2.6,0,5.1-0.8,7.3-2.2
				l1.4-0.9c5.2-3.5,12.1-2.8,16.5,1.6l0,0c1,1,1.8,2.1,2.5,3.4l8.5,17c2.5,5,1.5,11.1-2.5,15.1l-4.4,4.4c-1.7,1.7-2.9,3.8-3.4,6.1
				l-1.2,4.8c-1.5,5.8-6.7,9.9-12.7,9.9h-1.7c-4,0-7.7-1.8-10.2-4.9l-13.8-17.3C97.9,327.4,97.6,327.1,97.3,326.7z"/>
			<path class="st22" d="M97.3,326.7l-8.4-8.4c-5.1-5.1-5.1-13.4,0-18.5l5.1-5.1c2.5-2.5,5.8-3.8,9.3-3.8h8.8c2.6,0,5.1-0.8,7.3-2.2
				l1.4-0.9c5.2-3.5,12.1-2.8,16.5,1.6l0,0c1,1,1.8,2.1,2.5,3.4l8.5,17c2.5,5,1.5,11.1-2.5,15.1l-4.4,4.4c-1.7,1.7-2.9,3.8-3.4,6.1
				l-1.2,4.8c-1.5,5.8-6.7,9.9-12.7,9.9h-1.7c-4,0-7.7-1.8-10.2-4.9l-13.8-17.3C97.9,327.4,97.6,327.1,97.3,326.7z"/>
			<path class="st20" d="M165.8,320.5l10.7-10.7c6.5-6.5,6.5-17,0-23.5l-6.5-6.5c-3.1-3.1-7.3-4.9-11.8-4.9H147
				c-3.3,0-6.5-1-9.2-2.8l-1.8-1.2c-6.6-4.4-15.4-3.5-21,2.1l0,0c-1.3,1.3-2.3,2.7-3.1,4.3l-10.8,21.5c-3.2,6.4-1.9,14.1,3.1,19.2
				l5.6,5.6c2.1,2.1,3.6,4.8,4.4,7.7l1.5,6c1.9,7.4,8.5,12.6,16.1,12.6h2.1c5.1,0,9.8-2.3,13-6.2l17.5-21.9
				C165,321.4,165.4,320.9,165.8,320.5z"/>
		</g>
	</g>
	<path class="st20" d="M206.5,351.7h7.6c4.6,0,8.4-3.8,8.4-8.4v-4.6c0-2.2-0.9-4.4-2.5-5.9l-4-4c-1.2-1.2-2-2.7-2.3-4.3l-0.2-1.1
		c-0.8-3.9-4.2-6.8-8.2-6.8l0,0c-0.9,0-1.8,0.1-2.7,0.4l-11.5,3.8c-3.4,1.1-5.7,4.4-5.7,8v4c0,1.5-0.4,3-1.2,4.3l-1.6,2.7
		c-2,3.3-1.5,7.5,1.3,10.3l0.8,0.8c1.8,1.8,4.3,2.7,6.9,2.4l14.1-1.6C205.9,351.7,206.2,351.7,206.5,351.7z"/>
</g>
</svg>
