<?xml version="1.0" encoding="utf-8"?>
<!-- Generator: Adobe Illustrator 23.1.1, SVG Export Plug-In . SVG Version: 6.00 Build 0)  -->
<svg version="1.1" id="Options" xmlns="http://www.w3.org/2000/svg" xmlns:xlink="http://www.w3.org/1999/xlink" x="0px" y="0px"
	 viewBox="0 0 400 400" style="enable-background:new 0 0 400 400;" xml:space="preserve">
<style type="text/css">
	.st0{fill:none;}
	.st1{opacity:0.5;}
	.st2{fill:url(#SVGID_1_);}
	.st3{fill:url(#SVGID_2_);}
	.st4{fill:url(#SVGID_3_);}
	.st5{fill:url(#SVGID_4_);}
	.st6{fill:url(#SVGID_5_);}
	.st7{fill:url(#SVGID_6_);}
	.st8{fill:url(#SVGID_7_);}
	.st9{fill:url(#SVGID_8_);}
	.st10{fill:url(#SVGID_9_);}
	.st11{fill:url(#SVGID_10_);}
	.st12{fill:url(#SVGID_11_);}
	.st13{fill:url(#SVGID_12_);}
	.st14{fill:url(#SVGID_13_);}
	.st15{fill:url(#SVGID_14_);}
	.st16{fill:url(#SVGID_15_);}
	.st17{opacity:0.25;fill:#50565B;enable-background:new    ;}
</style>
<title>Artboard 2 copy 5</title>
<rect class="st0" width="400" height="400"/>
<g class="st1">
	<linearGradient id="SVGID_1_" gradientUnits="userSpaceOnUse" x1="315" y1="332.5" x2="325" y2="332.5">
		<stop  offset="0" style="stop-color:#B9785D"/>
		<stop  offset="1" style="stop-color:#8D5C4A"/>
	</linearGradient>
	<rect x="315" y="305" class="st2" width="10" height="55"/>
	<linearGradient id="SVGID_2_" gradientUnits="userSpaceOnUse" x1="60" y1="210" x2="260" y2="210">
		<stop  offset="0" style="stop-color:#EED25E"/>
		<stop  offset="1" style="stop-color:#FBEAA1"/>
	</linearGradient>
	<rect x="60" y="60" class="st3" width="200" height="300"/>
	<linearGradient id="SVGID_3_" gradientUnits="userSpaceOnUse" x1="50" y1="55" x2="270" y2="55">
		<stop  offset="1.472383e-03" style="stop-color:#D0E2E7"/>
		<stop  offset="1" style="stop-color:#818D92"/>
	</linearGradient>
	<rect x="50" y="50" class="st4" width="220" height="10"/>
	<linearGradient id="SVGID_4_" gradientUnits="userSpaceOnUse" x1="260" y1="90" x2="265" y2="90">
		<stop  offset="1.472383e-03" style="stop-color:#D0E2E7"/>
		<stop  offset="1" style="stop-color:#AFC0C5"/>
	</linearGradient>
	<rect x="260" y="80" class="st5" width="5" height="20"/>
	<linearGradient id="SVGID_5_" gradientUnits="userSpaceOnUse" x1="260" y1="130" x2="265" y2="130">
		<stop  offset="1.472383e-03" style="stop-color:#D0E2E7"/>
		<stop  offset="1" style="stop-color:#AFC0C5"/>
	</linearGradient>
	<rect x="260" y="120" class="st6" width="5" height="20"/>
	<linearGradient id="SVGID_6_" gradientUnits="userSpaceOnUse" x1="260" y1="170" x2="265" y2="170">
		<stop  offset="1.472383e-03" style="stop-color:#D0E2E7"/>
		<stop  offset="1" style="stop-color:#AFC0C5"/>
	</linearGradient>
	<rect x="260" y="160" class="st7" width="5" height="20"/>
	<linearGradient id="SVGID_7_" gradientUnits="userSpaceOnUse" x1="260" y1="210" x2="265" y2="210">
		<stop  offset="1.472383e-03" style="stop-color:#D0E2E7"/>
		<stop  offset="1" style="stop-color:#AFC0C5"/>
	</linearGradient>
	<rect x="260" y="200" class="st8" width="5" height="20"/>
	<linearGradient id="SVGID_8_" gradientUnits="userSpaceOnUse" x1="260" y1="250" x2="265" y2="250">
		<stop  offset="1.472383e-03" style="stop-color:#D0E2E7"/>
		<stop  offset="1" style="stop-color:#AFC0C5"/>
	</linearGradient>
	<rect x="260" y="240" class="st9" width="5" height="20"/>
	<linearGradient id="SVGID_9_" gradientUnits="userSpaceOnUse" x1="260" y1="295" x2="265" y2="295">
		<stop  offset="1.472383e-03" style="stop-color:#D0E2E7"/>
		<stop  offset="1" style="stop-color:#AFC0C5"/>
	</linearGradient>
	<rect x="260" y="280" class="st10" width="5" height="30"/>
	<linearGradient id="SVGID_10_" gradientUnits="userSpaceOnUse" x1="260" y1="345" x2="265" y2="345">
		<stop  offset="1.472383e-03" style="stop-color:#D0E2E7"/>
		<stop  offset="1" style="stop-color:#AFC0C5"/>
	</linearGradient>
	<rect x="260" y="330" class="st11" width="5" height="30"/>
	<linearGradient id="SVGID_11_" gradientUnits="userSpaceOnUse" x1="80" y1="45" x2="120" y2="45">
		<stop  offset="1.472383e-03" style="stop-color:#D0E2E7"/>
		<stop  offset="1" style="stop-color:#818D92"/>
	</linearGradient>
	<rect x="80" y="40" class="st12" width="40" height="10"/>
	<linearGradient id="SVGID_12_" gradientUnits="userSpaceOnUse" x1="200" y1="45" x2="240" y2="45">
		<stop  offset="1.472383e-03" style="stop-color:#D0E2E7"/>
		<stop  offset="1" style="stop-color:#818D92"/>
	</linearGradient>
	<rect x="200" y="40" class="st13" width="40" height="10"/>
	<linearGradient id="SVGID_13_" gradientUnits="userSpaceOnUse" x1="280" y1="300" x2="310" y2="300">
		<stop  offset="0" style="stop-color:#00E9BD"/>
		<stop  offset="1" style="stop-color:#007C65"/>
	</linearGradient>
	<circle class="st14" cx="295" cy="300" r="15"/>
	<linearGradient id="SVGID_14_" gradientUnits="userSpaceOnUse" x1="290" y1="285" x2="340" y2="285">
		<stop  offset="0" style="stop-color:#00E9BD"/>
		<stop  offset="1" style="stop-color:#007C65"/>
	</linearGradient>
	<circle class="st15" cx="315" cy="285" r="25"/>
	<linearGradient id="SVGID_15_" gradientUnits="userSpaceOnUse" x1="320" y1="295" x2="360" y2="295">
		<stop  offset="0" style="stop-color:#00E9BD"/>
		<stop  offset="1" style="stop-color:#007C65"/>
	</linearGradient>
	<circle class="st16" cx="340" cy="295" r="20"/>
	<rect x="235" y="185" class="st17" width="15" height="35"/>
	<rect x="170" y="185" class="st17" width="55" height="35"/>
	<rect x="120" y="185" class="st17" width="35" height="35"/>
	<rect x="70" y="185" class="st17" width="35" height="35"/>
	<rect x="235" y="145" class="st17" width="15" height="35"/>
	<rect x="170" y="145" class="st17" width="55" height="35"/>
	<rect x="120" y="145" class="st17" width="35" height="35"/>
	<rect x="70" y="145" class="st17" width="35" height="35"/>
	<rect x="235" y="105" class="st17" width="15" height="35"/>
	<rect x="170" y="105" class="st17" width="55" height="35"/>
	<rect x="120" y="105" class="st17" width="35" height="35"/>
	<rect x="70" y="105" class="st17" width="35" height="35"/>
	<rect x="235" y="65" class="st17" width="15" height="35"/>
	<rect x="170" y="65" class="st17" width="55" height="35"/>
	<rect x="120" y="65" class="st17" width="35" height="35"/>
	<rect x="70" y="65" class="st17" width="35" height="35"/>
	<rect x="235" y="225" class="st17" width="15" height="35"/>
	<rect x="170" y="225" class="st17" width="55" height="35"/>
	<rect x="120" y="225" class="st17" width="35" height="35"/>
	<rect x="70" y="225" class="st17" width="35" height="35"/>
	<rect x="235" y="265" class="st17" width="15" height="35"/>
	<rect x="170" y="265" class="st17" width="55" height="35"/>
	<rect x="120" y="265" class="st17" width="35" height="35"/>
	<rect x="70" y="265" class="st17" width="35" height="35"/>
	<rect x="225" y="305" class="st17" width="25" height="35"/>
	<rect x="195" y="305" class="st17" width="25" height="35"/>
	<rect x="120" y="305" class="st17" width="45" height="35"/>
	<rect x="70" y="305" class="st17" width="45" height="35"/>
</g>
</svg>
