<?xml version="1.0" encoding="utf-8"?>
<!-- Generator: Adobe Illustrator 23.1.1, SVG Export Plug-In . SVG Version: 6.00 Build 0)  -->
<svg version="1.1" id="Options" xmlns="http://www.w3.org/2000/svg" xmlns:xlink="http://www.w3.org/1999/xlink" x="0px" y="0px"
	 viewBox="0 0 400 400" style="enable-background:new 0 0 400 400;" xml:space="preserve">
<style type="text/css">
	.st0{fill:none;}
	.st1{fill:#828E93;}
	.st2{opacity:0.25;fill:#50565B;enable-background:new    ;}
</style>
<title>Artboard 2 copy 6</title>
<rect class="st0" width="400" height="400"/>
<circle class="st1" cx="55" cy="300" r="15"/>
<circle class="st1" cx="75" cy="205" r="25"/>
<circle class="st1" cx="337.5" cy="252.5" r="17.5"/>
<path class="st1" d="M129.9,336.3l-6.8-6.8c-4.1-4.1-4.1-10.8,0-14.9c0,0,0,0,0,0l4.1-4.1c2-2,4.7-3.1,7.5-3.1h7.1
	c2.1,0,4.1-0.6,5.9-1.8l1.1-0.8c4.2-2.8,9.7-2.2,13.3,1.3l0,0c0.8,0.8,1.5,1.7,2,2.7l6.8,13.6c2,4.1,1.2,9-2,12.2l-3.5,3.5
	c-1.4,1.4-2.3,3-2.8,4.9l-1,3.8c-1.2,4.7-5.4,8-10.2,8H150c-3.2,0-6.2-1.5-8.2-4l-11.1-13.9C130.4,336.8,130.1,336.5,129.9,336.3z"
	/>
<circle class="st2" cx="55" cy="300" r="15"/>
<circle class="st1" cx="75" cy="285" r="25"/>
<circle class="st1" cx="355" cy="195" r="25"/>
<circle class="st1" cx="355" cy="125" r="25"/>
<circle class="st2" cx="337.5" cy="252.5" r="17.5"/>
<circle class="st2" cx="75" cy="205" r="25"/>
<circle class="st1" cx="100" cy="170" r="20"/>
<circle class="st1" cx="115" cy="210" r="30"/>
<ellipse class="st1" cx="115" cy="282.5" rx="35" ry="32.5"/>
<ellipse class="st1" cx="330" cy="152.5" rx="35" ry="32.5"/>
<rect x="75" y="305" class="st1" width="10" height="55"/>
<rect x="90" y="215" class="st1" width="10" height="55"/>
<rect x="95" y="305" class="st1" width="10" height="55"/>
<rect x="340" y="210" class="st1" width="10" height="150"/>
<path class="st2" d="M129.9,337.1l-6.8-6.8c-4.1-4.1-4.1-10.8,0-14.9c0,0,0,0,0,0l4.1-4.1c2-2,4.7-3.1,7.5-3.1h7.1
	c2.1,0,4.1-0.6,5.9-1.8l1.1-0.8c4.2-2.8,9.7-2.2,13.3,1.3l0,0c0.8,0.8,1.5,1.7,2,2.7l6.8,13.6c2,4.1,1.2,9-2,12.2l-3.5,3.5
	c-1.4,1.4-2.3,3-2.8,4.9l-1,3.8c-1.2,4.7-5.4,8-10.2,8H150c-3.2,0-6.2-1.5-8.2-4L130.6,338C130.4,337.7,130.1,337.4,129.9,337.1z"/>
<path class="st1" d="M185.1,332.1l8.6-8.6c5.2-5.2,5.2-13.7,0-18.9l-5.2-5.2c-2.5-2.5-5.9-3.9-9.5-3.9h-9c-2.6,0-5.2-0.8-7.4-2.2
	l-1.4-1c-5.3-3.5-12.4-2.8-16.9,1.7l0,0c-1,1-1.9,2.2-2.5,3.5l-8.6,17.3c-2.6,5.2-1.6,11.4,2.5,15.5l4.5,4.5
	c1.7,1.7,2.9,3.9,3.5,6.2l1.2,4.9c1.5,6,6.9,10.1,13,10.1h1.7c4.1,0,7.9-1.8,10.4-5l14.1-17.6C184.4,332.8,184.7,332.5,185.1,332.1z
	"/>
<rect x="40" y="350" class="st1" width="80" height="10"/>
<rect x="120" y="350" class="st1" width="65" height="10"/>
<rect x="320" y="350" class="st1" width="40" height="10"/>
<rect x="200" y="300" class="st1" width="130" height="10"/>
<rect x="200" y="315" class="st1" width="130" height="10"/>
<rect x="200" y="325" class="st1" width="130" height="10"/>
<rect x="200" y="335" class="st1" width="10" height="25"/>
<rect x="320" y="335" class="st1" width="10" height="20"/>
<rect x="200" y="315" class="st2" width="130" height="10"/>
</svg>
