<?xml version="1.0" encoding="utf-8"?>
<!-- Generator: Adobe Illustrator 23.1.1, SVG Export Plug-In . SVG Version: 6.00 Build 0)  -->
<svg version="1.1" id="Options" xmlns="http://www.w3.org/2000/svg" xmlns:xlink="http://www.w3.org/1999/xlink" x="0px" y="0px"
	 viewBox="0 0 400 400" style="enable-background:new 0 0 400 400;" xml:space="preserve">
<style type="text/css">
	.st0{fill:none;}
	.st1{opacity:0.5;}
	.st2{fill:url(#SVGID_1_);}
	.st3{fill:url(#SVGID_2_);}
	.st4{opacity:0.25;fill:#50565B;enable-background:new    ;}
	.st5{fill:url(#SVGID_3_);}
	.st6{fill:url(#SVGID_4_);}
	.st7{fill:#828E93;}
	.st8{fill:url(#SVGID_5_);}
	.st9{fill:url(#SVGID_6_);}
	.st10{fill:url(#SVGID_7_);}
	.st11{fill:url(#SVGID_8_);}
	.st12{fill:url(#SVGID_9_);}
	.st13{fill:url(#SVGID_10_);}
	.st14{fill:url(#SVGID_11_);}
	.st15{fill:url(#SVGID_12_);}
	.st16{fill:url(#SVGID_13_);}
	.st17{fill:url(#SVGID_14_);}
	.st18{fill:url(#SVGID_15_);}
	.st19{fill:url(#SVGID_16_);}
	.st20{fill:url(#SVGID_17_);}
	.st21{fill:url(#SVGID_18_);}
	.st22{fill:url(#SVGID_19_);}
	.st23{fill:url(#SVGID_20_);}
	.st24{fill:url(#SVGID_21_);}
	.st25{fill:url(#SVGID_22_);}
	.st26{fill:url(#SVGID_23_);}
	.st27{fill:url(#SVGID_24_);}
</style>
<title>Artboard 2 copy 6</title>
<rect class="st0" width="400" height="400"/>
<g class="st1">
	<linearGradient id="SVGID_1_" gradientUnits="userSpaceOnUse" x1="75" y1="332.5" x2="85" y2="332.5">
		<stop  offset="0" style="stop-color:#E19176"/>
		<stop  offset="1" style="stop-color:#8D5C4A"/>
	</linearGradient>
	<rect x="75" y="305" class="st2" width="10" height="55"/>
	<linearGradient id="SVGID_2_" gradientUnits="userSpaceOnUse" x1="95" y1="332.5" x2="105" y2="332.5">
		<stop  offset="0" style="stop-color:#E19176"/>
		<stop  offset="1" style="stop-color:#8D5C4A"/>
	</linearGradient>
	<rect x="95" y="305" class="st3" width="10" height="55"/>
	<circle class="st4" cx="337.5" cy="252.5" r="17.5"/>
	<linearGradient id="SVGID_3_" gradientUnits="userSpaceOnUse" x1="340" y1="285" x2="350" y2="285">
		<stop  offset="0" style="stop-color:#E19176"/>
		<stop  offset="1" style="stop-color:#8D5C4A"/>
	</linearGradient>
	<rect x="340" y="210" class="st5" width="10" height="150"/>
	<linearGradient id="SVGID_4_" gradientUnits="userSpaceOnUse" x1="90" y1="242.5" x2="100" y2="242.5">
		<stop  offset="0" style="stop-color:#E19176"/>
		<stop  offset="1" style="stop-color:#8D5C4A"/>
	</linearGradient>
	<rect x="90" y="215" class="st6" width="10" height="55"/>
	<circle class="st7" cx="55" cy="300" r="15"/>
	<circle class="st7" cx="75" cy="205" r="25"/>
	<linearGradient id="SVGID_5_" gradientUnits="userSpaceOnUse" x1="320" y1="252.5" x2="355" y2="252.5">
		<stop  offset="0" style="stop-color:#00A68D"/>
		<stop  offset="1" style="stop-color:#007C65"/>
	</linearGradient>
	<circle class="st8" cx="337.5" cy="252.5" r="17.5"/>
	<path class="st7" d="M129.9,336.3l-6.8-6.8c-4.1-4.1-4.1-10.8,0-14.9l0,0l4.1-4.1c2-2,4.7-3.1,7.5-3.1h7.1c2.1,0,4.1-0.6,5.9-1.8
		l1.1-0.8c4.2-2.8,9.7-2.2,13.3,1.3l0,0c0.8,0.8,1.5,1.7,2,2.7l6.8,13.6c2,4.1,1.2,9-2,12.2l-3.5,3.5c-1.4,1.4-2.3,3-2.8,4.9l-1,3.8
		c-1.2,4.7-5.4,8-10.2,8H150c-3.2,0-6.2-1.5-8.2-4l-11.1-13.9C130.4,336.8,130.1,336.5,129.9,336.3z"/>
	<linearGradient id="SVGID_6_" gradientUnits="userSpaceOnUse" x1="40" y1="300" x2="70" y2="300">
		<stop  offset="0" style="stop-color:#00A68D"/>
		<stop  offset="1" style="stop-color:#007C65"/>
	</linearGradient>
	<circle class="st9" cx="55" cy="300" r="15"/>
	<linearGradient id="SVGID_7_" gradientUnits="userSpaceOnUse" x1="50" y1="285" x2="100" y2="285">
		<stop  offset="0" style="stop-color:#00E9BD"/>
		<stop  offset="1" style="stop-color:#007C65"/>
	</linearGradient>
	<circle class="st10" cx="75" cy="285" r="25"/>
	<linearGradient id="SVGID_8_" gradientUnits="userSpaceOnUse" x1="330" y1="195" x2="380" y2="195">
		<stop  offset="0" style="stop-color:#00E9BD"/>
		<stop  offset="1" style="stop-color:#007C65"/>
	</linearGradient>
	<circle class="st11" cx="355" cy="195" r="25"/>
	<linearGradient id="SVGID_9_" gradientUnits="userSpaceOnUse" x1="330" y1="125" x2="380" y2="125">
		<stop  offset="0" style="stop-color:#00E9BD"/>
		<stop  offset="1" style="stop-color:#007C65"/>
	</linearGradient>
	<circle class="st12" cx="355" cy="125" r="25"/>
	<linearGradient id="SVGID_10_" gradientUnits="userSpaceOnUse" x1="50" y1="205" x2="100" y2="205">
		<stop  offset="0" style="stop-color:#00A68D"/>
		<stop  offset="1" style="stop-color:#007C65"/>
	</linearGradient>
	<circle class="st13" cx="75" cy="205" r="25"/>
	<linearGradient id="SVGID_11_" gradientUnits="userSpaceOnUse" x1="80" y1="170" x2="120" y2="170">
		<stop  offset="0" style="stop-color:#00E9BD"/>
		<stop  offset="1" style="stop-color:#007C65"/>
	</linearGradient>
	<circle class="st14" cx="100" cy="170" r="20"/>
	<linearGradient id="SVGID_12_" gradientUnits="userSpaceOnUse" x1="85" y1="210" x2="145" y2="210">
		<stop  offset="0" style="stop-color:#00E9BD"/>
		<stop  offset="1" style="stop-color:#007C65"/>
	</linearGradient>
	<circle class="st15" cx="115" cy="210" r="30"/>
	<linearGradient id="SVGID_13_" gradientUnits="userSpaceOnUse" x1="80" y1="282.5" x2="150" y2="282.5">
		<stop  offset="0" style="stop-color:#00E9BD"/>
		<stop  offset="1" style="stop-color:#007C65"/>
	</linearGradient>
	<ellipse class="st16" cx="115" cy="282.5" rx="35" ry="32.5"/>
	<linearGradient id="SVGID_14_" gradientUnits="userSpaceOnUse" x1="295" y1="152.5" x2="365" y2="152.5">
		<stop  offset="0" style="stop-color:#00E9BD"/>
		<stop  offset="1" style="stop-color:#007C65"/>
	</linearGradient>
	<ellipse class="st17" cx="330" cy="152.5" rx="35" ry="32.5"/>
	<linearGradient id="SVGID_15_" gradientUnits="userSpaceOnUse" x1="120.025" y1="329.717" x2="171.9904" y2="329.717">
		<stop  offset="0" style="stop-color:#00A68D"/>
		<stop  offset="1" style="stop-color:#007C65"/>
	</linearGradient>
	<path class="st18" d="M129.9,337.1l-6.8-6.8c-4.1-4.1-4.1-10.8,0-14.9l0,0l4.1-4.1c2-2,4.7-3.1,7.5-3.1h7.1c2.1,0,4.1-0.6,5.9-1.8
		l1.1-0.8c4.2-2.8,9.7-2.2,13.3,1.3l0,0c0.8,0.8,1.5,1.7,2,2.7l6.8,13.6c2,4.1,1.2,9-2,12.2l-3.5,3.5c-1.4,1.4-2.3,3-2.8,4.9l-1,3.8
		c-1.2,4.7-5.4,8-10.2,8H150c-3.2,0-6.2-1.5-8.2-4L130.6,338C130.4,337.7,130.1,337.4,129.9,337.1z"/>
	<linearGradient id="SVGID_16_" gradientUnits="userSpaceOnUse" x1="131.7672" y1="323.0413" x2="197.6" y2="323.0413">
		<stop  offset="0" style="stop-color:#B9785D"/>
		<stop  offset="1" style="stop-color:#00A68D"/>
	</linearGradient>
	<path class="st19" d="M185.1,332.1l8.6-8.6c5.2-5.2,5.2-13.7,0-18.9l-5.2-5.2c-2.5-2.5-5.9-3.9-9.5-3.9h-9c-2.6,0-5.2-0.8-7.4-2.2
		l-1.4-1c-5.3-3.5-12.4-2.8-16.9,1.7l0,0c-1,1-1.9,2.2-2.5,3.5l-8.6,17.3c-2.6,5.2-1.6,11.4,2.5,15.5l4.5,4.5
		c1.7,1.7,2.9,3.9,3.5,6.2l1.2,4.9c1.5,6,6.9,10.1,13,10.1h1.7c4.1,0,7.9-1.8,10.4-5l14.1-17.6C184.4,332.8,184.7,332.5,185.1,332.1
		z"/>
	<linearGradient id="SVGID_17_" gradientUnits="userSpaceOnUse" x1="200" y1="305" x2="330" y2="305">
		<stop  offset="0" style="stop-color:#E19176"/>
		<stop  offset="1" style="stop-color:#B9785D"/>
	</linearGradient>
	<rect x="200" y="300" class="st20" width="130" height="10"/>
	<rect x="200" y="315" class="st7" width="130" height="10"/>
	<linearGradient id="SVGID_18_" gradientUnits="userSpaceOnUse" x1="200" y1="330" x2="330" y2="330">
		<stop  offset="0" style="stop-color:#E19176"/>
		<stop  offset="1" style="stop-color:#B9785D"/>
	</linearGradient>
	<rect x="200" y="325" class="st21" width="130" height="10"/>
	<linearGradient id="SVGID_19_" gradientUnits="userSpaceOnUse" x1="200" y1="347.5" x2="210" y2="347.5">
		<stop  offset="0" style="stop-color:#818D92"/>
		<stop  offset="1" style="stop-color:#50565B"/>
	</linearGradient>
	<rect x="200" y="335" class="st22" width="10" height="25"/>
	<linearGradient id="SVGID_20_" gradientUnits="userSpaceOnUse" x1="320" y1="345" x2="330" y2="345">
		<stop  offset="0" style="stop-color:#818D92"/>
		<stop  offset="1" style="stop-color:#50565B"/>
	</linearGradient>
	<rect x="320" y="335" class="st23" width="10" height="20"/>
	<linearGradient id="SVGID_21_" gradientUnits="userSpaceOnUse" x1="200" y1="320" x2="330" y2="320">
		<stop  offset="0" style="stop-color:#B9785D"/>
		<stop  offset="1" style="stop-color:#8D5C4A"/>
	</linearGradient>
	<rect x="200" y="315" class="st24" width="130" height="10"/>
	<linearGradient id="SVGID_22_" gradientUnits="userSpaceOnUse" x1="40" y1="355" x2="120" y2="355">
		<stop  offset="0" style="stop-color:#EED25E"/>
		<stop  offset="1" style="stop-color:#FBEAA1"/>
	</linearGradient>
	<rect x="40" y="350" class="st25" width="80" height="10"/>
	<linearGradient id="SVGID_23_" gradientUnits="userSpaceOnUse" x1="40" y1="355" x2="185" y2="355">
		<stop  offset="0" style="stop-color:#EED25E"/>
		<stop  offset="1" style="stop-color:#FBEAA1"/>
	</linearGradient>
	<rect x="40" y="350" class="st26" width="145" height="10"/>
	<linearGradient id="SVGID_24_" gradientUnits="userSpaceOnUse" x1="320" y1="355" x2="360" y2="355">
		<stop  offset="0" style="stop-color:#EED25E"/>
		<stop  offset="1" style="stop-color:#FBEAA1"/>
	</linearGradient>
	<rect x="320" y="350" class="st27" width="40" height="10"/>
</g>
</svg>
