<?xml version="1.0" encoding="utf-8"?>
<!-- Generator: Adobe Illustrator 23.1.1, SVG Export Plug-In . SVG Version: 6.00 Build 0)  -->
<svg version="1.1" id="Options" xmlns="http://www.w3.org/2000/svg" xmlns:xlink="http://www.w3.org/1999/xlink" x="0px" y="0px"
	 viewBox="0 0 400 400" style="enable-background:new 0 0 400 400;" xml:space="preserve">
<style type="text/css">
	.st0{fill:none;}
	.st1{fill:#828E93;}
	.st2{opacity:0.25;fill:#50565B;enable-background:new    ;}
</style>
<title>Artboard 2 copy 7</title>
<rect class="st0" width="400" height="400"/>
<rect x="310" y="240" class="st1" width="10" height="105"/>
<circle class="st1" cx="325" cy="220" r="35"/>
<circle class="st1" cx="290" cy="200" r="25"/>
<circle class="st1" cx="325" cy="185" r="15"/>
<circle class="st1" cx="307.5" cy="157.5" r="27.5"/>
<rect x="60" y="200" class="st1" width="5" height="55"/>
<polygon class="st1" points="330,300 295,300 290,295 325,295 "/>
<polygon class="st1" points="285,300 250,300 245,295 280,295 "/>
<polygon class="st1" points="305,360 240,360 230,350 295,350 "/>
<polygon class="st1" points="210,360 145,360 135,350 200,350 "/>
<polygon class="st1" points="115,360 50,360 40,350 105,350 "/>
<path class="st1" d="M51.2,150h22.6c6.2,0,11.2,5,11.2,11.2v27.6c0,6.2-5,11.2-11.2,11.2H51.2C45,200,40,195,40,188.8v-27.6
	C40,155,45,150,51.2,150z"/>
<path class="st2" d="M61.2,160h2.6c6.2,0,11.2,5,11.2,11.2l0,0c0,6.2-5,11.2-11.2,11.2h-2.6c-6.2,0-11.2-5-11.2-11.2l0,0
	C50,165,55,160,61.2,160z"/>
<circle class="st1" cx="98.6" cy="325" r="20"/>
<circle class="st1" cx="198.7" cy="325" r="20"/>
<path class="st1" d="M63.5,320H70c2.3,0,4.4-0.9,6-2.5l0,0c1.6-1.6,3.7-2.5,6-2.5h33c2.3,0,4.4,0.9,6,2.5l0,0c1.6,1.6,3.7,2.5,6,2.5
	h43c2.3,0,4.4-0.9,6.1-2.5l0,0c1.6-1.6,3.7-2.5,6-2.5h33c2.3,0,4.4,0.9,6.1,2.5l0,0c1.6,1.6,3.7,2.5,6,2.5h23c4.7,0,8.5-3.8,8.5-8.5
	v-1.2c0-3.2-1.8-6.2-4.7-7.6l-34.6-17.3c-0.5-0.2-0.9-0.5-1.3-0.8l-37.6-28.2c-1.2-0.9-2.6-1.5-4.1-1.6l-76.3-9.5
	c-1-0.1-2.1-0.1-3.1,0.2l-14.2,3.6c-15.6,3.9-29.2,28.5-38.2,41.9l-3.2,4.8c-1.8,2.7-1.9,6.2-0.3,9l14.9,11.1
	C57.5,318.4,60.4,320.1,63.5,320z"/>
<polygon class="st2" points="80,285 100,255 140,260 140,285 "/>
<polygon class="st2" points="145,260 145,285 195,285 180,265 "/>
<circle class="st1" cx="218.5" cy="272.9" r="12.1"/>
<circle class="st1" cx="278.8" cy="272.9" r="12.1"/>
<path class="st1" d="M197.3,269.9h3.9c1.4,0,2.7-0.5,3.6-1.5l0,0c1-1,2.3-1.5,3.6-1.5h19.9c1.4,0,2.7,0.5,3.6,1.5l0,0
	c1,1,2.3,1.5,3.6,1.5h25.9c1.4,0,2.7-0.5,3.6-1.5l0,0c1-1,2.3-1.5,3.6-1.5h19.9c1.4,0,2.7,0.5,3.6,1.5l0,0c1,1,2.3,1.5,3.6,1.5h13.8
	c2.8,0,5.1-2.3,5.1-5.1v-0.7c0-2-1.1-3.7-2.9-4.6L291.3,249c-0.3-0.1-0.5-0.3-0.8-0.5l-22.7-17c-0.7-0.5-1.6-0.9-2.5-1l-46-5.7
	c-0.6-0.1-1.3,0-1.9,0.1L209,227c-9.4,2.4-17.6,17.2-23,25.3l-1.9,2.9c-1.1,1.6-1.2,3.7-0.2,5.4l9,6.7
	C193.8,268.9,195.5,269.9,197.3,269.9z"/>
<polygon class="st2" points="207.3,248.8 219.3,230.8 243.4,233.8 243.4,248.8 "/>
<polygon class="st2" points="246.4,233.8 246.4,248.8 276.6,248.8 267.5,236.8 "/>
<circle class="st2" cx="100" cy="325" r="10"/>
<circle class="st2" cx="200" cy="325" r="10"/>
<circle class="st2" cx="220" cy="275" r="5"/>
<circle class="st2" cx="280" cy="275" r="5"/>
</svg>
