<?xml version="1.0" encoding="utf-8"?>
<!-- Generator: Adobe Illustrator 23.1.1, SVG Export Plug-In . SVG Version: 6.00 Build 0)  -->
<svg version="1.1" id="Options" xmlns="http://www.w3.org/2000/svg" xmlns:xlink="http://www.w3.org/1999/xlink" x="0px" y="0px"
	 viewBox="0 0 400 400" style="enable-background:new 0 0 400 400;" xml:space="preserve">
<style type="text/css">
	.st0{fill:none;}
	.st1{opacity:0.5;}
	.st2{fill:url(#SVGID_1_);}
	.st3{fill:url(#SVGID_2_);}
	.st4{fill:url(#SVGID_3_);}
	.st5{fill:url(#SVGID_4_);}
	.st6{fill:url(#SVGID_5_);}
	.st7{fill:url(#SVGID_6_);}
	.st8{fill:url(#SVGID_7_);}
	.st9{fill:url(#SVGID_8_);}
	.st10{fill:url(#SVGID_9_);}
	.st11{opacity:0.25;fill:#FFFFFF;enable-background:new    ;}
	.st12{fill:url(#SVGID_10_);}
	.st13{fill:url(#SVGID_11_);}
	.st14{fill:url(#SVGID_12_);}
	.st15{fill:url(#SVGID_13_);}
	.st16{fill:url(#SVGID_14_);}
	.st17{fill:url(#SVGID_15_);}
	.st18{fill:url(#SVGID_16_);}
	.st19{opacity:0.25;fill:#50565B;enable-background:new    ;}
	.st20{fill:#007C65;}
	.st21{fill:url(#SVGID_17_);}
	.st22{fill:url(#SVGID_18_);}
	.st23{fill:url(#SVGID_19_);}
	.st24{fill:url(#SVGID_20_);}
	.st25{fill:url(#SVGID_21_);}
</style>
<title>Artboard 2 copy 7</title>
<rect class="st0" width="400" height="400"/>
<g class="st1">
	<linearGradient id="SVGID_1_" gradientUnits="userSpaceOnUse" x1="206.4" y1="272.9" x2="230.6" y2="272.9">
		<stop  offset="0" style="stop-color:#818D92"/>
		<stop  offset="1" style="stop-color:#50565B"/>
	</linearGradient>
	<circle class="st2" cx="218.5" cy="272.9" r="12.1"/>
	<linearGradient id="SVGID_2_" gradientUnits="userSpaceOnUse" x1="215" y1="275" x2="225" y2="275">
		<stop  offset="0" style="stop-color:#50565B"/>
		<stop  offset="1" style="stop-color:#3C4044"/>
	</linearGradient>
	<circle class="st3" cx="220" cy="275" r="5"/>
	<linearGradient id="SVGID_3_" gradientUnits="userSpaceOnUse" x1="290" y1="297.5" x2="330" y2="297.5">
		<stop  offset="1.472383e-03" style="stop-color:#D0E2E7"/>
		<stop  offset="1" style="stop-color:#AFC0C5"/>
	</linearGradient>
	<polygon class="st4" points="330,300 295,300 290,295 325,295 	"/>
	<linearGradient id="SVGID_4_" gradientUnits="userSpaceOnUse" x1="245" y1="297.5" x2="285" y2="297.5">
		<stop  offset="1.472383e-03" style="stop-color:#D0E2E7"/>
		<stop  offset="1" style="stop-color:#AFC0C5"/>
	</linearGradient>
	<polygon class="st5" points="285,300 250,300 245,295 280,295 	"/>
	<linearGradient id="SVGID_5_" gradientUnits="userSpaceOnUse" x1="230" y1="355" x2="305" y2="355">
		<stop  offset="1.472383e-03" style="stop-color:#D0E2E7"/>
		<stop  offset="1" style="stop-color:#AFC0C5"/>
	</linearGradient>
	<polygon class="st6" points="305,360 240,360 230,350 295,350 	"/>
	<linearGradient id="SVGID_6_" gradientUnits="userSpaceOnUse" x1="135" y1="355" x2="210" y2="355">
		<stop  offset="1.472383e-03" style="stop-color:#D0E2E7"/>
		<stop  offset="1" style="stop-color:#AFC0C5"/>
	</linearGradient>
	<polygon class="st7" points="210,360 145,360 135,350 200,350 	"/>
	<linearGradient id="SVGID_7_" gradientUnits="userSpaceOnUse" x1="40" y1="355" x2="115" y2="355">
		<stop  offset="1.472383e-03" style="stop-color:#D0E2E7"/>
		<stop  offset="1" style="stop-color:#AFC0C5"/>
	</linearGradient>
	<polygon class="st8" points="115,360 50,360 40,350 105,350 	"/>
	<linearGradient id="SVGID_8_" gradientUnits="userSpaceOnUse" x1="60" y1="227.5" x2="65" y2="227.5">
		<stop  offset="1.472383e-03" style="stop-color:#D0E2E7"/>
		<stop  offset="1" style="stop-color:#AFC0C5"/>
	</linearGradient>
	<rect x="60" y="200" class="st9" width="5" height="55"/>
	<linearGradient id="SVGID_9_" gradientUnits="userSpaceOnUse" x1="40" y1="175" x2="85" y2="175">
		<stop  offset="0" style="stop-color:#818D92"/>
		<stop  offset="1" style="stop-color:#50565B"/>
	</linearGradient>
	<path class="st10" d="M51.2,150h22.6c6.2,0,11.2,5,11.2,11.2v27.6c0,6.2-5,11.2-11.2,11.2H51.2C45,200,40,195,40,188.8v-27.6
		C40,155,45,150,51.2,150z"/>
	<path class="st11" d="M61.2,160h2.6c6.2,0,11.2,5,11.2,11.2l0,0c0,6.2-5,11.2-11.2,11.2h-2.6c-6.2,0-11.2-5-11.2-11.2l0,0
		C50,165,55,160,61.2,160z"/>
	<linearGradient id="SVGID_10_" gradientUnits="userSpaceOnUse" x1="78.6" y1="325" x2="118.6" y2="325">
		<stop  offset="0" style="stop-color:#818D92"/>
		<stop  offset="1" style="stop-color:#50565B"/>
	</linearGradient>
	<circle class="st12" cx="98.6" cy="325" r="20"/>
	<linearGradient id="SVGID_11_" gradientUnits="userSpaceOnUse" x1="178.7" y1="325" x2="218.7" y2="325">
		<stop  offset="0" style="stop-color:#818D92"/>
		<stop  offset="1" style="stop-color:#50565B"/>
	</linearGradient>
	<circle class="st13" cx="198.7" cy="325" r="20"/>
	<linearGradient id="SVGID_12_" gradientUnits="userSpaceOnUse" x1="90" y1="325" x2="110" y2="325">
		<stop  offset="0" style="stop-color:#50565B"/>
		<stop  offset="1" style="stop-color:#3C4044"/>
	</linearGradient>
	<circle class="st14" cx="100" cy="325" r="10"/>
	<linearGradient id="SVGID_13_" gradientUnits="userSpaceOnUse" x1="190" y1="325" x2="210" y2="325">
		<stop  offset="0" style="stop-color:#50565B"/>
		<stop  offset="1" style="stop-color:#3C4044"/>
	</linearGradient>
	<circle class="st15" cx="200" cy="325" r="10"/>
	<linearGradient id="SVGID_14_" gradientUnits="userSpaceOnUse" x1="266.7" y1="272.9" x2="290.9" y2="272.9">
		<stop  offset="0" style="stop-color:#818D92"/>
		<stop  offset="1" style="stop-color:#50565B"/>
	</linearGradient>
	<circle class="st16" cx="278.8" cy="272.9" r="12.1"/>
	<linearGradient id="SVGID_15_" gradientUnits="userSpaceOnUse" x1="275" y1="275" x2="285" y2="275">
		<stop  offset="0" style="stop-color:#50565B"/>
		<stop  offset="1" style="stop-color:#3C4044"/>
	</linearGradient>
	<circle class="st17" cx="280" cy="275" r="5"/>
	<linearGradient id="SVGID_16_" gradientUnits="userSpaceOnUse" x1="183.2085" y1="247.3293" x2="314.6" y2="247.3293">
		<stop  offset="1.472383e-03" style="stop-color:#D0E2E7"/>
		<stop  offset="1" style="stop-color:#818D92"/>
	</linearGradient>
	<path class="st18" d="M197.3,269.9h3.9c1.4,0,2.7-0.5,3.6-1.5l0,0c1-1,2.3-1.5,3.6-1.5h19.9c1.4,0,2.7,0.5,3.6,1.5l0,0
		c1,1,2.3,1.5,3.6,1.5h25.9c1.4,0,2.7-0.5,3.6-1.5l0,0c1-1,2.3-1.5,3.6-1.5h19.9c1.4,0,2.7,0.5,3.6,1.5l0,0c1,1,2.3,1.5,3.6,1.5
		h13.8c2.8,0,5.1-2.3,5.1-5.1v-0.7c0-2-1.1-3.7-2.9-4.6L291.3,249c-0.3-0.1-0.5-0.3-0.8-0.5l-22.7-17c-0.7-0.5-1.6-0.9-2.5-1
		l-46-5.7c-0.6-0.1-1.3,0-1.9,0.1L209,227c-9.4,2.4-17.6,17.2-23,25.3l-1.9,2.9c-1.1,1.6-1.2,3.7-0.2,5.4l9,6.7
		C193.8,268.9,195.5,269.9,197.3,269.9z"/>
	<polygon class="st19" points="207.3,248.8 219.3,230.8 243.4,233.8 243.4,248.8 	"/>
	<polygon class="st19" points="246.4,233.8 246.4,248.8 276.6,248.8 267.5,236.8 	"/>
	<circle class="st20" cx="325" cy="185" r="15"/>
	<linearGradient id="SVGID_17_" gradientUnits="userSpaceOnUse" x1="310" y1="292.5" x2="320" y2="292.5">
		<stop  offset="0" style="stop-color:#E19176"/>
		<stop  offset="1" style="stop-color:#8D5C4A"/>
	</linearGradient>
	<rect x="310" y="240" class="st21" width="10" height="105"/>
	<linearGradient id="SVGID_18_" gradientUnits="userSpaceOnUse" x1="290" y1="220" x2="360" y2="220">
		<stop  offset="0" style="stop-color:#00E9BD"/>
		<stop  offset="1" style="stop-color:#007C65"/>
	</linearGradient>
	<circle class="st22" cx="325" cy="220" r="35"/>
	<linearGradient id="SVGID_19_" gradientUnits="userSpaceOnUse" x1="280" y1="157.5" x2="335" y2="157.5">
		<stop  offset="0" style="stop-color:#00E9BD"/>
		<stop  offset="1" style="stop-color:#007C65"/>
	</linearGradient>
	<circle class="st23" cx="307.5" cy="157.5" r="27.5"/>
	<linearGradient id="SVGID_20_" gradientUnits="userSpaceOnUse" x1="265" y1="200" x2="315" y2="200">
		<stop  offset="0" style="stop-color:#00E9BD"/>
		<stop  offset="1" style="stop-color:#007C65"/>
	</linearGradient>
	<circle class="st24" cx="290" cy="200" r="25"/>
	<linearGradient id="SVGID_21_" gradientUnits="userSpaceOnUse" x1="266.7522" y1="282.6222" x2="36.4049" y2="282.6222">
		<stop  offset="1.472383e-03" style="stop-color:#D0E2E7"/>
		<stop  offset="1" style="stop-color:#818D92"/>
	</linearGradient>
	<path class="st25" d="M63.5,320H70c2.3,0,4.4-0.9,6-2.5l0,0c1.6-1.6,3.7-2.5,6-2.5h33c2.3,0,4.4,0.9,6,2.5l0,0
		c1.6,1.6,3.7,2.5,6,2.5h43c2.3,0,4.4-0.9,6.1-2.5l0,0c1.6-1.6,3.7-2.5,6-2.5h33c2.3,0,4.4,0.9,6.1,2.5l0,0c1.6,1.6,3.7,2.5,6,2.5
		h23c4.7,0,8.5-3.8,8.5-8.5v-1.2c0-3.2-1.8-6.2-4.7-7.6l-34.6-17.3c-0.5-0.2-0.9-0.5-1.3-0.8l-37.6-28.2c-1.2-0.9-2.6-1.5-4.1-1.6
		l-76.3-9.5c-1-0.1-2.1-0.1-3.1,0.2l-14.2,3.6C67.2,253,53.6,277.6,44.6,291l-3.2,4.8c-1.8,2.7-1.9,6.2-0.3,9L56,315.9
		C57.5,318.4,60.4,320.1,63.5,320z"/>
	<polygon class="st19" points="80,285 100,255 140,260 140,285 	"/>
	<polygon class="st19" points="145,260 145,285 195,285 180,265 	"/>
</g>
</svg>
