<?xml version="1.0" encoding="utf-8"?>
<!-- Generator: Adobe Illustrator 23.1.1, SVG Export Plug-In . SVG Version: 6.00 Build 0)  -->
<svg version="1.1" id="Options" xmlns="http://www.w3.org/2000/svg" xmlns:xlink="http://www.w3.org/1999/xlink" x="0px" y="0px"
	 viewBox="0 0 400 400" style="enable-background:new 0 0 400 400;" xml:space="preserve">
<style type="text/css">
	.st0{fill:none;}
	.st1{fill:#828E93;}
	.st2{opacity:0.25;fill:#50565B;enable-background:new    ;}
</style>
<title>Artboard 2 copy 8</title>
<rect class="st0" width="400" height="400"/>
<rect x="60" y="115" class="st1" width="260" height="245"/>
<rect x="40" y="95" class="st1" width="300" height="20"/>
<rect x="60" y="65" class="st1" width="100" height="30"/>
<rect x="200" y="80" class="st1" width="60" height="15"/>
<rect x="315" y="150" class="st1" width="10" height="40"/>
<rect x="315" y="225" class="st1" width="10" height="40"/>
<rect x="315" y="300" class="st1" width="10" height="40"/>
<rect x="80" y="135" class="st2" width="40" height="55"/>
<rect x="140" y="135" class="st2" width="40" height="55"/>
<rect x="195" y="285" class="st2" width="70" height="55"/>
<rect x="195" y="210" class="st2" width="70" height="55"/>
<rect x="195" y="135" class="st2" width="70" height="55"/>
<rect x="280" y="135" class="st2" width="20" height="55"/>
<rect x="80" y="210" class="st2" width="40" height="55"/>
<rect x="140" y="210" class="st2" width="40" height="55"/>
<rect x="280" y="210" class="st2" width="20" height="55"/>
<rect x="80" y="285" class="st2" width="40" height="55"/>
<rect x="140" y="285" class="st2" width="40" height="55"/>
<rect x="280" y="285" class="st2" width="20" height="55"/>
</svg>
