<?xml version="1.0" encoding="utf-8"?>
<!-- Generator: Adobe Illustrator 23.1.1, SVG Export Plug-In . SVG Version: 6.00 Build 0)  -->
<svg version="1.1" id="Options" xmlns="http://www.w3.org/2000/svg" xmlns:xlink="http://www.w3.org/1999/xlink" x="0px" y="0px"
	 viewBox="0 0 400 400" style="enable-background:new 0 0 400 400;" xml:space="preserve">
<style type="text/css">
	.st0{fill:none;}
	.st1{opacity:0.5;}
	.st2{fill:url(#SVGID_1_);}
	.st3{fill:url(#SVGID_2_);}
	.st4{fill:url(#SVGID_3_);}
	.st5{fill:url(#SVGID_4_);}
	.st6{fill:url(#SVGID_5_);}
	.st7{fill:url(#SVGID_6_);}
	.st8{fill:url(#SVGID_7_);}
	.st9{fill:url(#SVGID_8_);}
	.st10{fill:url(#SVGID_9_);}
	.st11{fill:url(#SVGID_10_);}
	.st12{fill:url(#SVGID_11_);}
	.st13{fill:url(#SVGID_12_);}
	.st14{fill:url(#SVGID_13_);}
	.st15{fill:url(#SVGID_14_);}
	.st16{fill:url(#SVGID_15_);}
	.st17{fill:url(#SVGID_16_);}
	.st18{fill:url(#SVGID_17_);}
	.st19{fill:url(#SVGID_18_);}
	.st20{fill:url(#SVGID_19_);}
	.st21{opacity:0.25;fill:#50565B;enable-background:new    ;}
	.st22{fill:url(#SVGID_20_);}
	.st23{fill:url(#SVGID_21_);}
	.st24{fill:url(#SVGID_22_);}
	.st25{fill:url(#SVGID_23_);}
	.st26{fill:url(#SVGID_24_);}
	.st27{fill:url(#SVGID_25_);}
	.st28{fill:url(#SVGID_26_);}
	.st29{fill:url(#SVGID_27_);}
	.st30{fill:url(#SVGID_28_);}
	.st31{fill:url(#SVGID_29_);}
	.st32{fill:url(#SVGID_30_);}
	.st33{fill:url(#SVGID_31_);}
</style>
<rect class="st0" width="400" height="400"/>
<title>Artboard 2 copy 9</title>
<g class="st1">
	<linearGradient id="SVGID_1_" gradientUnits="userSpaceOnUse" x1="60" y1="237.5" x2="320" y2="237.5">
		<stop  offset="0" style="stop-color:#EED25E"/>
		<stop  offset="1" style="stop-color:#FBEAA1"/>
	</linearGradient>
	<rect x="60" y="115" class="st2" width="260" height="245"/>
	<linearGradient id="SVGID_2_" gradientUnits="userSpaceOnUse" x1="40" y1="105" x2="340" y2="105">
		<stop  offset="1.472383e-03" style="stop-color:#D0E2E7"/>
		<stop  offset="1" style="stop-color:#818D92"/>
	</linearGradient>
	<rect x="40" y="95" class="st3" width="300" height="20"/>
	<linearGradient id="SVGID_3_" gradientUnits="userSpaceOnUse" x1="60" y1="80" x2="160" y2="80">
		<stop  offset="1.472383e-03" style="stop-color:#D0E2E7"/>
		<stop  offset="1" style="stop-color:#818D92"/>
	</linearGradient>
	<rect x="60" y="65" class="st4" width="100" height="30"/>
	<linearGradient id="SVGID_4_" gradientUnits="userSpaceOnUse" x1="200" y1="87.5" x2="260" y2="87.5">
		<stop  offset="1.472383e-03" style="stop-color:#D0E2E7"/>
		<stop  offset="1" style="stop-color:#818D92"/>
	</linearGradient>
	<rect x="200" y="80" class="st5" width="60" height="15"/>
	<linearGradient id="SVGID_5_" gradientUnits="userSpaceOnUse" x1="325" y1="104.2292" x2="325" y2="399.5539">
		<stop  offset="1.472383e-03" style="stop-color:#D0E2E7"/>
		<stop  offset="1" style="stop-color:#AFC0C5"/>
	</linearGradient>
	<rect x="320" y="125" class="st6" width="10" height="40"/>
	<linearGradient id="SVGID_6_" gradientUnits="userSpaceOnUse" x1="325" y1="104.2292" x2="325" y2="399.5539">
		<stop  offset="1.472383e-03" style="stop-color:#D0E2E7"/>
		<stop  offset="1" style="stop-color:#AFC0C5"/>
	</linearGradient>
	<rect x="320" y="200" class="st7" width="10" height="40"/>
	<linearGradient id="SVGID_7_" gradientUnits="userSpaceOnUse" x1="325" y1="104.2292" x2="325" y2="399.5539">
		<stop  offset="1.472383e-03" style="stop-color:#D0E2E7"/>
		<stop  offset="1" style="stop-color:#AFC0C5"/>
	</linearGradient>
	<rect x="320" y="270" class="st8" width="10" height="40"/>
	<linearGradient id="SVGID_8_" gradientUnits="userSpaceOnUse" x1="355" y1="104.2292" x2="355" y2="399.5539">
		<stop  offset="1.472383e-03" style="stop-color:#D0E2E7"/>
		<stop  offset="1" style="stop-color:#AFC0C5"/>
	</linearGradient>
	<rect x="350" y="135" class="st9" width="10" height="40"/>
	<linearGradient id="SVGID_9_" gradientUnits="userSpaceOnUse" x1="355" y1="104.2292" x2="355" y2="399.5539">
		<stop  offset="1.472383e-03" style="stop-color:#D0E2E7"/>
		<stop  offset="1" style="stop-color:#AFC0C5"/>
	</linearGradient>
	<rect x="350" y="210" class="st10" width="10" height="40"/>
	<linearGradient id="SVGID_10_" gradientUnits="userSpaceOnUse" x1="355" y1="104.2292" x2="355" y2="399.5539">
		<stop  offset="1.472383e-03" style="stop-color:#D0E2E7"/>
		<stop  offset="1" style="stop-color:#AFC0C5"/>
	</linearGradient>
	<rect x="350" y="285" class="st11" width="10" height="40"/>
	<linearGradient id="SVGID_11_" gradientUnits="userSpaceOnUse" x1="340" y1="104.2292" x2="340" y2="399.5539">
		<stop  offset="1.472383e-03" style="stop-color:#D0E2E7"/>
		<stop  offset="1" style="stop-color:#AFC0C5"/>
	</linearGradient>
	<rect x="320" y="155" class="st12" width="40" height="40"/>
	<linearGradient id="SVGID_12_" gradientUnits="userSpaceOnUse" x1="340" y1="104.2292" x2="340" y2="399.5539">
		<stop  offset="1.472383e-03" style="stop-color:#D0E2E7"/>
		<stop  offset="1" style="stop-color:#AFC0C5"/>
	</linearGradient>
	<rect x="320" y="225" class="st13" width="40" height="40"/>
	<linearGradient id="SVGID_13_" gradientUnits="userSpaceOnUse" x1="340" y1="104.2292" x2="340" y2="399.5539">
		<stop  offset="1.472383e-03" style="stop-color:#D0E2E7"/>
		<stop  offset="1" style="stop-color:#AFC0C5"/>
	</linearGradient>
	<rect x="320" y="305" class="st14" width="40" height="40"/>
	<linearGradient id="SVGID_14_" gradientUnits="userSpaceOnUse" x1="327.5" y1="104.2292" x2="327.5" y2="399.5539">
		<stop  offset="1.472383e-03" style="stop-color:#D0E2E7"/>
		<stop  offset="1" style="stop-color:#AFC0C5"/>
	</linearGradient>
	<rect x="315" y="195" class="st15" width="25" height="5"/>
	<linearGradient id="SVGID_15_" gradientUnits="userSpaceOnUse" x1="327.5" y1="104.2292" x2="327.5" y2="399.5539">
		<stop  offset="1.472383e-03" style="stop-color:#D0E2E7"/>
		<stop  offset="1" style="stop-color:#AFC0C5"/>
	</linearGradient>
	<rect x="315" y="120" class="st16" width="25" height="5"/>
	<linearGradient id="SVGID_16_" gradientUnits="userSpaceOnUse" x1="350" y1="104.2292" x2="350" y2="399.5539">
		<stop  offset="1.472383e-03" style="stop-color:#D0E2E7"/>
		<stop  offset="1" style="stop-color:#AFC0C5"/>
	</linearGradient>
	<rect x="340" y="130" class="st17" width="20" height="5"/>
	<linearGradient id="SVGID_17_" gradientUnits="userSpaceOnUse" x1="350" y1="104.2292" x2="350" y2="399.5539">
		<stop  offset="1.472383e-03" style="stop-color:#D0E2E7"/>
		<stop  offset="1" style="stop-color:#AFC0C5"/>
	</linearGradient>
	<rect x="340" y="205" class="st18" width="20" height="5"/>
	<linearGradient id="SVGID_18_" gradientUnits="userSpaceOnUse" x1="350" y1="104.2292" x2="350" y2="399.5539">
		<stop  offset="1.472383e-03" style="stop-color:#D0E2E7"/>
		<stop  offset="1" style="stop-color:#AFC0C5"/>
	</linearGradient>
	<rect x="340" y="280" class="st19" width="20" height="5"/>
	<linearGradient id="SVGID_19_" gradientUnits="userSpaceOnUse" x1="327.5" y1="104.2292" x2="327.5" y2="399.5539">
		<stop  offset="1.472383e-03" style="stop-color:#D0E2E7"/>
		<stop  offset="1" style="stop-color:#AFC0C5"/>
	</linearGradient>
	<rect x="315" y="265" class="st20" width="25" height="5"/>
	<rect x="80" y="135" class="st21" width="40" height="55"/>
	<rect x="140" y="135" class="st21" width="40" height="55"/>
	<rect x="195" y="285" class="st21" width="70" height="55"/>
	<rect x="195" y="210" class="st21" width="70" height="55"/>
	<rect x="195" y="135" class="st21" width="70" height="55"/>
	<rect x="280" y="135" class="st21" width="20" height="55"/>
	<rect x="80" y="210" class="st21" width="40" height="55"/>
	<rect x="140" y="210" class="st21" width="40" height="55"/>
	<rect x="280" y="210" class="st21" width="20" height="55"/>
	<rect x="80" y="285" class="st21" width="40" height="55"/>
	<rect x="140" y="285" class="st21" width="40" height="55"/>
	<rect x="280" y="285" class="st21" width="20" height="55"/>
	<rect x="70" y="135" class="st21" width="120" height="5"/>
	<rect x="70" y="210" class="st21" width="120" height="5"/>
	<rect x="70" y="285" class="st21" width="120" height="5"/>
	<linearGradient id="SVGID_20_" gradientUnits="userSpaceOnUse" x1="45" y1="82.2537" x2="45" y2="383.0561">
		<stop  offset="1.472383e-03" style="stop-color:#D0E2E7"/>
		<stop  offset="1" style="stop-color:#AFC0C5"/>
	</linearGradient>
	<rect x="40" y="135" class="st22" width="10" height="40"/>
	<linearGradient id="SVGID_21_" gradientUnits="userSpaceOnUse" x1="45" y1="82.2537" x2="45" y2="383.0561">
		<stop  offset="1.472383e-03" style="stop-color:#D0E2E7"/>
		<stop  offset="1" style="stop-color:#AFC0C5"/>
	</linearGradient>
	<rect x="40" y="210" class="st23" width="10" height="40"/>
	<linearGradient id="SVGID_22_" gradientUnits="userSpaceOnUse" x1="45" y1="82.2537" x2="45" y2="383.0561">
		<stop  offset="1.472383e-03" style="stop-color:#D0E2E7"/>
		<stop  offset="1" style="stop-color:#AFC0C5"/>
	</linearGradient>
	<rect x="40" y="285" class="st24" width="10" height="40"/>
	<linearGradient id="SVGID_23_" gradientUnits="userSpaceOnUse" x1="60" y1="82.2537" x2="60" y2="383.0561">
		<stop  offset="1.472383e-03" style="stop-color:#D0E2E7"/>
		<stop  offset="1" style="stop-color:#AFC0C5"/>
	</linearGradient>
	<rect x="40" y="155" class="st25" width="40" height="40"/>
	<linearGradient id="SVGID_24_" gradientUnits="userSpaceOnUse" x1="60" y1="82.2537" x2="60" y2="383.0561">
		<stop  offset="1.472383e-03" style="stop-color:#D0E2E7"/>
		<stop  offset="1" style="stop-color:#AFC0C5"/>
	</linearGradient>
	<rect x="40" y="225" class="st26" width="40" height="40"/>
	<linearGradient id="SVGID_25_" gradientUnits="userSpaceOnUse" x1="60" y1="82.2537" x2="60" y2="383.0561">
		<stop  offset="1.472383e-03" style="stop-color:#D0E2E7"/>
		<stop  offset="1" style="stop-color:#AFC0C5"/>
	</linearGradient>
	<rect x="40" y="305" class="st27" width="40" height="40"/>
	<linearGradient id="SVGID_26_" gradientUnits="userSpaceOnUse" x1="72.5" y1="82.2537" x2="72.5" y2="383.0561">
		<stop  offset="1.472383e-03" style="stop-color:#D0E2E7"/>
		<stop  offset="1" style="stop-color:#AFC0C5"/>
	</linearGradient>
	<rect x="60" y="195" class="st28" width="25" height="5"/>
	<linearGradient id="SVGID_27_" gradientUnits="userSpaceOnUse" x1="72.5" y1="82.2537" x2="72.5" y2="383.0561">
		<stop  offset="1.472383e-03" style="stop-color:#D0E2E7"/>
		<stop  offset="1" style="stop-color:#AFC0C5"/>
	</linearGradient>
	<rect x="60" y="120" class="st29" width="25" height="5"/>
	<linearGradient id="SVGID_28_" gradientUnits="userSpaceOnUse" x1="50" y1="82.2537" x2="50" y2="383.0561">
		<stop  offset="1.472383e-03" style="stop-color:#D0E2E7"/>
		<stop  offset="1" style="stop-color:#AFC0C5"/>
	</linearGradient>
	<rect x="40" y="130" class="st30" width="20" height="5"/>
	<linearGradient id="SVGID_29_" gradientUnits="userSpaceOnUse" x1="50" y1="82.2537" x2="50" y2="383.0561">
		<stop  offset="1.472383e-03" style="stop-color:#D0E2E7"/>
		<stop  offset="1" style="stop-color:#AFC0C5"/>
	</linearGradient>
	<rect x="40" y="205" class="st31" width="20" height="5"/>
	<linearGradient id="SVGID_30_" gradientUnits="userSpaceOnUse" x1="50" y1="82.2537" x2="50" y2="383.0561">
		<stop  offset="1.472383e-03" style="stop-color:#D0E2E7"/>
		<stop  offset="1" style="stop-color:#AFC0C5"/>
	</linearGradient>
	<rect x="40" y="280" class="st32" width="20" height="5"/>
	<linearGradient id="SVGID_31_" gradientUnits="userSpaceOnUse" x1="72.5" y1="82.2537" x2="72.5" y2="383.0561">
		<stop  offset="1.472383e-03" style="stop-color:#D0E2E7"/>
		<stop  offset="1" style="stop-color:#AFC0C5"/>
	</linearGradient>
	<rect x="60" y="265" class="st33" width="25" height="5"/>
	<rect x="70" y="155" class="st21" width="120" height="35"/>
	<rect x="70" y="230" class="st21" width="120" height="35"/>
	<rect x="70" y="305" class="st21" width="120" height="35"/>
</g>
</svg>
