<?xml version="1.0" encoding="utf-8"?>
<!-- Generator: Adobe Illustrator 23.1.1, SVG Export Plug-In . SVG Version: 6.00 Build 0)  -->
<svg version="1.1" id="Options" xmlns="http://www.w3.org/2000/svg" xmlns:xlink="http://www.w3.org/1999/xlink" x="0px" y="0px"
	 viewBox="0 0 400 400" style="enable-background:new 0 0 400 400;" xml:space="preserve">
<style type="text/css">
	.st0{fill:none;}
	.st1{fill:#828E93;}
	.st2{opacity:0.25;fill:#50565B;enable-background:new    ;}
	.st3{opacity:0.25;fill:#FFFFFF;enable-background:new    ;}
</style>
<title>Artboard 2 copy 10</title>
<rect class="st0" width="400" height="400"/>
<rect x="100" y="55" class="st1" width="260" height="305"/>
<rect x="120" y="132.5" class="st2" width="40" height="55"/>
<rect x="180" y="132.5" class="st2" width="40" height="55"/>
<rect x="320" y="132.5" class="st2" width="20" height="55"/>
<rect x="240" y="132.5" class="st2" width="60" height="55"/>
<rect x="120" y="65" class="st2" width="40" height="55"/>
<rect x="180" y="65" class="st2" width="40" height="55"/>
<rect x="320" y="65" class="st2" width="20" height="55"/>
<rect x="240" y="65" class="st2" width="60" height="55"/>
<rect x="120" y="200" class="st2" width="40" height="55"/>
<rect x="120" y="275" class="st3" width="40" height="65"/>
<rect x="165" y="275" class="st3" width="40" height="65"/>
<rect x="300" y="275" class="st3" width="40" height="65"/>
<rect x="220" y="275" class="st3" width="40" height="85"/>
<rect x="180" y="200" class="st2" width="40" height="55"/>
<rect x="320" y="200" class="st2" width="20" height="55"/>
<rect x="240" y="200" class="st2" width="60" height="55"/>
<rect x="110" y="265" class="st2" width="105" height="20"/>
<path class="st1" d="M42.5,320h50c1.4,0,2.5,1.1,2.5,2.5l0,0c0,1.4-1.1,2.5-2.5,2.5h-50c-1.4,0-2.5-1.1-2.5-2.5l0,0
	C40,321.1,41.1,320,42.5,320z"/>
<path class="st1" d="M53.5,325h28c1.4,0,2.5,1.1,2.5,2.5l0,0c0,1.4-1.1,2.5-2.5,2.5h-28c-1.4,0-2.5-1.1-2.5-2.5l0,0
	C51,326.1,52.1,325,53.5,325z"/>
<path class="st1" d="M62.5,355h10c1.4,0,2.5,1.1,2.5,2.5l0,0c0,1.4-1.1,2.5-2.5,2.5h-10c-1.4,0-2.5-1.1-2.5-2.5l0,0
	C60,356.1,61.1,355,62.5,355z"/>
<rect x="65" y="330" class="st1" width="5" height="25"/>
<rect x="80" y="260" class="st1" width="20" height="5"/>
<rect x="80" y="270" class="st1" width="20" height="5"/>
<rect x="55" y="255" class="st1" width="25" height="25"/>
<rect x="80" y="350" class="st1" width="20" height="10"/>
<rect x="40" y="355" class="st1" width="10" height="5"/>
</svg>
