<?xml version="1.0" encoding="utf-8"?>
<!-- Generator: Adobe Illustrator 23.1.1, SVG Export Plug-In . SVG Version: 6.00 Build 0)  -->
<svg version="1.1" id="Options" xmlns="http://www.w3.org/2000/svg" xmlns:xlink="http://www.w3.org/1999/xlink" x="0px" y="0px"
	 viewBox="0 0 400 400" style="enable-background:new 0 0 400 400;" xml:space="preserve">
<style type="text/css">
	.st0{fill:none;}
	.st1{opacity:0.5;}
	.st2{fill:url(#SVGID_1_);}
	.st3{opacity:0.25;fill:#50565B;enable-background:new    ;}
	.st4{opacity:0.5;fill:url(#SVGID_2_);}
	.st5{opacity:0.5;fill:#FFFFFF;}
	.st6{fill:url(#SVGID_3_);}
	.st7{fill:url(#SVGID_4_);}
	.st8{fill:url(#SVGID_5_);}
	.st9{fill:url(#SVGID_6_);}
	.st10{fill:#828E93;}
	.st11{fill:url(#SVGID_7_);}
	.st12{fill:url(#SVGID_8_);}
	.st13{fill:url(#SVGID_9_);}
</style>
<title>Artboard 2 copy 10</title>
<rect class="st0" width="400" height="400"/>
<g class="st1">
	<linearGradient id="SVGID_1_" gradientUnits="userSpaceOnUse" x1="100" y1="207.5" x2="360" y2="207.5">
		<stop  offset="0" style="stop-color:#FBEAA1"/>
		<stop  offset="1" style="stop-color:#B9A038"/>
	</linearGradient>
	<rect x="100" y="55" class="st2" width="260" height="305"/>
	<rect x="120" y="132.5" class="st3" width="40" height="55"/>
	<rect x="180" y="132.5" class="st3" width="40" height="55"/>
	<rect x="320" y="132.5" class="st3" width="20" height="55"/>
	<rect x="240" y="132.5" class="st3" width="60" height="55"/>
	<rect x="120" y="65" class="st3" width="40" height="55"/>
	<rect x="180" y="65" class="st3" width="40" height="55"/>
	<rect x="320" y="65" class="st3" width="20" height="55"/>
	<rect x="240" y="65" class="st3" width="60" height="55"/>
	<rect x="120" y="200" class="st3" width="40" height="55"/>
	<rect x="120" y="275" class="st3" width="40" height="65"/>
	<rect x="165" y="275" class="st3" width="40" height="65"/>
	<rect x="300" y="275" class="st3" width="40" height="65"/>
	<linearGradient id="SVGID_2_" gradientUnits="userSpaceOnUse" x1="220" y1="317.5" x2="260" y2="317.5">
		<stop  offset="0" style="stop-color:#818D92"/>
		<stop  offset="1" style="stop-color:#50565B"/>
	</linearGradient>
	<rect x="220" y="275" class="st4" width="40" height="85"/>
	<rect x="180" y="200" class="st3" width="40" height="55"/>
	<rect x="320" y="200" class="st3" width="20" height="55"/>
	<rect x="240" y="200" class="st3" width="60" height="55"/>
	<rect x="110" y="265" class="st5" width="105" height="20"/>
	<linearGradient id="SVGID_3_" gradientUnits="userSpaceOnUse" x1="40" y1="322.5" x2="95" y2="322.5">
		<stop  offset="0" style="stop-color:#E19176"/>
		<stop  offset="1" style="stop-color:#B9785D"/>
	</linearGradient>
	<path class="st6" d="M42.5,320h50c1.4,0,2.5,1.1,2.5,2.5l0,0c0,1.4-1.1,2.5-2.5,2.5h-50c-1.4,0-2.5-1.1-2.5-2.5l0,0
		C40,321.1,41.1,320,42.5,320z"/>
	<linearGradient id="SVGID_4_" gradientUnits="userSpaceOnUse" x1="51" y1="327.5" x2="84" y2="327.5">
		<stop  offset="0" style="stop-color:#E19176"/>
		<stop  offset="1" style="stop-color:#B9785D"/>
	</linearGradient>
	<path class="st7" d="M53.5,325h28c1.4,0,2.5,1.1,2.5,2.5l0,0c0,1.4-1.1,2.5-2.5,2.5h-28c-1.4,0-2.5-1.1-2.5-2.5l0,0
		C51,326.1,52.1,325,53.5,325z"/>
	<linearGradient id="SVGID_5_" gradientUnits="userSpaceOnUse" x1="60" y1="357.5" x2="75" y2="357.5">
		<stop  offset="0" style="stop-color:#E19176"/>
		<stop  offset="1" style="stop-color:#B9785D"/>
	</linearGradient>
	<path class="st8" d="M62.5,355h10c1.4,0,2.5,1.1,2.5,2.5l0,0c0,1.4-1.1,2.5-2.5,2.5h-10c-1.4,0-2.5-1.1-2.5-2.5l0,0
		C60,356.1,61.1,355,62.5,355z"/>
	<linearGradient id="SVGID_6_" gradientUnits="userSpaceOnUse" x1="65" y1="342.5" x2="70" y2="342.5">
		<stop  offset="0" style="stop-color:#E19176"/>
		<stop  offset="1" style="stop-color:#B9785D"/>
	</linearGradient>
	<rect x="65" y="330" class="st9" width="5" height="25"/>
	<rect x="80" y="260" class="st10" width="20" height="5"/>
	<rect x="80" y="270" class="st10" width="20" height="5"/>
	<linearGradient id="SVGID_7_" gradientUnits="userSpaceOnUse" x1="55" y1="267.5" x2="80" y2="267.5">
		<stop  offset="1.472383e-03" style="stop-color:#D0E2E7"/>
		<stop  offset="1" style="stop-color:#AFC0C5"/>
	</linearGradient>
	<rect x="55" y="255" class="st11" width="25" height="25"/>
	<linearGradient id="SVGID_8_" gradientUnits="userSpaceOnUse" x1="80" y1="355" x2="100" y2="355">
		<stop  offset="0" style="stop-color:#E19176"/>
		<stop  offset="1" style="stop-color:#B9785D"/>
	</linearGradient>
	<rect x="80" y="350" class="st12" width="20" height="10"/>
	<linearGradient id="SVGID_9_" gradientUnits="userSpaceOnUse" x1="40" y1="357.5" x2="50" y2="357.5">
		<stop  offset="0" style="stop-color:#FBEAA1"/>
		<stop  offset="0.9997" style="stop-color:#EED25E"/>
	</linearGradient>
	<rect x="40" y="355" class="st13" width="10" height="5"/>
</g>
</svg>
