<?xml version="1.0" encoding="utf-8"?>
<!-- Generator: Adobe Illustrator 23.1.1, SVG Export Plug-In . SVG Version: 6.00 Build 0)  -->
<svg version="1.1" id="Options" xmlns="http://www.w3.org/2000/svg" xmlns:xlink="http://www.w3.org/1999/xlink" x="0px" y="0px"
	 viewBox="0 0 400 400" style="enable-background:new 0 0 400 400;" xml:space="preserve">
<style type="text/css">
	.st0{fill:none;}
	.st1{fill:#828E93;}
	.st2{opacity:0.25;fill:#FFFFFF;enable-background:new    ;}
	.st3{opacity:0.25;fill:#50565B;enable-background:new    ;}
</style>
<title>Artboard 2 copy 11</title>
<rect class="st0" width="400" height="400"/>
<rect x="100" y="240" class="st1" width="260" height="120"/>
<rect x="140" y="160" class="st1" width="220" height="85"/>
<rect x="110" y="275" class="st2" width="40" height="65"/>
<rect x="155" y="275" class="st2" width="40" height="65"/>
<rect x="160" y="175" class="st2" width="40" height="65"/>
<rect x="205" y="175" class="st2" width="40" height="65"/>
<rect x="260" y="175" class="st2" width="40" height="65"/>
<rect x="305" y="175" class="st2" width="40" height="65"/>
<rect x="260" y="275" class="st2" width="40" height="65"/>
<rect x="210" y="275" class="st2" width="40" height="85"/>
<rect x="310" y="275" class="st2" width="40" height="85"/>
<rect x="100" y="265" class="st3" width="105" height="20"/>
<rect x="255" y="265" class="st3" width="105" height="20"/>
<path class="st1" d="M42.5,320h50c1.4,0,2.5,1.1,2.5,2.5l0,0c0,1.4-1.1,2.5-2.5,2.5h-50c-1.4,0-2.5-1.1-2.5-2.5l0,0
	C40,321.1,41.1,320,42.5,320z"/>
<path class="st1" d="M53.5,325h28c1.4,0,2.5,1.1,2.5,2.5l0,0c0,1.4-1.1,2.5-2.5,2.5h-28c-1.4,0-2.5-1.1-2.5-2.5l0,0
	C51,326.1,52.1,325,53.5,325z"/>
<path class="st1" d="M62.5,355h10c1.4,0,2.5,1.1,2.5,2.5l0,0c0,1.4-1.1,2.5-2.5,2.5h-10c-1.4,0-2.5-1.1-2.5-2.5l0,0
	C60,356.1,61.1,355,62.5,355z"/>
<rect x="65" y="330" class="st1" width="5" height="25"/>
<rect x="80" y="260" class="st1" width="20" height="5"/>
<rect x="80" y="270" class="st1" width="20" height="5"/>
<rect x="55" y="255" class="st1" width="25" height="25"/>
<rect x="120" y="180" class="st1" width="20" height="5"/>
<rect x="120" y="210" class="st1" width="20" height="5"/>
<rect x="60" y="175" class="st1" width="65" height="45"/>
<rect x="160" y="140" class="st1" width="40" height="10"/>
<rect x="160" y="150" class="st1" width="40" height="10"/>
<rect x="240" y="140" class="st1" width="20" height="10"/>
<rect x="240" y="150" class="st1" width="20" height="10"/>
<rect x="200" y="155" class="st1" width="40" height="5"/>
<rect x="80" y="350" class="st1" width="20" height="10"/>
<rect x="40" y="355" class="st1" width="10" height="5"/>
</svg>
