<?xml version="1.0" encoding="utf-8"?>
<!-- Generator: Adobe Illustrator 23.1.1, SVG Export Plug-In . SVG Version: 6.00 Build 0)  -->
<svg version="1.1" id="Options" xmlns="http://www.w3.org/2000/svg" xmlns:xlink="http://www.w3.org/1999/xlink" x="0px" y="0px"
	 viewBox="0 0 400 400" style="enable-background:new 0 0 400 400;" xml:space="preserve">
<style type="text/css">
	.st0{fill:none;}
	.st1{opacity:0.5;}
	.st2{fill:url(#SVGID_1_);}
	.st3{fill:url(#SVGID_2_);}
	.st4{opacity:0.25;fill:#50565B;enable-background:new    ;}
	.st5{opacity:0.5;fill:url(#SVGID_3_);enable-background:new    ;}
	.st6{opacity:0.5;fill:#FFFFFF;enable-background:new    ;}
	.st7{opacity:0.5;fill:url(#SVGID_4_);enable-background:new    ;}
	.st8{fill:url(#SVGID_5_);}
	.st9{fill:url(#SVGID_6_);}
	.st10{fill:url(#SVGID_7_);}
	.st11{fill:url(#SVGID_8_);}
	.st12{fill:#828E93;}
	.st13{fill:url(#SVGID_9_);}
	.st14{fill:url(#SVGID_10_);}
	.st15{fill:url(#SVGID_11_);}
	.st16{fill:url(#SVGID_12_);}
	.st17{fill:url(#SVGID_13_);}
	.st18{fill:url(#SVGID_14_);}
	.st19{fill:url(#SVGID_15_);}
	.st20{fill:url(#SVGID_16_);}
	.st21{fill:url(#SVGID_17_);}
</style>
<title>Artboard 2 copy 11</title>
<rect class="st0" width="400" height="400"/>
<g class="st1">
	
		<linearGradient id="SVGID_1_" gradientUnits="userSpaceOnUse" x1="100" y1="102" x2="360" y2="102" gradientTransform="matrix(1 0 0 -1 0 402)">
		<stop  offset="0" style="stop-color:#FBEAA1"/>
		<stop  offset="1" style="stop-color:#B9A038"/>
	</linearGradient>
	<rect x="100" y="240" class="st2" width="260" height="120"/>
	
		<linearGradient id="SVGID_2_" gradientUnits="userSpaceOnUse" x1="140" y1="199.5" x2="360" y2="199.5" gradientTransform="matrix(1 0 0 -1 0 402)">
		<stop  offset="0" style="stop-color:#FBEAA1"/>
		<stop  offset="1" style="stop-color:#B9A038"/>
	</linearGradient>
	<rect x="140" y="160" class="st3" width="220" height="85"/>
	<rect x="110" y="275" class="st4" width="40" height="65"/>
	<rect x="155" y="275" class="st4" width="40" height="65"/>
	<rect x="160" y="175" class="st4" width="40" height="65"/>
	<rect x="205" y="175" class="st4" width="40" height="65"/>
	<rect x="260" y="175" class="st4" width="40" height="65"/>
	<rect x="305" y="175" class="st4" width="40" height="65"/>
	<rect x="260" y="275" class="st4" width="40" height="65"/>
	
		<linearGradient id="SVGID_3_" gradientUnits="userSpaceOnUse" x1="210" y1="84.5" x2="250" y2="84.5" gradientTransform="matrix(1 0 0 -1 0 402)">
		<stop  offset="0" style="stop-color:#818D92"/>
		<stop  offset="1" style="stop-color:#50565B"/>
	</linearGradient>
	<rect x="210" y="275" class="st5" width="40" height="85"/>
	<rect x="310" y="275" class="st4" width="40" height="85"/>
	<rect x="100" y="265" class="st6" width="105" height="20"/>
	<linearGradient id="SVGID_4_" gradientUnits="userSpaceOnUse" x1="255" y1="275" x2="360" y2="275">
		<stop  offset="0" style="stop-color:#818D92"/>
		<stop  offset="1" style="stop-color:#50565B"/>
	</linearGradient>
	<rect x="255" y="265" class="st7" width="105" height="20"/>
	
		<linearGradient id="SVGID_5_" gradientUnits="userSpaceOnUse" x1="40" y1="79.5" x2="95" y2="79.5" gradientTransform="matrix(1 0 0 -1 0 402)">
		<stop  offset="0" style="stop-color:#E19176"/>
		<stop  offset="1" style="stop-color:#B9785D"/>
	</linearGradient>
	<path class="st8" d="M42.5,320h50c1.4,0,2.5,1.1,2.5,2.5l0,0c0,1.4-1.1,2.5-2.5,2.5h-50c-1.4,0-2.5-1.1-2.5-2.5l0,0
		C40,321.1,41.1,320,42.5,320z"/>
	
		<linearGradient id="SVGID_6_" gradientUnits="userSpaceOnUse" x1="51" y1="74.5" x2="84" y2="74.5" gradientTransform="matrix(1 0 0 -1 0 402)">
		<stop  offset="0" style="stop-color:#E19176"/>
		<stop  offset="1" style="stop-color:#B9785D"/>
	</linearGradient>
	<path class="st9" d="M53.5,325h28c1.4,0,2.5,1.1,2.5,2.5l0,0c0,1.4-1.1,2.5-2.5,2.5h-28c-1.4,0-2.5-1.1-2.5-2.5l0,0
		C51,326.1,52.1,325,53.5,325z"/>
	
		<linearGradient id="SVGID_7_" gradientUnits="userSpaceOnUse" x1="60" y1="44.5" x2="75" y2="44.5" gradientTransform="matrix(1 0 0 -1 0 402)">
		<stop  offset="0" style="stop-color:#E19176"/>
		<stop  offset="1" style="stop-color:#B9785D"/>
	</linearGradient>
	<path class="st10" d="M62.5,355h10c1.4,0,2.5,1.1,2.5,2.5l0,0c0,1.4-1.1,2.5-2.5,2.5h-10c-1.4,0-2.5-1.1-2.5-2.5l0,0
		C60,356.1,61.1,355,62.5,355z"/>
	
		<linearGradient id="SVGID_8_" gradientUnits="userSpaceOnUse" x1="65" y1="59.5" x2="70" y2="59.5" gradientTransform="matrix(1 0 0 -1 0 402)">
		<stop  offset="0" style="stop-color:#E19176"/>
		<stop  offset="1" style="stop-color:#B9785D"/>
	</linearGradient>
	<rect x="65" y="330" class="st11" width="5" height="25"/>
	<rect x="80" y="260" class="st12" width="20" height="5"/>
	<rect x="80" y="270" class="st12" width="20" height="5"/>
	
		<linearGradient id="SVGID_9_" gradientUnits="userSpaceOnUse" x1="55" y1="134.5" x2="80" y2="134.5" gradientTransform="matrix(1 0 0 -1 0 402)">
		<stop  offset="1.472383e-03" style="stop-color:#D0E2E7"/>
		<stop  offset="1" style="stop-color:#AFC0C5"/>
	</linearGradient>
	<rect x="55" y="255" class="st13" width="25" height="25"/>
	<rect x="120" y="180" class="st12" width="20" height="5"/>
	<rect x="120" y="210" class="st12" width="20" height="5"/>
	
		<linearGradient id="SVGID_10_" gradientUnits="userSpaceOnUse" x1="60" y1="204.5" x2="125" y2="204.5" gradientTransform="matrix(1 0 0 -1 0 402)">
		<stop  offset="1.472383e-03" style="stop-color:#D0E2E7"/>
		<stop  offset="1" style="stop-color:#AFC0C5"/>
	</linearGradient>
	<rect x="60" y="175" class="st14" width="65" height="45"/>
	
		<linearGradient id="SVGID_11_" gradientUnits="userSpaceOnUse" x1="160" y1="257" x2="200" y2="257" gradientTransform="matrix(1 0 0 -1 0 402)">
		<stop  offset="1.472383e-03" style="stop-color:#D0E2E7"/>
		<stop  offset="1" style="stop-color:#818D92"/>
	</linearGradient>
	<rect x="160" y="140" class="st15" width="40" height="10"/>
	
		<linearGradient id="SVGID_12_" gradientUnits="userSpaceOnUse" x1="160" y1="247" x2="200" y2="247" gradientTransform="matrix(1 0 0 -1 0 402)">
		<stop  offset="1.472383e-03" style="stop-color:#D0E2E7"/>
		<stop  offset="1" style="stop-color:#818D92"/>
	</linearGradient>
	<rect x="160" y="150" class="st16" width="40" height="10"/>
	
		<linearGradient id="SVGID_13_" gradientUnits="userSpaceOnUse" x1="240" y1="257" x2="260" y2="257" gradientTransform="matrix(1 0 0 -1 0 402)">
		<stop  offset="1.472383e-03" style="stop-color:#D0E2E7"/>
		<stop  offset="1" style="stop-color:#818D92"/>
	</linearGradient>
	<rect x="240" y="140" class="st17" width="20" height="10"/>
	
		<linearGradient id="SVGID_14_" gradientUnits="userSpaceOnUse" x1="240" y1="247" x2="260" y2="247" gradientTransform="matrix(1 0 0 -1 0 402)">
		<stop  offset="1.472383e-03" style="stop-color:#D0E2E7"/>
		<stop  offset="1" style="stop-color:#818D92"/>
	</linearGradient>
	<rect x="240" y="150" class="st18" width="20" height="10"/>
	
		<linearGradient id="SVGID_15_" gradientUnits="userSpaceOnUse" x1="200" y1="244.5" x2="240" y2="244.5" gradientTransform="matrix(1 0 0 -1 0 402)">
		<stop  offset="1.472383e-03" style="stop-color:#D0E2E7"/>
		<stop  offset="1" style="stop-color:#818D92"/>
	</linearGradient>
	<rect x="200" y="155" class="st19" width="40" height="5"/>
	
		<linearGradient id="SVGID_16_" gradientUnits="userSpaceOnUse" x1="80" y1="47" x2="100" y2="47" gradientTransform="matrix(1 0 0 -1 0 402)">
		<stop  offset="0" style="stop-color:#E19176"/>
		<stop  offset="1" style="stop-color:#B9785D"/>
	</linearGradient>
	<rect x="80" y="350" class="st20" width="20" height="10"/>
	
		<linearGradient id="SVGID_17_" gradientUnits="userSpaceOnUse" x1="40" y1="44.5" x2="50" y2="44.5" gradientTransform="matrix(1 0 0 -1 0 402)">
		<stop  offset="0" style="stop-color:#FBEAA1"/>
		<stop  offset="0.9997" style="stop-color:#EED25E"/>
	</linearGradient>
	<rect x="40" y="355" class="st21" width="10" height="5"/>
</g>
</svg>
