<?xml version="1.0" encoding="utf-8"?>
<!-- Generator: Adobe Illustrator 23.1.1, SVG Export Plug-In . SVG Version: 6.00 Build 0)  -->
<svg version="1.1" id="Options" xmlns="http://www.w3.org/2000/svg" xmlns:xlink="http://www.w3.org/1999/xlink" x="0px" y="0px"
	 viewBox="0 0 400 400" style="enable-background:new 0 0 400 400;" xml:space="preserve">
<style type="text/css">
	.st0{fill:none;}
	.st1{fill:#828E93;}
	.st2{opacity:0.25;fill:#50565B;enable-background:new    ;}
</style>
<title>Artboard 2 copy 12</title>
<rect class="st0" width="400" height="400"/>
<rect x="70" y="220" class="st1" width="220" height="130"/>
<rect x="70" y="220" class="st2" width="220" height="130"/>
<rect x="80" y="230" class="st2" width="60" height="95"/>
<rect x="60" y="220" class="st1" width="10" height="140"/>
<rect x="290" y="220" class="st1" width="10" height="140"/>
<rect x="40" y="200" class="st1" width="280" height="20"/>
<rect x="60" y="180" class="st1" width="240" height="20"/>
<rect x="150" y="305" class="st1" width="130" height="10"/>
<rect x="150" y="330" class="st1" width="130" height="10"/>
<rect x="270" y="340" class="st1" width="10" height="20"/>
<rect x="150" y="340" class="st1" width="10" height="20"/>
<rect x="150" y="305" class="st1" width="130" height="20"/>
<rect x="330" y="350" class="st1" width="30" height="10"/>
<rect x="40" y="350" class="st1" width="30" height="10"/>
<rect x="320" y="240" class="st1" width="35" height="65"/>
<rect x="335" y="305" class="st1" width="5" height="55"/>
</svg>
