<?xml version="1.0" encoding="utf-8"?>
<!-- Generator: Adobe Illustrator 23.1.1, SVG Export Plug-In . SVG Version: 6.00 Build 0)  -->
<svg version="1.1" id="Options" xmlns="http://www.w3.org/2000/svg" xmlns:xlink="http://www.w3.org/1999/xlink" x="0px" y="0px"
	 viewBox="0 0 400 400" style="enable-background:new 0 0 400 400;" xml:space="preserve">
<style type="text/css">
	.st0{fill:none;}
	.st1{fill:#828E93;}
	.st2{opacity:0.25;fill:#50565B;enable-background:new    ;}
</style>
<title>Artboard 2 copy 13</title>
<rect class="st0" width="400" height="400"/>
<path class="st1" d="M152.9,353.2l-66-66c-9.1-9.1-9.1-23.9,0-33l80.1-80.1c9.1-9.1,23.9-9.1,33,0l66,66c9.1,9.1,9.1,23.9,0,33
	l-80.1,80.1C176.8,362.3,162,362.3,152.9,353.2z"/>
<path class="st1" d="M268.4,242.4l-28.3-28.3l0,0l5.2-5.2c3-3,7.9-3,10.9,0l17.4,17.4c3,3,3,7.9,0,10.9L268.4,242.4L268.4,242.4
	L268.4,242.4z"/>
<polygon class="st1" points="211.9,185.8 211.9,157.5 197.7,143.4 169.4,143.4 141.1,171.7 141.1,200 148.2,192.9 148.2,178.8 
	176.5,150.5 190.6,150.5 204.8,164.6 204.8,178.8 "/>
<polyline class="st1" points="257.8,210.6 289.6,192.9 310.9,200 325,214.1 317.9,221.2 303.8,207 289.6,207 275.5,228.2 "/>
<rect x="168" y="205.8" class="st2" width="10" height="120"/>
<rect x="113" y="260.8" class="st2" width="120" height="10"/>
<circle class="st1" cx="322.5" cy="227.5" r="2.5"/>
<circle class="st1" cx="322.5" cy="237.5" r="2.5"/>
<circle class="st1" cx="325" cy="250" r="5"/>
</svg>
