<?xml version="1.0" encoding="utf-8"?>
<!-- Generator: Adobe Illustrator 23.1.1, SVG Export Plug-In . SVG Version: 6.00 Build 0)  -->
<svg version="1.1" id="Options" xmlns="http://www.w3.org/2000/svg" xmlns:xlink="http://www.w3.org/1999/xlink" x="0px" y="0px"
	 viewBox="0 0 400 400" style="enable-background:new 0 0 400 400;" xml:space="preserve">
<style type="text/css">
	.st0{fill:none;}
	.st1{fill:#828E93;}
	.st2{opacity:0.25;fill:#50565B;enable-background:new    ;}
</style>
<title>Artboard 2 copy 14</title>
<rect class="st0" width="400" height="400"/>
<rect x="130" y="140" class="st1" width="160" height="10"/>
<rect x="130" y="175" class="st1" width="160" height="10"/>
<rect x="130" y="210" class="st1" width="160" height="10"/>
<rect x="130" y="245" class="st1" width="160" height="10"/>
<rect x="130" y="285" class="st1" width="160" height="10"/>
<rect x="130" y="320" class="st1" width="160" height="10"/>
<polygon class="st1" points="131.7,140 241.7,140 210,295 175,355 65,355 100,300 "/>
<path class="st1" d="M290,140L290,140c5.5,0,10,4.5,10,10v200c0,5.5-4.5,10-10,10l0,0c-5.5,0-10-4.5-10-10V150
	C280,144.5,284.5,140,290,140z"/>
<path class="st1" d="M210,140L210,140c5.5,0,10,4.5,10,10v200c0,5.5-4.5,10-10,10l0,0c-5.5,0-10-4.5-10-10V150
	C200,144.5,204.5,140,210,140z"/>
<path class="st1" d="M67,360h4.6c5.2,0,10.1-2.8,12.7-7.3l29.6-50.7c0.8-1.3,1.3-2.8,1.7-4.3l30.6-139.9c1.7-7.9-3.3-15.8-11.3-17.5
	c-1-0.2-2.1-0.3-3.1-0.3l0,0c-6.8,0-12.8,4.7-14.3,11.4L85.6,287.5c-0.4,1.6-1.1,3.2-2,4.6l-29,45.2c-4.4,6.8-2.4,16,4.4,20.4
	C61.4,359.2,64.2,360,67,360z"/>
<polygon class="st2" points="135,140 240,140 208.3,295 173.3,355 63.3,355 98.3,300 "/>
<path class="st1" d="M177,360h4.6c5.2,0,10.1-2.8,12.7-7.3l29.6-50.7c0.8-1.3,1.3-2.8,1.7-4.3l30.6-139.9
	c1.7-7.9-3.3-15.8-11.3-17.5c-1-0.2-2.1-0.3-3.1-0.3l0,0c-6.8,0-12.8,4.7-14.4,11.4l-31.8,136.1c-0.4,1.6-1.1,3.2-2,4.6l-29,45.2
	c-4.4,6.8-2.4,16,4.4,20.4C171.4,359.2,174.2,360,177,360z"/>
<rect x="130" y="80" class="st1" width="10" height="60"/>
<rect x="235" y="80" class="st1" width="10" height="60"/>
<rect x="280" y="100" class="st1" width="10" height="40"/>
<rect x="210" y="100" class="st1" width="10" height="40"/>
<circle class="st1" cx="215" cy="95" r="10"/>
<circle class="st1" cx="285" cy="95" r="10"/>
<polygon class="st1" points="140,100 210,110 210,120 140,110 "/>
<polygon class="st1" points="245,100 280,110 280,120 245,110 "/>
</svg>
