<?xml version="1.0" encoding="utf-8"?>
<!-- Generator: Adobe Illustrator 23.1.1, SVG Export Plug-In . SVG Version: 6.00 Build 0)  -->
<svg version="1.1" id="Options" xmlns="http://www.w3.org/2000/svg" xmlns:xlink="http://www.w3.org/1999/xlink" x="0px" y="0px"
	 viewBox="0 0 400 400" style="enable-background:new 0 0 400 400;" xml:space="preserve">
<style type="text/css">
	.st0{fill:none;}
	.st1{opacity:0.5;}
	.st2{fill:url(#SVGID_1_);}
	.st3{fill:url(#SVGID_2_);}
	.st4{fill:url(#SVGID_3_);}
	.st5{fill:url(#SVGID_4_);}
	.st6{fill:url(#SVGID_5_);}
	.st7{fill:url(#SVGID_6_);}
	.st8{fill:#828E93;}
	.st9{fill:url(#SVGID_7_);}
	.st10{fill:url(#SVGID_8_);}
	.st11{fill:url(#SVGID_9_);}
	.st12{fill:url(#SVGID_10_);}
	.st13{fill:url(#SVGID_11_);}
	.st14{fill:url(#SVGID_12_);}
	.st15{fill:url(#SVGID_13_);}
	.st16{fill:url(#SVGID_14_);}
	.st17{fill:url(#SVGID_15_);}
	.st18{fill:url(#SVGID_16_);}
	.st19{fill:url(#SVGID_17_);}
	.st20{fill:url(#SVGID_18_);}
	.st21{fill:url(#SVGID_19_);}
</style>
<title>Artboard 2 copy 14</title>
<rect class="st0" width="400" height="400"/>
<g class="st1">
	<linearGradient id="SVGID_1_" gradientUnits="userSpaceOnUse" x1="210" y1="132.3876" x2="210" y2="478.5587">
		<stop  offset="0" style="stop-color:#B9785D"/>
		<stop  offset="1" style="stop-color:#8D5C4A"/>
	</linearGradient>
	<rect x="130" y="140" class="st2" width="160" height="10"/>
	<linearGradient id="SVGID_2_" gradientUnits="userSpaceOnUse" x1="210" y1="132.3876" x2="210" y2="478.5587">
		<stop  offset="0" style="stop-color:#B9785D"/>
		<stop  offset="1" style="stop-color:#8D5C4A"/>
	</linearGradient>
	<rect x="130" y="175" class="st3" width="160" height="10"/>
	<linearGradient id="SVGID_3_" gradientUnits="userSpaceOnUse" x1="210" y1="132.3876" x2="210" y2="478.5587">
		<stop  offset="0" style="stop-color:#B9785D"/>
		<stop  offset="1" style="stop-color:#8D5C4A"/>
	</linearGradient>
	<rect x="130" y="210" class="st4" width="160" height="10"/>
	<linearGradient id="SVGID_4_" gradientUnits="userSpaceOnUse" x1="210" y1="132.3876" x2="210" y2="478.5587">
		<stop  offset="0" style="stop-color:#B9785D"/>
		<stop  offset="1" style="stop-color:#8D5C4A"/>
	</linearGradient>
	<rect x="130" y="245" class="st5" width="160" height="10"/>
	<linearGradient id="SVGID_5_" gradientUnits="userSpaceOnUse" x1="210" y1="132.3876" x2="210" y2="478.5587">
		<stop  offset="0" style="stop-color:#B9785D"/>
		<stop  offset="1" style="stop-color:#8D5C4A"/>
	</linearGradient>
	<rect x="130" y="285" class="st6" width="160" height="10"/>
	<linearGradient id="SVGID_6_" gradientUnits="userSpaceOnUse" x1="210" y1="132.3876" x2="210" y2="478.5587">
		<stop  offset="0" style="stop-color:#B9785D"/>
		<stop  offset="1" style="stop-color:#8D5C4A"/>
	</linearGradient>
	<rect x="130" y="320" class="st7" width="160" height="10"/>
	<polygon class="st8" points="131.7,140 241.7,140 210,295 175,355 65,355 100,300 	"/>
	<linearGradient id="SVGID_7_" gradientUnits="userSpaceOnUse" x1="290" y1="132.3876" x2="290" y2="478.5587">
		<stop  offset="0" style="stop-color:#B9785D"/>
		<stop  offset="1" style="stop-color:#8D5C4A"/>
	</linearGradient>
	<path class="st9" d="M290,140L290,140c5.5,0,10,4.5,10,10v200c0,5.5-4.5,10-10,10l0,0c-5.5,0-10-4.5-10-10V150
		C280,144.5,284.5,140,290,140z"/>
	<linearGradient id="SVGID_8_" gradientUnits="userSpaceOnUse" x1="210" y1="132.3876" x2="210" y2="478.5587">
		<stop  offset="0" style="stop-color:#B9785D"/>
		<stop  offset="1" style="stop-color:#8D5C4A"/>
	</linearGradient>
	<path class="st10" d="M210,140L210,140c5.5,0,10,4.5,10,10v200c0,5.5-4.5,10-10,10l0,0c-5.5,0-10-4.5-10-10V150
		C200,144.5,204.5,140,210,140z"/>
	<linearGradient id="SVGID_9_" gradientUnits="userSpaceOnUse" x1="99.3966" y1="109.7606" x2="99.3966" y2="295.8505">
		<stop  offset="1.472383e-03" style="stop-color:#D0E2E7"/>
		<stop  offset="1" style="stop-color:#818D92"/>
	</linearGradient>
	<path class="st11" d="M67,360h4.6c5.2,0,10.1-2.8,12.7-7.3l29.6-50.7c0.8-1.3,1.3-2.8,1.7-4.3l30.6-139.9
		c1.7-7.9-3.3-15.8-11.3-17.5c-1-0.2-2.1-0.3-3.1-0.3l0,0c-6.8,0-12.8,4.7-14.3,11.4L85.6,287.5c-0.4,1.6-1.1,3.2-2,4.6l-29,45.2
		c-4.4,6.8-2.4,16,4.4,20.4C61.4,359.2,64.2,360,67,360z"/>
	<linearGradient id="SVGID_10_" gradientUnits="userSpaceOnUse" x1="63.3" y1="247.5" x2="240" y2="247.5">
		<stop  offset="1.472383e-03" style="stop-color:#D0E2E7"/>
		<stop  offset="1" style="stop-color:#AFC0C5"/>
	</linearGradient>
	<polygon class="st12" points="135,140 240,140 208.3,295 173.3,355 63.3,355 98.3,300 	"/>
	<linearGradient id="SVGID_11_" gradientUnits="userSpaceOnUse" x1="209.3966" y1="109.7606" x2="209.3966" y2="295.8505">
		<stop  offset="1.472383e-03" style="stop-color:#D0E2E7"/>
		<stop  offset="1" style="stop-color:#818D92"/>
	</linearGradient>
	<path class="st13" d="M177,360h4.6c5.2,0,10.1-2.8,12.7-7.3l29.6-50.7c0.8-1.3,1.3-2.8,1.7-4.3l30.6-139.9
		c1.7-7.9-3.3-15.8-11.3-17.5c-1-0.2-2.1-0.3-3.1-0.3l0,0c-6.8,0-12.8,4.7-14.4,11.4l-31.8,136.1c-0.4,1.6-1.1,3.2-2,4.6l-29,45.2
		c-4.4,6.8-2.4,16,4.4,20.4C171.4,359.2,174.2,360,177,360z"/>
	<linearGradient id="SVGID_12_" gradientUnits="userSpaceOnUse" x1="103.7639" y1="110" x2="231.7743" y2="110">
		<stop  offset="1.472383e-03" style="stop-color:#D0E2E7"/>
		<stop  offset="1" style="stop-color:#818D92"/>
	</linearGradient>
	<rect x="130" y="80" class="st14" width="10" height="60"/>
	<linearGradient id="SVGID_13_" gradientUnits="userSpaceOnUse" x1="229.0719" y1="110" x2="306.0403" y2="110">
		<stop  offset="1.472383e-03" style="stop-color:#D0E2E7"/>
		<stop  offset="1" style="stop-color:#818D92"/>
	</linearGradient>
	<rect x="235" y="80" class="st15" width="10" height="60"/>
	<linearGradient id="SVGID_14_" gradientUnits="userSpaceOnUse" x1="229.0719" y1="120" x2="306.0403" y2="120">
		<stop  offset="1.472383e-03" style="stop-color:#D0E2E7"/>
		<stop  offset="1" style="stop-color:#818D92"/>
	</linearGradient>
	<rect x="280" y="100" class="st16" width="10" height="40"/>
	<linearGradient id="SVGID_15_" gradientUnits="userSpaceOnUse" x1="103.7639" y1="120" x2="231.7743" y2="120">
		<stop  offset="1.472383e-03" style="stop-color:#D0E2E7"/>
		<stop  offset="1" style="stop-color:#818D92"/>
	</linearGradient>
	<rect x="210" y="100" class="st17" width="10" height="40"/>
	<linearGradient id="SVGID_16_" gradientUnits="userSpaceOnUse" x1="103.7639" y1="95" x2="231.7743" y2="95">
		<stop  offset="1.472383e-03" style="stop-color:#D0E2E7"/>
		<stop  offset="1" style="stop-color:#818D92"/>
	</linearGradient>
	<circle class="st18" cx="215" cy="95" r="10"/>
	<linearGradient id="SVGID_17_" gradientUnits="userSpaceOnUse" x1="229.0719" y1="95" x2="306.0403" y2="95">
		<stop  offset="1.472383e-03" style="stop-color:#D0E2E7"/>
		<stop  offset="1" style="stop-color:#818D92"/>
	</linearGradient>
	<circle class="st19" cx="285" cy="95" r="10"/>
	<linearGradient id="SVGID_18_" gradientUnits="userSpaceOnUse" x1="103.7639" y1="110" x2="231.7743" y2="110">
		<stop  offset="1.472383e-03" style="stop-color:#D0E2E7"/>
		<stop  offset="1" style="stop-color:#818D92"/>
	</linearGradient>
	<polygon class="st20" points="140,100 210,110 210,120 140,110 	"/>
	<linearGradient id="SVGID_19_" gradientUnits="userSpaceOnUse" x1="229.0719" y1="110" x2="306.0403" y2="110">
		<stop  offset="1.472383e-03" style="stop-color:#D0E2E7"/>
		<stop  offset="1" style="stop-color:#818D92"/>
	</linearGradient>
	<polygon class="st21" points="245,100 280,110 280,120 245,110 	"/>
</g>
</svg>
