<?xml version="1.0" encoding="utf-8"?>
<!-- Generator: Adobe Illustrator 23.1.1, SVG Export Plug-In . SVG Version: 6.00 Build 0)  -->
<svg version="1.1" id="Options" xmlns="http://www.w3.org/2000/svg" xmlns:xlink="http://www.w3.org/1999/xlink" x="0px" y="0px"
	 viewBox="0 0 400 400" style="enable-background:new 0 0 400 400;" xml:space="preserve">
<style type="text/css">
	.st0{fill:none;}
	.st1{fill:#828E93;}
	.st2{opacity:0.25;fill:#50565B;enable-background:new    ;}
</style>
<title>Artboard 2 copy 15</title>
<rect class="st0" width="400" height="400"/>
<path class="st1" d="M107.8,310.1c2.7,5.4,1.7,12-2.6,16.2l-4.7,4.7c-1.8,1.8-3.1,4.1-3.7,6.5l-1.3,5.1c-1.6,6.3-7.2,10.7-13.7,10.6
	H80c-4.3,0-8.3-1.9-11-5.3l-14.8-18.5c-0.3-0.4-0.6-0.8-1-1.2l-9-9c-5.5-5.5-5.5-14.4,0-19.9l5.4-5.5c2.6-2.6,6.2-4.1,9.9-4.1H69
	c2.8,0,5.5-0.8,7.8-2.4l1.5-1c5.6-3.7,13-3,17.7,1.7l0,0c1.1,1.1,2,2.3,2.6,3.6L107.8,310.1"/>
<path class="st2" d="M107.8,311.2c2.7,5.4,1.7,12-2.6,16.2l-4.7,4.7c-1.8,1.8-3.1,4.1-3.7,6.5l-1.3,5.1c-1.6,6.3-7.2,10.7-13.7,10.6
	H80c-4.3,0-8.3-1.9-11-5.3l-14.8-18.5c-0.3-0.4-0.6-0.8-1-1.2l-9-9c-5.5-5.5-5.5-14.4,0-19.9l5.5-5.5c2.6-2.6,6.2-4.1,9.9-4.2H69
	c2.8,0,5.5-0.8,7.8-2.4l1.5-1c5.6-3.7,13-2.9,17.7,1.8l0,0c1.1,1.1,2,2.3,2.6,3.6L107.8,311.2"/>
<circle class="st1" cx="60" cy="280" r="20"/>
<circle class="st1" cx="86.7" cy="153.3" r="33.3"/>
<circle class="st2" cx="60" cy="280" r="20"/>
<circle class="st1" cx="86.7" cy="260" r="33.3"/>
<circle class="st2" cx="86.7" cy="153.3" r="33.3"/>
<circle class="st1" cx="120" cy="106.7" r="26.7"/>
<circle class="st1" cx="140" cy="160" r="40"/>
<ellipse class="st1" cx="140" cy="256.7" rx="46.7" ry="43.3"/>
<rect x="85" y="286.7" class="st1" width="15" height="73.3"/>
<rect x="106.7" y="166.7" class="st1" width="13.3" height="73.3"/>
<rect x="110" y="286.7" class="st1" width="16.7" height="73.3"/>
<rect x="40" y="345" class="st1" width="106.7" height="15"/>
<polyline class="st1" points="360,360 146.7,360 146.7,345 360,345 "/>
<rect x="260" y="180" class="st1" width="100" height="165"/>
<rect x="270" y="160" class="st1" width="80" height="20"/>
<path class="st1" d="M226.2,300h7.7c3.4,0,6.2,2.8,6.2,6.2l0,0v17.7c0,3.4-2.8,6.2-6.2,6.2l0,0l0,0c-7.6,0-13.8-6.2-13.8-13.8v-10
	C220,302.8,222.8,300,226.2,300L226.2,300z"/>
<rect x="235" y="325" class="st1" width="5" height="20"/>
<rect x="140" y="325" class="st1" width="5" height="20"/>
<rect x="160" y="325" class="st1" width="5" height="20"/>
<rect x="200" y="325" class="st1" width="5" height="20"/>
<rect x="270" y="195" class="st2" width="45" height="50"/>
<rect x="270" y="260" class="st2" width="45" height="50"/>
<rect x="325" y="195" class="st2" width="25" height="50"/>
<rect x="325" y="260" class="st2" width="25" height="50"/>
</svg>
