<?xml version="1.0" encoding="utf-8"?>
<!-- Generator: Adobe Illustrator 23.1.1, SVG Export Plug-In . SVG Version: 6.00 Build 0)  -->
<svg version="1.1" id="Options" xmlns="http://www.w3.org/2000/svg" xmlns:xlink="http://www.w3.org/1999/xlink" x="0px" y="0px"
	 viewBox="0 0 400 400" style="enable-background:new 0 0 400 400;" xml:space="preserve">
<style type="text/css">
	.st0{fill:none;}
	.st1{opacity:0.5;}
	.st2{fill:#828E93;}
	.st3{fill:url(#SVGID_1_);}
	.st4{fill:url(#SVGID_2_);}
	.st5{fill:url(#SVGID_3_);}
	.st6{fill:url(#SVGID_4_);}
	.st7{fill:url(#SVGID_5_);}
	.st8{fill:url(#SVGID_6_);}
	.st9{fill:url(#SVGID_7_);}
	.st10{fill:url(#SVGID_8_);}
	.st11{fill:url(#SVGID_9_);}
	.st12{fill:url(#SVGID_10_);}
	.st13{fill:url(#SVGID_11_);}
	.st14{opacity:0.25;fill:#50565B;enable-background:new    ;}
	.st15{fill:url(#SVGID_12_);}
	.st16{fill:url(#SVGID_13_);}
	.st17{fill:url(#SVGID_14_);}
	.st18{fill:url(#SVGID_15_);}
</style>
<title>Artboard 2 copy 15</title>
<rect class="st0" width="400" height="400"/>
<g class="st1">
	<rect x="235" y="325" class="st2" width="5" height="20"/>
	<path class="st2" d="M107.8,310.1c2.7,5.4,1.7,12-2.6,16.2l-4.7,4.7c-1.8,1.8-3.1,4.1-3.7,6.5l-1.3,5.1
		c-1.6,6.3-7.2,10.7-13.7,10.6H80c-4.3,0-8.3-1.9-11-5.3l-14.8-18.5c-0.3-0.4-0.6-0.8-1-1.2l-9-9c-5.5-5.5-5.5-14.4,0-19.9l5.4-5.5
		c2.6-2.6,6.2-4.1,9.9-4.1H69c2.8,0,5.5-0.8,7.8-2.4l1.5-1c5.6-3.7,13-3,17.7,1.7l0,0c1.1,1.1,2,2.3,2.6,3.6L107.8,310.1"/>
	<linearGradient id="SVGID_1_" gradientUnits="userSpaceOnUse" x1="40.075" y1="319.6383" x2="109.2977" y2="319.6383">
		<stop  offset="0" style="stop-color:#00E9BD"/>
		<stop  offset="1" style="stop-color:#007C65"/>
	</linearGradient>
	<path class="st3" d="M107.8,311.2c2.7,5.4,1.7,12-2.6,16.2l-4.7,4.7c-1.8,1.8-3.1,4.1-3.7,6.5l-1.3,5.1
		c-1.6,6.3-7.2,10.7-13.7,10.6H80c-4.3,0-8.3-1.9-11-5.3l-14.8-18.5c-0.3-0.4-0.6-0.8-1-1.2l-9-9c-5.5-5.5-5.5-14.4,0-19.9l5.5-5.5
		c2.6-2.6,6.2-4.1,9.9-4.2H69c2.8,0,5.5-0.8,7.8-2.4l1.5-1c5.6-3.7,13-2.9,17.7,1.8l0,0c1.1,1.1,2,2.3,2.6,3.6L107.8,311.2"/>
	<circle class="st2" cx="60" cy="280" r="20"/>
	<circle class="st2" cx="86.7" cy="153.3" r="33.3"/>
	<linearGradient id="SVGID_2_" gradientUnits="userSpaceOnUse" x1="40" y1="280" x2="80" y2="280">
		<stop  offset="0" style="stop-color:#00E9BD"/>
		<stop  offset="1" style="stop-color:#007C65"/>
	</linearGradient>
	<circle class="st4" cx="60" cy="280" r="20"/>
	<linearGradient id="SVGID_3_" gradientUnits="userSpaceOnUse" x1="53.4" y1="153.3" x2="120" y2="153.3">
		<stop  offset="0" style="stop-color:#00E9BD"/>
		<stop  offset="1" style="stop-color:#007C65"/>
	</linearGradient>
	<circle class="st5" cx="86.7" cy="153.3" r="33.3"/>
	<linearGradient id="SVGID_4_" gradientUnits="userSpaceOnUse" x1="85" y1="323.35" x2="100" y2="323.35">
		<stop  offset="0" style="stop-color:#B9785D"/>
		<stop  offset="1" style="stop-color:#8D5C4A"/>
	</linearGradient>
	<rect x="85" y="286.7" class="st6" width="15" height="73.3"/>
	<linearGradient id="SVGID_5_" gradientUnits="userSpaceOnUse" x1="106.7" y1="203.35" x2="120" y2="203.35">
		<stop  offset="0" style="stop-color:#B9785D"/>
		<stop  offset="1" style="stop-color:#8D5C4A"/>
	</linearGradient>
	<rect x="106.7" y="166.7" class="st7" width="13.3" height="73.3"/>
	<linearGradient id="SVGID_6_" gradientUnits="userSpaceOnUse" x1="110" y1="323.35" x2="126.7" y2="323.35">
		<stop  offset="0" style="stop-color:#B9785D"/>
		<stop  offset="1" style="stop-color:#8D5C4A"/>
	</linearGradient>
	<rect x="110" y="286.7" class="st8" width="16.7" height="73.3"/>
	<linearGradient id="SVGID_7_" gradientUnits="userSpaceOnUse" x1="40" y1="352.5" x2="146.7" y2="352.5">
		<stop  offset="1.472383e-03" style="stop-color:#D0E2E7"/>
		<stop  offset="1" style="stop-color:#818D92"/>
	</linearGradient>
	<rect x="40" y="345" class="st9" width="106.7" height="15"/>
	<linearGradient id="SVGID_8_" gradientUnits="userSpaceOnUse" x1="134.3807" y1="352.5" x2="360" y2="352.5">
		<stop  offset="1.472383e-03" style="stop-color:#D0E2E7"/>
		<stop  offset="1" style="stop-color:#818D92"/>
	</linearGradient>
	<polyline class="st10" points="360,360 134.4,360 134.4,345 360,345 	"/>
	<linearGradient id="SVGID_9_" gradientUnits="userSpaceOnUse" x1="260" y1="262.5" x2="360" y2="262.5">
		<stop  offset="0" style="stop-color:#EED25E"/>
		<stop  offset="1" style="stop-color:#FBEAA1"/>
	</linearGradient>
	<rect x="260" y="180" class="st11" width="100" height="165"/>
	<linearGradient id="SVGID_10_" gradientUnits="userSpaceOnUse" x1="270" y1="170" x2="350" y2="170">
		<stop  offset="1.472383e-03" style="stop-color:#D0E2E7"/>
		<stop  offset="1" style="stop-color:#818D92"/>
	</linearGradient>
	<rect x="270" y="160" class="st12" width="80" height="20"/>
	<linearGradient id="SVGID_11_" gradientUnits="userSpaceOnUse" x1="220.0974" y1="315.05" x2="240.1" y2="315.05">
		<stop  offset="0" style="stop-color:#3C4044"/>
		<stop  offset="1" style="stop-color:#818D92"/>
	</linearGradient>
	<path class="st13" d="M226.2,300h7.7c3.4,0,6.2,2.8,6.2,6.2l0,0v17.7c0,3.4-2.8,6.2-6.2,6.2l0,0l0,0c-7.6,0-13.8-6.2-13.8-13.8v-10
		C220,302.8,222.8,300,226.2,300L226.2,300z"/>
	<rect x="140" y="325" class="st2" width="5" height="20"/>
	<rect x="160" y="325" class="st2" width="5" height="20"/>
	<rect x="200" y="325" class="st2" width="5" height="20"/>
	<rect x="270" y="195" class="st14" width="45" height="50"/>
	<rect x="270" y="260" class="st14" width="45" height="50"/>
	<rect x="325" y="195" class="st14" width="25" height="50"/>
	<rect x="325" y="260" class="st14" width="25" height="50"/>
	<linearGradient id="SVGID_12_" gradientUnits="userSpaceOnUse" x1="53.4" y1="260" x2="120" y2="260">
		<stop  offset="0" style="stop-color:#00E9BD"/>
		<stop  offset="1" style="stop-color:#007C65"/>
	</linearGradient>
	<circle class="st15" cx="86.7" cy="260" r="33.3"/>
	<linearGradient id="SVGID_13_" gradientUnits="userSpaceOnUse" x1="93.3" y1="106.7" x2="146.7" y2="106.7">
		<stop  offset="0" style="stop-color:#00E9BD"/>
		<stop  offset="1" style="stop-color:#007C65"/>
	</linearGradient>
	<circle class="st16" cx="120" cy="106.7" r="26.7"/>
	<linearGradient id="SVGID_14_" gradientUnits="userSpaceOnUse" x1="100" y1="160" x2="180" y2="160">
		<stop  offset="0" style="stop-color:#00E9BD"/>
		<stop  offset="1" style="stop-color:#007C65"/>
	</linearGradient>
	<circle class="st17" cx="140" cy="160" r="40"/>
	<linearGradient id="SVGID_15_" gradientUnits="userSpaceOnUse" x1="93.3" y1="256.7" x2="186.7" y2="256.7">
		<stop  offset="0" style="stop-color:#00E9BD"/>
		<stop  offset="1" style="stop-color:#007C65"/>
	</linearGradient>
	<ellipse class="st18" cx="140" cy="256.7" rx="46.7" ry="43.3"/>
</g>
</svg>
