<?xml version="1.0" encoding="utf-8"?>
<!-- Generator: Adobe Illustrator 23.1.1, SVG Export Plug-In . SVG Version: 6.00 Build 0)  -->
<svg version="1.1" id="Options" xmlns="http://www.w3.org/2000/svg" xmlns:xlink="http://www.w3.org/1999/xlink" x="0px" y="0px"
	 viewBox="0 0 400 400" style="enable-background:new 0 0 400 400;" xml:space="preserve">
<style type="text/css">
	.st0{fill:none;}
	.st1{fill:#828E93;}
	.st2{opacity:0.25;fill:#50565B;enable-background:new    ;}
	.st3{fill:#F2F2F2;}
</style>
<title>Artboard 2 copy 16</title>
<rect class="st0" width="400" height="400"/>
<rect x="143" y="50.5" transform="matrix(0.7071 -0.7071 0.7071 0.7071 -40.8113 197.5178)" class="st1" width="150" height="195"/>
<rect x="131.8" y="113" transform="matrix(0.7071 -0.7071 0.7071 0.7071 -34.5763 152.4659)" class="st2" width="70" height="10"/>
<rect x="149" y="119.6" transform="matrix(0.7071 -0.7071 0.7071 0.7071 -37.3242 174.1072)" class="st2" width="85" height="25"/>
<rect x="184.4" y="160" transform="matrix(0.7071 -0.7071 0.7071 0.7071 -51.9759 209.4689)" class="st2" width="85" height="15"/>
<rect x="198.5" y="174.1" transform="matrix(0.7071 -0.7071 0.7071 0.7071 -57.8267 223.6097)" class="st2" width="85" height="15"/>
<rect x="212.6" y="188.2" transform="matrix(0.7071 -0.7071 0.7071 0.7071 -63.6846 237.7476)" class="st2" width="85" height="15"/>
<rect x="167" y="138" transform="matrix(0.7071 -0.7071 0.7071 0.7071 -41.8443 195.0162)" class="st2" width="95" height="20"/>
<polygon class="st1" points="40,320 200,160 200,320 "/>
<polygon class="st3" points="85,300 180,205 180,300 "/>
<rect x="195" y="205" class="st2" width="5" height="5"/>
<rect x="195" y="215" class="st2" width="5" height="5"/>
<rect x="195" y="225" class="st2" width="5" height="5"/>
<rect x="195" y="235" class="st2" width="5" height="5"/>
<rect x="195" y="245" class="st2" width="5" height="5"/>
<rect x="195" y="255" class="st2" width="5" height="5"/>
<rect x="195" y="265" class="st2" width="5" height="5"/>
<rect x="195" y="275" class="st2" width="5" height="5"/>
<rect x="195" y="285" class="st2" width="5" height="5"/>
<rect x="195" y="295" class="st2" width="5" height="5"/>
<rect x="195" y="305" class="st2" width="5" height="5"/>
<rect x="170.6" y="335.9" transform="matrix(0.7071 -0.7071 0.7071 0.7071 -191.6499 229.0383)" class="st1" width="20" height="20"/>
<rect x="168.6" y="270.4" transform="matrix(0.7071 -0.7071 0.7071 0.7071 -126.2373 256.131)" class="st1" width="155" height="20"/>
<polygon class="st1" points="293.8,218.6 315,211.5 307.9,232.7 "/>
<polygon class="st2" points="293.8,218.6 315,211.5 307.9,232.7 "/>
</svg>
