<?xml version="1.0" encoding="utf-8"?>
<!-- Generator: Adobe Illustrator 23.1.1, SVG Export Plug-In . SVG Version: 6.00 Build 0)  -->
<svg version="1.1" id="Options" xmlns="http://www.w3.org/2000/svg" xmlns:xlink="http://www.w3.org/1999/xlink" x="0px" y="0px"
	 viewBox="0 0 400 400" style="enable-background:new 0 0 400 400;" xml:space="preserve">
<style type="text/css">
	.st0{fill:none;}
	.st1{fill:#828E93;}
	.st2{opacity:0.25;fill:#50565B;enable-background:new    ;}
</style>
<title>Artboard 2 copy 17</title>
<rect class="st0" width="400" height="400"/>
<circle class="st1" cx="300.7" cy="338.2" r="7.1"/>
<circle class="st1" cx="336" cy="338.2" r="7.1"/>
<path class="st1" d="M288.3,336.4h2.3c0.8,0,1.6-0.3,2.1-0.9l0,0c0.6-0.6,1.3-0.9,2.1-0.9h11.6c0.8,0,1.6,0.3,2.1,0.9l0,0
	c0.6,0.6,1.3,0.9,2.1,0.9h15.2c0.8,0,1.6-0.3,2.1-0.9l0,0c0.6-0.6,1.3-0.9,2.1-0.9h11.6c0.8,0,1.6,0.3,2.1,0.9l0,0
	c0.6,0.6,1.3,0.9,2.1,0.9h8.1c1.7,0,3-1.3,3-3V333c0-1.1-0.6-2.2-1.7-2.7l-12.2-6.1c-0.2-0.1-0.3-0.2-0.5-0.3l-13.3-10
	c-0.4-0.3-0.9-0.5-1.4-0.6l-26.9-3.3c-0.4,0-0.7,0-1.1,0.1l-5,1.2c-5.5,1.4-10.3,10-13.5,14.8l-1.1,1.7c-0.6,0.9-0.7,2.2-0.1,3.2
	l5.3,3.9C286.2,335.8,287.2,336.4,288.3,336.4z"/>
<polygon class="st2" points="294.1,324.1 301.2,313.5 315.3,315.3 315.3,324.1 "/>
<polygon class="st2" points="317,315.3 317,324.1 334.6,324.1 329.4,317 "/>
<path class="st1" d="M284.8,317c1.8,3.6,1.1,7.9-1.8,10.8l-3.1,3.1c-1.2,1.2-2,2.7-2.5,4.3l-0.8,3.4c-1.1,4.1-4.8,7-9,7h-1.2
	c-2.8,0-5.5-1.3-7.2-3.5l-9.8-12.2c-0.2-0.3-0.4-0.5-0.7-0.8l-6-6c-3.6-3.6-3.6-9.5,0-13.1l0,0l3.6-3.6c1.7-1.7,4.1-2.7,6.6-2.7h6.2
	c1.8,0,3.6-0.5,5.1-1.6l1-0.7c3.7-2.4,8.6-1.9,11.8,1.2l0,0c0.7,0.7,1.3,1.5,1.7,2.4L284.8,317"/>
<path class="st2" d="M284.8,316.8c1.8,3.6,1.1,7.9-1.8,10.7l-3.1,3.1c-1.2,1.2-2,2.7-2.5,4.3l-0.8,3.4c-1,4.1-4.8,7-9,7h-1.2
	c-2.8,0-5.5-1.3-7.2-3.5l-9.8-12.2c-0.2-0.3-0.4-0.5-0.7-0.8l-6-6c-3.6-3.6-3.6-9.5,0-13.1l0,0l3.6-3.6c1.7-1.7,4.1-2.7,6.6-2.7h6.2
	c1.8,0,3.6-0.5,5.1-1.6l1-0.7c3.7-2.5,8.6-1.9,11.8,1.2l0,0c0.7,0.7,1.3,1.5,1.7,2.4L284.8,316.8"/>
<circle class="st1" cx="249.4" cy="305.9" r="13.2"/>
<circle class="st1" cx="241.2" cy="321.4" r="8.3"/>
<ellipse class="st1" cx="270.8" cy="208.5" rx="22" ry="22"/>
<circle class="st1" cx="277.5" cy="222.2" r="22"/>
<circle class="st1" cx="292.9" cy="177.6" r="17.6"/>
<circle class="st1" cx="306.1" cy="212.9" r="26.4"/>
<ellipse class="st1" cx="298.3" cy="275.6" rx="30.8" ry="28.6"/>
<rect x="284" y="217.3" class="st1" width="8.8" height="48.4"/>
<rect x="291.6" y="250.7" class="st1" width="11" height="94.3"/>
<rect x="40" y="345" class="st1" width="106.7" height="15"/>
<polyline class="st1" points="360,360 146.7,360 146.7,345 360,345 "/>
<rect x="40" y="180" class="st1" width="140" height="165"/>
<rect x="50" y="169.3" class="st1" width="80" height="20"/>
<rect x="50" y="195" class="st2" width="45" height="50"/>
<rect x="50" y="260" class="st2" width="45" height="50"/>
<rect x="105" y="195" class="st2" width="25" height="50"/>
<rect x="105" y="260" class="st2" width="25" height="50"/>
<rect x="140" y="195" class="st2" width="25" height="50"/>
<rect x="140" y="260" class="st2" width="25" height="50"/>
</svg>
