<?xml version="1.0" encoding="utf-8"?>
<!-- Generator: Adobe Illustrator 23.1.1, SVG Export Plug-In . SVG Version: 6.00 Build 0)  -->
<svg version="1.1" id="Options" xmlns="http://www.w3.org/2000/svg" xmlns:xlink="http://www.w3.org/1999/xlink" x="0px" y="0px"
	 viewBox="0 0 400 400" style="enable-background:new 0 0 400 400;" xml:space="preserve">
<style type="text/css">
	.st0{fill:none;}
	.st1{opacity:0.5;}
	.st2{fill:url(#SVGID_1_);}
	.st3{fill:url(#SVGID_2_);}
	.st4{fill:url(#SVGID_3_);}
	.st5{fill:url(#SVGID_4_);}
	.st6{fill:url(#SVGID_5_);}
	.st7{fill:url(#SVGID_6_);}
	.st8{opacity:0.25;fill:#50565B;enable-background:new    ;}
	.st9{fill:#828E93;}
	.st10{fill:url(#SVGID_7_);}
	.st11{fill:url(#SVGID_8_);}
	.st12{fill:url(#SVGID_9_);}
	.st13{fill:url(#SVGID_10_);}
	.st14{fill:url(#SVGID_11_);}
	.st15{fill:url(#SVGID_12_);}
	.st16{fill:url(#SVGID_13_);}
	.st17{fill:url(#SVGID_14_);}
	.st18{fill:url(#SVGID_15_);}
	.st19{fill:url(#SVGID_16_);}
	.st20{fill:url(#SVGID_17_);}
</style>
<title>Artboard 2 copy 17</title>
<rect class="st0" width="400" height="400"/>
<g class="st1">
	<linearGradient id="SVGID_1_" gradientUnits="userSpaceOnUse" x1="50" y1="179.3" x2="130" y2="179.3">
		<stop  offset="1.472383e-03" style="stop-color:#D0E2E7"/>
		<stop  offset="1" style="stop-color:#818D92"/>
	</linearGradient>
	<rect x="50" y="169.3" class="st2" width="80" height="20"/>
	<linearGradient id="SVGID_2_" gradientUnits="userSpaceOnUse" x1="284" y1="241.5" x2="292.8" y2="241.5">
		<stop  offset="0" style="stop-color:#E19176"/>
		<stop  offset="1" style="stop-color:#8D5C4A"/>
	</linearGradient>
	<rect x="284" y="217.3" class="st3" width="8.8" height="48.4"/>
	<linearGradient id="SVGID_3_" gradientUnits="userSpaceOnUse" x1="291.6" y1="297.85" x2="302.6" y2="297.85">
		<stop  offset="0" style="stop-color:#E19176"/>
		<stop  offset="1" style="stop-color:#8D5C4A"/>
	</linearGradient>
	<rect x="291.6" y="250.7" class="st4" width="11" height="94.3"/>
	<linearGradient id="SVGID_4_" gradientUnits="userSpaceOnUse" x1="293.6" y1="338.2" x2="307.8" y2="338.2">
		<stop  offset="0" style="stop-color:#818D92"/>
		<stop  offset="1" style="stop-color:#50565B"/>
	</linearGradient>
	<circle class="st5" cx="300.7" cy="338.2" r="7.1"/>
	<linearGradient id="SVGID_5_" gradientUnits="userSpaceOnUse" x1="328.9" y1="338.2" x2="343.1" y2="338.2">
		<stop  offset="0" style="stop-color:#818D92"/>
		<stop  offset="1" style="stop-color:#50565B"/>
	</linearGradient>
	<circle class="st6" cx="336" cy="338.2" r="7.1"/>
	<linearGradient id="SVGID_6_" gradientUnits="userSpaceOnUse" x1="279.6969" y1="323.2" x2="356.9001" y2="323.2">
		<stop  offset="1.472383e-03" style="stop-color:#D0E2E7"/>
		<stop  offset="1" style="stop-color:#818D92"/>
	</linearGradient>
	<path class="st7" d="M288.3,336.4h2.3c0.8,0,1.6-0.3,2.1-0.9l0,0c0.6-0.6,1.3-0.9,2.1-0.9h11.6c0.8,0,1.6,0.3,2.1,0.9l0,0
		c0.6,0.6,1.3,0.9,2.1,0.9h15.2c0.8,0,1.6-0.3,2.1-0.9l0,0c0.6-0.6,1.3-0.9,2.1-0.9h11.6c0.8,0,1.6,0.3,2.1,0.9l0,0
		c0.6,0.6,1.3,0.9,2.1,0.9h8.1c1.7,0,3-1.3,3-3V333c0-1.1-0.6-2.2-1.7-2.7l-12.2-6.1c-0.2-0.1-0.3-0.2-0.5-0.3l-13.3-10
		c-0.4-0.3-0.9-0.5-1.4-0.6l-26.9-3.3c-0.4,0-0.7,0-1.1,0.1l-5,1.2c-5.5,1.4-10.3,10-13.5,14.8l-1.1,1.7c-0.6,0.9-0.7,2.2-0.1,3.2
		l5.3,3.9C286.2,335.8,287.2,336.4,288.3,336.4z"/>
	<polygon class="st8" points="294.1,324.1 301.2,313.5 315.3,315.3 315.3,324.1 	"/>
	<polygon class="st8" points="317,315.3 317,324.1 334.6,324.1 329.4,317 	"/>
	<path class="st9" d="M284.8,317c1.8,3.6,1.1,7.9-1.8,10.8l-3.1,3.1c-1.2,1.2-2,2.7-2.5,4.3l-0.8,3.4c-1.1,4.1-4.8,7-9,7h-1.2
		c-2.8,0-5.5-1.3-7.2-3.5l-9.8-12.2c-0.2-0.3-0.4-0.5-0.7-0.8l-6-6c-3.6-3.6-3.6-9.5,0-13.1l0,0l3.6-3.6c1.7-1.7,4.1-2.7,6.6-2.7
		h6.2c1.8,0,3.6-0.5,5.1-1.6l1-0.7c3.7-2.4,8.6-1.9,11.8,1.2l0,0c0.7,0.7,1.3,1.5,1.7,2.4L284.8,317"/>
	<linearGradient id="SVGID_7_" gradientUnits="userSpaceOnUse" x1="240" y1="322.423" x2="285.7865" y2="322.423">
		<stop  offset="0" style="stop-color:#B9785D"/>
		<stop  offset="1" style="stop-color:#00A68D"/>
	</linearGradient>
	<path class="st10" d="M284.8,316.8c1.8,3.6,1.1,7.9-1.8,10.7l-3.1,3.1c-1.2,1.2-2,2.7-2.5,4.3l-0.8,3.4c-1,4.1-4.8,7-9,7h-1.2
		c-2.8,0-5.5-1.3-7.2-3.5l-9.8-12.2c-0.2-0.3-0.4-0.5-0.7-0.8l-6-6c-3.6-3.6-3.6-9.5,0-13.1l0,0l3.6-3.6c1.7-1.7,4.1-2.7,6.6-2.7
		h6.2c1.8,0,3.6-0.5,5.1-1.6l1-0.7c3.7-2.5,8.6-1.9,11.8,1.2l0,0c0.7,0.7,1.3,1.5,1.7,2.4L284.8,316.8"/>
	<linearGradient id="SVGID_8_" gradientUnits="userSpaceOnUse" x1="236.2" y1="305.9" x2="262.6" y2="305.9">
		<stop  offset="0" style="stop-color:#00E9BD"/>
		<stop  offset="1" style="stop-color:#007C65"/>
	</linearGradient>
	<circle class="st11" cx="249.4" cy="305.9" r="13.2"/>
	<linearGradient id="SVGID_9_" gradientUnits="userSpaceOnUse" x1="232.9" y1="321.4" x2="249.5" y2="321.4">
		<stop  offset="0" style="stop-color:#00E9BD"/>
		<stop  offset="1" style="stop-color:#007C65"/>
	</linearGradient>
	<circle class="st12" cx="241.2" cy="321.4" r="8.3"/>
	<linearGradient id="SVGID_10_" gradientUnits="userSpaceOnUse" x1="267.5" y1="275.6" x2="329.1" y2="275.6">
		<stop  offset="0" style="stop-color:#00A68D"/>
		<stop  offset="1" style="stop-color:#007C65"/>
	</linearGradient>
	<ellipse class="st13" cx="298.3" cy="275.6" rx="30.8" ry="28.6"/>
	<linearGradient id="SVGID_11_" gradientUnits="userSpaceOnUse" x1="40" y1="352.5" x2="180" y2="352.5">
		<stop  offset="1.472383e-03" style="stop-color:#D0E2E7"/>
		<stop  offset="1" style="stop-color:#818D92"/>
	</linearGradient>
	<rect x="40" y="345" class="st14" width="140" height="15"/>
	<linearGradient id="SVGID_12_" gradientUnits="userSpaceOnUse" x1="180" y1="352.5" x2="360" y2="352.5">
		<stop  offset="1.472383e-03" style="stop-color:#D0E2E7"/>
		<stop  offset="1" style="stop-color:#818D92"/>
	</linearGradient>
	<polyline class="st15" points="360,360 180,360 180,345 360,345 	"/>
	<linearGradient id="SVGID_13_" gradientUnits="userSpaceOnUse" x1="40" y1="262.5" x2="180" y2="262.5">
		<stop  offset="0" style="stop-color:#EED25E"/>
		<stop  offset="1" style="stop-color:#FBEAA1"/>
	</linearGradient>
	<rect x="40" y="180" class="st16" width="140" height="165"/>
	<rect x="50" y="195" class="st8" width="45" height="50"/>
	<rect x="50" y="260" class="st8" width="45" height="50"/>
	<rect x="105" y="195" class="st8" width="25" height="50"/>
	<rect x="105" y="260" class="st8" width="25" height="50"/>
	<rect x="140" y="195" class="st8" width="25" height="50"/>
	<rect x="140" y="260" class="st8" width="25" height="50"/>
	<linearGradient id="SVGID_14_" gradientUnits="userSpaceOnUse" x1="248.8" y1="208.5" x2="292.8" y2="208.5">
		<stop  offset="0" style="stop-color:#00A68D"/>
		<stop  offset="1" style="stop-color:#007C65"/>
	</linearGradient>
	<ellipse class="st17" cx="270.8" cy="208.5" rx="22" ry="22"/>
	<linearGradient id="SVGID_15_" gradientUnits="userSpaceOnUse" x1="255.5" y1="222.2" x2="299.5" y2="222.2">
		<stop  offset="0" style="stop-color:#00E9BD"/>
		<stop  offset="1" style="stop-color:#007C65"/>
	</linearGradient>
	<circle class="st18" cx="277.5" cy="222.2" r="22"/>
	<linearGradient id="SVGID_16_" gradientUnits="userSpaceOnUse" x1="275.3" y1="177.6" x2="310.5" y2="177.6">
		<stop  offset="0" style="stop-color:#00E9BD"/>
		<stop  offset="1" style="stop-color:#007C65"/>
	</linearGradient>
	<circle class="st19" cx="292.9" cy="177.6" r="17.6"/>
	<linearGradient id="SVGID_17_" gradientUnits="userSpaceOnUse" x1="279.7" y1="212.9" x2="332.5" y2="212.9">
		<stop  offset="0" style="stop-color:#00E9BD"/>
		<stop  offset="1" style="stop-color:#007C65"/>
	</linearGradient>
	<circle class="st20" cx="306.1" cy="212.9" r="26.4"/>
</g>
</svg>
