<?xml version="1.0" encoding="iso-8859-1"?>
<!-- Generator: Adobe Illustrator 19.0.0, SVG Export Plug-In . SVG Version: 6.00 Build 0)  -->
<svg version="1.1" id="Layer_1" xmlns="http://www.w3.org/2000/svg" xmlns:xlink="http://www.w3.org/1999/xlink" x="0px" y="0px"
	 viewBox="0 0 486.538 486.538" style="enable-background:new 0 0 486.538 486.538;" xml:space="preserve">
<g>
	<g>
		<path d="M365.697,0l-13.923,13.923l67.76,67.76H132.139c-54.452,0-98.75,44.298-98.75,98.745v61.389h19.692v-61.389
			c0-43.591,35.466-79.053,79.058-79.053h287.394l-67.76,67.76l13.923,13.923l91.529-91.529L365.697,0z"/>
	</g>
</g>
<g>
	<g>
		<path d="M433.457,244.716v61.389c0,43.591-35.466,79.058-79.058,79.058H67.004l67.76-67.764l-13.923-13.923L29.313,395.01
			l91.529,91.529l13.923-13.923l-67.76-67.76h287.394c54.452,0,98.75-44.298,98.75-98.75v-61.389H433.457z"/>
	</g>
</g>
</svg>
