<?xml version="1.0" encoding="utf-8"?>
<!-- Generator: Adobe Illustrator 23.1.1, SVG Export Plug-In . SVG Version: 6.00 Build 0)  -->
<svg version="1.1" xmlns="http://www.w3.org/2000/svg" xmlns:xlink="http://www.w3.org/1999/xlink" x="0px" y="0px"
	 viewBox="0 0 3840 2160" style="enable-background:new 0 0 3840 2160;" xml:space="preserve">
<style type="text/css">
	.st0{fill:transparent;}
	.st1{fill:url(#SVGID_1_);}
	.st2{fill:url(#SVGID_2_);}
	.st3{fill:url(#SVGID_3_);}
	.st4{fill:url(#SVGID_4_);}
	.st5{fill:url(#SVGID_5_);}
	.st6{fill:url(#SVGID_6_);}
	.st7{fill:#E5E5E5;}
	.st8{fill:url(#SVGID_7_);}
	.st9{fill:url(#SVGID_8_);}
	.st10{fill:#B2B2B2;}
	.st11{fill:url(#SVGID_9_);}
	.st12{fill:#828E93;}
	.st13{opacity:0.5;fill:url(#SVGID_10_);}
	.st14{opacity:0.5;fill:url(#SVGID_11_);}
	.st15{opacity:0.5;fill:url(#SVGID_12_);}
	.st16{fill:#50565B;}
	.st17{fill:url(#SVGID_13_);}
	.st18{fill:#FCEBA2;}
	.st19{fill:url(#SVGID_14_);}
	.st20{fill:url(#SVGID_15_);}
	.st21{fill:url(#SVGID_16_);}
	.st22{fill:url(#SVGID_17_);}
	.st23{fill:url(#SVGID_18_);}
	.st24{fill:url(#SVGID_19_);}
	.st25{fill:url(#SVGID_20_);}
	.st26{fill:url(#SVGID_21_);}
	.st27{fill:url(#SVGID_22_);}
	.st28{fill:url(#SVGID_23_);}
	.st29{fill:url(#SVGID_24_);}
	.st30{fill:url(#SVGID_25_);}
	.st31{fill:url(#SVGID_26_);}
	.st32{fill:#989898;}
	.st33{fill:url(#SVGID_27_);}
	.st34{fill:url(#SVGID_28_);}
	.st35{fill:#CBCBCB;}
	.st36{fill:url(#SVGID_29_);}
	.st37{fill:url(#SVGID_30_);}
	.st38{fill:url(#SVGID_31_);}
	.st39{fill:url(#SVGID_32_);}
	.st40{fill:url(#SVGID_33_);}
	.st41{fill:url(#SVGID_34_);}
	.st42{fill:url(#SVGID_35_);}
	.st43{fill:url(#SVGID_36_);}
	.st44{fill:url(#SVGID_37_);}
	.st45{fill:url(#SVGID_38_);}
	.st46{fill:url(#SVGID_39_);}
	.st47{fill:url(#SVGID_40_);}
	.st48{fill:url(#SVGID_41_);}
	.st49{fill:url(#SVGID_42_);}
	.st50{fill:url(#SVGID_43_);}
	.st51{fill:url(#SVGID_44_);}
	.st52{fill:url(#SVGID_45_);}
	.st53{fill:url(#SVGID_46_);}
	.st54{fill:url(#SVGID_47_);}
	.st55{fill:url(#SVGID_48_);}
	.st56{opacity:0.5;fill:#50565B;}
	.st57{opacity:0.5;fill:url(#SVGID_49_);}
	.st58{fill:url(#SVGID_50_);}
	.st59{fill:url(#SVGID_51_);}
	.st60{fill:url(#SVGID_52_);}
	.st61{fill:url(#SVGID_53_);}
	.st62{fill:url(#SVGID_54_);}
</style>
<g id="Back">
	<rect class="st0" width="3840" height="2160"/>
</g>
<g id="Shops">
	<linearGradient id="SVGID_1_" gradientUnits="userSpaceOnUse" x1="105" y1="1598.75" x2="208.2084" y2="1598.75">
		<stop  offset="1.194619e-03" style="stop-color:#B2B2B2"/>
		<stop  offset="1" style="stop-color:#CBCBCB"/>
	</linearGradient>
	<path class="st1" d="M111.71,1560h22.9c3.56,0,6.97,1.41,9.49,3.93l62.13,62.13c4.22,4.22,1.23,11.44-4.74,11.44H187.5
		c-7.91,0-15.51-3.08-21.19-8.58l-59.26-57.41C102.73,1567.32,105.69,1560,111.71,1560z"/>
	<linearGradient id="SVGID_2_" gradientUnits="userSpaceOnUse" x1="85" y1="1512.1875" x2="222.3855" y2="1512.1875">
		<stop  offset="0" style="stop-color:#8E5C4A"/>
		<stop  offset="1" style="stop-color:#E29276"/>
	</linearGradient>
	<path class="st2" d="M88.12,1490h76.12c0.83,0,1.62,0.33,2.2,0.91l10.68,10.68c0.58,0.58,1.38,0.91,2.2,0.91h24.92
		c0.83,0,1.62,0.33,2.2,0.91l15.03,15.03c1.96,1.96,0.57,5.31-2.2,5.31h-56.22c-2.77,0-4.16,3.35-2.2,5.31h0
		c1.96,1.96,0.57,5.31-2.2,5.31h-31.84c-0.82,0-1.6-0.32-2.19-0.9l-38.69-38.15C83.95,1493.37,85.34,1490,88.12,1490z"/>
	
		<linearGradient id="SVGID_3_" gradientUnits="userSpaceOnUse" x1="4117.6143" y1="2096.6331" x2="4209.272" y2="2096.6331" gradientTransform="matrix(-1 0 0 -1 4301.6577 3620.6721)">
		<stop  offset="0" style="stop-color:#06EABE"/>
		<stop  offset="1" style="stop-color:#00A78E"/>
	</linearGradient>
	<path class="st3" d="M126.77,1537.6l-8.94-8.94c-0.34-0.34-0.81-0.54-1.29-0.54h-13.48c-0.49,0-0.95-0.19-1.29-0.54l-8.84-8.84
		c-1.15-1.15-0.34-3.12,1.29-3.12h38.66c1.63,0,2.45-1.97,1.29-3.12h0c-1.15-1.15-0.34-3.12,1.29-3.12h21.07
		c0.49,0,0.95,0.19,1.29,0.54l25.67,25.67c1.16,1.16,0.33,3.14-1.31,3.12l-54.14-0.57C127.57,1538.13,127.11,1537.94,126.77,1537.6z
		"/>
	<linearGradient id="SVGID_4_" gradientUnits="userSpaceOnUse" x1="527.6145" y1="1647.1875" x2="665" y2="1647.1875">
		<stop  offset="0" style="stop-color:#8E5C4A"/>
		<stop  offset="1" style="stop-color:#E29276"/>
	</linearGradient>
	<path class="st4" d="M530.73,1625h76.12c0.83,0,1.62,0.33,2.2,0.91l10.68,10.68c0.58,0.58,1.38,0.91,2.2,0.91h24.92
		c0.83,0,1.62,0.33,2.2,0.91l15.03,15.03c1.96,1.96,0.57,5.31-2.2,5.31h-56.22c-2.77,0-4.16,3.35-2.2,5.31l0,0
		c1.96,1.96,0.57,5.31-2.2,5.31h-31.84c-0.82,0-1.6-0.32-2.19-0.9l-38.69-38.15C526.57,1628.37,527.95,1625,530.73,1625z"/>
	
		<linearGradient id="SVGID_5_" gradientUnits="userSpaceOnUse" x1="3675" y1="1961.6332" x2="3766.6577" y2="1961.6332" gradientTransform="matrix(-1 0 0 -1 4301.6577 3620.6721)">
		<stop  offset="0" style="stop-color:#06EABE"/>
		<stop  offset="1" style="stop-color:#00A78E"/>
	</linearGradient>
	<path class="st5" d="M569.39,1672.6l-8.94-8.94c-0.34-0.34-0.81-0.54-1.29-0.54h-13.48c-0.49,0-0.95-0.19-1.29-0.54l-8.84-8.84
		c-1.15-1.15-0.34-3.12,1.29-3.12h38.66c1.63,0,2.45-1.97,1.29-3.12l0,0c-1.15-1.15-0.34-3.12,1.29-3.12h21.07
		c0.49,0,0.95,0.19,1.29,0.54l25.67,25.67c1.16,1.16,0.33,3.14-1.31,3.12l-54.14-0.57C570.18,1673.13,569.73,1672.94,569.39,1672.6z
		"/>
	
		<linearGradient id="SVGID_6_" gradientUnits="userSpaceOnUse" x1="4068.3154" y1="1962.9303" x2="4159.9731" y2="1962.9303" gradientTransform="matrix(1 0 0 1 -3863.3154 -302.5942)">
		<stop  offset="1.194619e-03" style="stop-color:#B2B2B2"/>
		<stop  offset="1" style="stop-color:#CBCBCB"/>
	</linearGradient>
	<path class="st6" d="M262.27,1646.78l8.94,8.94c0.34,0.34,0.81,0.54,1.29,0.54h13.48c0.49,0,0.95,0.19,1.29,0.54l8.84,8.84
		c1.15,1.15,0.34,3.12-1.29,3.12h-38.66c-1.63,0-2.45,1.97-1.29,3.12l0,0c1.15,1.15,0.34,3.12-1.29,3.12H232.5
		c-0.49,0-0.95-0.19-1.29-0.54l-25.67-25.67c-1.16-1.16-0.33-3.14,1.31-3.12l54.14,0.57
		C261.47,1646.25,261.93,1646.44,262.27,1646.78z"/>
	<rect x="245" y="1525" class="st7" width="370" height="135"/>
	<linearGradient id="SVGID_7_" gradientUnits="userSpaceOnUse" x1="145" y1="1542.5" x2="245" y2="1542.5">
		<stop  offset="1.194619e-03" style="stop-color:#B2B2B2"/>
		<stop  offset="1" style="stop-color:#CBCBCB"/>
	</linearGradient>
	<polygon class="st8" points="245,1660 145,1560 145,1425 245,1525 	"/>
	<g>
		<linearGradient id="SVGID_8_" gradientUnits="userSpaceOnUse" x1="155" y1="1520" x2="195" y2="1520">
			<stop  offset="0" style="stop-color:#FFFFFF"/>
			<stop  offset="1" style="stop-color:#D1E3E8"/>
		</linearGradient>
		<polygon class="st9" points="155,1450 195,1490 195,1590 155,1550 		"/>
		<g>
			<polygon class="st10" points="140,1435 145,1435 200,1490 195,1490 			"/>
			<polygon class="st0" points="140,1455 195,1510 195,1490 140,1435 			"/>
			<linearGradient id="SVGID_9_" gradientUnits="userSpaceOnUse" x1="195" y1="1500" x2="200" y2="1500">
				<stop  offset="0" style="stop-color:#E5E5E5"/>
				<stop  offset="1" style="stop-color:#F1F1F1"/>
			</linearGradient>
			<rect x="195" y="1490" class="st11" width="5" height="20"/>
		</g>
		<polygon class="st12" points="145,1445 145,1455 150,1460 		"/>
		<polygon class="st12" points="185,1495 185,1485 180,1480 		"/>
		<polygon class="st12" points="155,1465 155,1455 160,1460 160,1470 		"/>
		<polygon class="st12" points="165,1475 165,1465 175,1475 175,1485 170,1480 170,1475 		"/>
		<linearGradient id="SVGID_10_" gradientUnits="userSpaceOnUse" x1="154.8438" y1="1550" x2="194.6875" y2="1550">
			<stop  offset="1.472383e-03" style="stop-color:#D1E3E8"/>
			<stop  offset="1" style="stop-color:#B0C1C6"/>
		</linearGradient>
		<polygon class="st13" points="155,1510 162.5,1517.5 162.5,1525 168.75,1531.25 168.75,1540 168.75,1550 179.38,1560.62 
			179.38,1555 194.69,1570.31 194.69,1590 154.84,1550.16 		"/>
		
			<linearGradient id="SVGID_11_" gradientUnits="userSpaceOnUse" x1="575.9872" y1="2090.9976" x2="590.9872" y2="2090.9976" gradientTransform="matrix(0.7071 0.7071 -0.7071 0.7071 1253.4708 -336.1464)">
			<stop  offset="1.472383e-03" style="stop-color:#D1E3E8"/>
			<stop  offset="1" style="stop-color:#B0C1C6"/>
		</linearGradient>
		<path class="st14" d="M192.8,1560.3c-1.95,1.95-5.91,1.16-8.84-1.77c-2.93-2.93-3.72-6.89-1.77-8.84s5.91-1.16,8.84,1.77
			C193.96,1554.39,194.76,1558.35,192.8,1560.3z"/>
		
			<linearGradient id="SVGID_12_" gradientUnits="userSpaceOnUse" x1="528.4068" y1="2078.6233" x2="538.2945" y2="2078.6233" gradientTransform="matrix(0.7071 0.7071 -0.7071 0.7071 1253.4708 -336.1464)">
			<stop  offset="1.472383e-03" style="stop-color:#D1E3E8"/>
			<stop  offset="1" style="stop-color:#B0C1C6"/>
		</linearGradient>
		<path class="st15" d="M164.29,1514.29c-1.29,1.29-3.9,0.77-5.83-1.17c-1.93-1.93-2.45-4.54-1.17-5.83
			c1.29-1.29,3.9-0.77,5.83,1.17C165.06,1510.4,165.58,1513.01,164.29,1514.29z"/>
	</g>
	<g>
		<polygon class="st16" points="204.75,1614.75 204.75,1524.75 234.75,1554.75 234.75,1644.75 		"/>
		<linearGradient id="SVGID_13_" gradientUnits="userSpaceOnUse" x1="214.7471" y1="1584.7472" x2="234.7471" y2="1584.7472">
			<stop  offset="0" style="stop-color:#FFFFFF"/>
			<stop  offset="1" style="stop-color:#D1E3E8"/>
		</linearGradient>
		<polygon class="st17" points="214.75,1534.75 214.75,1614.75 234.75,1634.75 234.75,1554.75 		"/>
		<circle class="st18" cx="217.25" cy="1537.25" r="7.5"/>
		<polygon class="st12" points="204.75,1619.75 204.75,1614.75 234.75,1644.75 235,1650 		"/>
		<linearGradient id="SVGID_14_" gradientUnits="userSpaceOnUse" x1="214.7471" y1="1604.7472" x2="234.7471" y2="1604.7472">
			<stop  offset="1.472383e-03" style="stop-color:#D1E3E8"/>
			<stop  offset="1" style="stop-color:#B0C1C6"/>
		</linearGradient>
		<polygon class="st19" points="214.75,1574.75 234.75,1594.75 234.75,1634.75 214.75,1614.75 		"/>
		<linearGradient id="SVGID_15_" gradientUnits="userSpaceOnUse" x1="219.7471" y1="1559.7472" x2="229.7471" y2="1559.7472">
			<stop  offset="1.472383e-03" style="stop-color:#D1E3E8"/>
			<stop  offset="1" style="stop-color:#B0C1C6"/>
		</linearGradient>
		<polygon class="st20" points="219.75,1554.75 219.75,1559.75 229.75,1569.75 229.75,1559.75 219.75,1549.75 		"/>
	</g>
	<g>
		<polygon class="st0" points="110,1465 115,1470 115,1495 110,1490 		"/>
		<g>
			<path class="st12" d="M135,1485h12.5c1.38,0,2.5,1.12,2.5,2.5l0,0c0,1.38-1.12,2.5-2.5,2.5H135V1485z"/>
			<path class="st12" d="M135,1475h12.5c1.38,0,2.5,1.12,2.5,2.5l0,0c0,1.38-1.12,2.5-2.5,2.5H135V1475z"/>
			<linearGradient id="SVGID_16_" gradientUnits="userSpaceOnUse" x1="115" y1="1482.5" x2="135" y2="1482.5">
				<stop  offset="0" style="stop-color:#E5E5E5"/>
				<stop  offset="1" style="stop-color:#F1F1F1"/>
			</linearGradient>
			<polygon class="st21" points="135,1475 135,1470 115,1470 115,1495 135,1495 			"/>
			<polygon class="st7" points="130,1465 135,1470 115,1470 110,1465 			"/>
			<linearGradient id="SVGID_17_" gradientUnits="userSpaceOnUse" x1="120" y1="1490" x2="130" y2="1490">
				<stop  offset="0" style="stop-color:#F77A61"/>
				<stop  offset="1" style="stop-color:#C15F4F"/>
			</linearGradient>
			<circle class="st22" cx="125" cy="1490" r="5"/>
			<linearGradient id="SVGID_18_" gradientUnits="userSpaceOnUse" x1="125" y1="1485" x2="135" y2="1485">
				<stop  offset="0" style="stop-color:#F77A61"/>
				<stop  offset="1" style="stop-color:#C15F4F"/>
			</linearGradient>
			<circle class="st23" cx="130" cy="1485" r="5"/>
			<rect x="120" y="1470" transform="matrix(3.639695e-13 1 -1 3.639695e-13 1600 1355)" class="st0" width="5" height="15"/>
		</g>
	</g>
	<linearGradient id="SVGID_19_" gradientUnits="userSpaceOnUse" x1="149.8438" y1="1507.5782" x2="154.9219" y2="1507.5782">
		<stop  offset="1.472383e-03" style="stop-color:#D1E3E8"/>
		<stop  offset="1" style="stop-color:#B0C1C6"/>
	</linearGradient>
	<path class="st24" d="M154.84,1550.16l-5-5V1465l5.08,5.08C154.92,1470.08,154.69,1550.31,154.84,1550.16z"/>
	<g>
		<linearGradient id="SVGID_20_" gradientUnits="userSpaceOnUse" x1="162.5" y1="1610" x2="177.5" y2="1610">
			<stop  offset="0" style="stop-color:#8E5C4A"/>
			<stop  offset="1" style="stop-color:#E29276"/>
		</linearGradient>
		<ellipse class="st25" cx="170" cy="1610" rx="7.5" ry="2.5"/>
		<linearGradient id="SVGID_21_" gradientUnits="userSpaceOnUse" x1="167.5" y1="1597.5" x2="172.5" y2="1597.5">
			<stop  offset="0" style="stop-color:#8E5C4A"/>
			<stop  offset="1" style="stop-color:#E29276"/>
		</linearGradient>
		<rect x="167.5" y="1582.5" class="st26" width="5" height="30"/>
		<linearGradient id="SVGID_22_" gradientUnits="userSpaceOnUse" x1="147.5" y1="1582.5" x2="192.5" y2="1582.5">
			<stop  offset="0" style="stop-color:#8E5C4A"/>
			<stop  offset="1" style="stop-color:#E29276"/>
		</linearGradient>
		<ellipse class="st27" cx="170" cy="1582.5" rx="22.5" ry="10"/>
	</g>
	<g>
		<polygon class="st16" points="137.8,1598.84 123.66,1584.7 130.73,1584.7 141.34,1595.3 		"/>
		<path class="st12" d="M105,1570l15,15h11.23c3.24,0,4.86-3.91,2.57-6.2h0c-5.63-5.63-13.28-8.8-21.24-8.8H105z"/>
		<polygon class="st16" points="105,1570 105,1550 110,1555 110,1575 		"/>
		<polygon class="st16" points="105,1590 105,1570 110,1575 110,1590 		"/>
		<polygon class="st16" points="115,1580 115,1560 120,1565 120,1585 		"/>
		<polygon class="st16" points="115,1600 115,1580 120,1585 120,1600 		"/>
		<polygon class="st16" points="105,1550 120,1565 120,1570 105,1555 		"/>
	</g>
	<g>
		<g>
			<linearGradient id="SVGID_23_" gradientUnits="userSpaceOnUse" x1="125" y1="1572.5" x2="140" y2="1572.5">
				<stop  offset="0" style="stop-color:#8E5C4A"/>
				<stop  offset="1" style="stop-color:#E29276"/>
			</linearGradient>
			<ellipse class="st28" cx="132.5" cy="1572.5" rx="7.5" ry="2.5"/>
			<linearGradient id="SVGID_24_" gradientUnits="userSpaceOnUse" x1="130" y1="1560" x2="135" y2="1560">
				<stop  offset="0" style="stop-color:#8E5C4A"/>
				<stop  offset="1" style="stop-color:#E29276"/>
			</linearGradient>
			<rect x="130" y="1545" class="st29" width="5" height="30"/>
			<linearGradient id="SVGID_25_" gradientUnits="userSpaceOnUse" x1="110" y1="1545" x2="155" y2="1545">
				<stop  offset="0" style="stop-color:#8E5C4A"/>
				<stop  offset="1" style="stop-color:#E29276"/>
			</linearGradient>
			<ellipse class="st30" cx="132.5" cy="1545" rx="22.5" ry="10"/>
		</g>
		<linearGradient id="SVGID_26_" gradientUnits="userSpaceOnUse" x1="140" y1="1547.5" x2="150" y2="1547.5">
			<stop  offset="1.472383e-03" style="stop-color:#D1E3E8"/>
			<stop  offset="1" style="stop-color:#828E93"/>
		</linearGradient>
		<ellipse class="st31" cx="145" cy="1547.5" rx="5" ry="2.5"/>
	</g>
	<polygon class="st10" points="615,1525 515,1425 145,1425 245,1525 	"/>
	<polyline class="st32" points="160,1430 250,1520 600,1520 510,1430 160,1430 	"/>
	<g>
		<g>
			<linearGradient id="SVGID_27_" gradientUnits="userSpaceOnUse" x1="455.7022" y1="1422.5" x2="300.7022" y2="1422.5">
				<stop  offset="1.194619e-03" style="stop-color:#E5E5E5"/>
				<stop  offset="1" style="stop-color:#CBCBCB"/>
			</linearGradient>
			<polygon class="st33" points="295,1395 350,1450 450,1450 395,1395 			"/>
			<linearGradient id="SVGID_28_" gradientUnits="userSpaceOnUse" x1="295" y1="1452.5" x2="350" y2="1452.5">
				<stop  offset="1.194619e-03" style="stop-color:#B2B2B2"/>
				<stop  offset="1" style="stop-color:#CBCBCB"/>
			</linearGradient>
			<polygon class="st34" points="295,1455 295,1395 350,1450 350,1510 			"/>
			<rect x="350" y="1450" class="st35" width="100" height="60"/>
			<g>
				<linearGradient id="SVGID_29_" gradientUnits="userSpaceOnUse" x1="305" y1="1432.5" x2="335" y2="1432.5">
					<stop  offset="0" style="stop-color:#3C4044"/>
					<stop  offset="1" style="stop-color:#828E93"/>
				</linearGradient>
				<polygon class="st36" points="305,1415 305,1420 335,1450 335,1445 				"/>
				<linearGradient id="SVGID_30_" gradientUnits="userSpaceOnUse" x1="305" y1="1442.5" x2="335" y2="1442.5">
					<stop  offset="0" style="stop-color:#3C4044"/>
					<stop  offset="1" style="stop-color:#828E93"/>
				</linearGradient>
				<polygon class="st37" points="305,1425 305,1430 335,1460 335,1455 				"/>
				<linearGradient id="SVGID_31_" gradientUnits="userSpaceOnUse" x1="305" y1="1452.5" x2="335" y2="1452.5">
					<stop  offset="0" style="stop-color:#3C4044"/>
					<stop  offset="1" style="stop-color:#828E93"/>
				</linearGradient>
				<polygon class="st38" points="305,1435 305,1440 335,1470 335,1465 				"/>
				<linearGradient id="SVGID_32_" gradientUnits="userSpaceOnUse" x1="305" y1="1462.5" x2="335" y2="1462.5">
					<stop  offset="0" style="stop-color:#3C4044"/>
					<stop  offset="1" style="stop-color:#828E93"/>
				</linearGradient>
				<polygon class="st39" points="305,1445 305,1450 335,1480 335,1475 				"/>
			</g>
			<polygon class="st10" points="382.5,1427.5 412.5,1427.5 427.5,1442.5 397.5,1442.5 			"/>
		</g>
		<g>
			<linearGradient id="SVGID_33_" gradientUnits="userSpaceOnUse" x1="280" y1="1482.5" x2="325" y2="1482.5">
				<stop  offset="0" style="stop-color:#B0C1C6"/>
				<stop  offset="1" style="stop-color:#828E93"/>
			</linearGradient>
			<path class="st40" d="M322.5,1485h-40c-1.38,0-2.5-1.12-2.5-2.5l0,0c0-1.38,1.12-2.5,2.5-2.5h40c1.38,0,2.5,1.12,2.5,2.5l0,0
				C325,1483.88,323.88,1485,322.5,1485z"/>
			<linearGradient id="SVGID_34_" gradientUnits="userSpaceOnUse" x1="260" y1="1487.5" x2="330" y2="1487.5">
				<stop  offset="0" style="stop-color:#3C4044"/>
				<stop  offset="1" style="stop-color:#828E93"/>
			</linearGradient>
			<path class="st41" d="M327.5,1490h-65c-1.38,0-2.5-1.12-2.5-2.5l0,0c0-1.38,1.12-2.5,2.5-2.5h65c1.38,0,2.5,1.12,2.5,2.5l0,0
				C330,1488.88,328.88,1490,327.5,1490z"/>
			<linearGradient id="SVGID_35_" gradientUnits="userSpaceOnUse" x1="260" y1="1492.5" x2="345" y2="1492.5">
				<stop  offset="0" style="stop-color:#3C4044"/>
				<stop  offset="1" style="stop-color:#828E93"/>
			</linearGradient>
			<path class="st42" d="M340,1497.5c0,1.38-1.12,2.5-2.5,2.5H335h-72.5c-1.38,0-2.5-1.12-2.5-2.5l0,0c0-1.38,1.12-2.5,2.5-2.5h70
				c1.38,0,2.5-1.12,2.5-2.5v-5c0-1.38,1.12-2.5,2.5-2.5h5c1.38,0,2.5,1.12,2.5,2.5l0,0c0,1.38-1.12,2.5-2.5,2.5l0,0
				c-1.38,0-2.5,1.12-2.5,2.5V1497.5z"/>
		</g>
		<g>
			<linearGradient id="SVGID_36_" gradientUnits="userSpaceOnUse" x1="297.0233" y1="1482.5" x2="242.0234" y2="1482.5">
				<stop  offset="1.194619e-03" style="stop-color:#E5E5E5"/>
				<stop  offset="1" style="stop-color:#CBCBCB"/>
			</linearGradient>
			<polygon class="st43" points="240,1475 255,1490 295,1490 280,1475 			"/>
			<linearGradient id="SVGID_37_" gradientUnits="userSpaceOnUse" x1="240" y1="1492.5" x2="255" y2="1492.5">
				<stop  offset="1.194619e-03" style="stop-color:#B2B2B2"/>
				<stop  offset="1" style="stop-color:#CBCBCB"/>
			</linearGradient>
			<polygon class="st44" points="240,1495 240,1475 255,1490 255,1510 			"/>
			<rect x="255" y="1490" class="st35" width="40" height="20"/>
		</g>
	</g>
	<g>
		<linearGradient id="SVGID_38_" gradientUnits="userSpaceOnUse" x1="330" y1="1592.5" x2="390" y2="1592.5">
			<stop  offset="0" style="stop-color:#FFFFFF"/>
			<stop  offset="1" style="stop-color:#D1E3E8"/>
		</linearGradient>
		<rect x="330" y="1555" class="st45" width="60" height="75"/>
		<linearGradient id="SVGID_39_" gradientUnits="userSpaceOnUse" x1="390" y1="1592.5" x2="450" y2="1592.5">
			<stop  offset="0" style="stop-color:#FFFFFF"/>
			<stop  offset="1" style="stop-color:#D1E3E8"/>
		</linearGradient>
		<rect x="390" y="1555" class="st46" width="60" height="75"/>
		<linearGradient id="SVGID_40_" gradientUnits="userSpaceOnUse" x1="390" y1="1592.5" x2="395" y2="1592.5">
			<stop  offset="0" style="stop-color:#FFFFFF"/>
			<stop  offset="1" style="stop-color:#D1E3E8"/>
		</linearGradient>
		<rect x="390" y="1555" class="st47" width="5" height="75"/>
		<linearGradient id="SVGID_41_" gradientUnits="userSpaceOnUse" x1="385" y1="1592.5" x2="390" y2="1592.5">
			<stop  offset="0" style="stop-color:#FFFFFF"/>
			<stop  offset="1" style="stop-color:#D1E3E8"/>
		</linearGradient>
		<rect x="385" y="1555" class="st48" width="5" height="75"/>
		<linearGradient id="SVGID_42_" gradientUnits="userSpaceOnUse" x1="330" y1="1592.5" x2="335" y2="1592.5">
			<stop  offset="0" style="stop-color:#FFFFFF"/>
			<stop  offset="1" style="stop-color:#D1E3E8"/>
		</linearGradient>
		<rect x="330" y="1555" class="st49" width="5" height="75"/>
		<linearGradient id="SVGID_43_" gradientUnits="userSpaceOnUse" x1="445" y1="1592.5" x2="450" y2="1592.5">
			<stop  offset="0" style="stop-color:#FFFFFF"/>
			<stop  offset="1" style="stop-color:#D1E3E8"/>
		</linearGradient>
		<rect x="445" y="1555" class="st50" width="5" height="75"/>
	</g>
	<linearGradient id="SVGID_44_" gradientUnits="userSpaceOnUse" x1="470" y1="1610" x2="525" y2="1610">
		<stop  offset="0" style="stop-color:#50565B"/>
		<stop  offset="1" style="stop-color:#3C4044"/>
	</linearGradient>
	<rect x="470" y="1560" class="st51" width="55" height="100"/>
	<linearGradient id="SVGID_45_" gradientUnits="userSpaceOnUse" x1="470" y1="1572.5" x2="525" y2="1572.5">
		<stop  offset="1.472383e-03" style="stop-color:#D1E3E8"/>
		<stop  offset="1" style="stop-color:#B0C1C6"/>
	</linearGradient>
	<rect x="470" y="1565" class="st52" width="55" height="15"/>
	<linearGradient id="SVGID_46_" gradientUnits="userSpaceOnUse" x1="470" y1="1597.5" x2="525" y2="1597.5">
		<stop  offset="1.472383e-03" style="stop-color:#D1E3E8"/>
		<stop  offset="1" style="stop-color:#B0C1C6"/>
	</linearGradient>
	<rect x="470" y="1590" class="st53" width="55" height="15"/>
	<linearGradient id="SVGID_47_" gradientUnits="userSpaceOnUse" x1="470" y1="1622.5" x2="525" y2="1622.5">
		<stop  offset="1.472383e-03" style="stop-color:#D1E3E8"/>
		<stop  offset="1" style="stop-color:#B0C1C6"/>
	</linearGradient>
	<rect x="470" y="1615" class="st54" width="55" height="15"/>
	<linearGradient id="SVGID_48_" gradientUnits="userSpaceOnUse" x1="470" y1="1647.5" x2="525" y2="1647.5">
		<stop  offset="1.472383e-03" style="stop-color:#D1E3E8"/>
		<stop  offset="1" style="stop-color:#B0C1C6"/>
	</linearGradient>
	<rect x="470" y="1640" class="st55" width="55" height="15"/>
	<circle class="st56" cx="517.5" cy="1602.5" r="2.5"/>
	<linearGradient id="SVGID_49_" gradientUnits="userSpaceOnUse" x1="400" y1="1587.5" x2="440" y2="1587.5">
		<stop  offset="0" style="stop-color:#F77A61"/>
		<stop  offset="1" style="stop-color:#C15F4F"/>
	</linearGradient>
	<rect x="400" y="1560" class="st57" width="40" height="55"/>
	<linearGradient id="SVGID_50_" gradientUnits="userSpaceOnUse" x1="255" y1="1582.5" x2="270" y2="1582.5">
		<stop  offset="0" style="stop-color:#E5E5E5"/>
		<stop  offset="1" style="stop-color:#F1F1F1"/>
	</linearGradient>
	<rect x="255" y="1580" class="st58" width="15" height="5"/>
	<linearGradient id="SVGID_51_" gradientUnits="userSpaceOnUse" x1="255" y1="1592.5" x2="270" y2="1592.5">
		<stop  offset="1.194619e-03" style="stop-color:#E5E5E5"/>
		<stop  offset="1" style="stop-color:#CBCBCB"/>
	</linearGradient>
	<rect x="255" y="1590" class="st59" width="15" height="5"/>
	<linearGradient id="SVGID_52_" gradientUnits="userSpaceOnUse" x1="275" y1="1585" x2="290" y2="1585">
		<stop  offset="1.194619e-03" style="stop-color:#E5E5E5"/>
		<stop  offset="1" style="stop-color:#CBCBCB"/>
	</linearGradient>
	<rect x="275" y="1580" class="st60" width="15" height="10"/>
	<linearGradient id="SVGID_53_" gradientUnits="userSpaceOnUse" x1="275" y1="1605" x2="290" y2="1605">
		<stop  offset="1.194619e-03" style="stop-color:#E5E5E5"/>
		<stop  offset="1" style="stop-color:#FFFFFF"/>
	</linearGradient>
	<rect x="275" y="1595" class="st61" width="15" height="20"/>
	<rect x="255" y="1600" class="st0" width="10" height="5"/>
	<rect x="255" y="1610" class="st0" width="15" height="10"/>
	<g>
		<path class="st12" d="M250,1651.25v11.12c0,4.21,3.42,7.63,7.63,7.63h9.74c4.21,0,7.63-3.42,7.63-7.63v-11.12H250z"/>
		<ellipse class="st16" cx="262.5" cy="1650" rx="12.5" ry="6.25"/>
	</g>
	<rect x="305" y="1540" class="st0" width="260" height="15"/>
	<polygon class="st10" points="305,1555 300,1550 300,1535 305,1540 	"/>
	<linearGradient id="SVGID_54_" gradientUnits="userSpaceOnUse" x1="300" y1="1537.5" x2="565" y2="1537.5">
		<stop  offset="0" style="stop-color:#E5E5E5"/>
		<stop  offset="1" style="stop-color:#F1F1F1"/>
	</linearGradient>
	<polygon class="st62" points="300,1535 305,1540 565,1540 560,1535 	"/>
</g>
</svg>
